<svg id="svg" version="1.1" xmlns="http://www.w3.org/2000/svg" xmlns:xlink="http://www.w3.org/1999/xlink" width="400" height="400" viewBox="0, 0, 400,400"><g id="svgg"><path id="path0" d="M107.600 1.546 C 107.270 1.737,105.394 2.011,103.432 2.154 C 101.469 2.298,99.669 2.575,99.432 2.770 C 99.194 2.965,98.143 3.253,97.095 3.409 C 96.047 3.565,95.092 3.852,94.971 4.046 C 94.851 4.241,94.358 4.406,93.876 4.414 C 93.394 4.421,92.280 4.775,91.400 5.200 C 90.520 5.625,89.575 5.979,89.300 5.986 C 89.025 5.994,88.800 6.180,88.800 6.400 C 88.800 6.620,88.536 6.800,88.212 6.800 C 87.506 6.800,84.255 8.433,84.067 8.882 C 83.993 9.057,83.725 9.200,83.470 9.200 C 82.732 9.200,77.976 12.544,75.931 14.500 C 75.529 14.885,75.053 15.200,74.873 15.200 C 73.634 15.200,65.107 25.324,62.577 29.800 C 60.373 33.698,59.177 36.110,59.358 36.291 C 59.476 36.410,59.220 36.957,58.787 37.508 C 58.354 38.058,58.000 38.850,58.000 39.268 C 58.000 39.686,57.729 40.441,57.399 40.946 C 57.068 41.450,56.824 42.299,56.855 42.832 C 56.887 43.364,56.619 44.340,56.259 45.000 C 55.899 45.660,55.604 47.109,55.602 48.220 C 55.601 49.331,55.375 50.465,55.100 50.740 C 54.333 51.507,54.397 66.647,55.173 68.000 C 55.489 68.550,55.699 69.684,55.641 70.520 C 55.583 71.357,55.752 72.302,56.017 72.620 C 56.281 72.939,56.376 73.200,56.226 73.200 C 56.077 73.200,56.215 73.572,56.533 74.026 C 56.851 74.480,57.021 75.200,56.909 75.625 C 56.798 76.051,56.998 76.843,57.354 77.385 C 57.709 77.928,58.000 78.815,58.000 79.357 C 58.000 79.899,58.270 80.613,58.600 80.943 C 58.930 81.273,59.200 81.821,59.200 82.161 C 59.200 82.502,59.861 83.999,60.669 85.490 C 61.478 86.980,62.333 88.560,62.569 89.000 C 63.694 91.090,66.574 95.140,66.825 94.985 C 66.980 94.889,67.319 95.322,67.579 95.948 C 68.360 97.834,78.421 107.200,79.666 107.200 C 80.101 107.200,80.101 108.293,79.666 108.467 C 79.261 108.629,75.991 115.409,75.774 116.537 C 75.688 116.979,75.406 117.473,75.145 117.634 C 74.885 117.795,74.647 118.266,74.616 118.681 C 74.586 119.096,74.254 119.873,73.880 120.407 C 73.506 120.941,73.200 121.704,73.200 122.103 C 73.200 122.502,72.906 123.277,72.546 123.827 C 72.186 124.376,72.004 124.937,72.141 125.074 C 72.277 125.211,72.017 125.925,71.562 126.662 C 71.106 127.399,70.815 128.226,70.915 128.501 C 71.014 128.775,70.821 129.315,70.486 129.700 C 70.151 130.084,69.841 130.987,69.798 131.705 C 69.754 132.423,69.422 133.585,69.059 134.286 C 68.697 134.987,68.400 136.073,68.400 136.700 C 68.400 137.327,68.203 138.037,67.961 138.279 C 67.720 138.520,67.365 139.771,67.173 141.059 C 66.498 145.577,65.941 148.612,65.553 149.882 C 64.444 153.511,63.527 180.313,64.365 184.600 C 64.580 185.700,64.932 188.220,65.146 190.200 C 65.743 195.727,66.617 200.539,67.049 200.683 C 67.263 200.754,67.366 201.429,67.278 202.183 C 67.188 202.952,67.399 204.116,67.759 204.838 C 68.112 205.545,68.400 206.599,68.400 207.181 C 68.400 207.764,68.616 208.456,68.880 208.720 C 69.144 208.984,69.228 209.200,69.066 209.200 C 68.904 209.200,68.994 209.605,69.266 210.100 C 69.537 210.595,69.716 211.368,69.662 211.818 C 69.608 212.268,69.907 213.032,70.327 213.516 C 70.785 214.044,71.018 214.770,70.910 215.335 C 70.808 215.871,71.003 216.546,71.365 216.908 C 71.714 217.257,72.000 217.981,72.000 218.517 C 72.000 219.054,72.354 219.942,72.787 220.492 C 73.220 221.043,73.465 221.601,73.333 221.734 C 73.200 221.867,73.404 222.452,73.786 223.035 C 74.168 223.618,74.532 224.562,74.595 225.132 C 74.657 225.703,74.909 226.236,75.154 226.318 C 75.399 226.400,75.600 226.735,75.600 227.062 C 75.600 227.788,80.441 237.746,80.884 237.933 C 81.058 238.007,81.200 238.253,81.200 238.481 C 81.200 238.972,83.937 243.567,84.682 244.329 C 84.967 244.619,85.200 245.071,85.200 245.333 C 85.200 245.594,85.650 246.293,86.200 246.887 C 86.750 247.480,87.200 248.125,87.200 248.321 C 87.200 248.517,87.580 249.110,88.044 249.639 C 88.508 250.167,89.481 251.522,90.207 252.650 C 90.932 253.777,91.864 255.037,92.277 255.450 C 92.690 255.862,93.824 257.255,94.797 258.544 C 96.518 260.826,108.800 273.614,108.800 273.125 C 108.800 272.990,109.565 273.631,110.500 274.548 C 112.405 276.416,117.416 280.476,119.697 282.000 C 120.521 282.550,121.196 283.135,121.197 283.300 C 121.199 283.465,121.448 283.600,121.751 283.600 C 122.054 283.600,122.524 283.868,122.796 284.196 C 123.068 284.523,123.435 284.702,123.611 284.593 C 123.787 284.484,123.992 284.531,124.066 284.698 C 124.227 285.061,126.755 286.947,127.600 287.334 C 127.930 287.485,128.740 287.965,129.400 288.400 C 130.060 288.835,130.870 289.318,131.200 289.473 C 131.530 289.628,132.038 289.990,132.329 290.278 C 132.619 290.565,133.092 290.800,133.380 290.800 C 133.667 290.800,134.126 291.070,134.400 291.400 C 134.674 291.730,135.236 292.000,135.649 292.000 C 136.062 292.000,136.400 292.177,136.400 292.392 C 136.400 292.608,136.893 292.909,137.496 293.060 C 138.099 293.211,138.832 293.575,139.125 293.867 C 139.418 294.160,139.927 294.400,140.257 294.400 C 140.587 294.400,141.127 294.670,141.457 295.000 C 141.787 295.330,142.404 295.600,142.829 295.600 C 143.253 295.600,143.600 295.799,143.600 296.043 C 143.600 296.286,143.870 296.382,144.200 296.255 C 144.530 296.129,144.800 296.199,144.800 296.413 C 144.800 296.626,145.055 296.800,145.368 296.800 C 145.680 296.800,146.535 297.100,147.268 297.468 C 149.443 298.558,149.767 298.685,151.109 298.980 C 151.814 299.135,152.494 299.428,152.619 299.631 C 152.745 299.834,153.152 300.006,153.524 300.014 C 153.896 300.021,154.868 300.343,155.684 300.730 L 157.169 301.433 155.774 303.017 C 150.644 308.841,141.574 317.200,140.383 317.200 C 139.619 317.200,134.094 314.949,133.318 314.321 C 133.052 314.107,132.652 314.044,132.428 314.183 C 132.204 314.321,131.707 314.066,131.322 313.617 C 130.937 313.168,130.324 312.800,129.960 312.800 C 129.596 312.800,129.067 312.522,128.785 312.182 C 128.503 311.842,128.048 311.650,127.773 311.755 C 127.499 311.860,126.955 311.592,126.563 311.159 C 126.171 310.726,125.629 310.457,125.358 310.561 C 125.088 310.665,124.777 310.517,124.668 310.233 C 124.559 309.950,123.779 309.353,122.935 308.908 C 119.527 307.109,118.592 306.591,118.400 306.391 C 117.858 305.824,115.999 304.820,115.994 305.091 C 115.991 305.261,115.856 305.219,115.694 304.998 C 115.297 304.455,112.521 302.400,112.184 302.400 C 112.036 302.400,111.233 301.860,110.400 301.200 C 109.567 300.540,108.686 300.000,108.442 300.000 C 108.199 300.000,108.000 299.842,108.000 299.649 C 108.000 299.456,106.970 298.601,105.712 297.749 C 104.453 296.897,103.058 295.830,102.612 295.379 C 102.165 294.927,100.630 293.670,99.200 292.585 C 95.822 290.023,81.653 275.868,78.593 272.000 C 73.069 265.016,71.537 264.000,66.528 264.000 C 61.911 264.000,59.174 265.418,56.879 269.000 C 55.797 270.688,55.082 278.800,56.015 278.800 C 56.227 278.800,56.363 278.935,56.318 279.100 C 56.076 279.982,59.654 285.012,60.162 284.504 C 60.293 284.374,60.400 284.503,60.400 284.792 C 60.400 286.162,82.811 309.722,83.479 309.054 C 83.572 308.961,84.057 309.271,84.555 309.742 C 86.767 311.835,95.705 318.800,96.178 318.800 C 96.297 318.800,96.800 319.153,97.297 319.585 C 97.794 320.017,98.360 320.362,98.555 320.351 C 98.751 320.340,99.021 320.483,99.155 320.668 C 99.550 321.211,102.400 323.263,102.400 323.005 C 102.400 322.875,102.768 323.112,103.219 323.531 C 103.669 323.951,104.701 324.633,105.512 325.047 C 106.324 325.461,107.228 326.025,107.522 326.300 C 107.817 326.575,108.314 326.800,108.629 326.800 C 108.943 326.800,109.200 326.977,109.200 327.192 C 109.200 327.408,109.650 327.698,110.200 327.836 C 110.750 327.974,111.200 328.230,111.200 328.404 C 111.200 328.579,111.695 328.919,112.300 329.161 C 112.905 329.403,113.985 329.957,114.700 330.392 C 115.415 330.828,116.003 331.052,116.006 330.892 C 116.009 330.731,116.144 330.792,116.306 331.028 C 116.642 331.516,122.416 334.413,122.955 334.364 C 123.151 334.346,123.421 334.482,123.555 334.666 C 123.933 335.182,125.525 336.000,126.150 336.000 C 126.459 336.000,127.123 336.334,127.627 336.741 C 128.388 337.358,128.817 337.420,130.171 337.111 C 132.437 336.594,133.987 336.926,136.038 338.368 C 138.726 340.256,141.744 340.750,144.657 339.776 C 147.053 338.975,148.196 338.112,155.200 331.815 C 157.290 329.936,160.348 327.274,161.995 325.899 C 170.258 319.004,183.524 302.770,185.056 297.679 C 186.099 294.213,184.645 289.542,181.862 287.421 C 180.663 286.506,179.520 286.140,173.000 284.578 C 131.740 274.696,99.425 243.522,88.228 202.800 C 79.905 172.532,84.419 138.984,100.310 113.000 C 104.368 106.364,104.510 106.036,104.529 103.200 C 104.558 98.923,102.818 96.620,97.730 94.205 C 65.492 78.903,67.470 34.827,100.913 23.309 C 120.129 16.691,144.214 29.945,148.326 49.400 C 148.558 50.500,149.039 52.782,149.395 54.472 C 150.135 57.986,151.098 59.624,153.503 61.458 C 156.381 63.654,157.996 63.648,165.600 61.414 C 189.648 54.350,211.531 54.425,235.155 61.651 C 244.413 64.483,248.487 62.123,250.417 52.812 C 255.694 27.346,282.816 14.040,305.200 25.936 C 333.483 40.966,331.892 79.584,302.400 93.916 C 293.774 98.108,293.283 102.057,300.001 113.200 C 302.681 117.646,306.110 124.648,308.032 129.600 C 313.521 143.745,316.645 162.150,315.850 175.669 C 315.314 184.800,314.906 189.054,314.464 190.126 C 314.209 190.745,313.994 192.095,313.986 193.126 C 313.978 194.157,313.714 195.450,313.400 196.000 C 313.086 196.550,312.822 197.516,312.814 198.146 C 312.806 198.777,312.539 200.127,312.221 201.146 C 311.902 202.166,311.337 204.080,310.965 205.400 C 310.592 206.720,310.152 208.160,309.986 208.600 C 309.820 209.040,309.373 210.300,308.992 211.400 C 306.993 217.167,303.251 224.949,299.311 231.531 C 282.125 260.243,252.211 280.976,220.200 286.362 C 218.880 286.585,216.755 286.946,215.477 287.166 C 203.515 289.224,204.159 304.628,216.228 305.139 L 219.521 305.279 223.786 310.647 C 230.075 318.562,236.358 324.607,251.476 337.285 C 255.364 340.546,258.713 340.719,264.063 337.935 C 266.235 336.805,266.621 336.731,268.996 336.985 C 270.935 337.192,271.849 337.114,272.687 336.666 C 274.417 335.742,276.675 334.800,277.160 334.800 C 277.402 334.800,277.600 334.634,277.600 334.432 C 277.600 334.229,278.140 333.945,278.800 333.800 C 279.460 333.655,280.000 333.371,280.000 333.168 C 280.000 332.966,280.347 332.800,280.771 332.800 C 281.196 332.800,281.783 332.575,282.078 332.300 C 282.372 332.025,283.329 331.465,284.206 331.056 C 285.083 330.647,286.070 330.151,286.400 329.955 C 286.730 329.759,287.360 329.416,287.800 329.193 C 288.240 328.970,289.140 328.433,289.800 328.000 C 290.460 327.567,291.360 327.027,291.800 326.800 C 292.240 326.573,293.140 326.033,293.800 325.600 C 294.460 325.167,295.360 324.649,295.800 324.449 C 296.941 323.933,300.944 321.153,301.294 320.635 C 301.468 320.377,301.593 320.363,301.600 320.600 C 301.608 320.867,301.710 320.867,301.906 320.600 C 302.068 320.380,303.235 319.503,304.500 318.651 C 305.765 317.799,306.800 316.944,306.800 316.751 C 306.800 316.558,306.985 316.400,307.210 316.400 C 307.752 316.400,311.600 313.520,311.600 313.115 C 311.600 312.942,311.855 312.800,312.167 312.800 C 312.478 312.800,312.793 312.662,312.867 312.493 C 312.940 312.324,313.895 311.469,314.988 310.593 C 318.291 307.947,318.400 307.841,318.400 307.287 C 318.400 306.993,318.539 306.838,318.708 306.943 C 319.244 307.275,329.181 297.892,332.800 293.636 C 334.717 291.383,335.374 290.636,337.618 288.163 C 338.399 287.303,339.479 285.978,340.018 285.217 C 340.558 284.456,341.675 283.115,342.500 282.236 C 343.325 281.358,344.000 280.429,344.000 280.173 C 344.000 279.917,344.349 279.265,344.775 278.723 C 345.929 277.256,345.847 270.854,344.645 268.649 C 343.732 266.972,342.000 264.865,342.000 265.431 C 342.000 265.622,341.720 265.378,341.377 264.889 C 341.035 264.400,340.427 264.000,340.026 264.000 C 339.626 264.000,339.087 263.746,338.829 263.435 C 338.167 262.637,331.420 262.637,330.622 263.435 C 330.311 263.746,329.838 264.000,329.570 264.000 C 328.779 264.000,325.600 266.797,325.600 267.493 C 325.600 267.845,325.489 268.022,325.353 267.887 C 325.218 267.751,323.930 269.116,322.493 270.920 C 321.055 272.724,319.632 274.346,319.331 274.525 C 319.030 274.703,318.888 275.018,319.015 275.225 C 319.143 275.431,319.082 275.600,318.880 275.600 C 318.678 275.600,316.822 277.328,314.756 279.440 C 312.690 281.553,309.833 284.388,308.408 285.740 C 306.982 287.093,304.867 289.129,303.708 290.265 C 302.548 291.401,301.600 292.241,301.600 292.132 C 301.600 291.888,298.500 294.300,297.400 295.400 C 296.960 295.840,295.565 296.897,294.300 297.749 C 293.035 298.601,292.000 299.456,292.000 299.649 C 292.000 299.842,291.801 300.000,291.558 300.000 C 291.314 300.000,290.433 300.540,289.600 301.200 C 288.767 301.860,287.964 302.400,287.816 302.400 C 287.501 302.400,284.714 304.439,284.355 304.932 C 284.221 305.117,283.991 305.244,283.844 305.215 C 283.387 305.123,280.400 306.929,280.400 307.297 C 280.400 307.490,280.247 307.553,280.061 307.437 C 279.874 307.322,279.334 307.588,278.861 308.029 C 278.387 308.470,278.000 308.738,278.000 308.624 C 278.000 308.510,277.415 308.770,276.700 309.203 C 275.985 309.636,275.033 310.154,274.584 310.353 C 274.135 310.553,273.536 310.995,273.254 311.335 C 272.972 311.674,272.486 311.854,272.174 311.735 C 271.862 311.615,271.496 311.806,271.361 312.158 C 271.225 312.511,270.693 312.800,270.177 312.800 C 269.662 312.800,269.076 313.093,268.875 313.452 C 268.674 313.811,268.170 314.131,267.755 314.164 C 267.094 314.216,263.507 315.744,261.505 316.825 C 259.094 318.127,257.129 316.601,245.100 304.085 C 242.556 301.438,242.434 301.200,243.613 301.200 C 244.059 301.200,244.512 300.975,244.617 300.700 C 244.723 300.425,245.279 300.173,245.852 300.139 C 246.807 300.084,249.175 299.248,250.895 298.359 C 251.277 298.162,251.862 298.000,252.195 298.000 C 252.528 298.000,252.800 297.826,252.800 297.613 C 252.800 297.399,253.070 297.329,253.400 297.455 C 253.730 297.582,254.000 297.486,254.000 297.243 C 254.000 296.999,254.198 296.800,254.440 296.800 C 254.906 296.800,257.394 295.778,258.400 295.173 C 258.730 294.974,259.585 294.548,260.300 294.226 C 261.015 293.904,261.600 293.468,261.600 293.258 C 261.600 293.047,261.958 292.968,262.395 293.083 C 262.899 293.215,263.281 293.055,263.438 292.645 C 263.574 292.290,264.013 292.000,264.414 292.000 C 264.815 292.000,265.384 291.775,265.679 291.500 C 265.973 291.225,267.066 290.554,268.107 290.008 C 269.148 289.463,270.000 288.878,270.000 288.708 C 270.000 288.539,270.257 288.400,270.571 288.400 C 270.886 288.400,271.388 288.175,271.688 287.900 C 272.485 287.170,273.699 286.411,274.500 286.142 C 274.885 286.012,275.200 285.647,275.200 285.330 C 275.200 285.012,275.380 284.864,275.600 285.000 C 275.820 285.136,276.000 285.046,276.000 284.800 C 276.000 284.554,276.160 284.451,276.355 284.572 C 276.550 284.693,276.932 284.523,277.204 284.196 C 277.476 283.868,277.946 283.600,278.249 283.600 C 278.552 283.600,278.801 283.465,278.803 283.300 C 278.804 283.135,279.479 282.552,280.303 282.004 C 281.126 281.456,281.890 280.916,282.000 280.804 C 282.201 280.599,285.737 277.763,286.735 277.006 C 287.030 276.783,288.155 275.774,289.235 274.764 C 290.316 273.753,291.200 272.988,291.200 273.064 C 291.200 273.139,291.560 272.840,292.000 272.400 C 292.440 271.960,292.800 271.409,292.800 271.176 C 292.800 270.943,292.982 270.865,293.203 271.002 C 293.425 271.139,293.774 270.835,293.978 270.326 C 294.182 269.817,294.361 269.561,294.375 269.757 C 294.397 270.073,296.196 268.284,302.174 262.000 C 303.116 261.010,304.584 259.300,305.437 258.200 C 306.289 257.100,307.485 255.671,308.093 255.024 C 308.702 254.377,309.200 253.689,309.200 253.494 C 309.200 253.299,309.985 252.118,310.944 250.870 C 311.903 249.621,313.289 247.610,314.024 246.400 C 314.759 245.190,315.476 244.110,315.618 244.000 C 315.760 243.890,316.129 243.316,316.438 242.724 C 316.747 242.133,317.675 240.461,318.500 239.010 C 319.325 237.560,320.000 236.098,320.000 235.763 C 320.000 235.427,320.162 235.253,320.361 235.376 C 320.700 235.585,321.782 233.352,321.657 232.700 C 321.626 232.535,321.759 232.400,321.953 232.400 C 322.148 232.400,322.438 231.995,322.600 231.500 C 322.987 230.309,322.872 230.578,324.349 227.400 C 326.498 222.776,326.844 221.910,326.630 221.697 C 326.518 221.585,326.780 221.043,327.213 220.492 C 327.646 219.942,328.000 218.998,328.000 218.395 C 328.000 217.792,328.258 217.084,328.573 216.823 C 328.887 216.561,329.130 215.834,329.113 215.205 C 329.095 214.577,329.377 213.766,329.740 213.403 C 330.103 213.040,330.400 212.162,330.400 211.451 C 330.400 210.741,330.607 209.953,330.860 209.700 C 331.114 209.446,331.359 208.609,331.406 207.838 C 331.453 207.068,331.801 205.784,332.180 204.985 C 332.559 204.186,332.770 203.136,332.648 202.651 C 332.527 202.166,332.690 201.262,333.011 200.643 C 333.333 200.024,333.496 199.355,333.374 199.158 C 333.252 198.961,333.356 198.800,333.605 198.800 C 333.899 198.800,334.023 198.037,333.957 196.627 C 333.897 195.321,334.059 194.211,334.363 193.845 C 334.641 193.509,334.760 193.060,334.628 192.845 C 334.495 192.631,334.587 192.331,334.832 192.180 C 335.116 192.005,335.231 190.795,335.149 188.852 C 335.060 186.741,335.196 185.492,335.590 184.800 C 336.385 183.405,336.381 161.612,335.586 159.800 C 335.262 159.063,335.101 157.434,335.167 155.577 C 335.244 153.407,335.081 152.108,334.589 150.977 C 334.206 150.094,333.937 148.581,333.979 147.541 C 334.021 146.518,333.860 145.560,333.621 145.413 C 333.382 145.265,333.295 144.969,333.428 144.755 C 333.560 144.540,333.445 144.095,333.170 143.764 C 332.896 143.434,332.696 142.532,332.725 141.759 C 332.754 140.987,332.441 139.728,332.030 138.961 C 331.620 138.195,331.370 137.236,331.476 136.830 C 331.582 136.425,331.352 135.487,330.964 134.747 C 330.576 134.006,330.292 132.928,330.332 132.351 C 330.372 131.774,330.134 131.077,329.802 130.802 C 329.471 130.527,329.200 129.818,329.200 129.227 C 329.200 128.636,328.936 127.804,328.613 127.376 C 328.290 126.949,328.020 126.178,328.013 125.663 C 328.006 125.148,327.642 124.272,327.205 123.716 C 326.768 123.161,326.501 122.559,326.612 122.380 C 326.811 122.058,326.620 121.553,324.625 117.125 C 324.061 115.873,323.600 114.658,323.600 114.425 C 323.600 114.191,323.420 114.000,323.200 114.000 C 322.980 114.000,322.826 113.865,322.857 113.700 C 322.965 113.134,321.922 110.800,321.561 110.800 C 321.362 110.800,321.200 110.453,321.200 110.029 C 321.200 109.604,320.930 108.987,320.600 108.657 C 319.798 107.855,319.844 107.304,320.735 107.021 C 321.139 106.892,322.032 106.295,322.720 105.694 C 323.407 105.092,324.520 104.172,325.192 103.649 C 326.923 102.303,330.716 98.462,331.954 96.803 C 332.529 96.031,333.254 95.133,333.565 94.807 C 334.062 94.285,336.260 91.024,337.396 89.124 C 338.846 86.698,340.772 82.678,340.610 82.416 C 340.504 82.244,340.773 81.692,341.208 81.190 C 341.644 80.688,342.000 79.787,342.000 79.188 C 342.000 78.588,342.252 77.889,342.560 77.633 C 342.868 77.378,343.120 76.567,343.120 75.831 C 343.120 75.096,343.429 74.022,343.806 73.446 C 344.231 72.799,344.412 71.979,344.281 71.299 C 344.164 70.695,344.413 69.216,344.834 68.014 C 345.873 65.048,345.965 52.902,344.963 51.000 C 344.614 50.338,344.339 48.883,344.349 47.755 C 344.360 46.573,344.127 45.391,343.797 44.955 C 343.483 44.540,343.219 43.660,343.210 43.000 C 343.202 42.340,342.857 41.288,342.445 40.662 C 342.032 40.037,341.776 39.214,341.875 38.834 C 341.974 38.455,341.773 37.910,341.428 37.623 C 341.083 37.337,340.800 36.788,340.800 36.405 C 340.800 36.022,340.432 35.240,339.982 34.668 C 339.532 34.096,339.202 33.517,339.248 33.380 C 339.424 32.858,336.975 28.433,336.500 28.417 C 336.225 28.408,336.000 28.124,336.000 27.786 C 336.000 27.120,335.164 25.725,333.765 24.055 C 329.444 18.898,328.436 17.813,328.047 17.900 C 327.801 17.955,327.645 17.852,327.700 17.671 C 327.755 17.489,326.900 16.587,325.800 15.665 C 324.700 14.744,323.530 13.742,323.200 13.439 C 321.890 12.239,317.157 9.200,316.596 9.200 C 316.268 9.200,316.000 9.032,316.000 8.827 C 316.000 8.622,315.595 8.330,315.100 8.180 C 314.605 8.029,313.892 7.635,313.515 7.304 C 313.138 6.974,312.568 6.803,312.248 6.926 C 311.928 7.049,311.563 6.879,311.436 6.549 C 311.309 6.219,311.024 6.061,310.803 6.198 C 310.581 6.335,310.400 6.257,310.400 6.024 C 310.400 5.791,310.076 5.600,309.680 5.600 C 309.284 5.600,308.789 5.446,308.580 5.258 C 308.094 4.820,304.675 3.746,302.600 3.379 C 301.720 3.223,300.813 2.949,300.585 2.769 C 298.598 1.207,276.135 1.205,274.235 2.768 C 273.996 2.964,272.943 3.253,271.895 3.409 C 270.847 3.565,269.892 3.852,269.771 4.046 C 269.651 4.241,269.158 4.406,268.676 4.414 C 268.194 4.421,267.080 4.775,266.200 5.200 C 265.320 5.625,264.369 5.979,264.087 5.986 C 263.806 5.994,263.479 6.250,263.362 6.556 C 263.244 6.861,262.827 7.028,262.434 6.925 C 262.041 6.822,261.467 6.987,261.160 7.291 C 260.852 7.596,260.256 7.975,259.835 8.135 C 258.817 8.521,253.436 12.084,253.267 12.485 C 253.193 12.658,252.952 12.800,252.731 12.800 C 252.085 12.800,246.800 17.790,246.800 18.400 C 246.800 18.620,246.626 18.800,246.413 18.800 C 245.636 18.800,240.800 24.240,240.800 25.115 C 240.800 25.335,240.570 25.603,240.288 25.711 C 240.006 25.819,239.421 26.603,238.988 27.454 C 238.555 28.304,238.086 29.090,237.946 29.200 C 237.453 29.588,234.800 34.774,234.800 35.350 C 234.800 35.671,234.599 36.000,234.354 36.082 C 234.109 36.164,233.852 36.744,233.783 37.372 C 233.582 39.203,232.890 39.610,230.800 39.129 C 229.810 38.900,227.932 38.625,226.626 38.517 C 225.320 38.410,223.880 38.092,223.426 37.812 C 222.969 37.529,221.204 37.275,219.474 37.243 C 217.516 37.206,216.018 36.968,215.468 36.608 C 214.181 35.764,185.838 35.752,184.552 36.594 C 184.016 36.946,182.380 37.194,180.200 37.254 C 177.966 37.316,176.518 37.539,176.182 37.875 C 175.893 38.164,174.824 38.400,173.805 38.400 C 172.672 38.400,172.049 38.555,172.200 38.800 C 172.336 39.020,172.167 39.200,171.824 39.200 C 171.481 39.200,171.197 38.975,171.194 38.700 C 171.190 38.354,171.097 38.335,170.894 38.640 C 170.168 39.729,166.653 39.076,166.370 37.800 C 166.223 37.140,165.811 36.060,165.454 35.400 C 165.097 34.740,164.804 33.984,164.802 33.720 C 164.801 33.456,164.485 33.056,164.100 32.832 C 163.715 32.608,163.539 32.419,163.708 32.412 C 164.159 32.394,160.777 26.320,159.738 25.281 C 159.442 24.985,159.200 24.566,159.200 24.350 C 159.200 23.790,148.193 12.800,147.632 12.800 C 147.376 12.800,146.949 12.617,146.683 12.393 C 144.948 10.929,144.293 10.473,142.930 9.779 C 142.089 9.351,141.310 8.896,141.200 8.768 C 140.750 8.246,136.018 6.227,135.500 6.336 C 135.335 6.371,135.200 6.220,135.200 6.000 C 135.200 5.780,134.851 5.600,134.424 5.600 C 133.997 5.600,133.534 5.417,133.396 5.193 C 133.258 4.970,132.977 4.891,132.772 5.017 C 132.568 5.144,132.400 5.057,132.400 4.824 C 132.400 4.591,131.871 4.400,131.224 4.400 C 130.577 4.400,129.942 4.230,129.814 4.023 C 129.686 3.816,128.731 3.523,127.691 3.372 C 126.651 3.221,125.481 2.932,125.091 2.730 C 123.370 1.837,108.802 0.852,107.600 1.546 M109.000 51.183 C 103.106 53.858,101.788 61.456,106.451 65.880 C 111.490 70.660,119.569 68.200,121.203 61.387 C 122.875 54.418,115.486 48.239,109.000 51.183 M283.642 51.454 C 279.884 53.326,277.886 57.388,278.815 61.262 C 280.481 68.207,288.829 70.725,293.740 65.762 C 300.839 58.590,292.639 46.971,283.642 51.454 M159.200 125.862 C 149.568 129.049,147.367 141.673,155.470 147.248 C 165.963 154.467,178.848 143.430,173.177 132.080 C 170.700 127.124,164.168 124.218,159.200 125.862 M232.559 126.534 C 222.731 131.227,223.464 145.689,233.694 148.914 C 247.633 153.308,255.916 134.314,243.288 126.913 C 240.579 125.326,235.468 125.145,232.559 126.534 M196.695 163.968 C 187.493 168.264,191.079 181.300,201.178 180.265 C 206.521 179.717,210.052 174.060,208.141 169.108 C 206.295 164.325,201.011 161.952,196.695 163.968 M172.079 232.302 C 163.695 236.798,166.175 245.910,177.524 252.315 C 189.428 259.032,201.637 260.668,206.153 256.153 C 212.126 250.180,207.434 241.191,198.346 241.198 C 193.097 241.202,186.693 238.498,182.249 234.402 C 179.215 231.606,175.000 230.735,172.079 232.302 M44.400 232.778 C 44.400 233.036,44.232 233.144,44.028 233.017 C 43.823 232.891,43.542 232.970,43.404 233.193 C 43.266 233.417,42.816 233.600,42.405 233.600 C 41.994 233.600,41.416 233.842,41.120 234.137 C 40.825 234.432,40.196 234.881,39.722 235.135 C 36.693 236.756,34.543 246.143,36.705 248.305 C 37.115 248.715,37.383 249.251,37.301 249.496 C 37.117 250.050,40.786 253.671,41.344 253.485 C 41.567 253.411,42.064 253.664,42.448 254.048 C 45.382 256.982,55.940 252.965,57.064 248.488 C 57.207 247.919,57.565 246.991,57.859 246.427 C 58.819 244.588,58.285 240.000,57.112 240.000 C 56.915 240.000,56.866 239.817,57.005 239.593 C 57.592 238.642,53.478 233.916,51.965 233.805 C 51.581 233.776,50.960 233.498,50.584 233.187 C 49.705 232.457,44.400 232.107,44.400 232.778 M349.854 233.002 C 349.224 233.331,348.451 233.600,348.137 233.600 C 347.493 233.600,343.021 237.954,343.338 238.272 C 343.451 238.384,343.193 239.101,342.764 239.864 C 342.335 240.627,342.081 241.408,342.199 241.598 C 342.317 241.789,342.230 242.058,342.007 242.196 C 341.491 242.514,341.472 245.074,341.983 245.389 C 342.193 245.519,342.271 245.872,342.155 246.172 C 342.040 246.473,342.138 246.838,342.373 246.983 C 342.608 247.128,342.800 247.597,342.800 248.024 C 342.800 248.451,342.991 248.800,343.224 248.800 C 343.457 248.800,343.546 248.963,343.423 249.163 C 343.082 249.715,346.375 252.902,348.346 253.927 C 352.935 256.314,362.800 253.213,362.800 249.385 C 362.800 249.117,363.050 248.690,363.356 248.436 C 364.702 247.319,364.195 240.230,362.597 237.823 C 361.050 235.491,358.884 233.608,357.727 233.587 C 357.327 233.580,356.651 233.310,356.224 232.987 C 355.204 232.216,351.344 232.226,349.854 233.002 M48.600 315.095 C 47.940 315.192,47.220 315.418,47.000 315.598 C 46.780 315.778,45.743 316.053,44.695 316.209 C 43.647 316.365,42.692 316.652,42.571 316.846 C 42.451 317.041,41.953 317.200,41.465 317.200 C 40.977 317.200,40.223 317.446,39.789 317.746 C 39.355 318.046,38.560 318.430,38.022 318.598 C 36.853 318.963,33.056 321.236,32.867 321.684 C 32.793 321.858,32.513 322.000,32.244 322.000 C 31.272 322.000,24.400 328.275,24.400 329.163 C 24.400 329.429,24.260 329.561,24.089 329.455 C 23.918 329.349,23.153 330.154,22.389 331.244 C 21.625 332.333,20.790 333.461,20.534 333.750 C 20.045 334.300,17.290 339.623,16.781 341.000 C 14.545 347.043,14.280 348.701,14.279 356.600 C 14.279 363.344,14.719 366.992,15.832 369.460 C 16.144 370.154,16.400 370.921,16.400 371.166 C 16.400 371.411,16.569 371.923,16.775 372.305 C 16.981 372.687,17.563 373.900,18.069 375.000 C 19.820 378.810,25.016 385.818,27.525 387.754 C 28.116 388.210,28.807 388.767,29.060 388.991 C 31.371 391.047,33.536 392.547,34.900 393.040 C 35.285 393.179,35.600 393.452,35.600 393.647 C 35.600 393.841,35.805 394.000,36.056 394.000 C 36.307 394.000,37.252 394.345,38.156 394.768 C 39.890 395.577,41.222 396.108,41.667 396.165 C 41.813 396.184,42.068 396.335,42.233 396.500 C 42.398 396.665,42.943 396.800,43.443 396.800 C 43.943 396.800,44.472 396.992,44.617 397.227 C 44.762 397.462,45.133 397.558,45.440 397.440 C 45.748 397.322,46.000 397.413,46.000 397.642 C 46.000 397.887,46.785 398.018,47.900 397.960 C 48.945 397.905,50.193 398.072,50.674 398.330 C 51.878 398.977,95.673 399.003,96.880 398.357 C 97.335 398.114,98.592 397.885,99.673 397.849 C 100.755 397.813,101.766 397.591,101.920 397.355 C 102.074 397.119,102.770 396.815,103.467 396.679 C 104.729 396.434,108.880 394.117,109.133 393.516 C 109.207 393.342,109.494 393.200,109.772 393.200 C 110.974 393.200,114.193 389.714,113.624 389.029 C 112.974 388.246,113.391 387.125,115.170 384.870 C 122.707 375.322,122.276 360.031,114.200 350.400 C 112.560 348.444,112.379 348.038,112.575 346.746 C 112.791 345.315,110.618 342.715,109.849 343.484 C 109.712 343.621,109.600 343.521,109.600 343.262 C 109.600 343.002,108.655 342.158,107.500 341.386 C 106.345 340.614,104.410 339.252,103.200 338.361 C 101.990 337.470,100.280 336.259,99.400 335.670 C 98.520 335.082,97.467 334.299,97.059 333.932 C 96.652 333.565,95.527 332.764,94.559 332.152 C 93.592 331.541,92.800 330.896,92.800 330.720 C 92.800 330.544,92.552 330.400,92.249 330.400 C 91.946 330.400,91.470 330.126,91.192 329.790 C 90.914 329.455,90.606 329.260,90.509 329.358 C 90.412 329.455,89.680 328.919,88.883 328.167 C 88.086 327.415,87.277 326.800,87.086 326.800 C 86.895 326.800,85.687 325.990,84.400 325.000 C 83.113 324.010,81.966 323.200,81.851 323.200 C 81.736 323.200,81.151 322.746,80.552 322.190 C 79.953 321.635,79.043 321.076,78.531 320.947 C 78.019 320.818,77.600 320.542,77.600 320.333 C 77.600 320.124,77.435 320.055,77.234 320.179 C 77.033 320.303,76.808 320.269,76.734 320.102 C 76.514 319.605,71.647 317.200,70.861 317.200 C 70.461 317.200,69.998 317.065,69.834 316.900 C 69.552 316.619,67.485 316.036,63.800 315.198 C 62.209 314.837,50.892 314.760,48.600 315.095 M335.200 315.072 C 334.430 315.174,333.629 315.424,333.420 315.629 C 333.211 315.833,332.746 316.000,332.387 316.000 C 331.504 316.000,326.250 317.651,326.000 318.008 C 325.890 318.164,325.350 318.431,324.800 318.600 C 324.250 318.769,323.710 319.019,323.600 319.154 C 323.490 319.289,322.690 319.760,321.821 320.200 C 320.346 320.948,316.487 323.603,313.845 325.688 C 313.210 326.190,312.490 326.673,312.245 326.761 C 312.000 326.850,310.779 327.705,309.530 328.661 C 308.282 329.618,307.067 330.400,306.830 330.400 C 306.594 330.400,306.400 330.681,306.400 331.024 C 306.400 331.367,306.235 331.545,306.032 331.420 C 305.830 331.295,305.425 331.426,305.132 331.711 C 304.840 331.997,303.970 332.620,303.200 333.097 C 302.430 333.573,301.340 334.377,300.779 334.882 C 300.217 335.387,299.467 335.980,299.112 336.200 C 291.522 340.899,286.541 345.016,286.691 346.463 C 286.808 347.588,286.484 348.226,284.645 350.488 C 279.367 356.986,277.362 365.169,278.993 373.565 C 279.379 375.551,279.589 377.452,279.460 377.788 C 279.250 378.334,271.562 378.400,208.085 378.400 C 128.616 378.400,134.203 378.197,131.205 381.195 C 130.074 382.326,129.437 383.470,128.851 385.421 C 128.410 386.893,127.680 388.489,127.229 388.969 C 126.093 390.178,129.149 397.384,130.307 396.226 C 130.424 396.110,130.818 396.359,131.183 396.781 C 131.548 397.202,132.377 397.673,133.024 397.828 C 133.671 397.983,134.397 398.264,134.637 398.452 C 135.367 399.022,347.035 398.916,348.103 398.345 C 348.595 398.081,349.838 397.904,350.864 397.951 C 351.890 397.998,352.848 397.845,352.993 397.612 C 353.137 397.378,353.410 397.283,353.600 397.400 C 353.790 397.517,354.058 397.430,354.196 397.207 C 354.334 396.983,354.932 396.799,355.524 396.798 C 356.116 396.796,357.116 396.526,357.746 396.198 C 358.376 395.869,359.141 395.600,359.446 395.600 C 359.751 395.600,360.000 395.420,360.000 395.200 C 360.000 394.980,360.135 394.829,360.300 394.865 C 360.972 395.009,366.117 392.239,367.451 391.014 C 367.699 390.786,368.322 390.330,368.836 390.000 C 372.943 387.362,382.623 374.889,381.463 373.729 C 381.355 373.622,381.612 373.188,382.033 372.767 C 382.455 372.345,382.806 371.595,382.814 371.100 C 382.822 370.605,383.086 369.750,383.400 369.200 C 383.714 368.650,383.978 367.651,383.986 366.980 C 383.994 366.309,384.225 365.535,384.500 365.260 C 385.248 364.513,385.208 349.177,384.456 348.268 C 384.156 347.907,383.880 346.810,383.841 345.831 C 383.802 344.852,383.485 343.724,383.137 343.325 C 382.789 342.926,382.580 342.394,382.672 342.141 C 382.840 341.681,379.024 333.997,378.434 333.608 C 378.261 333.493,378.048 333.200,377.960 332.956 C 377.234 330.943,368.217 322.014,366.900 322.004 C 366.625 322.002,366.400 321.861,366.400 321.692 C 366.400 321.522,365.545 320.937,364.500 320.392 C 363.455 319.846,362.540 319.265,362.467 319.100 C 362.393 318.935,362.123 318.799,361.867 318.798 C 361.610 318.796,360.926 318.548,360.346 318.245 C 359.766 317.942,357.966 317.310,356.346 316.839 C 354.726 316.368,352.860 315.783,352.200 315.537 C 350.987 315.086,337.813 314.725,335.200 315.072 M61.668 335.162 C 66.493 336.542,65.823 336.118,86.600 350.949 C 92.980 355.504,98.870 359.851,99.689 360.610 C 104.969 365.502,103.610 374.156,97.000 377.734 C 95.205 378.706,59.647 379.299,52.800 378.471 C 41.007 377.045,32.100 365.208,33.992 353.477 C 36.121 340.274,49.224 331.603,61.668 335.162 M348.774 335.243 C 370.588 341.323,371.551 370.032,350.200 377.734 C 347.849 378.582,347.351 378.600,325.800 378.600 L 303.800 378.600 301.907 377.466 C 295.299 373.508,294.516 364.876,300.330 360.083 C 302.865 357.993,330.069 338.627,332.338 337.298 C 337.271 334.407,343.141 333.673,348.774 335.243 " stroke="none" fill="#444b54" fill-rule="evenodd"></path><path id="path1" d="M192.400 153.623 C 147.896 159.067,123.248 209.355,146.344 247.589 C 175.243 295.430,247.762 284.479,260.735 230.315 C 270.880 187.953,235.585 148.340,192.400 153.623 M204.614 163.408 C 211.840 167.913,211.092 178.130,203.332 180.912 C 192.848 184.669,185.429 170.231,194.609 163.935 C 197.152 162.191,202.232 161.923,204.614 163.408 M179.400 231.177 C 180.280 231.595,182.118 232.904,183.485 234.087 C 187.883 237.892,194.450 240.384,200.143 240.409 C 210.418 240.453,213.300 254.142,204.016 258.806 C 195.490 263.089,170.863 252.955,166.790 243.487 C 163.531 235.913,171.987 227.658,179.400 231.177 M164.800 324.696 C 164.470 324.820,162.655 326.379,160.767 328.160 C 158.879 329.942,156.240 332.300,154.901 333.400 C 151.443 336.243,151.346 336.489,151.967 340.874 C 155.648 366.880,197.144 380.466,227.345 365.552 C 240.470 359.071,246.256 352.125,248.024 340.728 C 248.707 336.328,248.713 336.339,241.964 330.360 C 234.579 323.819,235.393 324.267,232.119 324.946 C 210.743 329.382,187.592 329.261,166.000 324.601 C 165.670 324.529,165.130 324.572,164.800 324.696 M51.600 335.958 C 30.163 340.879,29.005 369.645,49.954 376.853 C 51.968 377.546,53.670 377.600,73.476 377.600 L 94.827 377.600 96.788 376.606 C 102.585 373.669,103.801 365.467,99.057 361.305 C 98.365 360.697,93.389 357.064,87.999 353.232 C 82.610 349.399,76.670 345.145,74.800 343.778 C 63.983 335.869,59.123 334.231,51.600 335.958 M339.021 335.861 C 335.475 336.621,332.581 338.066,328.142 341.292 C 326.194 342.709,319.560 347.438,313.400 351.802 C 298.379 362.443,297.520 363.317,297.520 367.962 C 297.520 371.793,299.720 375.366,302.997 376.854 C 305.495 377.989,345.736 377.978,349.473 376.842 C 361.525 373.177,367.845 359.943,363.024 348.467 C 359.188 339.336,348.644 333.798,339.021 335.861 " stroke="none" fill="#ffffff" fill-rule="evenodd"></path><path id="path2" d="M105.000 23.165 C 78.519 28.989,66.859 59.516,82.826 81.215 C 86.641 86.400,90.594 89.565,97.782 93.190 C 106.721 97.698,107.882 102.771,102.041 111.800 C 100.052 114.875,95.455 123.732,94.049 127.200 C 93.559 128.410,93.005 129.760,92.820 130.200 C 85.426 147.749,83.104 173.409,87.064 193.800 C 95.003 234.676,123.880 267.665,163.200 280.777 C 168.729 282.621,174.370 284.167,177.200 284.613 C 182.376 285.429,185.709 288.987,186.344 294.372 C 186.665 297.099,186.522 297.055,196.119 297.412 C 204.762 297.733,205.366 297.593,205.999 295.118 C 207.553 289.035,210.558 286.702,218.000 285.800 C 219.210 285.654,220.830 285.381,221.600 285.194 C 222.370 285.007,224.710 284.464,226.800 283.988 C 236.453 281.788,253.800 274.850,253.800 273.190 C 253.800 272.878,252.941 272.467,251.709 272.190 C 247.096 271.151,244.800 268.388,244.800 263.876 C 244.800 259.947,246.486 257.969,254.400 252.614 C 270.881 241.461,283.237 226.189,290.514 207.975 C 293.284 201.041,294.552 196.540,296.364 187.200 C 296.598 185.990,296.979 182.030,297.210 178.400 C 297.878 167.877,298.501 166.176,302.412 164.194 C 306.109 162.320,310.139 163.166,312.902 166.394 L 314.360 168.098 314.629 167.026 C 315.279 164.439,313.548 151.176,311.599 143.800 C 308.431 131.812,304.405 122.266,297.922 111.366 C 292.519 102.283,293.653 96.584,301.525 93.255 C 332.260 80.258,331.929 37.260,301.000 25.002 C 278.973 16.272,256.234 29.657,250.950 54.464 C 249.808 59.824,247.486 62.524,243.114 63.573 C 240.745 64.141,240.667 64.128,232.600 61.805 C 220.847 58.421,213.244 57.400,199.800 57.400 C 190.061 57.400,187.190 57.629,179.200 59.040 C 174.660 59.843,168.656 61.354,163.383 63.022 C 161.833 63.512,159.279 64.112,157.707 64.356 C 155.902 64.636,153.476 65.442,151.124 66.543 C 143.291 70.211,138.704 69.529,136.098 64.311 C 133.621 59.351,135.759 54.413,141.600 51.600 C 147.784 48.621,147.586 48.878,146.249 45.567 C 139.725 29.415,121.525 19.531,105.000 23.165 M116.516 50.444 C 126.316 55.356,123.123 69.225,112.200 69.189 C 104.036 69.162,99.740 58.986,105.325 52.903 C 108.354 49.605,112.864 48.614,116.516 50.444 M290.674 50.022 C 295.395 51.793,298.104 56.559,297.133 61.390 C 295.253 70.753,282.421 71.995,278.434 63.200 C 275.059 55.757,283.044 47.160,290.674 50.022 M165.974 125.057 C 172.945 126.995,176.974 134.149,174.973 141.034 C 171.478 153.058,154.778 153.707,150.396 141.990 C 146.720 132.161,155.846 122.241,165.974 125.057 M240.600 124.958 C 252.737 128.286,253.989 144.238,242.525 149.486 C 236.810 152.102,229.099 149.328,226.024 143.550 C 220.836 133.804,230.041 122.063,240.600 124.958 M207.400 153.616 C 257.451 159.312,280.230 220.093,246.313 257.449 C 214.063 292.969,155.672 280.669,140.697 235.200 C 126.445 191.923,161.989 148.449,207.400 153.616 M198.700 162.689 C 199.415 162.778,200.585 162.778,201.300 162.689 C 202.015 162.601,201.430 162.528,200.000 162.528 C 198.570 162.528,197.985 162.601,198.700 162.689 M194.679 163.843 C 193.257 164.774,190.795 168.035,190.804 168.978 C 190.806 169.210,191.351 168.452,192.016 167.293 C 192.818 165.895,193.858 164.788,195.112 164.001 C 196.150 163.349,196.820 162.822,196.600 162.831 C 196.380 162.840,195.516 163.295,194.679 163.843 M205.724 164.466 C 206.342 164.981,207.213 165.852,207.659 166.401 C 208.105 166.951,208.337 167.130,208.175 166.800 C 207.709 165.849,206.273 164.363,205.400 163.928 C 204.944 163.700,205.083 163.931,205.724 164.466 M208.646 168.200 C 208.812 168.640,209.065 170.260,209.209 171.800 L 209.471 174.600 209.521 172.000 C 209.554 170.287,209.362 169.059,208.958 168.400 C 208.583 167.788,208.462 167.710,208.646 168.200 M190.524 171.800 C 190.526 173.120,190.601 173.612,190.690 172.893 C 190.779 172.174,190.777 171.094,190.686 170.493 C 190.595 169.892,190.522 170.480,190.524 171.800 M208.435 175.887 C 207.859 177.244,206.970 178.319,205.446 179.503 C 204.811 179.997,204.469 180.400,204.685 180.400 C 205.718 180.400,209.655 175.522,209.083 174.950 C 208.987 174.853,208.695 175.275,208.435 175.887 M193.200 178.600 C 193.946 179.370,194.647 180.000,194.757 180.000 C 194.867 180.000,194.346 179.370,193.600 178.600 C 192.854 177.830,192.153 177.200,192.043 177.200 C 191.933 177.200,192.454 177.830,193.200 178.600 M198.900 181.487 C 199.505 181.578,200.495 181.578,201.100 181.487 C 201.705 181.395,201.210 181.320,200.000 181.320 C 198.790 181.320,198.295 181.395,198.900 181.487 M173.000 230.785 C 172.524 230.980,173.190 231.029,174.642 230.906 C 177.822 230.637,179.477 231.216,182.527 233.666 L 185.000 235.652 183.000 233.784 C 179.776 230.772,175.878 229.603,173.000 230.785 M169.515 232.900 C 168.546 233.835,168.304 234.132,168.977 233.560 C 169.649 232.989,170.645 232.224,171.189 231.860 C 171.733 231.497,171.975 231.200,171.728 231.200 C 171.480 231.200,170.484 231.965,169.515 232.900 M186.600 236.744 C 187.143 237.286,191.224 239.309,191.407 239.127 C 191.487 239.046,190.348 238.388,188.876 237.663 C 187.404 236.938,186.380 236.525,186.600 236.744 M166.120 240.000 C 166.120 241.210,166.195 241.705,166.287 241.100 C 166.378 240.495,166.378 239.505,166.287 238.900 C 166.195 238.295,166.120 238.790,166.120 240.000 M199.705 240.687 C 200.314 240.779,201.214 240.777,201.705 240.682 C 202.197 240.587,201.700 240.511,200.600 240.514 C 199.500 240.517,199.097 240.595,199.705 240.687 M204.462 241.807 C 205.486 242.340,206.805 243.367,207.394 244.088 C 207.983 244.810,208.287 245.040,208.069 244.600 C 207.361 243.168,204.070 240.752,202.920 240.819 C 202.744 240.829,203.438 241.274,204.462 241.807 M167.561 245.126 C 168.070 246.079,172.318 250.047,174.000 251.142 L 175.400 252.054 174.000 250.948 C 173.230 250.340,171.384 248.628,169.898 247.144 C 168.412 245.661,167.360 244.752,167.561 245.126 M208.672 246.200 C 208.853 246.640,209.000 248.468,209.000 250.263 C 209.000 252.058,209.132 253.318,209.294 253.063 C 209.840 252.203,209.600 247.446,208.958 246.400 C 208.621 245.850,208.492 245.760,208.672 246.200 M175.600 252.133 C 175.600 252.377,179.502 254.800,179.895 254.800 C 180.210 254.800,179.344 254.192,177.100 252.839 C 176.275 252.342,175.600 252.024,175.600 252.133 M206.575 256.900 L 205.400 258.200 206.700 257.025 C 207.912 255.930,208.184 255.600,207.875 255.600 C 207.806 255.600,207.221 256.185,206.575 256.900 M191.200 258.800 C 191.750 258.976,192.560 259.120,193.000 259.120 C 193.633 259.120,193.592 259.054,192.800 258.800 C 192.250 258.624,191.440 258.480,191.000 258.480 C 190.367 258.480,190.408 258.546,191.200 258.800 M201.600 259.200 C 200.216 259.491,200.214 259.495,201.400 259.541 C 202.060 259.567,202.870 259.413,203.200 259.200 C 203.866 258.770,203.645 258.770,201.600 259.200 M195.507 259.490 C 196.226 259.579,197.306 259.577,197.907 259.486 C 198.508 259.395,197.920 259.322,196.600 259.324 C 195.280 259.326,194.788 259.401,195.507 259.490 M165.400 324.203 C 164.740 324.538,164.495 324.733,164.856 324.636 C 165.217 324.538,166.657 324.702,168.056 324.998 C 188.120 329.253,211.414 329.237,232.079 324.955 C 233.552 324.650,234.861 324.400,234.987 324.400 C 235.112 324.400,236.787 325.763,238.708 327.428 L 242.200 330.457 239.000 327.425 C 235.204 323.829,233.838 323.259,230.721 323.968 C 229.554 324.234,227.340 324.611,225.800 324.807 C 224.260 325.003,222.280 325.341,221.400 325.559 C 220.520 325.777,217.910 326.065,215.600 326.198 C 213.290 326.332,210.590 326.604,209.600 326.803 C 207.143 327.297,193.058 327.294,190.373 326.799 C 189.178 326.579,186.040 326.220,183.400 326.002 C 177.807 325.539,173.108 324.904,171.381 324.378 C 168.966 323.642,166.637 323.574,165.400 324.203 M162.770 325.855 C 162.236 326.435,159.640 328.807,157.000 331.127 C 154.360 333.446,151.264 336.273,150.119 337.409 C 145.604 341.891,140.349 342.344,135.000 338.714 C 133.010 337.364,128.904 337.039,127.798 338.145 C 127.434 338.509,126.989 338.717,126.810 338.606 C 126.630 338.495,126.381 338.674,126.254 339.002 C 126.128 339.331,125.659 339.600,125.213 339.600 C 124.721 339.600,124.400 339.863,124.400 340.267 C 124.400 340.633,124.295 340.829,124.167 340.701 C 123.828 340.361,121.143 341.545,120.130 342.480 C 119.651 342.922,119.078 343.172,118.857 343.035 C 118.636 342.898,118.217 343.109,117.927 343.503 C 117.637 343.897,116.995 344.195,116.500 344.164 C 116.005 344.134,115.600 344.275,115.600 344.478 C 115.600 344.681,115.416 344.733,115.190 344.594 C 114.965 344.455,114.830 344.579,114.890 344.870 C 114.961 345.212,114.639 345.377,113.985 345.336 C 112.369 345.235,112.861 347.451,115.014 349.973 C 123.273 359.648,123.608 374.761,115.806 385.600 C 115.093 386.590,114.420 387.895,114.311 388.500 L 114.111 389.600 120.233 389.600 C 127.052 389.600,127.589 389.383,127.609 386.611 C 127.631 383.605,130.161 380.085,133.400 378.553 L 135.400 377.608 206.876 377.604 C 252.308 377.601,278.440 377.460,278.591 377.214 C 278.722 377.002,278.553 375.761,278.215 374.457 C 276.149 366.486,278.653 356.074,284.187 349.619 C 285.404 348.199,286.400 346.663,286.400 346.205 C 286.400 345.367,284.343 343.790,283.869 344.265 C 283.735 344.399,283.124 344.176,282.512 343.770 C 281.901 343.364,281.159 342.993,280.865 342.946 C 280.571 342.899,280.031 342.603,279.665 342.289 C 279.299 341.974,278.370 341.398,277.600 341.009 C 274.679 339.531,274.009 339.138,273.784 338.775 C 273.657 338.569,273.223 338.400,272.819 338.400 C 272.416 338.400,271.990 338.151,271.873 337.847 C 271.435 336.704,267.083 337.409,263.339 339.230 C 257.640 342.001,254.389 341.330,248.883 336.246 C 247.187 334.681,246.385 334.081,247.100 334.914 C 247.854 335.792,248.400 336.870,248.400 337.481 C 248.400 364.741,206.001 380.883,173.632 365.947 C 160.176 359.738,153.552 352.071,151.967 340.874 C 151.328 336.358,151.327 336.360,156.044 332.400 C 159.522 329.480,164.395 324.800,163.957 324.800 C 163.837 324.800,163.303 325.275,162.770 325.855 M243.800 332.000 C 244.659 332.880,245.452 333.600,245.562 333.600 C 245.672 333.600,245.059 332.880,244.200 332.000 C 243.341 331.120,242.548 330.400,242.438 330.400 C 242.328 330.400,242.941 331.120,243.800 332.000 M51.600 335.600 C 50.256 336.031,51.708 336.031,53.400 335.600 C 54.478 335.326,54.498 335.294,53.600 335.287 C 53.050 335.283,52.150 335.424,51.600 335.600 M57.700 335.476 C 58.085 335.576,58.715 335.576,59.100 335.476 C 59.485 335.375,59.170 335.293,58.400 335.293 C 57.630 335.293,57.315 335.375,57.700 335.476 M334.400 337.000 C 333.850 337.314,333.580 337.572,333.800 337.572 C 334.020 337.572,334.650 337.314,335.200 337.000 C 335.750 336.686,336.020 336.428,335.800 336.428 C 335.580 336.428,334.950 336.686,334.400 337.000 M350.000 336.541 C 350.000 336.648,350.855 337.021,351.900 337.370 C 354.461 338.225,358.439 341.313,360.441 344.000 C 362.205 346.369,362.719 346.951,362.203 346.000 C 360.543 342.937,355.899 338.594,353.000 337.393 C 351.272 336.677,350.000 336.316,350.000 336.541 M65.233 337.333 C 66.084 338.014,72.400 341.935,72.400 341.782 C 72.400 341.522,65.772 337.200,65.372 337.200 C 65.204 337.200,65.142 337.260,65.233 337.333 M41.323 340.958 C 39.161 342.967,36.772 346.336,36.188 348.200 C 36.050 348.640,36.531 347.920,37.256 346.600 C 37.982 345.280,39.795 342.985,41.285 341.500 C 44.536 338.261,44.557 337.953,41.323 340.958 M329.800 339.835 L 328.600 340.866 329.900 340.006 C 330.615 339.533,331.200 339.068,331.200 338.973 C 331.200 338.673,331.031 338.778,329.800 339.835 M326.000 342.442 C 322.860 344.735,322.531 345.250,325.522 343.190 C 327.666 341.714,328.806 340.748,328.324 340.818 C 328.256 340.828,327.210 341.559,326.000 342.442 M74.523 343.475 C 74.661 343.699,76.175 344.836,77.887 346.001 C 79.599 347.166,80.730 347.852,80.400 347.526 C 79.498 346.635,74.233 343.006,74.523 343.475 M321.400 345.835 L 320.200 346.866 321.500 346.006 C 322.215 345.533,322.800 345.068,322.800 344.973 C 322.800 344.673,322.631 344.778,321.400 345.835 M318.600 347.835 L 317.400 348.866 318.700 348.006 C 319.415 347.533,320.000 347.068,320.000 346.973 C 320.000 346.673,319.831 346.778,318.600 347.835 M362.428 347.000 C 362.428 347.220,362.686 347.850,363.000 348.400 C 363.314 348.950,363.572 349.220,363.572 349.000 C 363.572 348.780,363.314 348.150,363.000 347.600 C 362.686 347.050,362.428 346.780,362.428 347.000 M315.800 349.835 L 314.600 350.866 315.900 350.006 C 316.615 349.533,317.200 349.068,317.200 348.973 C 317.200 348.673,317.031 348.778,315.800 349.835 M82.800 349.346 C 82.800 349.456,83.340 349.930,84.000 350.400 C 84.660 350.870,85.200 351.164,85.200 351.054 C 85.200 350.944,84.660 350.470,84.000 350.000 C 83.340 349.530,82.800 349.236,82.800 349.346 M85.600 351.362 C 85.600 351.472,86.410 352.119,87.400 352.800 C 88.390 353.481,89.200 353.948,89.200 353.838 C 89.200 353.728,88.390 353.081,87.400 352.400 C 86.410 351.719,85.600 351.252,85.600 351.362 M34.893 352.800 C 34.893 353.570,34.975 353.885,35.076 353.500 C 35.176 353.115,35.176 352.485,35.076 352.100 C 34.975 351.715,34.893 352.030,34.893 352.800 M311.400 352.832 C 309.027 354.626,308.708 355.132,310.933 353.572 C 312.614 352.394,313.529 351.575,313.124 351.611 C 313.056 351.617,312.280 352.167,311.400 352.832 M89.600 354.146 C 89.600 354.256,90.140 354.730,90.800 355.200 C 91.460 355.670,92.000 355.964,92.000 355.854 C 92.000 355.744,91.460 355.270,90.800 354.800 C 90.140 354.330,89.600 354.036,89.600 354.146 M307.400 355.835 L 306.200 356.866 307.500 356.006 C 308.215 355.533,308.800 355.068,308.800 354.973 C 308.800 354.673,308.631 354.778,307.400 355.835 M34.509 356.800 C 34.509 357.790,34.587 358.195,34.682 357.700 C 34.778 357.205,34.778 356.395,34.682 355.900 C 34.587 355.405,34.509 355.810,34.509 356.800 M92.497 356.233 C 92.627 356.444,93.591 357.232,94.637 357.984 C 95.684 358.735,96.433 359.178,96.303 358.967 C 96.173 358.756,95.209 357.968,94.163 357.216 C 93.116 356.465,92.367 356.022,92.497 356.233 M304.100 358.040 C 303.165 358.702,302.400 359.333,302.400 359.441 C 302.400 359.550,303.210 359.081,304.200 358.400 C 305.190 357.719,306.000 357.080,306.000 356.981 C 306.000 356.705,305.924 356.748,304.100 358.040 M34.893 360.400 C 34.893 361.170,34.975 361.485,35.076 361.100 C 35.176 360.715,35.176 360.085,35.076 359.700 C 34.975 359.315,34.893 359.630,34.893 360.400 M299.855 361.583 C 298.835 362.673,298.000 363.693,298.000 363.850 C 298.000 364.006,298.057 364.058,298.127 363.967 C 298.197 363.875,299.122 362.855,300.182 361.700 C 301.242 360.545,302.019 359.600,301.909 359.600 C 301.799 359.600,300.875 360.492,299.855 361.583 M99.397 361.601 C 101.293 363.818,101.320 363.842,100.886 363.000 C 100.659 362.560,99.962 361.751,99.337 361.201 L 98.200 360.203 99.397 361.601 M35.821 364.000 C 36.351 365.968,38.177 368.864,40.306 371.113 L 42.472 373.400 40.410 371.000 C 39.277 369.680,37.720 367.340,36.950 365.800 C 36.181 364.260,35.673 363.450,35.821 364.000 M362.481 365.809 C 362.002 366.794,361.694 367.600,361.797 367.600 C 362.068 367.600,363.684 364.351,363.503 364.170 C 363.419 364.086,362.959 364.824,362.481 365.809 M102.120 368.000 C 102.120 369.210,102.195 369.705,102.287 369.100 C 102.378 368.495,102.378 367.505,102.287 366.900 C 102.195 366.295,102.120 366.790,102.120 368.000 M358.200 371.692 C 356.497 373.433,356.228 373.827,357.273 373.046 C 358.467 372.154,361.175 369.148,360.720 369.219 C 360.654 369.229,359.520 370.342,358.200 371.692 M298.000 372.297 C 298.000 372.867,301.573 376.800,302.091 376.800 C 302.320 376.800,302.014 376.412,301.411 375.937 C 300.808 375.463,299.793 374.355,299.157 373.477 C 298.521 372.599,298.000 372.068,298.000 372.297 M99.915 374.029 C 99.317 374.877,97.967 376.018,96.915 376.566 C 95.862 377.114,95.180 377.568,95.400 377.575 C 96.724 377.615,101.823 373.258,101.168 372.646 C 101.076 372.559,100.512 373.182,99.915 374.029 M354.200 374.800 C 353.540 375.237,353.180 375.592,353.400 375.588 C 353.801 375.582,355.976 374.023,355.600 374.012 C 355.490 374.008,354.860 374.363,354.200 374.800 M44.400 374.615 C 44.400 374.906,48.444 376.853,48.776 376.723 C 48.948 376.655,48.033 376.115,46.744 375.522 C 45.455 374.929,44.400 374.521,44.400 374.615 M348.200 377.200 C 347.696 377.417,347.622 377.544,348.000 377.544 C 348.330 377.544,348.960 377.389,349.400 377.200 C 349.904 376.983,349.978 376.856,349.600 376.856 C 349.270 376.856,348.640 377.011,348.200 377.200 M62.900 377.900 C 68.785 377.962,78.415 377.962,84.300 377.900 C 90.185 377.837,85.370 377.786,73.600 377.786 C 61.830 377.786,57.015 377.837,62.900 377.900 M315.300 377.900 C 321.185 377.962,330.815 377.962,336.700 377.900 C 342.585 377.837,337.770 377.786,326.000 377.786 C 314.230 377.786,309.415 377.837,315.300 377.900 " stroke="none" fill="#ce9976" fill-rule="evenodd"></path><path id="path3" d="M106.400 21.979 C 98.294 22.974,88.669 28.550,83.219 35.408 C 67.302 55.438,74.102 82.990,97.730 94.205 C 102.818 96.620,104.558 98.923,104.529 103.200 C 104.510 106.036,104.368 106.364,100.310 113.000 C 84.419 138.984,79.905 172.532,88.228 202.800 C 99.425 243.522,131.740 274.696,173.000 284.578 C 179.520 286.140,180.663 286.506,181.862 287.421 C 184.645 289.542,186.099 294.213,185.056 297.679 C 183.524 302.770,170.258 319.004,161.995 325.899 C 160.348 327.274,157.290 329.936,155.200 331.815 C 148.196 338.112,147.053 338.975,144.657 339.776 C 141.736 340.752,138.727 340.257,136.019 338.354 C 134.056 336.974,131.937 336.517,130.400 337.143 C 129.526 337.498,129.657 337.552,131.440 337.575 C 133.012 337.594,133.838 337.857,135.040 338.722 C 140.100 342.363,145.612 341.883,150.119 337.409 C 151.264 336.273,153.730 334.019,155.600 332.400 C 157.470 330.781,160.179 328.336,161.619 326.968 C 164.802 323.946,166.543 323.282,169.440 323.986 C 170.518 324.248,172.660 324.620,174.200 324.812 C 175.740 325.005,177.720 325.341,178.600 325.559 C 179.480 325.777,182.090 326.065,184.400 326.198 C 186.710 326.332,189.410 326.604,190.400 326.803 C 192.736 327.273,207.264 327.273,209.600 326.803 C 210.590 326.604,213.290 326.332,215.600 326.198 C 217.910 326.065,220.520 325.777,221.400 325.559 C 222.280 325.341,224.260 324.997,225.800 324.794 C 227.340 324.591,229.680 324.217,231.000 323.961 C 234.375 323.309,234.839 323.581,243.036 331.000 C 255.192 342.003,256.527 342.542,263.374 339.212 C 265.170 338.339,267.215 337.581,267.920 337.527 C 269.706 337.391,269.527 336.800,267.700 336.801 C 266.814 336.801,265.287 337.283,263.969 337.978 C 258.771 340.718,255.342 340.528,251.476 337.285 C 236.358 324.607,230.075 318.562,223.786 310.647 L 219.521 305.279 216.228 305.139 C 204.159 304.628,203.515 289.224,215.477 287.166 C 216.755 286.946,218.880 286.585,220.200 286.362 C 252.211 280.976,282.125 260.243,299.311 231.531 C 303.251 224.949,306.993 217.167,308.992 211.400 C 309.373 210.300,309.820 209.040,309.986 208.600 C 310.152 208.160,310.592 206.720,310.965 205.400 C 311.337 204.080,311.902 202.166,312.221 201.146 C 312.539 200.127,312.806 198.777,312.814 198.146 C 312.822 197.516,313.086 196.550,313.400 196.000 C 313.714 195.450,313.978 194.157,313.986 193.126 C 313.994 192.095,314.209 190.745,314.464 190.126 C 314.906 189.054,315.314 184.800,315.850 175.669 C 316.645 162.150,313.521 143.745,308.032 129.600 C 306.110 124.648,302.681 117.646,300.001 113.200 C 293.283 102.057,293.774 98.108,302.400 93.916 C 321.050 84.853,329.666 66.014,323.583 47.600 C 315.777 23.972,287.631 14.156,266.937 27.844 C 258.607 33.353,252.553 42.503,250.417 52.812 C 248.487 62.123,244.413 64.483,235.155 61.651 C 211.531 54.425,189.648 54.350,165.600 61.414 C 157.996 63.648,156.381 63.654,153.503 61.458 C 151.098 59.624,150.135 57.986,149.395 54.472 C 149.039 52.782,148.558 50.500,148.326 49.400 C 144.654 32.029,125.670 19.612,106.400 21.979 M118.671 23.193 C 131.582 25.798,141.520 33.860,146.249 45.567 C 147.586 48.878,147.784 48.621,141.600 51.600 C 135.759 54.413,133.621 59.351,136.098 64.311 C 138.704 69.529,143.291 70.211,151.124 66.543 C 153.476 65.442,155.902 64.636,157.707 64.356 C 159.279 64.112,161.833 63.512,163.383 63.022 C 168.656 61.354,174.660 59.843,179.200 59.040 C 187.190 57.629,190.061 57.400,199.800 57.400 C 213.244 57.400,220.847 58.421,232.600 61.805 C 240.667 64.128,240.745 64.141,243.114 63.573 C 247.486 62.524,249.808 59.824,250.950 54.464 C 256.234 29.657,278.973 16.272,301.000 25.002 C 331.929 37.260,332.260 80.258,301.525 93.255 C 293.653 96.584,292.519 102.283,297.922 111.366 C 304.405 122.266,308.431 131.812,311.599 143.800 C 313.548 151.176,315.279 164.439,314.629 167.026 L 314.360 168.098 312.902 166.394 C 310.139 163.166,306.109 162.320,302.412 164.194 C 298.501 166.176,297.878 167.877,297.210 178.400 C 296.979 182.030,296.598 185.990,296.364 187.200 C 294.552 196.540,293.284 201.041,290.514 207.975 C 283.237 226.189,270.881 241.461,254.400 252.614 C 246.486 257.969,244.800 259.947,244.800 263.876 C 244.800 268.388,247.096 271.151,251.709 272.190 C 252.941 272.467,253.800 272.878,253.800 273.190 C 253.800 274.850,236.453 281.788,226.800 283.988 C 224.710 284.464,222.370 285.007,221.600 285.194 C 220.830 285.381,219.210 285.654,218.000 285.800 C 210.558 286.702,207.553 289.035,205.999 295.118 C 205.366 297.593,204.762 297.733,196.119 297.412 C 186.522 297.055,186.665 297.099,186.344 294.372 C 185.709 288.987,182.376 285.429,177.200 284.613 C 174.370 284.167,168.729 282.621,163.200 280.777 C 105.661 261.589,73.212 200.830,88.977 141.800 C 89.908 138.317,91.775 132.681,92.820 130.200 C 93.005 129.760,93.559 128.410,94.049 127.200 C 95.455 123.732,100.052 114.875,102.041 111.800 C 107.882 102.771,106.721 97.698,97.782 93.190 C 86.194 87.346,80.070 80.141,76.544 68.200 C 75.167 63.538,75.563 53.150,77.309 48.097 C 83.562 30.005,100.848 19.597,118.671 23.193 M108.600 50.348 C 102.392 53.184,100.863 61.601,105.679 66.418 C 111.777 72.516,122.400 68.016,122.400 59.336 C 122.400 52.502,114.767 47.531,108.600 50.348 M283.400 50.463 C 278.443 53.026,276.306 58.507,278.434 63.200 C 283.299 73.932,299.568 68.882,297.119 57.400 C 295.808 51.253,288.762 47.690,283.400 50.463 M116.216 51.347 C 120.149 53.178,122.188 57.283,121.203 61.387 C 119.569 68.200,111.490 70.660,106.451 65.880 C 99.166 58.968,107.130 47.116,116.216 51.347 M290.867 51.147 C 298.190 54.305,298.271 64.313,291.000 67.648 C 286.082 69.905,280.141 66.791,278.815 61.262 C 277.188 54.480,284.453 48.382,290.867 51.147 M159.197 124.970 C 151.900 126.985,147.771 134.970,150.396 141.990 C 154.778 153.707,171.478 153.058,174.973 141.034 C 177.754 131.469,168.774 122.324,159.197 124.970 M233.781 125.145 C 227.280 127.364,223.472 133.483,224.748 139.659 C 227.349 152.253,243.590 154.457,249.238 142.983 C 254.088 133.131,244.112 121.619,233.781 125.145 M167.400 126.542 C 179.102 132.007,175.410 149.558,162.550 149.594 C 148.758 149.633,146.018 130.224,159.200 125.862 C 160.987 125.270,165.474 125.642,167.400 126.542 M243.288 126.913 C 255.916 134.314,247.633 153.308,233.694 148.914 C 223.464 145.689,222.731 131.227,232.559 126.534 C 235.468 125.145,240.579 125.326,243.288 126.913 M195.112 164.001 C 187.271 168.925,190.770 181.200,200.016 181.200 C 209.326 181.200,212.763 168.964,204.861 163.952 C 202.189 162.258,197.852 162.280,195.112 164.001 M203.400 163.960 C 208.036 166.111,209.904 171.180,207.686 175.586 C 204.210 182.490,194.322 181.822,191.833 174.514 C 189.500 167.668,196.880 160.935,203.400 163.960 M172.584 231.226 C 169.254 232.194,166.400 236.146,166.400 239.788 C 166.400 251.794,197.745 265.136,206.550 256.879 C 212.829 250.992,208.639 241.440,199.423 240.632 C 192.026 239.982,187.893 238.295,182.565 233.750 C 179.293 230.959,176.196 230.176,172.584 231.226 M179.073 232.205 C 179.870 232.538,181.299 233.527,182.249 234.402 C 186.693 238.498,193.097 241.202,198.346 241.198 C 205.870 241.192,210.680 247.173,208.053 253.267 C 206.345 257.229,203.129 258.990,198.200 258.662 C 190.574 258.156,184.657 256.340,177.524 252.315 C 172.991 249.757,168.405 245.208,167.411 242.285 C 165.200 235.779,172.509 229.462,179.073 232.205 M50.076 335.206 C 27.212 341.952,29.332 375.634,52.800 378.471 C 59.647 379.299,95.205 378.706,97.000 377.734 C 103.610 374.156,104.969 365.502,99.689 360.610 C 98.438 359.451,85.029 349.741,71.600 340.271 C 63.733 334.723,57.045 333.149,50.076 335.206 M336.775 335.350 C 333.118 336.585,308.882 353.032,300.330 360.083 C 294.516 364.876,295.299 373.508,301.907 377.466 L 303.800 378.600 325.800 378.600 C 347.351 378.600,347.849 378.582,350.200 377.734 C 364.194 372.686,369.852 357.446,362.362 344.975 C 357.435 336.773,345.669 332.347,336.775 335.350 M61.342 335.837 C 62.694 336.187,64.700 336.915,65.800 337.455 C 67.710 338.393,95.100 357.718,98.750 360.704 C 104.262 365.213,103.130 374.020,96.650 377.038 L 94.600 377.992 73.799 377.996 C 48.695 378.001,47.712 377.834,41.684 372.561 C 25.038 358.000,39.879 330.276,61.342 335.837 M349.455 336.220 C 370.063 342.148,370.020 370.802,349.394 377.173 C 345.569 378.354,306.689 378.466,303.450 377.305 C 296.853 374.940,295.083 365.996,300.252 361.149 C 302.015 359.496,329.976 339.530,332.959 337.795 C 337.649 335.066,343.502 334.507,349.455 336.220 M112.700 346.133 C 112.143 347.494,112.394 348.199,114.222 350.403 C 122.252 360.084,122.698 375.300,115.230 384.800 C 113.695 386.754,113.102 387.966,113.357 388.631 C 113.689 389.498,114.400 389.309,114.400 388.354 C 114.400 387.888,115.008 386.673,115.751 385.654 C 123.617 374.860,123.295 359.675,114.995 349.951 C 113.906 348.675,113.197 347.426,113.122 346.649 C 113.025 345.657,112.938 345.551,112.700 346.133 M286.460 346.219 C 286.427 346.669,285.404 348.199,284.187 349.619 C 278.653 356.074,276.149 366.486,278.215 374.457 C 278.553 375.761,278.722 377.002,278.591 377.214 C 278.440 377.460,252.308 377.601,206.876 377.604 L 135.400 377.608 133.400 378.553 C 130.161 380.085,127.631 383.605,127.609 386.611 C 127.604 387.277,127.297 388.267,126.928 388.811 L 126.255 389.800 127.130 389.036 C 127.614 388.613,128.371 387.040,128.826 385.512 C 129.435 383.467,130.051 382.349,131.202 381.198 C 134.204 378.196,128.608 378.400,208.085 378.400 C 271.997 378.400,279.249 378.337,279.463 377.779 C 279.594 377.438,279.408 375.683,279.050 373.879 C 277.213 364.623,279.226 357.140,285.729 349.053 C 286.537 348.048,286.810 347.329,286.689 346.524 C 286.581 345.805,286.498 345.695,286.460 346.219 " stroke="none" fill="#ad765c" fill-rule="evenodd"></path></g></svg>