<?xml version="1.0" encoding="UTF-8"?>
<svg width="118px" height="32px" viewBox="0 0 118 32" version="1.1" xmlns="http://www.w3.org/2000/svg" xmlns:xlink="http://www.w3.org/1999/xlink">
    <!-- Generator: Sketch 61.2 (89653) - https://sketch.com -->
    <title>FantixKing</title>
    <desc>Created with Sketch.</desc>
    <g id="V3-最新稿件" stroke="none" stroke-width="1" fill="none" fill-rule="evenodd">
        <g id="HOME-v3.0" transform="translate(-902.000000, -5517.000000)" fill="#F2D354" fill-rule="nonzero">
            <g id="author" transform="translate(533.000000, 4844.000000)">
                <path d="M373.024414,700.509766 C373.170247,700.464193 373.425456,700.404948 373.790039,700.332031 C374.154622,700.259115 374.548828,700.181641 374.972656,700.099609 C375.396484,700.017578 375.804362,699.933268 376.196289,699.84668 C376.588216,699.760091 376.88444,699.675781 377.084961,699.59375 C377.358398,698.964844 377.684245,698.285807 378.0625,697.556641 C378.440755,696.827474 378.85319,696.068685 379.299805,695.280273 C379.746419,694.491862 380.222656,693.678385 380.728516,692.839844 C381.234375,692.001302 381.756185,691.158203 382.293945,690.310547 C382.749674,690.264974 383.187174,690.217122 383.606445,690.166992 C384.025716,690.116862 384.415365,690.06901 384.775391,690.023438 C385.135417,689.977865 385.456706,689.930013 385.739258,689.879883 C386.02181,689.829753 386.254232,689.781901 386.436523,689.736328 C386.791992,689.417318 387.108724,689.080078 387.386719,688.724609 C387.664714,688.369141 387.899414,688.031901 388.09082,687.712891 C388.282227,687.39388 388.42806,687.113607 388.52832,686.87207 C388.628581,686.630534 388.678711,686.464193 388.678711,686.373047 C388.678711,686.318359 388.669596,686.291016 388.651367,686.291016 C388.633138,686.291016 388.52832,686.33431 388.336914,686.420898 C388.145508,686.507487 387.858398,686.619141 387.475586,686.755859 C387.092773,686.892578 386.609701,687.049805 386.026367,687.227539 C385.443034,687.405273 384.741211,687.589844 383.920898,687.78125 C384.522461,686.851562 385.117188,685.94694 385.705078,685.067383 C386.292969,684.187826 386.851237,683.353841 387.379883,682.56543 C387.908529,681.777018 388.396159,681.047852 388.842773,680.37793 C389.289388,679.708008 389.676758,679.124674 390.004883,678.62793 C390.333008,678.131185 390.590495,677.730143 390.777344,677.424805 C390.964193,677.119466 391.057617,676.939453 391.057617,676.884766 C391.048503,676.748047 390.993815,676.572591 390.893555,676.358398 C390.793294,676.144206 390.663411,675.91862 390.503906,675.681641 C390.344401,675.444661 390.164388,675.207682 389.963867,674.970703 C389.763346,674.733724 389.560547,674.519531 389.355469,674.328125 C389.150391,674.136719 388.945312,673.981771 388.740234,673.863281 C388.535156,673.744792 388.355143,673.685547 388.200195,673.685547 C387.662435,673.685547 386.98112,673.774414 386.15625,673.952148 C385.33138,674.129883 384.431315,674.373698 383.456055,674.683594 C382.480794,674.99349 381.459961,675.364909 380.393555,675.797852 C379.327148,676.230794 378.278971,676.702474 377.249023,677.212891 C376.219076,677.723307 375.239258,678.265625 374.30957,678.839844 C373.379883,679.414062 372.561849,679.997396 371.855469,680.589844 C371.149089,681.182292 370.588542,681.777018 370.173828,682.374023 C369.759115,682.971029 369.551758,683.547526 369.551758,684.103516 C369.551758,684.194661 369.604167,684.338216 369.708984,684.53418 C369.813802,684.730143 369.948242,684.944336 370.112305,685.176758 C370.276367,685.40918 370.458659,685.650716 370.65918,685.901367 C370.859701,686.152018 371.055664,686.382161 371.24707,686.591797 C371.438477,686.801432 371.613932,686.974609 371.773438,687.111328 C371.932943,687.248047 372.053711,687.320964 372.135742,687.330078 C372.163086,687.330078 372.192708,687.334635 372.224609,687.34375 C372.25651,687.352865 372.299805,687.357422 372.354492,687.357422 C372.855794,687.357422 373.327474,687.341471 373.769531,687.30957 C374.211589,687.277669 374.608073,687.236654 374.958984,687.186523 C375.309896,687.136393 375.608398,687.081706 375.854492,687.022461 C376.100586,686.963216 376.27832,686.90625 376.387695,686.851562 C376.387695,686.6875 376.380859,686.475586 376.367188,686.21582 C376.353516,685.956055 376.339844,685.684896 376.326172,685.402344 C376.3125,685.119792 376.298828,684.839518 376.285156,684.561523 C376.271484,684.283529 376.260091,684.039714 376.250977,683.830078 C375.986654,683.966797 375.699544,684.110352 375.389648,684.260742 C375.079753,684.411133 374.758464,684.55013 374.425781,684.677734 C374.093099,684.805339 373.760417,684.910156 373.427734,684.992188 C373.095052,685.074219 372.782878,685.115234 372.491211,685.115234 C372.354492,685.115234 372.27474,685.090169 372.251953,685.040039 C372.229167,684.989909 372.217773,684.951172 372.217773,684.923828 C372.217773,684.869141 372.354492,684.677734 372.62793,684.349609 C372.901367,684.021484 373.325195,683.604492 373.899414,683.098633 C374.473633,682.592773 375.205078,682.025391 376.09375,681.396484 C376.982422,680.767578 378.037435,680.122721 379.258789,679.461914 C380.480143,678.801107 381.874674,678.147135 383.442383,677.5 C385.010091,676.852865 386.764648,676.264974 388.706055,675.736328 C388.81543,675.69987 388.886068,675.708984 388.917969,675.763672 C388.94987,675.818359 388.96582,675.873047 388.96582,675.927734 C388.96582,676.046224 388.947591,676.123698 388.911133,676.160156 C387.306966,678.083333 385.725586,680.056641 384.166992,682.080078 C382.608398,684.103516 381.086263,686.268229 379.600586,688.574219 C379.026367,688.65625 378.422526,688.733724 377.789062,688.806641 C377.155599,688.879557 376.483398,688.947917 375.772461,689.011719 C375.699544,689.029948 375.597005,689.114258 375.464844,689.264648 C375.332682,689.415039 375.205078,689.588216 375.082031,689.78418 C374.958984,689.980143 374.851888,690.173828 374.760742,690.365234 C374.669596,690.556641 374.624023,690.702474 374.624023,690.802734 C374.624023,690.875651 374.651367,690.912109 374.706055,690.912109 C374.742513,690.912109 374.861003,690.905273 375.061523,690.891602 C375.262044,690.87793 375.52181,690.861979 375.84082,690.84375 C376.159831,690.825521 376.528971,690.800456 376.948242,690.768555 C377.367513,690.736654 377.814128,690.702474 378.288086,690.666016 C377.376628,692.160807 376.485677,693.717122 375.615234,695.334961 C374.744792,696.952799 373.881185,698.677734 373.024414,700.509766 Z M395.172852,695.806641 C395.409831,695.806641 395.687826,695.731445 396.006836,695.581055 C396.325846,695.430664 396.663086,695.236979 397.018555,695 C397.374023,694.763021 397.738607,694.491862 398.112305,694.186523 C398.486003,693.881185 398.848307,693.573568 399.199219,693.263672 C399.55013,692.953776 399.878255,692.655273 400.183594,692.368164 C400.488932,692.081055 400.750977,691.83724 400.969727,691.636719 C400.869466,691.527344 400.757812,691.404297 400.634766,691.267578 C400.511719,691.130859 400.40918,691.021484 400.327148,690.939453 C400.217773,691.039714 400.060547,691.18099 399.855469,691.363281 C399.650391,691.545573 399.420247,691.746094 399.165039,691.964844 C398.909831,692.183594 398.643229,692.406901 398.365234,692.634766 C398.08724,692.86263 397.825195,693.067708 397.579102,693.25 C397.333008,693.432292 397.114258,693.582682 396.922852,693.701172 C396.731445,693.819661 396.594727,693.878906 396.512695,693.878906 C396.458008,693.878906 396.430664,693.851562 396.430664,693.796875 C396.430664,693.696615 396.4375,693.55306 396.451172,693.366211 C396.464844,693.179362 396.501302,692.953776 396.560547,692.689453 C396.619792,692.42513 396.70638,692.117513 396.820312,691.766602 C396.934245,691.41569 397.096029,691.026042 397.305664,690.597656 C397.305664,690.497396 397.266927,690.353841 397.189453,690.166992 C397.111979,689.980143 397.018555,689.786458 396.90918,689.585938 C396.799805,689.385417 396.681315,689.200846 396.553711,689.032227 C396.426107,688.863607 396.312174,688.742839 396.211914,688.669922 C396.193685,688.660807 396.180013,688.660807 396.170898,688.669922 C396.161784,688.679036 396.157227,688.688151 396.157227,688.697266 C395.984049,688.988932 395.774414,689.276042 395.52832,689.558594 C395.282227,689.841146 395.045247,690.091797 394.817383,690.310547 C394.55306,690.57487 394.279622,690.820964 393.99707,691.048828 C393.67806,691.313151 393.370443,691.566081 393.074219,691.807617 C392.777995,692.049154 392.506836,692.258789 392.260742,692.436523 C392.014648,692.614258 391.79362,692.755534 391.597656,692.860352 C391.401693,692.965169 391.239909,693.017578 391.112305,693.017578 C390.984701,693.017578 390.920898,692.940104 390.920898,692.785156 C390.920898,692.575521 391.048503,692.231445 391.303711,691.75293 C391.558919,691.274414 392.019206,690.707031 392.68457,690.050781 C392.967122,689.777344 393.272461,689.499349 393.600586,689.216797 C393.883138,688.979818 394.206706,688.726888 394.571289,688.458008 C394.935872,688.189128 395.323242,687.945312 395.733398,687.726562 L395.733398,687.726562 L395.760742,687.699219 C395.769857,687.690104 395.769857,687.676432 395.760742,687.658203 C395.724284,687.603516 395.649089,687.532878 395.535156,687.446289 C395.421224,687.359701 395.289062,687.273112 395.138672,687.186523 C394.988281,687.099935 394.837891,687.017904 394.6875,686.94043 C394.537109,686.862956 394.407227,686.80599 394.297852,686.769531 C394.270508,686.751302 394.25,686.746745 394.236328,686.755859 C394.222656,686.764974 394.206706,686.769531 394.188477,686.769531 C393.696289,686.915365 393.226888,687.111328 392.780273,687.357422 C392.333659,687.603516 391.937174,687.845052 391.59082,688.082031 C391.180664,688.364583 390.797852,688.665365 390.442383,688.984375 C389.749674,689.613281 389.202799,690.226237 388.801758,690.823242 C388.400716,691.420247 388.097656,691.958008 387.892578,692.436523 C387.6875,692.915039 387.557617,693.309245 387.50293,693.619141 C387.448242,693.929036 387.420898,694.111328 387.420898,694.166016 C387.420898,694.357422 387.473307,694.548828 387.578125,694.740234 C387.682943,694.931641 387.808268,695.102539 387.954102,695.25293 C388.099935,695.40332 388.248047,695.524089 388.398438,695.615234 C388.548828,695.70638 388.669596,695.751953 388.760742,695.751953 L388.760742,695.751953 L388.842773,695.751953 C388.870117,695.751953 388.906576,695.742839 388.952148,695.724609 C389.334961,695.597005 389.751953,695.407878 390.203125,695.157227 C390.654297,694.906576 391.10319,694.626302 391.549805,694.316406 C391.996419,694.00651 392.422526,693.678385 392.828125,693.332031 C393.233724,692.985677 393.586914,692.652995 393.887695,692.333984 C393.77832,692.689453 393.696289,692.987956 393.641602,693.229492 C393.586914,693.471029 393.550456,693.676107 393.532227,693.844727 C393.513997,694.013346 393.507161,694.150065 393.511719,694.254883 C393.516276,694.359701 393.518555,694.448568 393.518555,694.521484 C393.518555,694.712891 393.573242,694.886068 393.682617,695.041016 C393.791992,695.195964 393.928711,695.330404 394.092773,695.444336 C394.256836,695.558268 394.436849,695.647135 394.632812,695.710938 C394.828776,695.77474 395.008789,695.806641 395.172852,695.806641 Z M401.557617,695.902344 C401.685221,695.902344 401.77181,695.865885 401.817383,695.792969 C401.862956,695.720052 401.913086,695.619792 401.967773,695.492188 C402.405273,694.46224 402.851888,693.571289 403.307617,692.819336 C403.763346,692.067383 404.196289,691.424805 404.606445,690.891602 C405.016602,690.358398 405.383464,689.920898 405.707031,689.579102 C406.030599,689.237305 406.278971,688.961589 406.452148,688.751953 L406.452148,688.751953 L406.479492,688.724609 C406.31543,689.134766 406.144531,689.583659 405.966797,690.071289 C405.789062,690.558919 405.618164,691.051107 405.454102,691.547852 C405.290039,692.044596 405.13737,692.529948 404.996094,693.003906 C404.854818,693.477865 404.743164,693.901693 404.661133,694.275391 C404.661133,694.439453 404.729492,694.608073 404.866211,694.78125 C405.00293,694.954427 405.169271,695.111654 405.365234,695.25293 C405.561198,695.394206 405.763997,695.512695 405.973633,695.608398 C406.183268,695.704102 406.356445,695.751953 406.493164,695.751953 C406.702799,695.751953 406.962565,695.679036 407.272461,695.533203 C407.582357,695.38737 407.915039,695.195964 408.270508,694.958984 C408.625977,694.722005 408.992839,694.453125 409.371094,694.152344 C409.749349,693.851562 410.113932,693.550781 410.464844,693.25 C410.815755,692.949219 411.141602,692.655273 411.442383,692.368164 C411.743164,692.081055 411.993815,691.83724 412.194336,691.636719 C412.094076,691.527344 411.989258,691.408854 411.879883,691.28125 C411.770508,691.153646 411.670247,691.048828 411.579102,690.966797 C411.469727,691.057943 411.310221,691.194661 411.100586,691.376953 C410.890951,691.559245 410.65625,691.762044 410.396484,691.985352 C410.136719,692.208659 409.86556,692.434245 409.583008,692.662109 C409.300456,692.889974 409.029297,693.099609 408.769531,693.291016 C408.509766,693.482422 408.279622,693.63737 408.079102,693.755859 C407.878581,693.874349 407.72819,693.933594 407.62793,693.933594 C407.573242,693.933594 407.545898,693.90625 407.545898,693.851562 C407.545898,693.751302 407.577799,693.591797 407.641602,693.373047 C407.705404,693.154297 407.787435,692.899089 407.887695,692.607422 C407.987956,692.315755 408.101888,692.003581 408.229492,691.670898 C408.357096,691.338216 408.484701,691.005534 408.612305,690.672852 C408.739909,690.340169 408.860677,690.01888 408.974609,689.708984 C409.088542,689.399089 409.181966,689.130208 409.254883,688.902344 C409.273112,688.838542 409.286784,688.786133 409.295898,688.745117 C409.305013,688.704102 409.30957,688.669922 409.30957,688.642578 C409.30957,688.505859 409.220703,688.346354 409.042969,688.164062 C408.865234,687.981771 408.655599,687.804036 408.414062,687.630859 C408.172526,687.457682 407.933268,687.311849 407.696289,687.193359 C407.45931,687.07487 407.281576,687.015625 407.163086,687.015625 C407.062826,687.015625 406.923828,687.058919 406.746094,687.145508 C406.568359,687.232096 406.335938,687.39388 406.048828,687.630859 C405.761719,687.867839 405.410807,688.193685 404.996094,688.608398 C404.58138,689.023112 404.086914,689.558594 403.512695,690.214844 C403.62207,689.895833 403.731445,689.585938 403.84082,689.285156 C403.950195,688.984375 404.05957,688.688151 404.168945,688.396484 C403.767904,688.041016 403.332682,687.73112 402.863281,687.466797 C402.39388,687.202474 401.967773,686.979167 401.584961,686.796875 C401.347982,687.325521 401.126953,687.874674 400.921875,688.444336 C400.716797,689.013997 400.527669,689.572266 400.354492,690.119141 C400.181315,690.666016 400.026367,691.187826 399.889648,691.68457 C399.75293,692.181315 399.638997,692.623372 399.547852,693.010742 C399.456706,693.398112 399.386068,693.719401 399.335938,693.974609 C399.285807,694.229818 399.260742,694.384766 399.260742,694.439453 C399.424805,694.61263 399.609375,694.785807 399.814453,694.958984 C400.019531,695.132161 400.224609,695.289388 400.429688,695.430664 C400.634766,695.57194 400.835286,695.685872 401.03125,695.772461 C401.227214,695.859049 401.402669,695.902344 401.557617,695.902344 Z M412.891602,695.751953 C413.101237,695.751953 413.361003,695.679036 413.670898,695.533203 C413.980794,695.38737 414.315755,695.195964 414.675781,694.958984 C415.035807,694.722005 415.404948,694.453125 415.783203,694.152344 C416.161458,693.851562 416.526042,693.550781 416.876953,693.25 C417.227865,692.949219 417.553711,692.655273 417.854492,692.368164 C418.155273,692.081055 418.405924,691.83724 418.606445,691.636719 C418.506185,691.527344 418.399089,691.408854 418.285156,691.28125 C418.171224,691.153646 418.073242,691.048828 417.991211,690.966797 C417.881836,691.057943 417.724609,691.192383 417.519531,691.370117 C417.314453,691.547852 417.08431,691.743815 416.829102,691.958008 C416.573893,692.172201 416.305013,692.388672 416.022461,692.607422 C415.739909,692.826172 415.473307,693.026693 415.222656,693.208984 C414.972005,693.391276 414.746419,693.539388 414.545898,693.65332 C414.345378,693.767253 414.194987,693.824219 414.094727,693.824219 C414.040039,693.824219 414.012695,693.796875 414.012695,693.742188 C414.012695,693.35026 414.083333,692.848958 414.224609,692.238281 C414.365885,691.627604 414.555013,690.957682 414.791992,690.228516 C415.028971,689.499349 415.297852,688.729167 415.598633,687.917969 C415.899414,687.106771 416.213867,686.304688 416.541992,685.511719 L416.541992,685.511719 L419.249023,685.511719 C419.331055,685.511719 419.399414,685.502604 419.454102,685.484375 C419.508789,685.466146 419.545247,685.447917 419.563477,685.429688 C419.654622,685.347656 419.766276,685.229167 419.898438,685.074219 C420.030599,684.919271 420.14681,684.76888 420.24707,684.623047 C420.347331,684.477214 420.41569,684.349609 420.452148,684.240234 C420.488607,684.130859 420.461263,684.076172 420.370117,684.076172 L420.370117,684.076172 L417.088867,684.199219 C417.362305,683.542969 417.628906,682.920898 417.888672,682.333008 C418.148438,681.745117 418.385417,681.221029 418.599609,680.760742 C418.813802,680.300456 418.993815,679.917643 419.139648,679.612305 C419.285482,679.306966 419.385742,679.108724 419.44043,679.017578 C419.458659,678.98112 419.467773,678.958333 419.467773,678.949219 L419.467773,678.949219 L419.467773,678.921875 C419.467773,678.885417 419.422201,678.867188 419.331055,678.867188 C419.230794,678.867188 419.066732,678.901367 418.838867,678.969727 C418.611003,679.038086 418.358073,679.122396 418.080078,679.222656 C417.802083,679.322917 417.519531,679.432292 417.232422,679.550781 C416.945312,679.669271 416.701497,679.778646 416.500977,679.878906 C416.227539,680.00651 416.011068,680.131836 415.851562,680.254883 C415.692057,680.37793 415.564453,680.496419 415.46875,680.610352 C415.373047,680.724284 415.30013,680.838216 415.25,680.952148 C415.19987,681.066081 415.152018,681.173177 415.106445,681.273438 C414.924154,681.647135 414.716797,682.096029 414.484375,682.620117 C414.251953,683.144206 414.008138,683.716146 413.75293,684.335938 L413.75293,684.335938 L411.975586,684.417969 C411.902669,684.445312 411.827474,684.506836 411.75,684.602539 C411.672526,684.698242 411.604167,684.80306 411.544922,684.916992 C411.485677,685.030924 411.435547,685.140299 411.394531,685.245117 C411.353516,685.349935 411.333008,685.429688 411.333008,685.484375 C411.333008,685.502604 411.337565,685.511719 411.34668,685.511719 L411.34668,685.511719 L413.288086,685.511719 C412.969076,686.341146 412.652344,687.188802 412.337891,688.054688 C412.023438,688.920573 411.743164,689.734049 411.49707,690.495117 C411.250977,691.256185 411.052734,691.932943 410.902344,692.525391 C410.751953,693.117839 410.676758,693.550781 410.676758,693.824219 C410.676758,693.979167 410.763346,694.166016 410.936523,694.384766 C411.109701,694.603516 411.314779,694.81543 411.551758,695.020508 C411.788737,695.225586 412.032552,695.398763 412.283203,695.540039 C412.533854,695.681315 412.736654,695.751953 412.891602,695.751953 Z M422.858398,685.361328 C422.913086,685.361328 422.986003,685.304362 423.077148,685.19043 C423.168294,685.076497 423.263997,684.932943 423.364258,684.759766 C423.464518,684.586589 423.567057,684.397461 423.671875,684.192383 C423.776693,683.987305 423.870117,683.791341 423.952148,683.604492 C424.03418,683.417643 424.104818,683.253581 424.164062,683.112305 C424.223307,682.971029 424.257487,682.882161 424.266602,682.845703 C424.266602,682.791016 424.186849,682.697591 424.027344,682.56543 C423.867839,682.433268 423.676432,682.298828 423.453125,682.162109 C423.229818,682.025391 422.999674,681.904622 422.762695,681.799805 C422.525716,681.694987 422.325195,681.642578 422.161133,681.642578 C422.079102,681.642578 421.962891,681.747396 421.8125,681.957031 C421.662109,682.166667 421.513997,682.415039 421.368164,682.702148 C421.222331,682.989258 421.094727,683.285482 420.985352,683.59082 C420.875977,683.896159 420.821289,684.144531 420.821289,684.335938 C420.821289,684.38151 420.896484,684.458984 421.046875,684.568359 C421.197266,684.677734 421.379557,684.789388 421.59375,684.90332 C421.807943,685.017253 422.03125,685.119792 422.263672,685.210938 C422.496094,685.302083 422.694336,685.352214 422.858398,685.361328 Z M418.852539,695.751953 C419.071289,695.751953 419.335612,695.679036 419.645508,695.533203 C419.955404,695.38737 420.288086,695.195964 420.643555,694.958984 C420.999023,694.722005 421.365885,694.453125 421.744141,694.152344 C422.122396,693.851562 422.486979,693.550781 422.837891,693.25 C423.188802,692.949219 423.514648,692.655273 423.81543,692.368164 C424.116211,692.081055 424.366862,691.83724 424.567383,691.636719 C424.467122,691.527344 424.360026,691.408854 424.246094,691.28125 C424.132161,691.153646 424.03418,691.048828 423.952148,690.966797 C423.842773,691.057943 423.683268,691.194661 423.473633,691.376953 C423.263997,691.559245 423.029297,691.762044 422.769531,691.985352 C422.509766,692.208659 422.238607,692.434245 421.956055,692.662109 C421.673503,692.889974 421.402344,693.099609 421.142578,693.291016 C420.882812,693.482422 420.652669,693.63737 420.452148,693.755859 C420.251628,693.874349 420.101237,693.933594 420.000977,693.933594 C419.946289,693.933594 419.918945,693.90625 419.918945,693.851562 C419.918945,693.751302 419.950846,693.591797 420.014648,693.373047 C420.078451,693.154297 420.160482,692.899089 420.260742,692.607422 C420.361003,692.315755 420.474935,692.003581 420.602539,691.670898 C420.730143,691.338216 420.857747,691.005534 420.985352,690.672852 C421.112956,690.340169 421.233724,690.01888 421.347656,689.708984 C421.461589,689.399089 421.555013,689.130208 421.62793,688.902344 C421.646159,688.838542 421.659831,688.786133 421.668945,688.745117 C421.67806,688.704102 421.682617,688.669922 421.682617,688.642578 C421.682617,688.505859 421.586914,688.344076 421.395508,688.157227 C421.204102,687.970378 420.98763,687.792643 420.746094,687.624023 C420.504557,687.455404 420.274414,687.311849 420.055664,687.193359 C419.836914,687.07487 419.700195,687.015625 419.645508,687.015625 C419.609049,687.015625 419.531576,687.138672 419.413086,687.384766 C419.294596,687.630859 419.155599,687.954427 418.996094,688.355469 C418.836589,688.75651 418.658854,689.214518 418.462891,689.729492 C418.266927,690.244466 418.080078,690.770833 417.902344,691.308594 C417.724609,691.846354 417.558268,692.375 417.40332,692.894531 C417.248372,693.414062 417.125326,693.874349 417.03418,694.275391 C417.03418,694.439453 417.102539,694.608073 417.239258,694.78125 C417.375977,694.954427 417.540039,695.111654 417.731445,695.25293 C417.922852,695.394206 418.123372,695.512695 418.333008,695.608398 C418.542643,695.704102 418.71582,695.751953 418.852539,695.751953 Z M424.143555,696.039062 L427.452148,693.318359 C427.506836,693.582682 427.568359,693.847005 427.636719,694.111328 C427.705078,694.375651 427.775716,694.635417 427.848633,694.890625 C427.930664,695.209635 428.185872,695.451172 428.614258,695.615234 C429.042643,695.779297 429.543945,695.861328 430.118164,695.861328 C430.327799,695.861328 430.592122,695.786133 430.911133,695.635742 C431.230143,695.485352 431.57194,695.287109 431.936523,695.041016 C432.301107,694.794922 432.679362,694.516927 433.071289,694.207031 C433.463216,693.897135 433.841471,693.58724 434.206055,693.277344 C434.570638,692.967448 434.905599,692.666667 435.210938,692.375 C435.516276,692.083333 435.769206,691.83724 435.969727,691.636719 C435.869466,691.527344 435.76237,691.408854 435.648438,691.28125 C435.534505,691.153646 435.436523,691.048828 435.354492,690.966797 C435.245117,691.057943 435.081055,691.201497 434.862305,691.397461 C434.643555,691.593424 434.397461,691.812174 434.124023,692.053711 C433.850586,692.295247 433.563477,692.541341 433.262695,692.791992 C432.961914,693.042643 432.674805,693.272786 432.401367,693.482422 C432.12793,693.692057 431.886393,693.862956 431.676758,693.995117 C431.467122,694.127279 431.312174,694.193359 431.211914,694.193359 C431.029622,694.193359 430.911133,694.150065 430.856445,694.063477 C430.801758,693.976888 430.760742,693.90625 430.733398,693.851562 C430.706055,693.815104 430.671875,693.712565 430.630859,693.543945 C430.589844,693.375326 430.544271,693.16569 430.494141,692.915039 L430.455688,692.720642 C430.416382,692.519836 430.374512,692.299805 430.330078,692.060547 C430.270833,691.741536 430.20931,691.413411 430.145508,691.076172 C430.674154,690.638672 431.182292,690.217122 431.669922,689.811523 C432.157552,689.405924 432.590495,689.045898 432.96875,688.731445 C433.347005,688.416992 433.650065,688.161784 433.87793,687.96582 C434.105794,687.769857 434.233398,687.658203 434.260742,687.630859 C434.297201,687.594401 434.31543,687.567057 434.31543,687.548828 C434.324544,687.521484 434.285807,687.469076 434.199219,687.391602 C434.11263,687.314128 434.01237,687.232096 433.898438,687.145508 C433.784505,687.058919 433.670573,686.983724 433.556641,686.919922 C433.442708,686.85612 433.358398,686.824219 433.303711,686.824219 C433.239909,686.824219 433.157878,686.860677 433.057617,686.933594 L433.057617,686.933594 L429.885742,689.599609 C429.785482,689.061849 429.698893,688.594727 429.625977,688.198242 C429.55306,687.801758 429.50293,687.557943 429.475586,687.466797 C429.338867,687.357422 429.152018,687.25944 428.915039,687.172852 C428.67806,687.086263 428.42513,687.011068 428.15625,686.947266 C427.88737,686.883464 427.623047,686.833333 427.363281,686.796875 C427.103516,686.760417 426.882487,686.742188 426.700195,686.742188 C426.618164,686.742188 426.52474,686.858398 426.419922,687.09082 C426.315104,687.323242 426.151042,687.642253 425.927734,688.047852 C425.704427,688.453451 425.403646,688.931966 425.025391,689.483398 C424.647135,690.034831 424.148112,690.625 423.52832,691.253906 L423.52832,691.253906 L424.18457,691.923828 C424.485352,691.677734 424.770182,691.406576 425.039062,691.110352 C425.307943,690.814128 425.547201,690.529297 425.756836,690.255859 C425.966471,689.982422 426.146484,689.736328 426.296875,689.517578 C426.447266,689.298828 426.554362,689.139323 426.618164,689.039062 C426.681966,689.276042 426.757161,689.64974 426.84375,690.160156 C426.930339,690.670573 427.037435,691.249349 427.165039,691.896484 L427.165039,691.896484 L423.145508,695.273438 C423.127279,695.291667 423.113607,695.309896 423.104492,695.328125 C423.095378,695.346354 423.09082,695.369141 423.09082,695.396484 C423.09082,695.423828 423.134115,695.47168 423.220703,695.540039 C423.307292,695.608398 423.407552,695.681315 423.521484,695.758789 C423.635417,695.836263 423.751628,695.902344 423.870117,695.957031 C423.988607,696.011719 424.079753,696.039062 424.143555,696.039062 L424.143555,696.039062 Z M451.569336,699.169922 C451.797201,699.069661 452.095703,698.932943 452.464844,698.759766 C452.833984,698.586589 453.200846,698.411133 453.56543,698.233398 C453.930013,698.055664 454.258138,697.896159 454.549805,697.754883 C454.841471,697.613607 455.032878,697.52474 455.124023,697.488281 C454.230794,696.41276 453.294271,695.116211 452.314453,693.598633 C451.334635,692.081055 450.252279,690.28776 449.067383,688.21875 C450.671549,687.234375 452.107096,686.288737 453.374023,685.381836 C454.640951,684.474935 455.800781,683.579427 456.853516,682.695312 C457.90625,681.811198 458.883789,680.924805 459.786133,680.036133 C460.688477,679.147461 461.581706,678.229167 462.46582,677.28125 C462.256185,677.108073 462.019206,676.905273 461.754883,676.672852 C461.49056,676.44043 461.217122,676.203451 460.93457,675.961914 C460.652018,675.720378 460.374023,675.490234 460.100586,675.271484 C459.827148,675.052734 459.576497,674.861328 459.348633,674.697266 C458.96582,675.380859 458.510091,676.084961 457.981445,676.80957 C457.452799,677.53418 456.871745,678.267904 456.238281,679.010742 C455.604818,679.753581 454.930339,680.496419 454.214844,681.239258 C453.499349,681.982096 452.767904,682.706706 452.020508,683.413086 C451.273112,684.119466 450.521159,684.80306 449.764648,685.463867 C449.008138,686.124674 448.269857,686.746745 447.549805,687.330078 C448.324544,685.625651 449.092448,683.866536 449.853516,682.052734 C450.614583,680.238932 451.391602,678.302083 452.18457,676.242188 C452.020508,676.041667 451.817708,675.825195 451.576172,675.592773 C451.334635,675.360352 451.077148,675.123372 450.803711,674.881836 C450.530273,674.640299 450.25,674.394206 449.962891,674.143555 C449.675781,673.892904 449.400065,673.639974 449.135742,673.384766 C448.716471,674.843099 448.267578,676.303711 447.789062,677.766602 C447.310547,679.229492 446.816081,680.667318 446.305664,682.080078 C445.795247,683.492839 445.277995,684.862305 444.753906,686.188477 C444.229818,687.514648 443.714844,688.772461 443.208984,689.961914 C442.703125,691.151367 442.213216,692.254232 441.739258,693.270508 C441.265299,694.286784 440.827799,695.191406 440.426758,695.984375 C440.681966,696.166667 440.996419,696.378581 441.370117,696.620117 C441.743815,696.861654 442.131185,697.141927 442.532227,697.460938 C443.388997,695.838542 444.202474,694.257161 444.972656,692.716797 C445.742839,691.176432 446.492513,689.617839 447.22168,688.041016 C448.078451,690.583984 448.873698,692.776042 449.607422,694.617188 C450.341146,696.458333 450.995117,697.975911 451.569336,699.169922 Z M462.793945,685.361328 C462.848633,685.361328 462.921549,685.304362 463.012695,685.19043 C463.103841,685.076497 463.199544,684.932943 463.299805,684.759766 C463.400065,684.586589 463.502604,684.397461 463.607422,684.192383 C463.71224,683.987305 463.805664,683.791341 463.887695,683.604492 C463.969727,683.417643 464.040365,683.253581 464.099609,683.112305 C464.158854,682.971029 464.193034,682.882161 464.202148,682.845703 C464.202148,682.791016 464.122396,682.697591 463.962891,682.56543 C463.803385,682.433268 463.611979,682.298828 463.388672,682.162109 C463.165365,682.025391 462.935221,681.904622 462.698242,681.799805 C462.461263,681.694987 462.260742,681.642578 462.09668,681.642578 C462.014648,681.642578 461.898438,681.747396 461.748047,681.957031 C461.597656,682.166667 461.449544,682.415039 461.303711,682.702148 C461.157878,682.989258 461.030273,683.285482 460.920898,683.59082 C460.811523,683.896159 460.756836,684.144531 460.756836,684.335938 C460.756836,684.38151 460.832031,684.458984 460.982422,684.568359 C461.132812,684.677734 461.315104,684.789388 461.529297,684.90332 C461.74349,685.017253 461.966797,685.119792 462.199219,685.210938 C462.431641,685.302083 462.629883,685.352214 462.793945,685.361328 Z M458.788086,695.751953 C459.006836,695.751953 459.271159,695.679036 459.581055,695.533203 C459.890951,695.38737 460.223633,695.195964 460.579102,694.958984 C460.93457,694.722005 461.301432,694.453125 461.679688,694.152344 C462.057943,693.851562 462.422526,693.550781 462.773438,693.25 C463.124349,692.949219 463.450195,692.655273 463.750977,692.368164 C464.051758,692.081055 464.302409,691.83724 464.50293,691.636719 C464.402669,691.527344 464.295573,691.408854 464.181641,691.28125 C464.067708,691.153646 463.969727,691.048828 463.887695,690.966797 C463.77832,691.057943 463.618815,691.194661 463.40918,691.376953 C463.199544,691.559245 462.964844,691.762044 462.705078,691.985352 C462.445312,692.208659 462.174154,692.434245 461.891602,692.662109 C461.609049,692.889974 461.337891,693.099609 461.078125,693.291016 C460.818359,693.482422 460.588216,693.63737 460.387695,693.755859 C460.187174,693.874349 460.036784,693.933594 459.936523,693.933594 C459.881836,693.933594 459.854492,693.90625 459.854492,693.851562 C459.854492,693.751302 459.886393,693.591797 459.950195,693.373047 C460.013997,693.154297 460.096029,692.899089 460.196289,692.607422 C460.296549,692.315755 460.410482,692.003581 460.538086,691.670898 L460.538086,691.670898 L460.920898,690.672852 C461.048503,690.340169 461.169271,690.01888 461.283203,689.708984 C461.397135,689.399089 461.49056,689.130208 461.563477,688.902344 C461.581706,688.838542 461.595378,688.786133 461.604492,688.745117 C461.613607,688.704102 461.618164,688.669922 461.618164,688.642578 C461.618164,688.505859 461.522461,688.344076 461.331055,688.157227 C461.139648,687.970378 460.923177,687.792643 460.681641,687.624023 C460.440104,687.455404 460.209961,687.311849 459.991211,687.193359 C459.772461,687.07487 459.635742,687.015625 459.581055,687.015625 C459.544596,687.015625 459.467122,687.138672 459.348633,687.384766 C459.230143,687.630859 459.091146,687.954427 458.931641,688.355469 C458.772135,688.75651 458.594401,689.214518 458.398438,689.729492 C458.202474,690.244466 458.015625,690.770833 457.837891,691.308594 C457.660156,691.846354 457.493815,692.375 457.338867,692.894531 C457.183919,693.414062 457.060872,693.874349 456.969727,694.275391 C456.969727,694.439453 457.038086,694.608073 457.174805,694.78125 C457.311523,694.954427 457.475586,695.111654 457.666992,695.25293 C457.858398,695.394206 458.058919,695.512695 458.268555,695.608398 C458.47819,695.704102 458.651367,695.751953 458.788086,695.751953 Z M465.008789,695.902344 C465.136393,695.902344 465.222982,695.865885 465.268555,695.792969 C465.314128,695.720052 465.364258,695.619792 465.418945,695.492188 C465.856445,694.46224 466.30306,693.571289 466.758789,692.819336 C467.214518,692.067383 467.647461,691.424805 468.057617,690.891602 C468.467773,690.358398 468.834635,689.920898 469.158203,689.579102 C469.481771,689.237305 469.730143,688.961589 469.90332,688.751953 L469.90332,688.751953 L469.930664,688.724609 C469.766602,689.134766 469.595703,689.583659 469.417969,690.071289 C469.240234,690.558919 469.069336,691.051107 468.905273,691.547852 C468.741211,692.044596 468.588542,692.529948 468.447266,693.003906 C468.30599,693.477865 468.194336,693.901693 468.112305,694.275391 C468.112305,694.439453 468.180664,694.608073 468.317383,694.78125 C468.454102,694.954427 468.620443,695.111654 468.816406,695.25293 C469.01237,695.394206 469.215169,695.512695 469.424805,695.608398 C469.63444,695.704102 469.807617,695.751953 469.944336,695.751953 C470.153971,695.751953 470.413737,695.679036 470.723633,695.533203 C471.033529,695.38737 471.366211,695.195964 471.72168,694.958984 C472.077148,694.722005 472.44401,694.453125 472.822266,694.152344 C473.200521,693.851562 473.565104,693.550781 473.916016,693.25 C474.266927,692.949219 474.592773,692.655273 474.893555,692.368164 C475.194336,692.081055 475.444987,691.83724 475.645508,691.636719 C475.545247,691.527344 475.44043,691.408854 475.331055,691.28125 C475.22168,691.153646 475.121419,691.048828 475.030273,690.966797 C474.920898,691.057943 474.761393,691.194661 474.551758,691.376953 C474.342122,691.559245 474.107422,691.762044 473.847656,691.985352 C473.587891,692.208659 473.316732,692.434245 473.03418,692.662109 C472.751628,692.889974 472.480469,693.099609 472.220703,693.291016 C471.960938,693.482422 471.730794,693.63737 471.530273,693.755859 C471.329753,693.874349 471.179362,693.933594 471.079102,693.933594 C471.024414,693.933594 470.99707,693.90625 470.99707,693.851562 C470.99707,693.751302 471.028971,693.591797 471.092773,693.373047 C471.156576,693.154297 471.238607,692.899089 471.338867,692.607422 C471.439128,692.315755 471.55306,692.003581 471.680664,691.670898 C471.808268,691.338216 471.935872,691.005534 472.063477,690.672852 C472.191081,690.340169 472.311849,690.01888 472.425781,689.708984 C472.539714,689.399089 472.633138,689.130208 472.706055,688.902344 C472.724284,688.838542 472.737956,688.786133 472.74707,688.745117 C472.756185,688.704102 472.760742,688.669922 472.760742,688.642578 C472.760742,688.505859 472.671875,688.346354 472.494141,688.164062 C472.316406,687.981771 472.106771,687.804036 471.865234,687.630859 C471.623698,687.457682 471.38444,687.311849 471.147461,687.193359 C470.910482,687.07487 470.732747,687.015625 470.614258,687.015625 C470.513997,687.015625 470.375,687.058919 470.197266,687.145508 C470.019531,687.232096 469.787109,687.39388 469.5,687.630859 C469.212891,687.867839 468.861979,688.193685 468.447266,688.608398 C468.032552,689.023112 467.538086,689.558594 466.963867,690.214844 C467.073242,689.895833 467.182617,689.585938 467.291992,689.285156 C467.401367,688.984375 467.510742,688.688151 467.620117,688.396484 C467.219076,688.041016 466.783854,687.73112 466.314453,687.466797 C465.845052,687.202474 465.418945,686.979167 465.036133,686.796875 C464.799154,687.325521 464.578125,687.874674 464.373047,688.444336 C464.167969,689.013997 463.978841,689.572266 463.805664,690.119141 C463.632487,690.666016 463.477539,691.187826 463.34082,691.68457 C463.204102,692.181315 463.090169,692.623372 462.999023,693.010742 C462.907878,693.398112 462.83724,693.719401 462.787109,693.974609 C462.736979,694.229818 462.711914,694.384766 462.711914,694.439453 C462.875977,694.61263 463.060547,694.785807 463.265625,694.958984 C463.470703,695.132161 463.675781,695.289388 463.880859,695.430664 C464.085938,695.57194 464.286458,695.685872 464.482422,695.772461 C464.678385,695.859049 464.853841,695.902344 465.008789,695.902344 Z M474.333008,704.638672 C474.560872,704.638672 474.836589,704.565755 475.160156,704.419922 C475.483724,704.274089 475.834635,704.06901 476.212891,703.804688 C476.591146,703.540365 476.985352,703.219076 477.395508,702.84082 C477.805664,702.462565 478.206706,702.038737 478.598633,701.569336 C478.99056,701.099935 479.361979,700.589518 479.712891,700.038086 C480.063802,699.486654 480.371419,698.910156 480.635742,698.308594 C480.818034,697.871094 480.99349,697.435872 481.162109,697.00293 C481.330729,696.569987 481.487956,696.14388 481.633789,695.724609 C482.408529,695.141276 483.190104,694.514648 483.978516,693.844727 C484.766927,693.174805 485.55306,692.438802 486.336914,691.636719 L486.336914,691.636719 L485.72168,690.912109 C485.138346,691.495443 484.552734,692.042318 483.964844,692.552734 C483.376953,693.063151 482.791341,693.550781 482.208008,694.015625 C482.444987,693.268229 482.640951,692.607422 482.795898,692.033203 C482.950846,691.458984 483.078451,691.01237 483.178711,690.693359 C483.19694,690.638672 483.206055,690.606771 483.206055,690.597656 L483.206055,690.597656 L483.206055,690.570312 C483.206055,690.479167 483.16276,690.328776 483.076172,690.119141 C482.989583,689.909505 482.887044,689.697591 482.768555,689.483398 C482.650065,689.269206 482.529297,689.080078 482.40625,688.916016 C482.283203,688.751953 482.185221,688.660807 482.112305,688.642578 C482.084961,688.660807 482.064453,688.679036 482.050781,688.697266 C482.037109,688.715495 482.021159,688.733724 482.00293,688.751953 C481.88444,688.916016 481.720378,689.130208 481.510742,689.394531 C481.301107,689.658854 481.061849,689.943685 480.792969,690.249023 C480.524089,690.554362 480.239258,690.864258 479.938477,691.178711 C479.637695,691.493164 479.336914,691.777995 479.036133,692.033203 C478.735352,692.288411 478.441406,692.495768 478.154297,692.655273 C477.867188,692.814779 477.609701,692.894531 477.381836,692.894531 C477.299805,692.894531 477.238281,692.864909 477.197266,692.805664 C477.15625,692.746419 477.135742,692.675781 477.135742,692.59375 C477.135742,692.356771 477.226888,692.090169 477.40918,691.793945 C477.591471,691.497721 477.830729,691.187826 478.126953,690.864258 C478.423177,690.54069 478.753581,690.214844 479.118164,689.886719 C479.482747,689.558594 479.847331,689.250977 480.211914,688.963867 C480.576497,688.676758 480.922852,688.419271 481.250977,688.191406 C481.579102,687.963542 481.847982,687.785807 482.057617,687.658203 C482.066732,687.658203 482.080404,687.653646 482.098633,687.644531 C482.125977,687.617188 482.139648,687.594401 482.139648,687.576172 C482.139648,687.548828 482.073568,687.489583 481.941406,687.398438 C481.809245,687.307292 481.654297,687.213867 481.476562,687.118164 C481.298828,687.022461 481.118815,686.935872 480.936523,686.858398 C480.754232,686.780924 480.612956,686.742188 480.512695,686.742188 C479.847331,686.924479 479.220703,687.186523 478.632812,687.52832 C478.044922,687.870117 477.502604,688.257487 477.005859,688.69043 C476.509115,689.123372 476.0625,689.585938 475.666016,690.078125 C475.269531,690.570312 474.932292,691.053385 474.654297,691.527344 C474.376302,692.001302 474.164388,692.450195 474.018555,692.874023 C473.872721,693.297852 473.799805,693.660156 473.799805,693.960938 C473.799805,694.197917 473.856771,694.421224 473.970703,694.630859 C474.084635,694.840495 474.221354,695.022786 474.380859,695.177734 C474.540365,695.332682 474.69987,695.458008 474.859375,695.553711 C475.01888,695.649414 475.148763,695.697266 475.249023,695.697266 C475.631836,695.697266 476.053385,695.590169 476.513672,695.375977 C476.973958,695.161784 477.436523,694.88151 477.901367,694.535156 C478.366211,694.188802 478.817383,693.794596 479.254883,693.352539 C479.692383,692.910482 480.075195,692.461589 480.40332,692.005859 C480.056966,693.054036 479.758464,693.935872 479.507812,694.651367 C479.257161,695.366862 479.031576,695.984375 478.831055,696.503906 C477.937826,697.123698 477.108398,697.700195 476.342773,698.233398 C475.577148,698.766602 474.909505,699.27474 474.339844,699.757812 C473.770182,700.240885 473.323568,700.710286 473,701.166016 C472.676432,701.621745 472.514648,702.086589 472.514648,702.560547 C472.514648,702.779297 472.580729,703.00944 472.712891,703.250977 C472.845052,703.492513 473.004557,703.71582 473.191406,703.920898 C473.378255,704.125977 473.576497,704.296875 473.786133,704.433594 C473.995768,704.570312 474.17806,704.638672 474.333008,704.638672 Z M474.12793,702.806641 C474.073242,702.806641 474.045898,702.770182 474.045898,702.697266 C474.045898,702.369141 474.14388,702.038737 474.339844,701.706055 C474.535807,701.373372 474.809245,701.029297 475.160156,700.673828 C475.511068,700.318359 475.932617,699.951497 476.424805,699.573242 C476.916992,699.194987 477.45931,698.791667 478.051758,698.363281 C477.805664,698.855469 477.498047,699.363607 477.128906,699.887695 C476.759766,700.411784 476.383789,700.890299 476.000977,701.323242 C475.618164,701.756185 475.255859,702.111654 474.914062,702.389648 C474.572266,702.667643 474.310221,702.806641 474.12793,702.806641 Z" id="FantixKing"></path>
            </g>
        </g>
    </g>
</svg>