<?xml version="1.0" encoding="UTF-8"?>
<svg width="1920px" height="909px" viewBox="0 0 1920 909" version="1.1" xmlns="http://www.w3.org/2000/svg" xmlns:xlink="http://www.w3.org/1999/xlink">
    <!-- Generator: Sketch 61.2 (89653) - https://sketch.com -->
    <title>landing</title>
    <desc>Created with Sketch.</desc>
    <defs>
        <rect id="path-1" x="0" y="0" width="1920" height="909"></rect>
        <linearGradient x1="73.3232719%" y1="37.7076572%" x2="-17.114633%" y2="71.1310326%" id="linearGradient-3">
            <stop stop-color="#1F296F" offset="0%"></stop>
            <stop stop-color="#FFFFFF" offset="100%"></stop>
        </linearGradient>
        <linearGradient x1="64.0355519%" y1="-26.9631613%" x2="75.1052923%" y2="168.814029%" id="linearGradient-4">
            <stop stop-color="#131B53" offset="0%"></stop>
            <stop stop-color="#212B73" offset="100%"></stop>
        </linearGradient>
        <path d="M8.8817842e-14,53.3255132 L5.08862798,47.1826296 L5.08862798,38.316227 L11.4005054,33.801809 L5.08862798,9.88887912 L11.4005054,0.0524742944 L22.6739317,23.7723232 C32.0732475,28.7638249 37.1049368,32.6491971 37.7689996,35.4284399 C38.4330625,38.2076827 37.3600156,44.2723599 34.5498589,53.6224715 L8.8817842e-14,53.3255132 Z" id="path-5"></path>
        <linearGradient x1="50%" y1="-343.352857%" x2="58.2926775%" y2="148.440329%" id="linearGradient-7">
            <stop stop-color="#FFFFFF" offset="0%"></stop>
            <stop stop-color="#212B73" offset="100%"></stop>
        </linearGradient>
        <linearGradient x1="50%" y1="0%" x2="50%" y2="100%" id="linearGradient-8">
            <stop stop-color="#60689B" offset="0%"></stop>
            <stop stop-color="#4D5691" offset="100%"></stop>
        </linearGradient>
        <path d="M255.170088,129.325513 L259.712418,122.682029 L259.712418,113.86633 L266.104333,109.377728 L266.104333,84.4094109 L270.929657,84.2170088 L277.520712,99.4055968 C287.039215,104.368554 292.134709,108.231707 292.807192,110.995057 C293.479676,113.758406 292.393022,119.788402 289.547231,129.085044 L255.170088,129.325513 Z" id="path-9"></path>
        <linearGradient x1="50%" y1="0%" x2="50%" y2="100%" id="linearGradient-11">
            <stop stop-color="#252F76" offset="0%"></stop>
            <stop stop-color="#1C266A" offset="100%"></stop>
        </linearGradient>
        <linearGradient x1="30.3464628%" y1="27.8520163%" x2="84.5300907%" y2="94.3968146%" id="linearGradient-12">
            <stop stop-color="#2E387F" offset="0%"></stop>
            <stop stop-color="#131B53" offset="100%"></stop>
        </linearGradient>
        <radialGradient cx="64.6476583%" cy="100%" fx="64.6476583%" fy="100%" r="138.554675%" gradientTransform="translate(0.646477,1.000000),scale(0.682000,1.000000),translate(-0.646477,-1.000000)" id="radialGradient-13">
            <stop stop-color="#242E75" offset="0%"></stop>
            <stop stop-color="#131B53" offset="100%"></stop>
        </radialGradient>
        <path d="M36,0 L56.3753666,0 C76.2576176,-3.65231026e-15 92.3753666,16.117749 92.3753666,36 L92.3753666,63 L92.3753666,63 L0,63 L0,36 C-2.4348735e-15,16.117749 16.117749,3.65231026e-15 36,0 Z" id="path-14"></path>
        <linearGradient x1="57.722938%" y1="-259.519529%" x2="57.722938%" y2="184.223894%" id="linearGradient-16">
            <stop stop-color="#4E5EAE" offset="0%"></stop>
            <stop stop-color="#131B53" offset="100%"></stop>
        </linearGradient>
        <path d="M0.792421355,40.4962222 C4.73097103,29.0343121 18.6600324,15.3859867 35.5724571,11.950598 C52.4848817,8.51520942 74.471422,-2.53700659 97.3249511,1.22132142 C120.17848,4.97964943 142.159066,10.0778706 163.880938,24.4717195 C185.602809,38.8655683 187.992468,60.3549985 176.77977,54.7706308 C170.742927,51.7640438 161.854677,46.6942695 155.013333,46.8288604 C148.870621,46.949707 145.164457,52.2946769 133.451916,49.8297759 C108.694727,44.6196327 110.64165,44.6196327 93.8444803,49.8297759 C77.0473101,55.0399191 78.5029584,34.3935717 54.970869,46.8288604 C31.4387797,59.264149 32.764832,35.941499 20.7190042,42.7247968 C8.67317637,49.5080945 -3.14612832,51.9581323 0.792421355,40.4962222 Z" id="path-17"></path>
        <radialGradient cx="47.1333068%" cy="-266.560242%" fx="47.1333068%" fy="-266.560242%" r="424.862132%" gradientTransform="translate(0.471333,-2.665602),scale(0.301221,1.000000),rotate(90.000000),translate(-0.471333,2.665602)" id="radialGradient-19">
            <stop stop-color="#FFFFFF" offset="0%"></stop>
            <stop stop-color="#202A73" offset="100%"></stop>
        </radialGradient>
        <linearGradient x1="50%" y1="-162.42279%" x2="50%" y2="240.282837%" id="linearGradient-20">
            <stop stop-color="#4D5DAD" offset="0%"></stop>
            <stop stop-color="#263077" offset="100%"></stop>
        </linearGradient>
        <path d="M5.77703045,43.0274456 C5.13243706,41.5009045 6.33076241,31.9547782 9.97916264,25.6345955 C13.6275629,19.3144128 21.9280397,12.3655655 26.9702314,12.3655655 C32.0124231,12.3655655 52.0248996,8.12467112 62.4426207,16.8796333 C72.8603418,25.6345955 71.9897564,43.0274456 79.0673842,43.0274456 C86.145012,43.0274456 86.701796,40.0450998 91.1279843,40.0450998 C95.5541727,40.0450998 99.7892718,43.3506194 101.607977,40.0450998 C103.426683,36.7395802 95.0347748,5.96228547 64.1521902,1.39882698 C33.2696056,-3.16463151 15.0994994,7.39417629 7.80819356,16.8796333 C0.516887685,26.3650903 -1.06591829,43.1016895 2.42863374,45.8041545 C5.92318577,48.5066195 6.42162385,44.5539866 5.77703045,43.0274456 Z" id="path-21"></path>
        <linearGradient x1="43.5597725%" y1="-403.803946%" x2="43.5597725%" y2="241.274337%" id="linearGradient-23">
            <stop stop-color="#FFFFFF" stop-opacity="0.97817417" offset="0%"></stop>
            <stop stop-color="#212B73" offset="100%"></stop>
        </linearGradient>
        <linearGradient x1="20.9670184%" y1="-412.728952%" x2="57.1203208%" y2="122.842153%" id="linearGradient-24">
            <stop stop-color="#7383B5" offset="0%"></stop>
            <stop stop-color="#202A73" offset="100%"></stop>
        </linearGradient>
        <path d="M98.9452443,0.299748607 C99.8972766,0.299748607 102.004257,41.116345 102.004257,42.3939972 C102.004257,43.2457654 112.814109,55.2782239 134.433815,78.4913727 C155.657597,80.4075169 166.269488,82.0410468 166.269488,83.3919622 L166.269488,92.6046306 L140.168572,92.6046306 L140.168572,126.929918 L142.018151,126.929918 L142.018151,147.383313 L159.808326,147.383313 L159.808326,163.649697 L183.440542,163.649697 L183.440542,176.38474 L169.014891,176.38474 L168.345941,176.396039 C166.760618,229.624163 166.802638,268.156192 168.471999,291.992127 C171.040697,328.669226 185.406187,467.429558 192.129722,489.789879 C196.612078,504.69676 197.651465,514.420403 195.247881,518.96081 L9.9475983e-14,521.028835 C18.4402467,451.410376 28.5527071,390.211394 30.3373812,337.431887 C32.1101794,285.003593 32.1219762,232.092552 30.3727716,178.698763 L22.6841245,178.826085 L22.6841245,166.597363 L39.5186752,166.597363 L40.3394696,150.390172 L57.5679902,150.390172 L57.5679902,126.929918 L61.405753,125.393807 L61.405753,92.6046306 L35.6588237,92.6046306 L35.6588237,83.3919622 L62.6327705,79.6186025 L97.7401642,42.3939972 C97.9088627,14.3311648 98.310556,0.299748607 98.9452443,0.299748607 Z M91.3535878,92 L78.9091434,92 L78.9091434,122.666667 L91.3535878,122.666667 L91.3535878,92 Z M108.242477,92 L95.7980323,92 L95.7980323,122.666667 L108.242477,122.666667 L108.242477,92 Z M123.353588,92 L110.909143,92 L110.909143,122.666667 L123.353588,122.666667 L123.353588,92 Z" id="path-25"></path>
        <linearGradient x1="35.2908723%" y1="-93.3678973%" x2="66.0856499%" y2="207.91373%" id="linearGradient-27">
            <stop stop-color="#131B53" offset="0%"></stop>
            <stop stop-color="#2F3C7F" offset="100%"></stop>
        </linearGradient>
        <linearGradient x1="50%" y1="0%" x2="171.907857%" y2="731.043443%" id="linearGradient-28">
            <stop stop-color="#1C2660" offset="0%"></stop>
            <stop stop-color="#1C2660" offset="100%"></stop>
        </linearGradient>
        <linearGradient x1="7.90686417%" y1="0%" x2="363.569031%" y2="625.405194%" id="linearGradient-29">
            <stop stop-color="#131B53" offset="0%"></stop>
            <stop stop-color="#A4B8E1" offset="100%"></stop>
        </linearGradient>
        <linearGradient x1="87.6330222%" y1="107.872797%" x2="271.163159%" y2="316.397631%" id="linearGradient-30">
            <stop stop-color="#263077" offset="0%"></stop>
            <stop stop-color="#131B53" offset="100%"></stop>
        </linearGradient>
        <radialGradient cx="50%" cy="50%" fx="50%" fy="50%" r="50%" id="radialGradient-31">
            <stop stop-color="#FFFFFF" offset="0%"></stop>
            <stop stop-color="#F2EDD1" offset="100%"></stop>
        </radialGradient>
        <circle id="path-32" cx="112" cy="105" r="10"></circle>
        <filter x="-255.0%" y="-255.0%" width="610.0%" height="610.0%" filterUnits="objectBoundingBox" id="filter-33">
            <feOffset dx="0" dy="0" in="SourceAlpha" result="shadowOffsetOuter1"></feOffset>
            <feGaussianBlur stdDeviation="17" in="shadowOffsetOuter1" result="shadowBlurOuter1"></feGaussianBlur>
            <feColorMatrix values="0 0 0 0 0.94838649   0 0 0 0 0.829006732   0 0 0 0 0.331143737  0 0 0 1 0" type="matrix" in="shadowBlurOuter1"></feColorMatrix>
        </filter>
        <radialGradient cx="50%" cy="50%" fx="50%" fy="50%" r="213.203118%" id="radialGradient-34">
            <stop stop-color="#FFFFFF" offset="0%"></stop>
            <stop stop-color="#F2EDD1" offset="100%"></stop>
        </radialGradient>
        <circle id="path-35" cx="112" cy="105" r="9"></circle>
        <filter x="-283.3%" y="-283.3%" width="666.7%" height="666.7%" filterUnits="objectBoundingBox" id="filter-36">
            <feOffset dx="0" dy="0" in="SourceAlpha" result="shadowOffsetOuter1"></feOffset>
            <feGaussianBlur stdDeviation="17" in="shadowOffsetOuter1" result="shadowBlurOuter1"></feGaussianBlur>
            <feColorMatrix values="0 0 0 0 0.94838649   0 0 0 0 0.829006732   0 0 0 0 0.331143737  0 0 0 1 0" type="matrix" in="shadowBlurOuter1"></feColorMatrix>
        </filter>
        <linearGradient x1="-78.379211%" y1="-6.67462182%" x2="74.6365683%" y2="57.374285%" id="linearGradient-37">
            <stop stop-color="#202A73" offset="0%"></stop>
            <stop stop-color="#131B53" offset="100%"></stop>
        </linearGradient>
        <linearGradient x1="-261.068697%" y1="40.8660682%" x2="135.562426%" y2="50.8601019%" id="linearGradient-38">
            <stop stop-color="#202A73" offset="0%"></stop>
            <stop stop-color="#131B53" offset="100%"></stop>
        </linearGradient>
        <linearGradient x1="47.0384951%" y1="-310.521762%" x2="57.6858979%" y2="1540.5166%" id="linearGradient-39">
            <stop stop-color="#131B53" offset="0%"></stop>
            <stop stop-color="#202A73" offset="100%"></stop>
        </linearGradient>
        <linearGradient x1="17.0313673%" y1="49.2576886%" x2="135.562426%" y2="53.0689616%" id="linearGradient-40">
            <stop stop-color="#131B53" offset="0%"></stop>
            <stop stop-color="#131B53" offset="100%"></stop>
        </linearGradient>
        <linearGradient x1="48.7738819%" y1="-142.849034%" x2="55.4027805%" y2="142.820691%" id="linearGradient-41">
            <stop stop-color="#192262" offset="0%"></stop>
            <stop stop-color="#131B53" offset="100%"></stop>
        </linearGradient>
        <linearGradient x1="50%" y1="-221.013093%" x2="50%" y2="446.086209%" id="linearGradient-42">
            <stop stop-color="#131B53" offset="0%"></stop>
            <stop stop-color="#212B73" offset="100%"></stop>
        </linearGradient>
        <linearGradient x1="-367.824875%" y1="-568.294946%" x2="136.679507%" y2="248.746215%" id="linearGradient-43">
            <stop stop-color="#131B53" offset="0%"></stop>
            <stop stop-color="#0B1243" offset="100%"></stop>
        </linearGradient>
        <path d="M0.156992269,50.6669425 L0.156992269,14.7340824 C3.19377022,4.09048127 8.7678984,-0.786579297 16.8793768,0.102900686 C24.9908552,0.992380669 29.7135033,6.94268811 31.0473212,17.953823 L31.0473212,50.6669425 L0.156992269,50.6669425 Z" id="path-44"></path>
        <linearGradient x1="41.3707157%" y1="-11.1648669%" x2="76.4419118%" y2="133.227347%" id="linearGradient-46">
            <stop stop-color="#131B53" offset="0%"></stop>
            <stop stop-color="#131B53" offset="100%"></stop>
        </linearGradient>
        <linearGradient x1="-357.29465%" y1="-1159.55512%" x2="334.30809%" y2="417.013565%" id="linearGradient-47">
            <stop stop-color="#212B73" offset="0%"></stop>
            <stop stop-color="#131B53" offset="100%"></stop>
        </linearGradient>
        <linearGradient x1="-36085.0165%" y1="49.3895388%" x2="25273.6986%" y2="50.1852314%" id="linearGradient-48">
            <stop stop-color="#212B73" offset="0%"></stop>
            <stop stop-color="#131B53" offset="100%"></stop>
        </linearGradient>
        <linearGradient x1="-36085.0165%" y1="-12.622267%" x2="25273.6986%" y2="69.0013841%" id="linearGradient-49">
            <stop stop-color="#212B73" offset="0%"></stop>
            <stop stop-color="#131B53" offset="100%"></stop>
        </linearGradient>
        <linearGradient x1="-65.5860995%" y1="34.5195027%" x2="100%" y2="56.4101997%" id="linearGradient-50">
            <stop stop-color="#212B73" offset="0%"></stop>
            <stop stop-color="#131B53" offset="100%"></stop>
        </linearGradient>
        <linearGradient x1="4.37109439%" y1="-173.580255%" x2="73.8015959%" y2="202.593696%" id="linearGradient-51">
            <stop stop-color="#202A73" offset="0%"></stop>
            <stop stop-color="#131B53" offset="100%"></stop>
        </linearGradient>
        <path d="M0.19845212,68.5626187 C0.19845212,67.5155934 0.19845212,50.3921494 0.19845212,17.1922869 C3.25664483,5.73076232 8.72054582,2.13162821e-14 16.5901551,2.13162821e-14 C24.4597644,2.13162821e-14 29.7583547,5.73076232 32.4859261,17.1922869 L29.2959546,69.6489906 C27.0895024,71.0301942 25.2302517,71.8690886 23.7182027,72.1656739 C22.2061536,72.4622591 20.9733946,72.5753018 20.0199256,72.504802 C18.571233,74.7855051 16.7134494,75.9258566 14.4465747,75.9258566 C12.1797,75.9258566 10.3940217,74.2462131 9.08953985,70.886926 C3.16214803,70.3844131 0.19845212,69.609644 0.19845212,68.5626187 Z" id="path-52"></path>
        <rect id="path-54" x="8" y="30.2222222" width="8.88888889" height="12.4444444" rx="2"></rect>
        <filter x="-67.5%" y="-48.2%" width="235.0%" height="196.4%" filterUnits="objectBoundingBox" id="filter-55">
            <feOffset dx="0" dy="0" in="SourceAlpha" result="shadowOffsetOuter1"></feOffset>
            <feGaussianBlur stdDeviation="2" in="shadowOffsetOuter1" result="shadowBlurOuter1"></feGaussianBlur>
            <feColorMatrix values="0 0 0 0 0.94838649   0 0 0 0 0.829006732   0 0 0 0 0.331143737  0 0 0 1 0" type="matrix" in="shadowBlurOuter1"></feColorMatrix>
        </filter>
        <path d="M0.19845212,68.5626187 C0.19845212,67.5155934 0.19845212,50.3921494 0.19845212,17.1922869 C3.25664483,5.73076232 8.72054582,2.13162821e-14 16.5901551,2.13162821e-14 C24.4597644,2.13162821e-14 29.7583547,5.73076232 32.4859261,17.1922869 L29.2959546,69.6489906 C27.0895024,71.0301942 25.2302517,71.8690886 23.7182027,72.1656739 C22.2061536,72.4622591 20.9733946,72.5753018 20.0199256,72.504802 C18.571233,74.7855051 16.7134494,75.9258566 14.4465747,75.9258566 C12.1797,75.9258566 10.3940217,74.2462131 9.08953985,70.886926 C3.16214803,70.3844131 0.19845212,69.609644 0.19845212,68.5626187 Z" id="path-56"></path>
        <rect id="path-58" x="8" y="30.2222222" width="8.88888889" height="12.4444444" rx="2"></rect>
        <filter x="-67.5%" y="-48.2%" width="235.0%" height="196.4%" filterUnits="objectBoundingBox" id="filter-59">
            <feOffset dx="0" dy="0" in="SourceAlpha" result="shadowOffsetOuter1"></feOffset>
            <feGaussianBlur stdDeviation="2" in="shadowOffsetOuter1" result="shadowBlurOuter1"></feGaussianBlur>
            <feColorMatrix values="0 0 0 0 0.94838649   0 0 0 0 0.829006732   0 0 0 0 0.331143737  0 0 0 1 0" type="matrix" in="shadowBlurOuter1"></feColorMatrix>
        </filter>
        <path d="M1839.31279,1048.93554 C1839.31279,1037.82384 1845.01463,1019 1864.09446,1019 C1883.1743,1019 1884.19801,1033.52033 1884.78271,1033.52033 C1885.3674,1033.52033 1884.18144,1019 1869.88265,1015.78126 C1855.58387,1012.56251 1847.88998,1014.5758 1841.72833,1019 C1835.56667,1023.4242 1830.27067,1029.58892 1830.27067,1040.36662 C1830.27067,1042.94217 1828.36609,1049.64533 1830.27067,1051.39451 C1831.21538,1052.26213 1832.43024,1051.83723 1833.68095,1052.16332 C1836.44549,1052.8841 1839.31279,1053.03447 1839.31279,1048.93554 Z" id="path-60"></path>
        <linearGradient x1="-94.5767439%" y1="-105.083104%" x2="90.0330842%" y2="85.3243828%" id="linearGradient-62">
            <stop stop-color="#EEEEEE" offset="0%"></stop>
            <stop stop-color="#212B73" offset="100%"></stop>
        </linearGradient>
        <linearGradient x1="50%" y1="-119.603617%" x2="50%" y2="799.617233%" id="linearGradient-63">
            <stop stop-color="#252F76" offset="0%"></stop>
            <stop stop-color="#212B73" offset="100%"></stop>
        </linearGradient>
        <linearGradient x1="50%" y1="-840.453643%" x2="50%" y2="348.083734%" id="linearGradient-64">
            <stop stop-color="#FFFFFF" offset="0%"></stop>
            <stop stop-color="#212B73" offset="100%"></stop>
        </linearGradient>
        <linearGradient x1="35.4750269%" y1="-31.6006863%" x2="50%" y2="72.4287858%" id="linearGradient-65">
            <stop stop-color="#FFFFFF" offset="0%"></stop>
            <stop stop-color="#253076" offset="100%"></stop>
        </linearGradient>
        <linearGradient x1="25.8890999%" y1="11.8389462%" x2="114.551072%" y2="97.8275963%" id="linearGradient-66">
            <stop stop-color="#293378" offset="0%"></stop>
            <stop stop-color="#293378" offset="100%"></stop>
        </linearGradient>
        <path d="M0.119200691,10 C0.641907912,10.9801105 1.21276042,11.951472 4.90632503,11.951472 C8.59988964,11.951472 53.4139523,13.0314132 54.4798931,11.951472 C55.545834,10.8715307 53.5889575,2.54955543 43.4272001,1.32579169 C33.2654428,0.102027955 18.059717,-0.914275056 9.26809136,1.32579169 C0.476465756,3.56585844 -0.403506531,9.01988952 0.119200691,10 Z" id="path-67"></path>
        <linearGradient x1="56.2928824%" y1="-5.52670915%" x2="50%" y2="71.2531657%" id="linearGradient-69">
            <stop stop-color="#FFFFFF" offset="0%"></stop>
            <stop stop-color="#212B73" offset="100%"></stop>
        </linearGradient>
        <linearGradient x1="86.8161879%" y1="94.1538059%" x2="-26.728079%" y2="-13.5729732%" id="linearGradient-70">
            <stop stop-color="#212B73" offset="0%"></stop>
            <stop stop-color="#131B53" offset="100%"></stop>
        </linearGradient>
        <linearGradient x1="76.5684829%" y1="91.8619363%" x2="-67.7835997%" y2="-75.7970847%" id="linearGradient-71">
            <stop stop-color="#212B73" offset="0%"></stop>
            <stop stop-color="#D8D8D8" offset="100%"></stop>
        </linearGradient>
        <linearGradient x1="50%" y1="0%" x2="50%" y2="100%" id="linearGradient-72">
            <stop stop-color="#131B53" offset="0%"></stop>
            <stop stop-color="#273177" offset="100%"></stop>
        </linearGradient>
        <path d="M3.93169318,10.1440671 C3.0670071,10.1548376 0.0550079067,6.78255653 3.93169318,3.41433427 C6.18643286,1.45532447 10.51949,3.65680287 12.9614324,3.41433427 C47.3477722,-5.17363929e-14 70.6924524,5.96327381 116.506131,3.41433427 C174.931693,0.163706306 190.931693,1.67870037 190.455498,6.78159466 C189.68816,15.0043556 184.456176,7.60539762 180.948251,7.90117973 C174.25074,8.46590223 159.302935,7.5706124 140.021522,8.59355648 C128.383901,9.21097157 119.194792,12.3976659 109.153915,12.3769281 C83.7247337,12.3240488 72.2863785,8.97902464 55.0452152,8.59355648 C46.1583442,8.39486886 33.1563921,10.1440671 24.2038166,10.1440671 C12.2881051,10.1440671 10.0516096,5.66906298 8.43569953,7.90117973 C6.81978943,10.1332965 4.79637926,10.1332965 3.93169318,10.1440671 Z" id="path-73"></path>
        <linearGradient x1="50.8892124%" y1="-721.544969%" x2="50.8892124%" y2="288.186943%" id="linearGradient-75">
            <stop stop-color="#EEEEEE" offset="0%"></stop>
            <stop stop-color="#212B73" offset="100%"></stop>
        </linearGradient>
        <linearGradient x1="50%" y1="-162.594384%" x2="50%" y2="100%" id="linearGradient-76">
            <stop stop-color="#212B73" offset="0%"></stop>
            <stop stop-color="#131B53" offset="100%"></stop>
        </linearGradient>
        <linearGradient x1="50%" y1="-268.591039%" x2="50%" y2="100%" id="linearGradient-77">
            <stop stop-color="#EEEEEE" offset="0%"></stop>
            <stop stop-color="#212B73" offset="100%"></stop>
        </linearGradient>
        <linearGradient x1="105.190282%" y1="-159.127502%" x2="50%" y2="58.6759137%" id="linearGradient-78">
            <stop stop-color="#1F285F" offset="0%"></stop>
            <stop stop-color="#212B73" offset="100%"></stop>
        </linearGradient>
        <linearGradient x1="157.566329%" y1="-371.407646%" x2="50%" y2="100%" id="linearGradient-79">
            <stop stop-color="#EEEEEE" offset="0%"></stop>
            <stop stop-color="#212B73" offset="100%"></stop>
        </linearGradient>
        <linearGradient x1="50%" y1="-616.156714%" x2="50%" y2="2358.19625%" id="linearGradient-80">
            <stop stop-color="#243194" offset="0%"></stop>
            <stop stop-color="#FFFFFF" offset="100%"></stop>
        </linearGradient>
        <linearGradient x1="64.238949%" y1="-189.216102%" x2="64.238949%" y2="494.367811%" id="linearGradient-81">
            <stop stop-color="#243194" offset="0%"></stop>
            <stop stop-color="#FFFFFF" offset="100%"></stop>
        </linearGradient>
    </defs>
    <g id="landing" stroke="none" stroke-width="1" fill="none" fill-rule="evenodd">
        <g id="banner-bg">
            <mask id="mask-2" fill="white">
                <use xlink:href="#path-1"></use>
            </mask>
            <g id="Mask"></g>
            <g mask="url(#mask-2)">
                <g transform="translate(-379.000000, -187.000000)">
                    <path d="M365.621839,305 C389.338546,308.142526 414.8768,308.731585 442.236601,306.767176 C483.276302,303.820563 506.191942,301.758442 531.559982,333.052485 C570.345718,398.586314 506.286046,393.675178 503.685908,395.968354 C501.853129,397.584761 496.842651,445.850344 444.247871,458.875988 C399.640888,469.923371 373.224931,466.024097 365,447.178166 L365.621839,305 Z" id="Path-12" stroke="none" fill="#212B73" fill-rule="evenodd"></path>
                    <path d="M2332.62536,288.583543 C2187.13682,422.48741 2131.98162,513.350961 2167.15977,561.174195 C2219.92698,632.909046 2318.35985,596.123086 2332.62536,651.582937 C2346.89086,707.042788 2228.51471,778.801365 2260.6366,816.880407 C2292.75849,854.959449 2382.97787,828.895724 2386.34599,875.402095 C2389.71411,921.908466 2267.68657,1069.1504 2181.30053,1040.7561 C2094.91448,1012.3618 2150.98289,1079.81508 2014.32524,1080.18574 C1923.22014,1080.43284 1608.47476,1080.43284 1070.08909,1080.18574 C1063.4146,1080.9851 1059.05892,1083.06889 1057.02205,1086.4371 C1054.98517,1089.8053 1053.97782,1092.99294 1054,1096 L2565,1096 L2493.24391,234 L2332.62536,288.583543 Z" id="Path-17" stroke="none" fill="url(#linearGradient-3)" fill-rule="evenodd"></path>
                    <path d="M825.060419,174.165612 C831.188203,182.350179 833.383622,190.74195 831.646676,199.340926 C829.041257,212.239389 813.566279,242.151471 831.646676,264.612275 C849.727072,287.073078 871.723676,301.614375 909.980923,308.518715 C935.485753,313.121609 963.256693,315.174142 993.293741,314.676314 C1040.93471,334.677013 1087.29875,341.11456 1132.38586,333.988955 C1177.47297,326.86335 1213.41138,300.69407 1240.20107,255.481112 L1311.22884,247.573903 C1314.51485,265.086876 1321.52866,277.136759 1332.27026,283.723552 C1343.01186,290.310344 1357.39192,295.275331 1375.41044,298.618512 C1351.22188,343.746196 1357.21566,392.843362 1393.39178,445.91001 C1429.56791,498.976659 1482.67434,515.684445 1552.71109,496.033369 C1580.08391,521.179518 1615.21941,528.739243 1658.11761,518.712543 C1701.01581,508.685843 1714.24241,482.953662 1697.79741,441.515998 C1735.87254,441.805429 1766.99364,432.012599 1791.16073,412.137509 C1827.41136,382.324874 1816.2342,368.744006 1823.10073,357.024909 C1829.96725,345.305813 1876.32705,337.898429 1862.40866,273.237843 C1853.12974,230.130786 1807.94957,190.051505 1726.86815,153 L825.060419,174.165612 Z" id="Path-13" stroke="none" fill="#212B73" fill-rule="evenodd"></path>
                    <g id="冰屋" stroke="none" stroke-width="1" fill="none" fill-rule="evenodd" transform="translate(1179.000000, 951.000000)">
                        <g id="Path-115" transform="translate(0.000000, 76.000000)">
                            <mask id="mask-6" fill="white">
                                <use xlink:href="#path-5"></use>
                            </mask>
                            <use id="Mask" fill="url(#linearGradient-4)" opacity="0.363839286" xlink:href="#path-5"></use>
                            <path d="M2.60317582,-1.56659426 C4.22999641,0.455016065 10.4560326,11.1499205 21.2812845,30.5181191 L20.061364,37.6251021 L23.6806902,39.071165 L18.8635521,41.4429856 C22.7917863,40.4347499 24.7559034,40.4347499 24.7559034,41.4429856 C24.7559034,42.4512214 24.7559034,44.1275033 24.7559034,46.4718313 L32.204725,56.7337905 L-17.3548387,59.4509396 C-5.67631627,16.7509733 0.976355238,-3.58820459 2.60317582,-1.56659426 Z" fill="url(#linearGradient-7)" mask="url(#mask-6)"></path>
                        </g>
                        <mask id="mask-10" fill="white">
                            <use xlink:href="#path-9"></use>
                        </mask>
                        <use id="Mask-Copy" fill="url(#linearGradient-8)" transform="translate(274.085044, 106.771261) scale(-1, 1) translate(-274.085044, -106.771261) " xlink:href="#path-9"></use>
                        <path d="M275.462669,72 C277.108761,73.9992464 277.924218,85.9162074 277.909041,107.750883 L276.67467,114.779245 L280.33687,116.209311 L275.462669,118.554894 C279.437436,117.557812 281.424819,117.557812 281.424819,118.554894 C281.424819,119.551976 281.424819,121.209714 281.424819,123.528108 L288.961877,133.676545 L238.815249,136.363636 C261.600771,91.455299 273.816578,70.0007536 275.462669,72 Z" id="Path-115-Copy" fill="url(#linearGradient-11)" mask="url(#mask-10)"></path>
                        <path d="M28.1768079,129.325513 C14.8136334,129.325513 44.5360013,0.879765396 141.346321,0.879765396 C205.886535,0.879765396 248.38693,43.6950147 268.847507,129.325513 C117.309157,129.325513 37.0855908,129.325513 28.1768079,129.325513 Z" id="Path-113" fill="url(#linearGradient-12)"></path>
                        <g id="Combined-Shape" transform="translate(179.111437, 66.381232)">
                            <mask id="mask-15" fill="white">
                                <use xlink:href="#path-14"></use>
                            </mask>
                            <use id="Mask" fill="url(#radialGradient-13)" xlink:href="#path-14"></use>
                            <path d="M60.4754769,2 C78.9634722,2 93.9509538,16.9874815 93.9509538,35.4754769 L93.9509538,64.4633431 L85.4761495,64.4633431 L85.4761495,37.1197198 C85.4761495,24.7163811 75.4212568,14.6614885 63.0179182,14.6614885 C50.6145795,14.6614885 40.5596868,24.7163811 40.5596868,37.1197198 L40.5596868,37.1197198 L40.5596868,64.4633431 L27,64.4633431 L27,35.4754769 C27,16.9874815 41.9874815,2 60.4754769,2 Z" fill="#182160" mask="url(#mask-15)"></path>
                        </g>
                        <g id="Path-114-Copy" transform="translate(55.064516, 0.000000)">
                            <mask id="mask-18" fill="white">
                                <use xlink:href="#path-17"></use>
                            </mask>
                            <use id="Mask" fill="url(#linearGradient-16)" xlink:href="#path-17"></use>
                            <path d="M0.771824635,35.8423817 C4.71037431,24.3804716 18.6394357,10.7321462 35.5518603,7.2967576 C52.464285,3.86136897 74.4508253,-7.19084703 97.3043544,-3.43251903 C120.157884,0.325808981 142.138469,5.42403015 163.860341,19.817879 C185.582213,34.2117279 187.971871,55.701158 176.759173,50.1167904 C170.72233,47.1102033 161.83408,42.040429 154.992737,42.1750199 C148.850024,42.2958666 145.143861,47.6408364 133.431319,45.1759355 C108.67413,39.9657923 110.621054,39.9657923 93.8238836,45.1759355 C77.0267134,50.3860787 78.4823617,29.7397313 54.9502723,42.1750199 C31.4181829,54.6103086 32.7442353,31.2876586 20.6984075,38.0709563 C8.65257965,44.8542541 -3.16672504,47.3042918 0.771824635,35.8423817 Z" fill="url(#radialGradient-19)" opacity="0.620210193" mask="url(#mask-18)"></path>
                        </g>
                        <g id="Path-114-Copy-2" transform="translate(225.765396, 87.203812) scale(-1, 1) translate(-225.765396, -87.203812) translate(174.765396, 63.703812)">
                            <mask id="mask-22" fill="white">
                                <use xlink:href="#path-21"></use>
                            </mask>
                            <use id="Mask" fill="url(#linearGradient-20)" xlink:href="#path-21"></use>
                            <path d="M3.0502348,39.9219991 C4.73877176,36.7765495 3.79875469,28.5710651 7.44715492,22.2508824 C11.0955551,15.9306997 19.396032,8.98185247 24.4382237,8.98185247 C29.4804153,8.98185247 49.4928918,4.74095806 59.910613,13.4959202 C70.3283341,22.2508824 72.338301,40.8998421 79.4159288,40.8998421 C86.4935567,40.8998421 83.5667778,38.5468563 88.6236216,38.5468563 C93.6804655,38.5468563 97.2572641,39.9669063 99.0759696,36.6613868 C100.894675,33.3558672 94.9880619,4.01046323 59.910613,-0.134088791 C24.833164,-4.27864081 12.5674917,4.01046323 5.27618584,13.4959202 C-2.01512004,22.9813772 -6.86805401,38.1973771 -3.37350199,40.8998421 C0.121050041,43.6023071 1.36169784,43.0674487 3.0502348,39.9219991 Z" fill="url(#linearGradient-23)" mask="url(#mask-22)"></path>
                        </g>
                    </g>
                    <g id="lighthouse" stroke="none" stroke-width="1" fill="none" fill-rule="evenodd" transform="translate(1673.000000, 528.000000)">
                        <g id="Path-106-+-Combined-Shape-Mask" transform="translate(12.646412, 0.000000)">
                            <g id="Mask">
                                <mask id="mask-26" fill="white">
                                    <use xlink:href="#path-25"></use>
                                </mask>
                                <use fill="url(#linearGradient-24)" xlink:href="#path-25"></use>
                            </g>
                            <polygon id="Path-106" fill="url(#linearGradient-27)" points="70.0202545 267.15534 70.0202545 553.15534 197.020254 553.15534 167.024122 267.15534"></polygon>
                            <path d="M171.835797,176.947904 L171.835797,244.453797 L70.0202545,244.453797 L70.0202545,176.947904 L171.835797,176.947904 Z M142.606925,125.444444 L142.606925,146.177107 L159.828035,146.177107 L159.828035,164.153682 L79.2226343,164.153682 L79.2226343,146.177107 L86.4025734,146.177107 L86.4025734,125.444444 L142.606925,125.444444 Z" id="Combined-Shape" fill="url(#linearGradient-28)"></path>
                            <path d="M99.0447802,0.587740489 L99.0447802,40.1543497 L85.1313656,77.3030776 L99.0447802,77.3030776 L99.0447802,84.7412685 L166.282714,84.7412685 C166.282714,84.256877 166.282714,83.8033472 166.282714,83.380679 C166.034344,82.3515544 161.117545,81.6540859 157.353588,80.8498431 C138.008692,76.7164283 128.29885,71.4709713 121.077621,64 C112.412667,54.7715482 106.054879,47.5695473 102.004257,42.3939972 C101.681809,33.277879 101.022163,22.0929701 100.025317,8.83927061 C99.028472,-4.41442885 98.7016262,-7.1649389 99.0447802,0.587740489 Z" id="Path-105" fill="url(#linearGradient-29)"></path>
                        </g>
                        <path d="M92,92 L92,125 L79,125 L79,92 L92,92 Z M153,92 L153,125 L141,125 L141,92 L153,92 Z M124,92 L124,125 L118,125 L118,92 L124,92 Z M109,92 L109,125 L104,125 L104,92 L109,92 Z" id="Combined-Shape" fill="url(#linearGradient-30)"></path>
                        <g id="Oval">
                            <use fill="black" fill-opacity="1" filter="url(#filter-33)" xlink:href="#path-32"></use>
                            <use fill="url(#radialGradient-31)" fill-rule="evenodd" xlink:href="#path-32"></use>
                        </g>
                        <g id="Oval">
                            <use fill="black" fill-opacity="1" filter="url(#filter-36)" xlink:href="#path-35"></use>
                            <use fill="url(#radialGradient-34)" fill-rule="evenodd" xlink:href="#path-35"></use>
                        </g>
                        <rect id="Rectangle" fill="#131B53" x="103" y="114" width="17" height="5" rx="1"></rect>
                        <rect id="Rectangle" fill="#0B1242" x="105" y="119" width="13" height="6"></rect>
                        <g id="Group-10" transform="translate(68.089829, 113.661010)" fill-rule="nonzero">
                            <path d="M88.1297488,-2 L-0.442884325,-2 L-0.442884325,15.3460956 L88.1297488,15.3460956 L88.1297488,-2 Z M84.129,1.999 L84.129,11.346 L3.557,11.346 L3.557,1.999 L84.129,1.999 Z" id="Path-94" fill="url(#linearGradient-37)"></path>
                            <polygon id="Path-95" fill="url(#linearGradient-38)" points="84.8146327 3.63230385 84.8146327 5.63230385 1.55711567 5.63230385 1.55711567 3.63230385"></polygon>
                            <polygon id="Path-95-Copy" fill="url(#linearGradient-38)" points="84.8146327 7.56121264 84.8146327 9.56121264 1.55711567 9.56121264 1.55711567 7.56121264"></polygon>
                            <polygon id="Path-96" fill="url(#linearGradient-39)" points="32.1626367 -2.84217094e-14 32.1626367 13.3460956 28.1626367 13.3460956 28.1626367 -2.84217094e-14"></polygon>
                            <polygon id="Path-96-Copy" fill="url(#linearGradient-39)" points="60.5768381 -2.84217094e-14 60.5768381 13.3460956 56.5768381 13.3460956 56.5768381 -2.84217094e-14"></polygon>
                            <polygon id="Path-97" fill="url(#linearGradient-40)" points="88.1521026 17.0171333 88.1521026 21.0171333 -4.26325641e-14 21.0171333 -4.26325641e-14 17.0171333"></polygon>
                        </g>
                        <g id="Group-27" transform="translate(126.222222, 176.888889)" fill="url(#linearGradient-41)">
                            <path d="M1.77777778,-2.84217094e-14 C0.337042608,47.0168421 0.337042608,101.724248 1.77777778,164.122218 C3.21851295,226.520188 5.88517961,287.305615 9.77777778,346.4785 L46.2522251,349.333333 C37.7344479,281.172249 33.4755593,219.637073 33.4755593,164.727804 C33.4755593,109.818536 33.4755593,54.9092681 33.4755593,-2.84217094e-14 L1.77777778,-2.84217094e-14 Z" id="Path-106-Copy"></path>
                        </g>
                        <path d="M6.66887236,520.913805 L0,552.871076 L239.501453,552.871076 C241.064554,535.015869 238.827371,523.766216 232.789903,519.122116 C226.752436,514.478016 220.024505,512.739254 212.60611,513.905829 C211.812368,499.204557 208.283996,491.322502 202.020993,490.259662 C192.62649,488.665403 182.248697,488.496933 169.713194,490.259662 C161.356192,491.434815 156.54779,501.055633 155.287988,519.122116 L6.66887236,520.913805 Z" id="Path-92" fill="url(#linearGradient-42)"></path>
                        <path d="M15.1090926,550.120719 C16.66748,544.203947 19.8370509,541.245562 24.6178054,541.245562 C29.3985599,541.245562 32.633318,544.203947 34.3220798,550.120719 L15.1090926,550.120719 Z" id="Path-102" fill="#131B53"></path>
                        <g id="Path-109" transform="translate(178.174302, 497.894505)">
                            <mask id="mask-45" fill="white">
                                <use xlink:href="#path-44"></use>
                            </mask>
                            <use id="Mask" fill="url(#linearGradient-43)" opacity="0.293968564" xlink:href="#path-44"></use>
                            <path d="M-3.375,18.1054946 C-0.125,9.87061281 6.375,9.87061281 9.625,18.1054946 C11.7916667,23.5954158 11.7916667,34.5752582 9.625,51.0450217 L-3.375,51.0450217 C-5.54166667,34.5752582 -5.54166667,23.5954158 -3.375,18.1054946 Z" fill="url(#linearGradient-46)" mask="url(#mask-45)"></path>
                        </g>
                        <path d="M218.411549,546.651836 L218.411549,526.013365 C222.420126,526.426281 225.830928,529.134069 228.643954,534.136729 C231.45698,539.13939 232.594707,543.311093 232.057135,546.651836 L218.411549,546.651836 Z" id="Path-104" fill="#131B53"></path>
                        <g id="Group-8" transform="translate(20.000000, 208.888889)">
                            <polygon id="Path-100" fill="url(#linearGradient-47)" fill-rule="nonzero" points="72.2222222 0 72.2222222 37.6764319 68.2222222 37.6764319 68.2222222 0"></polygon>
                            <polygon id="Path-100-Copy" fill="url(#linearGradient-47)" fill-rule="nonzero" points="35.7777778 0 35.7777778 37.6764319 31.7777778 37.6764319 31.7777778 0"></polygon>
                            <polygon id="Path-100-Copy-2" fill="url(#linearGradient-47)" fill-rule="nonzero" points="14.4444444 0 14.4444444 37.6764319 10.4444444 37.6764319 10.4444444 0"></polygon>
                            <polygon id="Path-100-Copy-3" fill="url(#linearGradient-47)" fill-rule="nonzero" points="113.111111 0 113.111111 37.6764319 109.111111 37.6764319 109.111111 0"></polygon>
                            <polygon id="Path-100-Copy-4" fill="url(#linearGradient-47)" fill-rule="nonzero" points="149.555556 0 149.555556 37.6764319 145.555556 37.6764319 145.555556 0"></polygon>
                            <polygon id="Path-100-Copy-5" fill="url(#linearGradient-47)" fill-rule="nonzero" points="176.222222 0 176.222222 37.6764319 172.222222 37.6764319 172.222222 0"></polygon>
                            <polygon id="Path-101" fill="url(#linearGradient-48)" fill-rule="nonzero" points="183.028151 21.8975776 183.028151 25.8975776 4.97740478 25.8975776 4.97740478 21.8975776"></polygon>
                            <polygon id="Path-101" fill="url(#linearGradient-48)" fill-rule="nonzero" points="183.028151 10.342022 183.028151 14.342022 4.97740478 14.342022 4.97740478 10.342022"></polygon>
                            <path d="M185.028151,-1.62229615 L185.028151,40.0541358 L5.64241384,40.0541358 L5.642,38.054 L1.86463606,38.0541358 L1.86463606,-1.62229615 L185.028151,-1.62229615 Z M181.028,2.377 L5.864,2.377 L5.864,36.054 L181.028,36.054 L181.028,2.377 Z" id="Path-99" fill="url(#linearGradient-49)" fill-rule="nonzero"></path>
                            <path d="M0.556845296,35.0425061 L186.779018,35.0425061 L186.779018,42.0804695 L160.171901,47.4620662 L160.171901,58.3071213 C162.575603,57.9489916 165.153228,58.2271627 167.904776,59.1416347 C170.656323,60.0561068 172.179272,61.1407542 172.473623,62.3955769 C173.065322,62.2845468 172.098521,63.2308606 169.573217,65.2345185 C167.047914,67.2381764 163.914142,68.5766652 160.171901,69.2499849 L21.8876153,69.2499849 C12.305212,69.3201519 7.51401031,67.9816631 7.51401031,65.2345185 C7.51401031,62.4873739 12.305212,60.1782415 21.8876153,58.3071213 L21.8876153,47.4620662 L0.556845296,42.0804695 L0.556845296,35.0425061 Z" id="Path-98" fill="url(#linearGradient-50)"></path>
                        </g>
                        <g id="Rectangle" transform="translate(35.555556, 335.741295)">
                            <mask id="mask-53" fill="white">
                                <use xlink:href="#path-52"></use>
                            </mask>
                            <use id="Mask" fill="url(#linearGradient-51)" xlink:href="#path-52"></use>
                            <path d="M11.5555556,13.5920386 C17.9375127,13.5920386 23.1111111,18.765637 23.1111111,25.1475941 L23.1111111,68.3698164 C23.1111111,70.0266706 21.7679654,71.3698164 20.1111111,71.3698164 L0,71.3698164 L0,71.3698164 L0,25.1475941 C-7.81564335e-16,18.765637 5.17359845,13.5920386 11.5555556,13.5920386 Z" fill="#131B53" mask="url(#mask-53)"></path>
                            <g mask="url(#mask-53)">
                                <use fill="black" fill-opacity="1" filter="url(#filter-55)" xlink:href="#path-54"></use>
                                <use fill="#F2EED1" fill-rule="evenodd" xlink:href="#path-54"></use>
                            </g>
                        </g>
                        <g id="Rectangle-Copy-4" transform="translate(176.500000, 374.741295) scale(-1, 1) rotate(-2.000000) translate(-176.500000, -374.741295) translate(160.000000, 336.741295)">
                            <mask id="mask-57" fill="white">
                                <use xlink:href="#path-56"></use>
                            </mask>
                            <use id="Mask" fill="url(#linearGradient-51)" xlink:href="#path-56"></use>
                            <path d="M11.5555556,13.5920386 C17.9375127,13.5920386 23.1111111,18.765637 23.1111111,25.1475941 L23.1111111,68.3698164 C23.1111111,70.0266706 21.7679654,71.3698164 20.1111111,71.3698164 L0,71.3698164 L0,71.3698164 L0,25.1475941 C-7.81564335e-16,18.765637 5.17359845,13.5920386 11.5555556,13.5920386 Z" id="Rectangle" fill="#131B53" mask="url(#mask-57)"></path>
                            <g id="Rectangle" mask="url(#mask-57)">
                                <use fill="black" fill-opacity="1" filter="url(#filter-59)" xlink:href="#path-58"></use>
                                <use fill="#F2EDD1" fill-rule="evenodd" xlink:href="#path-58"></use>
                            </g>
                        </g>
                    </g>
                    <mask id="mask-61" fill="white">
                        <use xlink:href="#path-60"></use>
                    </mask>
                    <use id="Mask" stroke="none" fill="#242E75" fill-rule="evenodd" xlink:href="#path-60"></use>
                    <path d="M1837.86573,1046.49198 C1837.86573,1035.65033 1843.21849,1018.45472 1861.90412,1018.45472 C1880.58974,1018.45472 1882.67813,1029.86559 1883.96037,1029.86559 C1885.24261,1029.86559 1881.02869,1017.28396 1869.17529,1015.33257 C1857.32189,1013.38117 1846.2657,1012.96728 1840.23135,1017.28396 C1834.19701,1021.60064 1829.01043,1027.61554 1829.01043,1038.13131 C1829.01043,1040.64427 1827.1452,1047.18452 1829.01043,1048.89119 C1829.82486,1049.63638 1831.03049,1048.68053 1832.10183,1049.02883 C1834.93759,1049.95077 1837.86573,1050.70789 1837.86573,1046.49198 Z" id="Path-103-Copy" stroke="none" fill="url(#linearGradient-62)" fill-rule="evenodd"></path>
                    <path d="M1202.11903,1078.85217 C1199.64044,1079.15319 1201.11052,1068.63437 1208.2285,1065.64128 C1215.34648,1062.64819 1225.11517,1061.62773 1228.23206,1065.64128 C1231.34894,1069.65483 1236.66406,1071.17658 1242.08681,1071.17658 C1247.50956,1071.17658 1253.21271,1076.46964 1251.77453,1080.57853 C1250.33635,1084.68743 1204.59762,1078.55114 1202.11903,1078.85217 Z" id="Path-114" stroke="none" fill="url(#linearGradient-63)" fill-rule="evenodd"></path>
                    <path d="M1200.13633,1080.49647 C1197.61942,1080.79104 1199.11223,1070.49802 1206.34024,1067.56917 C1213.56825,1064.64033 1224.50877,1063.68036 1226.65301,1067.56917 C1228.79726,1071.45799 1235.21536,1072.98565 1240.72194,1072.98565 C1246.22851,1072.98565 1253.26526,1076.18122 1251.80484,1080.20191 C1250.34443,1084.2226 1202.65323,1080.20191 1200.13633,1080.49647 Z" id="Path-114" stroke="none" fill="url(#linearGradient-64)" fill-rule="evenodd"></path>
                    <path d="M1444,1080.43223 C1445.7872,1077.99593 1448.11686,1076.77778 1450.98898,1076.77778 C1455.29715,1076.77778 1462.99988,1075.57886 1470.94639,1069.34524 C1478.89291,1063.11162 1494.95112,1066.03025 1499.07327,1074.4568 C1499.64027,1075.61586 1501.55445,1081 1497.33762,1081 C1492.33115,1081 1474.55195,1080.81074 1444,1080.43223 Z" id="Path-116" stroke="none" fill="url(#linearGradient-65)" fill-rule="evenodd"></path>
                    <g id="Path-117" stroke="none" stroke-width="1" fill="none" fill-rule="evenodd" transform="translate(1646.000000, 1071.000000)">
                        <mask id="mask-68" fill="white">
                            <use xlink:href="#path-67"></use>
                        </mask>
                        <use id="Mask" fill="url(#linearGradient-66)" xlink:href="#path-67"></use>
                        <path d="M-4.12805762,11.1646057 C-3.6053504,12.1447162 1.15488594,12.4314459 4.84845054,12.4314459 C8.54201515,12.4314459 44.5981816,15.1938644 50.3748466,9.87107612 C56.1515116,4.54828788 44.9513284,0.488610332 34.7895711,-0.735153406 C24.6278137,-1.95891714 18.059717,-3.91427506 9.26809136,-1.67420831 C0.476465756,0.565858443 -4.65076484,10.1844952 -4.12805762,11.1646057 Z" fill="url(#linearGradient-69)" mask="url(#mask-68)"></path>
                    </g>
                    <path d="M1809.07182,592.887135 C1815.30875,596.855782 1805.81948,600.961714 1821.82062,602.969974 C1837.82176,604.978234 1849.60909,610.775164 1838.86255,610.775164 C1828.11601,610.775164 1815.17794,612.595198 1807.56729,605.878685 C1799.95664,599.162172 1802.8349,588.918488 1809.07182,592.887135 Z" id="Path-8" stroke="none" fill="url(#linearGradient-70)" fill-rule="evenodd"></path>
                    <path d="M1809.03322,592.892938 C1813.44541,596.850037 1816.88259,601 1823.85064,601.954869 C1830.8187,602.909738 1851.75947,609.731891 1840.96639,609.731891 C1830.1733,609.731891 1815.29716,611.627893 1809.03322,605.335898 C1802.76928,599.043902 1804.62103,588.93584 1809.03322,592.892938 Z" id="Path-8" stroke="none" fill="url(#linearGradient-71)" fill-rule="evenodd"></path>
                    <g id="Path-103" stroke="none" stroke-width="1" fill="none" fill-rule="evenodd" transform="translate(1690.000000, 730.000000)">
                        <mask id="mask-74" fill="white">
                            <use xlink:href="#path-73"></use>
                        </mask>
                        <use id="Mask" fill="url(#linearGradient-72)" xlink:href="#path-73"></use>
                        <path d="M2.69965866,10.3768263 C1.46762414,10.3768263 -1.17702661,6.26767644 2.69965866,2.89945418 C4.95439834,0.940444383 8.17950619,1.50868375 12.9614324,1.41433427 C30.3321636,1.07160218 70.6924524,3.96327381 116.506131,1.41433427 C174.931693,-1.83629369 190.438747,2.84909413 189.328112,6.59355648 C187.572278,12.5132785 180.263612,5.48101758 168.760567,8.59355648 C160.508933,10.8263157 159.302935,5.5706124 140.021522,6.59355648 C128.383901,7.21097157 119.194792,10.3976659 109.153915,10.3768263 C83.7247337,10.3240488 72.2863785,6.97902464 55.0452152,6.59355648 C46.1583442,6.39486886 33.1563921,8.14406706 24.2038166,8.14406706 C12.2881051,8.14406706 8.41223934,5.91195031 6.79632924,8.14406706 C5.18041914,10.3761838 3.93169318,10.3768263 2.69965866,10.3768263 Z" fill="url(#linearGradient-75)"></path>
                    </g>
                    <path d="M1709.50089,883.925612 C1708.85976,884.769343 1707.81372,883.711552 1708.02859,881.866928 C1708.74564,875.711042 1712.71157,869.956662 1716.71507,868.277761 C1724.97939,864.812053 1735.12258,868.277761 1736.72338,880.129556 C1737.4368,885.411496 1736.72338,888 1735.12258,888 C1731.76015,888 1733.54913,876.950209 1728.75269,874.234054 C1726.77195,873.11239 1725.44618,877.347448 1724.53094,876.713889 C1722.73768,875.472533 1725.83107,870.05782 1719.79785,871.447509 C1713.76463,872.837198 1713.05331,874.923345 1711.52037,877.877544 C1709.98744,880.831744 1710.14201,883.08188 1709.50089,883.925612 Z" id="Path-118" stroke="none" fill="url(#linearGradient-76)" fill-rule="evenodd"></path>
                    <path d="M1709.50089,882.925612 C1708.85976,883.769343 1707.81372,882.711552 1708.02859,880.866928 C1708.74564,874.711042 1712.71157,868.956662 1716.71507,867.277761 C1724.97939,863.812053 1735.12258,867.277761 1736.72338,879.129556 C1737.4368,884.411496 1736.72338,887 1735.12258,887 C1731.76015,887 1733.54913,875.950209 1728.75269,873.234054 C1726.77195,872.11239 1725.44618,876.347448 1724.53094,875.713889 C1722.73768,874.472533 1725.83107,869.05782 1719.79785,870.447509 C1713.76463,871.837198 1713.05331,873.923345 1711.52037,876.877544 C1709.98744,879.831744 1710.14201,882.08188 1709.50089,882.925612 Z" id="Path-118" stroke="none" fill="url(#linearGradient-77)" fill-rule="evenodd"></path>
                    <path d="M1886.57536,1043.20073 C1888.05975,1043.9578 1897.48821,1041.37354 1903.53401,1047.69081 C1909.57981,1054.00808 1910.34753,1065.23474 1910.34753,1069.43205 C1910.34753,1073.62936 1910.92649,1076.75187 1913.13622,1073.90024 C1915.34595,1071.04862 1913.37805,1051.27768 1906.51512,1045.53636 C1899.65218,1039.79505 1893.25822,1040.00092 1889.91679,1040.00092 C1886.57536,1040.00092 1885.09098,1042.44366 1886.57536,1043.20073 Z" id="Path-119" stroke="none" fill="url(#linearGradient-78)" fill-rule="evenodd" opacity="0.918457031"></path>
                    <path d="M1887.57536,1043.20073 C1889.05975,1043.9578 1898.48821,1041.37354 1904.53401,1047.69081 C1910.57981,1054.00808 1911.34753,1065.23474 1911.34753,1069.43205 C1911.34753,1073.62936 1911.92649,1076.75187 1914.13622,1073.90024 C1916.34595,1071.04862 1914.37805,1051.27768 1907.51512,1045.53636 C1900.65218,1039.79505 1894.25822,1040.00092 1890.91679,1040.00092 C1887.57536,1040.00092 1886.09098,1042.44366 1887.57536,1043.20073 Z" id="Path-119" stroke="none" fill="url(#linearGradient-79)" fill-rule="evenodd"></path>
                    <path d="M1680.02712,1078.15774 C1681.17424,1079.84501 1681.99459,1081.61158 1682.48815,1083.45747 L1697.60103,1096 L1936,1096 C1934.31739,1093.24287 1931.16854,1090.32875 1926.55345,1087.25765 C1921.93836,1084.18655 1917.11419,1082.06814 1912.08095,1080.9024 L1700.64301,1080.9024 C1697.58285,1073.82347 1690.30596,1070.53993 1678.81233,1071.05177 C1673.78639,1071.27559 1674.64753,1070.55276 1676.23306,1072.7344 C1677.81858,1074.91604 1678.30643,1075.62685 1680.02712,1078.15774 Z" id="Path-128" stroke="none" fill="url(#linearGradient-80)" fill-rule="evenodd" style="mix-blend-mode: multiply;" opacity="0.713936942"></path>
                    <path d="M1204,1080.80174 C1212.48179,1081.2806 1219.63565,1083.50146 1225.46157,1087.46432 C1231.2875,1091.42717 1243.18914,1094.2724 1261.1665,1096 L1430.02257,1096 C1439.43082,1094.57384 1444.17747,1091.72861 1444.26251,1087.46432 C1444.34755,1083.20002 1446.52095,1080.89968 1450.78273,1080.56331 C1451.04038,1078.31876 1451.06888,1077.11684 1450.86823,1076.95753 C1450.56727,1076.71857 1448.46761,1077.23315 1447.03772,1077.97448 C1445.94459,1078.54121 1445.01953,1079.3858 1444.26251,1080.50824 L1252.62929,1080.50824 C1253.34899,1077.79105 1252.5239,1075.56517 1250.15402,1073.8306 C1245.46073,1070.39548 1231.16156,1070.39548 1225.46157,1065.36139 C1222.76913,1062.98348 1219.48385,1064.10752 1209.97308,1065.79399 C1207.30534,1066.26704 1203.67647,1067.40505 1204.24455,1069.22084 C1204.95596,1071.49478 1204.87445,1075.35508 1204,1080.80174 Z" id="Path-129" stroke="none" fill="url(#linearGradient-81)" fill-rule="evenodd" style="mix-blend-mode: multiply;" opacity="0.5"></path>
                </g>
            </g>
            <g id="Path-103-Copy" mask="url(#mask-2)">
                <g transform="translate(1449.000000, 826.000000)"></g>
            </g>
        </g>
    </g>
</svg>