<?xml version="1.0" encoding="UTF-8"?>
<svg width="206px" height="102px" viewBox="0 0 206 102" version="1.1" xmlns="http://www.w3.org/2000/svg" xmlns:xlink="http://www.w3.org/1999/xlink">
    <!-- Generator: Sketch 61.2 (89653) - https://sketch.com -->
    <title>gino loader</title>
    <desc>Created with Sketch.</desc>
    <defs>
        <path d="M10,0 L176,0 C181.522847,-1.01453063e-15 186,4.4771525 186,10 L186,70 C186,76.627417 180.627417,82 174,82 L12,82 C5.372583,82 8.11624501e-16,76.627417 0,70 L0,10 C-6.76353751e-16,4.4771525 4.4771525,1.01453063e-15 10,0 Z" id="path-1"></path>
        <linearGradient x1="50%" y1="13.5968769%" x2="50%" y2="137.883372%" id="linearGradient-3">
            <stop stop-color="#FFFFFF" offset="0%"></stop>
            <stop stop-color="#374D9B" offset="100%"></stop>
        </linearGradient>
    </defs>
    <g id="V3-最新稿件" stroke="none" stroke-width="1" fill="none" fill-rule="evenodd">
        <g id="HOME-v3.1" transform="translate(-1102.000000, -2282.000000)">
            <g id="artchiture" transform="translate(507.000000, 2281.000000)">
                <g id="gino-loader" transform="translate(595.000000, 1.000000)">
                    <rect id="loader-bg" fill="#FFFFFF" x="0" y="0" width="206" height="102" rx="12"></rect>
                    <g id="Mask" transform="translate(10.000000, 10.000000)">
                        <mask id="mask-2" fill="white">
                            <use xlink:href="#path-1"></use>
                        </mask>
                        <use fill="#374E9A" xlink:href="#path-1"></use>
                    </g>
                    <path d="M136.527995,9.99567318 C148.192708,9.99567318 58.7814723,9.46747574 57.7016675,10.0828391 C27.9725696,27.0249732 96.8963627,10.6373852 106.359306,19.7688448 C116.165956,29.2319725 118.242491,17.4181927 125.713703,19.7688448 C133.184915,22.1194969 145.882558,25.1888743 145.882558,17.3986454 C145.882558,14.4956921 146.297016,12.0335372 147.406954,10.0867688 C143.116536,9.99609375 129.575162,9.99567318 136.527995,9.99567318 Z M166.003906,10 C166.68201,15.000081 165.173675,22.0003192 173.334547,22.0003192 C181.941767,22.0003192 187.431541,19.6727035 191.841971,11.8763021 C190.064837,10.6832799 188.304905,10.0854589 186.562174,10.0828391 C182.405111,10.0867688 177.186832,10.0323485 166.003906,10 Z M20.4896303,10 C9.93759393,10 9.99855443,10 9.99855443,19.7688448 C9.99855443,26.281408 10.1059452,32.145123 10.3206304,37.3599898 C11.9951675,29.4249434 15.3848342,24.3050532 20.4896303,22.0003192 C25.0796029,19.9280198 26.5363176,14.2289145 31.5122152,9.99567318 C26.3728841,10.0206706 29.0321408,10 20.4896303,10 Z" id="形状" fill="url(#linearGradient-3)"></path>
                </g>
            </g>
        </g>
    </g>
</svg>