<?xml version="1.0" encoding="UTF-8"?>
<svg width="89px" height="56px" viewBox="0 0 89 56" version="1.1" xmlns="http://www.w3.org/2000/svg" xmlns:xlink="http://www.w3.org/1999/xlink">
    <!-- Generator: Sketch 61.2 (89653) - https://sketch.com -->
    <title>ying</title>
    <desc>Created with Sketch.</desc>
    <g id="V3-最新稿件" stroke="none" stroke-width="1" fill="none" fill-rule="evenodd">
        <g id="HOME-v3.1" transform="translate(-688.000000, -1367.000000)">
            <g id="highlights" transform="translate(328.000000, 1308.000000)">
                <g id="sql" transform="translate(276.000000, 0.000000)">
                    <g id="ying" transform="translate(87.230769, 62.307692)">
                        <path d="M34.312223,0.89010989 L31.368496,3.37322837 C35.0215408,1.62335527 38.7535169,0.998142656 42.5644243,1.49759054 C46.3753318,1.99703842 50.9076948,3.77694335 56.1615132,6.83730532 L51.0908386,6.83730532 C54.3482489,7.92656623 56.8394222,8.94689116 58.5643585,9.8982801 C62.2899393,11.9531248 66.6421188,14.2829347 68.1865678,16.2288338 C69.2162004,17.5260999 69.9836766,18.9511429 70.4889964,20.5039629 C69.9184293,20.620427 69.2509888,20.6165088 68.4866748,20.4922082 C68.0599406,20.4228083 67.3122438,20.4228083 66.2435845,20.4922082 C68.2798587,21.7883889 69.694996,22.7752231 70.4889964,23.4527107 C73.0791247,25.6627599 75.4980427,28.6564659 77.7457506,32.4338289 C73.1950647,30.2504627 70.2460821,28.8837247 68.8988027,28.3336149 C67.1286572,27.6108441 65.066972,27.0939151 62.7137471,26.782828 C64.4696421,28.3493818 65.6462546,29.4515758 66.2435845,30.0894099 C67.5178262,31.4500563 68.4028989,32.6174743 68.8988027,33.5916637 C66.5459591,32.612085 64.1887304,31.7435422 61.8271163,30.9860354 C60.0381574,30.4122123 57.8542377,29.9418751 55.2753572,29.5750238 C56.8476412,30.7101911 58.09576,31.4876891 59.0197137,31.9075178 C59.9436674,32.3273464 61.0759998,32.8354063 62.4167109,33.4316973 C59.1401079,34.1625488 56.8961342,34.5279745 55.6847899,34.5279745 C55.5528406,34.5279745 55.2753078,34.4485673 54.8521914,34.2897528 C57.5086235,36.6988929 59.5829274,38.3245373 61.0751033,39.166686 C62.5672791,40.0088347 64.9377673,40.8819567 68.1865678,41.7860518 C64.7175824,43.541417 61.2494996,44.4190996 57.7823193,44.4190996 C54.315139,44.4190996 51.0494609,44.0702198 47.9852852,43.3724602 C49.0451347,44.4995429 49.9324661,45.3485435 50.6472793,45.919462 C51.3620926,46.4903806 52.4996497,47.1359887 54.0599507,47.8562863 C47.9476457,50.558322 41.9635396,49.6784583 36.1076324,45.2166952 C27.3237716,38.5240506 23.6114651,30.9860354 15.8716141,30.9860354 C11.99496,30.9860354 9.57457886,31.6524604 8.61047059,32.9853103 C7.91699375,35.31891 9.42217054,36.9310703 10.5374866,37.8664069 C12.3330448,39.3722144 -3.13148389,35.7539686 0.576359535,25.4023488 C2.54715771,19.9002412 5.88766026,15.9781956 10.5978672,13.6362118 C10.602968,13.3994703 10.6516188,13.1642981 10.7441422,12.9311894 C12.4918496,8.52791709 11.7957856,7.23282523 18.4372433,4.32209096 C22.8648817,2.38160145 28.1565416,1.23760776 34.312223,0.89010989 Z" id="Combined-Shape" stroke="#FFFFFF" stroke-width="6" fill="#FFFFFF"></path>
                        <path d="M31.120128,1.17239551e-13 L28.735353,2.09653829 C31.6947611,0.619091285 34.7181132,0.0912138636 37.8054092,0.512906027 C40.8927053,0.93459819 44.5644675,2.43740157 48.8206959,5.02131615 L44.7128362,5.02131615 C47.3517325,5.94099728 49.3698842,6.80247461 50.7672913,7.60574814 C53.7854624,9.34068777 57.0501956,12.6867669 57.9926709,13.9714702 C58.9351462,15.2561735 60.5359086,17.0502948 60.4276904,17.0502948 C60.3194721,17.0502948 59.7343478,16.7078017 58.8055677,16.5503781 C58.4598614,16.4917826 57.8541365,16.4917826 56.9883932,16.5503781 C58.6380216,17.644765 59.784454,18.4779656 60.4276904,19.0499797 C63.5751662,21.8489516 65.6506713,25.2199903 66.306539,26.4657604 C66.6186784,27.058645 66.3741071,26.6821594 66.306539,26.6328873 C65.205888,25.8302682 60.77663,23.8677086 59.1394411,23.1710084 C57.7054092,22.5607609 56.0351948,22.1243092 54.1287979,21.8616531 C55.5512853,23.1843206 56.5044837,24.1149214 56.9883932,24.6534553 C58.5368281,26.37668 59.1394411,27.4630262 59.1394411,27.6104665 C59.1394411,27.7952924 56.2803093,26.3698546 53.4105197,25.4104911 C51.2366101,24.6837586 48.9692906,24.3746376 48.4344924,24.3746376 C48.3283739,24.3746376 48.1486924,24.1943682 48.1028024,24.2191505 C47.6121245,24.484135 50.0134127,25.6568116 51.1361841,26.1885141 C52.2589554,26.7202166 53.7718334,27.1670181 53.8881627,27.4754042 C54.0044919,27.7837903 49.9064956,28.4010094 48.4344924,28.4010094 C48.27415,28.4010094 47.7908363,28.1270543 47.7599869,28.1998747 C47.5076272,28.7955736 50.9880339,31.2509904 52.8012982,32.3175507 C54.0101411,33.0285909 55.9305233,33.7657823 58.5624447,34.5291249 C55.7521469,36.011209 52.9425803,36.752251 50.1337449,36.752251 C47.3249095,36.752251 44.6793152,36.457686 42.1969622,35.8685559 C43.0555685,36.8201706 43.7744143,37.5369959 44.3534995,38.019032 C44.9325847,38.501068 45.8541436,39.0461657 47.1181761,39.6543249 C42.1664697,41.9356987 37.3186199,41.1928151 32.5746268,37.4256742 C25.4586371,31.7749629 22.4512197,25.4104911 16.1810042,25.4104911 C13.0400609,25.4104911 11.0791637,25.9733027 10.2983128,27.0989257 C9.73686486,29.0688823 10.956199,30.4300043 11.8597157,31.2197034 C13.314335,32.4910818 0.786196191,29.4361365 3.78999786,20.6960915 C5.4374488,15.9025676 8.26635599,12.5294755 12.2767194,10.5768152 L12.0271317,10.166484 C12.595104,6.95900147 14.6725515,4.53606639 18.2594742,2.89767878 C21.8463968,1.25929116 26.1332814,0.293398236 31.120128,1.17239551e-13 Z" id="Combined-Shape" fill="#F4D54B"></path>
                        <path d="M10.7441422,12.9311894 C11.4452378,9.13227997 14.0096049,6.26258048 18.4372433,4.32209096 C22.8648817,2.38160145 28.1565416,1.23760776 34.312223,0.89010989 L31.368496,3.37322837 C35.0215408,1.62335527 38.7535169,0.998142656 42.5644243,1.49759054 C46.3753318,1.99703842 50.9076948,3.77694335 56.1615132,6.83730532 L51.0908386,6.83730532 C54.3482489,7.92656623 56.8394222,8.94689116 58.5643585,9.8982801 C62.2899393,11.9531248 66.3198724,15.9161867 67.4832484,17.4377761 C68.2588324,18.4521691 69.1230354,19.653204 70.0758575,21.040881 C69.7807163,20.7993997 69.2509888,20.6165088 68.4866748,20.4922082 C68.0599406,20.4228083 67.3122438,20.4228083 66.2435845,20.4922082 C68.2798587,21.7883889 69.694996,22.7752231 70.4889964,23.4527107 C73.0791247,25.6627599 75.4980427,28.5904848 77.7457506,32.2358855 C73.1950647,30.1844815 70.2460821,28.8837247 68.8988027,28.3336149 C67.1286572,27.6108441 65.066972,27.0939151 62.7137471,26.782828 C64.4696421,28.3493818 65.6462546,29.4515758 66.2435845,30.0894099 C67.5178262,31.4500563 68.4028989,32.6174743 68.8988027,33.5916637 C66.5459591,32.612085 64.1887304,31.7435422 61.8271163,30.9860354 C60.0381574,30.4122123 58.4536798,30.1133372 57.0736837,30.0894099 C57.4470833,30.8816532 58.09576,31.4876891 59.0197137,31.9075178 C59.9436674,32.3273464 61.0759998,32.8354063 62.4167109,33.4316973 C59.1401079,34.1625488 56.8961342,34.5279745 55.6847899,34.5279745 C55.5528406,34.5279745 55.3169652,34.5279745 54.9771639,34.5279745 C57.550281,36.7783001 59.5829274,38.3245373 61.0751033,39.166686 C62.5672791,40.0088347 64.9377673,40.8819567 68.1865678,41.7860518 C64.7175824,43.541417 61.2494996,44.4190996 57.7823193,44.4190996 C54.315139,44.4190996 51.0494609,44.0702198 47.9852852,43.3724602 C49.0451347,44.4995429 49.9324661,45.3485435 50.6472793,45.919462 C51.3620926,46.4903806 52.4996497,47.1359887 54.0599507,47.8562863 C47.9476457,50.558322 41.9635396,49.6784583 36.1076324,45.2166952 C27.3237716,38.5240506 23.6114651,30.9860354 15.8716141,30.9860354 C10.7117135,30.9860354 8.13176322,32.1666818 8.13176322,34.5279745 L6.19675177,22.6512626 L13.3742813,17.0780019 L10.7441422,12.9311894 Z" id="Path-3" stroke="#3E6CDE" stroke-width="3"></path>
                        <path d="M11.1483517,13.1308431 C10.0809185,10.8594113 11.7694483,8.35267794 16.2139412,5.61064298 C20.6584342,2.86860802 26.3075465,1.49759054 33.1612783,1.49759054 L30.9618083,3.94319876 C33.2351169,4.08797 34.8335012,4.29140786 35.7569611,4.55351233 C37.9482082,5.17545128 40.2470527,5.52782816 42.6534947,5.61064298 C42.1761276,7.04168914 41.6542028,7.79134765 41.0877202,7.85961851 C40.7417154,7.90131801 40.0916481,8.03273434 39.1375184,8.25386748 C40.692047,8.71331446 41.7504415,9.1246971 42.3127017,9.48801539 C46.0342406,11.8927794 48.820557,14.9191321 50.6716509,18.5670737 L46.3119696,18.5670737 C47.3367124,18.9957282 48.057829,19.3864433 48.4753195,19.7392189 C49.6228359,20.70886 50.502511,21.8004301 51.114345,23.0139293 C50.4996909,22.920312 49.6838361,22.8008063 48.6667806,22.6554123 C46.9860725,22.4151452 45.1477271,22.2292222 43.1517446,22.0976435 C43.4905883,22.3032122 44.0460194,22.6086408 44.8180381,23.0139293 C46.1068481,23.690519 47.6507678,25.1023621 49.4497972,27.2494587 L40.3971346,25.9139338 L42.6534947,29.3705962 L33.9060702,28.710117 C34.1080973,29.2184954 34.725061,29.699337 35.7569611,30.1526418 C38.6001212,31.4016178 40.6771861,33.0578578 41.9881558,35.121362 C38.3799482,33.6970153 35.0358479,32.9848419 31.955855,32.9848419 C27.3358658,32.9848419 22.8625147,32.0089668 22.1310324,30.8344018 C21.6433776,30.0513584 16.9769545,29.5634232 8.13176322,29.3705962 L11.1483517,13.1308431 Z" id="Path-7" stroke="#3E6CDE" stroke-width="3"></path>
                        <path d="M14.4563842,12.1562324 C15.3907614,14.7390826 18.574502,16.6385362 24.0076059,17.8545931 C29.4407098,19.07065 33.622913,19.4200545 36.5542155,18.9028065 C33.762537,20.5742015 30.5639851,21.7385451 26.9585598,22.3958372 C21.5504219,23.3817755 15.5934609,25.9139338 12.9198274,27.9035195 C5.93592538,33.1005937 8.74192837,36.3605993 10.5374866,37.8664069 C12.3330448,39.3722144 -3.13148389,35.7539686 0.576359535,25.4023488 C3.04825515,18.5012689 7.67493005,14.0858968 14.4563842,12.1562324 Z" id="Path" stroke="#3E6CDE" stroke-width="3" fill="#F8D447"></path>
                        <path d="M9.95465912,21.635033 C10.6658035,21.4962761 7.74389643,24.0475925 8.18711132,24.6192342 C8.48258791,25.0003287 8.91038188,25.1807745 9.47049322,25.1605717 C7.46361565,26.1650545 6.37688147,26.1650545 6.21029067,25.1605717 C5.96040448,23.6538477 9.24351478,21.7737898 9.95465912,21.635033 Z" id="Path-2" fill="#3E6CDE"></path>
                        <path d="M17.2796536,13.1308431 C18.1920403,14.9344571 19.1884845,15.9401584 20.2689863,16.1479472 C21.8897389,16.4596304 28.6571705,15.9553945 30.4557903,13.1308431 C32.2544101,10.3062918 30.3497349,12.6391069 29.1824606,12.6391069 C28.0151863,12.6391069 28.6029792,11.3706201 28.6029792,11.3706201 C28.6029792,11.3706201 28.532054,11.1171856 28.3902035,10.6103165 C29.1957591,10.0786147 30.3529487,9.81276375 31.8617724,9.81276375 C33.3705961,9.81276375 35.599034,10.2418773 38.547086,11.1001044 L34.3801726,6.82042702 L20.2689863,8.00197347 L18.0065819,10.053027 L17.2796536,13.1308431 Z" id="Path-8" fill="#3E6CDE"></path>
                        <path d="M32.333304,1.98131791 C26.0194445,2.62026804 21.4520562,4.1683285 18.6311391,6.62549929 C14.3997636,10.3112555 14.0997598,12.435657 16.8573221,14.2213362 C19.6148844,16.0070154 22.8625147,9.41404367 27.3358658,8.40596968 C30.3180998,7.73392035 34.4388391,8.98400791 39.6980836,12.1562324 L35.141349,8.35927433 C35.6158618,7.73029275 35.995202,7.32396097 36.2793695,7.14027897 C36.9465499,6.70902255 37.4652916,6.41009114 37.8355945,6.24348474 C35.7145729,5.61700216 33.3529998,5.30376087 30.750875,5.30376087 C28.1487503,5.30376087 26.8101741,5.30376087 26.7351465,5.30376087 L32.333304,1.98131791 Z" id="Path-4" stroke="#3E6CDE" stroke-width="2" fill="#F8D447"></path>
                        <path d="M25.8400774,11.3706201 C26.3352151,11.3706201 27.3358658,12.1562324 27.3358658,13.6616724 C27.3358658,14.665299 26.7096203,15.054436 25.4571295,14.8290832 C25.6184848,14.528492 25.7461341,14.2262206 25.8400774,13.9222692 C25.9809923,13.466342 25.8052358,12.8786804 25.6991625,12.6445781 C25.5930892,12.4104758 25.4571295,12.7388163 25.4571295,13.0002112 C25.4571295,13.2616062 24.8498018,13.7404292 24.4433165,13.506161 C24.1723264,13.3499821 24.1209673,13.0126823 24.2892393,12.4942615 C24.9930395,11.7451672 25.5099855,11.3706201 25.8400774,11.3706201 Z M22.5790589,13.6135892 C22.7680294,14.4239186 22.8625147,14.8290832 22.8625147,14.8290832 C22.8625147,14.8290832 21.5791826,14.556718 21.4172079,14.339041 C21.3092248,14.193923 21.6965084,13.9521057 22.5790589,13.6135892 Z" id="Combined-Shape" fill="#FFFFFF"></path>
                    </g>
                </g>
            </g>
        </g>
    </g>
</svg>