<?xml version="1.0" encoding="UTF-8"?>
<svg width="77px" height="60px" viewBox="0 0 77 60" version="1.1" xmlns="http://www.w3.org/2000/svg" xmlns:xlink="http://www.w3.org/1999/xlink">
    <!-- Generator: Sketch 61.2 (89653) - https://sketch.com -->
    <title>lvshu</title>
    <desc>Created with Sketch.</desc>
    <defs>
        <path d="M33.3375326,2.88058399 C29.3508189,3.41571892 24.6924178,-1.84414853 21.2672383,5.5579763 C20.5973705,7.0056217 21.2347564,9.59929609 20.4638344,11.2019056 C20.2263489,11.6955956 16.2687529,9.93416407 13.5284395,12.8643973 C10.7881262,15.7946304 13.2550055,18.5725659 13.2550055,21.1865047 C13.2550055,24.2969046 11.4247154,24.8670458 8.84271393,28.2046776 C4.9106582,33.2874609 7.89320301,43.0536376 13.5284395,48.010911 C19.1636761,52.9681844 31.656558,55.1075147 37.3242462,50.9869558 C42.9919344,46.8663968 42.9919344,50.9869558 47.6373139,50.9869558 C52.2826935,50.9869558 64.9411696,46.0169421 66.1964966,35.4220861 C67.4518237,24.82723 59.3299533,22.7197059 57.2258935,17.5139328 C55.1218336,12.3081597 47.2429965,-1.32325431 40.4407959,0.141996859 C36.4887729,0.764861408 37.3242462,2.34544906 33.3375326,2.88058399 Z" id="path-1"></path>
        <path d="M31.4281467,4.58518799 C30.192462,4.58518799 24.1142372,1.43787528 21.4810421,7.12844976 C20.9660639,8.24136452 21.4560708,10.2353186 20.8634046,11.4673661 C20.6808315,11.846903 17.6383274,10.492757 15.5316409,12.7454494 C13.4249543,14.9981418 15.3214314,17.1337514 15.3214314,19.1432842 C15.3214314,21.5344845 13.9143487,21.9727952 11.9293684,24.5386858 C8.90649908,28.4462066 11.1994074,35.9542069 15.5316409,39.7652388 C19.8638744,43.5762706 29.4680997,45.220936 33.8252813,42.05315 C38.1824628,38.885364 38.1824628,42.05315 41.7537182,42.05315 C45.3249736,42.05315 55.0565038,38.2323238 56.0215689,30.0872548 C56.9866339,21.9421858 50.7427365,20.3219722 49.1251862,16.3198998 C47.658184,12.6903072 42.5396018,3.7329068 37.6985906,2.93727907 C37.2017914,2.85562935 36.2821607,4.48034739 35.7954545,4.58518799 C32.7572349,5.06403119 32.6638315,4.58518799 31.4281467,4.58518799 Z" id="path-3"></path>
        <path d="M34.0167554,2.57630141 C30.2322007,3.47332769 24.6924178,-1.84414853 21.2672383,5.5579763 C20.5973705,7.0056217 21.2347564,9.59929609 20.4638344,11.2019056 C20.2263489,11.6955956 16.2687529,9.93416407 13.5284395,12.8643973 C10.7881262,15.7946304 13.2550055,18.5725659 13.2550055,21.1865047 C13.2550055,24.2969046 11.4247154,24.8670458 8.84271393,28.2046776 C4.9106582,33.2874609 7.89320301,43.0536376 13.5284395,48.010911 C19.1636761,52.9681844 31.656558,55.1075147 37.3242462,50.9869558 C42.9919344,46.8663968 42.9919344,50.9869558 47.6373139,50.9869558 C52.2826935,50.9869558 64.9411696,46.0169421 66.1964966,35.4220861 C67.4518237,24.82723 59.3299533,22.7197059 57.2258935,17.5139328 C55.1218336,12.3081597 47.2429965,-1.32325431 40.4407959,0.141996859 C37.3242462,0.745029798 37.8013101,1.67927513 34.0167554,2.57630141 Z" id="path-5"></path>
    </defs>
    <g id="V3-最新稿件" stroke="none" stroke-width="1" fill="none" fill-rule="evenodd">
        <g id="HOME-v3.1" transform="translate(-418.000000, -1617.000000)">
            <g id="highlights" transform="translate(328.000000, 1308.000000)">
                <g id="lvshu" transform="translate(91.000000, 311.000000)">
                    <mask id="mask-2" fill="white">
                        <use xlink:href="#path-1"></use>
                    </mask>
                    <use id="Mask" stroke="#FFFFFF" stroke-width="3" fill="#FFFFFF" xlink:href="#path-1"></use>
                    <mask id="mask-4" fill="white">
                        <use xlink:href="#path-3"></use>
                    </mask>
                    <use id="Mask" fill="#F4D54B" xlink:href="#path-3"></use>
                    <g id="Path-9" transform="translate(6.476223, 0.000000)" fill="#3E6CDE" fill-rule="nonzero">
                        <path d="M36.7841259,36.9421879 C33.8931813,36.4906643 30.9853154,32.1714904 28.317671,30.1473534 C25.6500265,28.1232164 25.4214784,29.6493723 23.0692556,28.3288524 C20.7170328,27.0083325 20.5746619,24.5970003 17.1357394,24.249074 C11.8158593,24.249074 10.3578284,27.0491841 8.68346039,26.8754799 C7.56721508,26.7596771 6.40975649,26.1453181 5.21108463,25.032403 L3.35263569,27 C7.21643876,30.2443398 8.59579135,31.0394953 11.6230134,29.0571331 L11.8158593,28.9258904 C13.6402052,27.637118 16.3711213,26.9463805 17.5791208,27.3998755 C17.787927,27.4782635 18.0443924,27.685594 18.5923276,28.2705632 L18.9876954,28.6990653 C21.0444002,30.931508 22.7135689,31.9772727 25.5827986,31.9772727 C25.7281484,31.9772727 26.2423814,32.2550656 27.0370822,32.9400866 L27.1997357,33.0825588 C27.5690991,33.411149 27.917587,33.7467734 28.4320452,34.2689299 L29.9423371,35.8182932 C32.9990721,38.9208267 34.352281,39.8445149 36.8433669,39.8445149 C41.3311861,39.8445149 43.9741079,37.0849379 46.0952607,32.0886629 L46.3751053,31.4092843 C47.4137899,28.8122765 48.2658319,28.1132638 49.187588,28.3989728 C49.8909861,28.6169993 51.3332712,29.3419011 51.6410444,29.4270877 C52.7747739,29.7408857 53.7997869,29.4827631 54.6956091,28.8622729 C54.8224957,28.774385 54.9427261,28.6832694 55.0734104,28.5772209 L55.4424723,28.2646102 C55.6509172,28.0825245 56.0685108,27.7147416 55.9848446,27.7881758 L56.1757373,27.6128292 L54.1412452,25.283027 C53.5067293,26.0557633 52.990121,26.4769824 52.5914203,26.5466844 C51.584525,26.1472613 49.9639575,25.1717075 48.5870681,25.3212647 C45.3963045,25.4097792 44.5270196,28.5916468 41.663233,34.0381042 C40.3225968,35.9910502 37.8373263,37.1066825 36.7841259,36.9421879 Z"></path>
                    </g>
                    <mask id="mask-6" fill="white">
                        <use xlink:href="#path-5"></use>
                    </mask>
                    <path stroke="#3E6CDE" stroke-width="3" d="M34.3627049,4.03586263 C32.9998978,4.35887916 32.0130687,4.2121786 29.4922063,3.57487103 C28.7201512,3.37968523 28.3156331,3.28502917 27.8727545,3.20331366 C25.3272239,2.73363797 23.9500037,3.33213934 22.62856,6.18789961 C22.4821206,6.50436836 22.4298202,7.00005076 22.4054215,8.23656105 C22.4020663,8.40682947 22.4004504,8.48497698 22.3981699,8.58146963 C22.3627527,10.0800541 22.2430661,10.9634564 21.8155692,11.8521464 C21.5604834,12.3824242 21.1261702,12.6457497 20.649603,12.7479269 C20.4382631,12.7932387 20.2402235,12.8020448 20.0121809,12.7924437 C19.8739721,12.7866248 19.7295918,12.7739583 19.5365265,12.7527827 C19.4529786,12.7436191 19.1309727,12.7061912 19.0587033,12.6981123 C17.8489212,12.5628726 17.0103209,12.5870109 16.1883298,12.8679316 C15.602521,13.0681354 15.0848712,13.3961567 14.6240094,13.888959 C13.5376014,15.0506615 13.5109534,15.8841906 14.1851516,18.1951565 C14.6172477,19.6762628 14.7550055,20.2938567 14.7550055,21.1865047 C14.7550055,22.9118873 14.2933226,24.1585645 13.2901179,25.4215995 C13.0432711,25.7323796 10.8152344,28.1063502 10.0291386,29.1224991 C6.82425261,33.2653044 9.12546741,42.1398568 14.519186,46.8846688 C19.9212413,51.6368145 31.6126888,53.2848801 36.4421841,49.7737095 C39.5832943,47.4900395 41.5967549,47.1728117 43.8848367,48.2519069 C44.0365029,48.3234351 44.1874214,48.3987342 44.3815345,48.4985653 C44.4076986,48.5120213 44.7427786,48.6855035 44.8396809,48.734902 C45.8947022,49.2727271 46.5983154,49.4869558 47.6373139,49.4869558 C49.979447,49.4869558 54.0486256,48.1051455 57.3638357,45.9244101 C61.5265858,43.1861654 64.1970828,39.5485443 64.706916,35.2455937 C65.2907504,30.3180802 64.007906,27.5648019 60.4602297,23.9395313 C60.30373,23.7796086 59.1594869,22.629205 58.83091,22.288522 C57.3207444,20.7227156 56.4188909,19.520189 55.8351911,18.0760243 C52.4784368,9.77088939 45.2200805,0.646904788 40.7257512,1.61468164 C39.6781975,1.81737675 39.1826543,2.01082189 38.4035585,2.44941555 C37.1570484,3.151141 36.6792802,3.37847998 35.4722132,3.74047017 C35.1304259,3.84296959 34.7621952,3.94117424 34.3627049,4.03586263 Z"></path>
                    <path d="M30.0395246,21.6089856 C30.2179107,21.160438 30.5513279,20.6414992 31.0234572,20.50527 C31.7438099,20.2974178 32.4213829,20.7537772 32.4213829,21.4102027 C32.4213829,22.6043248 31.6517127,23.6448419 30.7136183,23.5380067 C29.7755238,23.4311716 29.6433632,22.6051246 30.0395246,21.6089856 Z" id="Path" stroke="#3E6CDE" fill="#3E6CDE"></path>
                    <path d="M47.9372519,20.7567129 C48.1156379,20.3081653 48.4490552,19.7892265 48.9211845,19.6529972 C49.6415372,19.445145 50.3191102,19.9015045 50.3191102,20.55793 C50.3191102,21.7520521 49.54944,22.7925691 48.6113455,22.685734 C47.6732511,22.5788989 47.5410904,21.7528518 47.9372519,20.7567129 Z" id="Path" stroke="#3E6CDE" fill="#3E6CDE" transform="translate(49.023191, 21.147786) scale(-1, 1) translate(-49.023191, -21.147786) "></path>
                    <path d="M41.1028925,26.9394621 C40.6437266,28.0627691 41.4495666,29.3020246 41.1028925,30.4086258 C40.7562184,31.5152269 40.2583262,32.6301848 41.3373668,33.8572422 C42.4164075,35.0842995 46.4452824,35.0842995 46.1342206,31.7098572 C45.8231588,28.3354149 44.3660033,26.9394621 43.6548171,26.3540661 C42.943631,25.7686701 41.5620585,25.816155 41.1028925,26.9394621 Z" id="Path-2" fill="#3E6CDE"></path>
                    <path d="M40.4034893,45.1490269 C40.388962,45.1567862 40.370929,45.1723638 40.3494373,45.2071422 C40.4983831,44.9482315 40.772611,44.8986589 41.0453418,44.9614792 C41.1543822,44.9865954 41.2120227,45.0088687 41.4212256,45.0968737 C41.4431102,45.1060689 41.4431102,45.1060689 41.4641639,45.1148276 C41.4776487,45.120416 41.4904053,45.1255943 41.5023802,45.1303745 C41.5720451,45.0308419 41.6507424,44.8931146 41.7246639,44.7393203 C41.8408601,44.4975733 41.9271759,44.2512718 41.9659092,44.080331 C41.6952399,44.4647406 41.2807051,44.7255383 40.8147738,44.6151914 C40.5789802,44.5593482 40.4049132,44.3855065 40.3573697,44.1504525 C40.3429538,44.0791801 40.3392063,44.0345471 40.3439281,43.97352 C40.3228111,43.9711094 40.2988072,43.9687741 40.2718402,43.9667327 C39.9212029,43.9401892 39.5502457,44.920154 39.7052305,45.0744771 C39.7680224,45.1370009 39.9481954,45.1861074 40.163136,45.1801559 C40.2590822,45.1774992 40.348734,45.1639835 40.4103469,45.1454575 Z M42.0379706,43.9694856 C42.0464754,43.9765274 42.0547127,43.9823912 42.0614524,43.9863948 C42.0349678,43.9904001 42.0324823,43.9796761 42.0552834,43.9399829 C42.0496021,43.9498733 42.0438307,43.9597086 42.0379706,43.9694856 Z M41.1950605,45.7509761 C41.2079465,45.7285811 41.2198382,45.7038706 41.2304946,45.676666 C41.2209035,45.7011512 41.209557,45.7247464 41.1965728,45.7474511 Z" id="Path-6" stroke="#3E6CDE" fill="#3E6CDE"></path>
                    <path d="M37.4875883,42.3626162 C38.0401958,44.8234353 39.1188847,46.0538448 40.7236552,46.0538448 C43.1308109,46.0538448 45.2992682,42.0999016 45.5573655,41.5653629" id="Path-5" stroke="#3E6CDE" stroke-width="3"></path>
                    <path d="M39.9707527,40.7375904 C41.0291077,40.8724471 41.6085763,40.9398755 41.7091586,40.9398755 C41.860032,40.9398755 42.2718179,40.4974229 42.5242439,39.6899098 C42.6925278,39.1515678 42.7426413,38.624704 42.6745843,38.1093185" id="Path-7" stroke="#3E6CDE"></path>
                    <path d="M41.9871674,40.8345921 C42.620043,40.9047811 43.0174933,40.9398755 43.1795182,40.9398755 C43.4225555,40.9398755 43.6548171,40.0586272 43.6548171,39.6899098 C43.6548171,39.4440983 43.598415,39.1968423 43.4856108,38.9481418" id="Path-8" stroke="#3E6CDE" fill="#3E6CDE"></path>
                    <path d="M43.4161875,34.2678949 C43.3122951,37.772363 42.0228754,40.0112494 39.5479283,40.984554 C37.0729812,41.9578586 34.576679,42.4747754 32.0590217,42.5353042" id="Path-3" stroke="#3E6CDE" stroke-width="2.5"></path>
                    <path d="M43.260349,38.1166804 C43.8357913,39.3813899 44.4757867,40.3910692 45.180335,41.1457183 C45.8848833,41.9003674 46.7144904,42.5085072 47.6691563,42.9701376" id="Path-4" stroke="#3E6CDE" stroke-width="2.5"></path>
                    <path d="M15.8025958,16.6436388 C15.6137068,16.4529075 15.3503023,15.4243758 17.1406735,14.5969276 C18.9310447,13.7694794 20.4755388,16.6733738 20.4755388,17.0888822 C20.4755388,17.5043905 18.8700386,15.9795444 17.6266329,15.9795444 C16.3832271,15.9795444 15.9914848,16.8343701 15.8025958,16.6436388 Z" id="Path-32" fill="#3E6CDE"></path>
                    <path d="M25.1097236,38.223885 C20.4836849,37.8396804 16.0230326,39.3445129 11.7277668,42.7383824 C7.43250089,46.1322518 3.9900078,49.9868687 1.4002875,54.3022329" id="Path-11" stroke="#3E6CDE" stroke-width="2"></path>
                    <path d="M21.3541725,41.2923961 C18.7517966,44.2019993 16.8253489,46.9480808 15.5748293,49.5306405 C14.3243097,52.1132001 13.5510351,54.8592816 13.2550055,57.7688849" id="Path-12" stroke="#3E6CDE" stroke-width="2"></path>
                    <path d="M25.1097236,34.7135428 C20.9430518,33.9151923 16.0851331,34.1894883 10.5359677,35.5364307 C4.98680218,36.8833732 1.47481296,38.3477194 0,39.9294693" id="Path-13" stroke="#3E6CDE" stroke-width="2"></path>
                    <path d="M55.0632911,35.9302947 C57.6748047,33.8626779 61.7486685,32.0559198 67.2848825,30.5100204 C72.8210965,28.964121 75.2605436,27.702206 74.6032239,26.7242753" id="Path-47" stroke="#3E6CDE" stroke-width="2"></path>
                    <path d="M57.4487257,36.6575299 C64.1889103,37.2977609 68.2670722,37.9623874 69.6832113,38.6514093 C71.0993505,39.3404313 72.1129811,40.030703 72.7241032,40.7222244" id="Path-49" stroke="#3E6CDE" stroke-width="2"></path>
                    <path d="M55.0632911,38.6898772 C60.1005859,43.2603419 63.0304302,46.5694658 63.8528239,48.6172486 C64.6752176,50.6650315 65.0864144,52.4145127 65.0864144,53.8656921" id="Path-50" stroke="#3E6CDE" stroke-width="2"></path>
                </g>
            </g>
        </g>
    </g>
</svg>