<?xml version="1.0" encoding="UTF-8"?>
<svg width="1920px" height="719px" viewBox="0 0 1920 719" version="1.1" xmlns="http://www.w3.org/2000/svg" xmlns:xlink="http://www.w3.org/1999/xlink">
    <!-- Generator: Sketch 61.2 (89653) - https://sketch.com -->
    <title>footer</title>
    <desc>Created with Sketch.</desc>
    <defs>
        <rect id="path-1" x="0" y="0" width="1920" height="7719"></rect>
        <linearGradient x1="50%" y1="0%" x2="50%" y2="100%" id="linearGradient-3">
            <stop stop-color="#FFFFFF" offset="0%"></stop>
            <stop stop-color="#212B73" offset="100%"></stop>
        </linearGradient>
        <path d="M17.4731183,948.537626 C-12.4589746,989.940735 -2.705735,1020.08769 46.7328371,1038.97849 C96.1714091,1057.8693 159.769424,1048.4607 237.526882,1010.75269 L194.164327,1081.78151 L194.164327,1142.14914 L111.37732,1222.00163 L111.37732,1262.47807 L111.37732,1302.98519 L82.670324,1320.86561 C59.8429991,1391.63615 59.8429991,1437.29271 82.670324,1457.83527 C105.497649,1478.37782 134.017449,1505.13219 168.229724,1538.09837 L243.055455,1538.09837 L273.985422,1622.84324 L397.841484,1622.84324 L257.913932,1713.98919 L288.175785,1734.10309 L453.516525,1859.38682 L617.953865,1849.05761 L1207.2833,2031.31513 L1961.51257,2334.02538 L2828.26075,2327.84991 L2705.64516,8.90395313e-10 L17.4731183,5.49508735 L17.4731183,948.537626 Z" id="path-4"></path>
        <linearGradient x1="50%" y1="-200%" x2="50%" y2="150%" id="linearGradient-6">
            <stop stop-color="#D0D2DD" offset="0%"></stop>
            <stop stop-color="#212B73" offset="100%"></stop>
        </linearGradient>
        <linearGradient x1="46.7744699%" y1="47.7403162%" x2="47.8570853%" y2="57.3924978%" id="linearGradient-7">
            <stop stop-color="#131B53" stop-opacity="0.786795236" offset="0%"></stop>
            <stop stop-color="#131B53" stop-opacity="0.75237653" offset="100%"></stop>
        </linearGradient>
        <linearGradient x1="88.5034167%" y1="-22.1805986%" x2="-63.7356822%" y2="243.535698%" id="linearGradient-8">
            <stop stop-color="#212B73" offset="0%"></stop>
            <stop stop-color="#6F8EEB" offset="100%"></stop>
        </linearGradient>
        <linearGradient x1="50%" y1="-433.916277%" x2="50%" y2="100%" id="linearGradient-9">
            <stop stop-color="#131B53" offset="0%"></stop>
            <stop stop-color="#212B73" offset="100%"></stop>
        </linearGradient>
        <radialGradient cx="32.0533852%" cy="-105.339668%" fx="32.0533852%" fy="-105.339668%" r="543.965486%" gradientTransform="translate(0.320534,-1.053397),scale(1.000000,0.767593),rotate(79.907236),translate(-0.320534,1.053397)" id="radialGradient-10">
            <stop stop-color="#4D6AC1" offset="0%"></stop>
            <stop stop-color="#212B73" offset="100%"></stop>
        </radialGradient>
      <linearGradient x1="67.5314233%" y1="-22.9359192%" x2="50%" y2="313.095381%" id="linearGradient-11">
            <stop stop-color="#212B73" offset="0%"></stop>
            <stop stop-color="#6F8EEB" offset="100%"></stop>
        </linearGradient>
    </defs>
    <g id="footer" stroke="none" stroke-width="1" fill="none" fill-rule="evenodd">
        <g id="bg" transform="translate(0.000000, -7000.000000)">
            <mask id="mask-2" fill="white">
                <use xlink:href="#path-1"></use>
            </mask>
            <g id="Mask"></g>
            <g mask="url(#mask-2)">
                <g transform="translate(-771.000000, 0.000000)">
                    <rect id="sea-bg" fill="#131B53" x="771" y="909" width="1920" height="6810"></rect>
                    <g id="footer" stroke-width="1" fill="none" transform="translate(1713.421706, 8055.094339) rotate(-10.000000) translate(-1713.421706, -8055.094339) translate(212.921706, 6701.094339)">
                        <g id="碎冰块" transform="translate(1492.026882, 1354.489247) scale(-1, -1) translate(-1492.026882, -1354.489247) translate(0.526882, 0.989247)" fill="#212B73">
                            <path d="M349.835301,1556.63585 C352.662072,1552.50756 378.959059,1561.23317 428.726265,1582.81269 L428.726265,1582.81269 L596.31714,1582.81269 C656.317258,1696.11757 687.948242,1760.18285 691.210094,1775.00852 C696.102872,1797.24703 649.869035,1808.01117 640.106778,1811.45221 C630.344522,1814.89326 665.418166,1826.71306 659.980775,1833.30311 C654.543385,1839.89316 590.104726,1825.80561 592.02136,1840.41323 C593.937994,1855.02085 556.966221,1831.4777 557.440937,1848.2701 C557.915653,1865.0625 514.209724,1851.7988 496.678322,1859.14516 L496.976651,1859.02444 L515.230178,1859.02453 C518.943443,1859.02453 521.95364,1862.03472 521.95364,1865.74799 C521.95364,1869.46125 518.943443,1872.47145 515.230178,1872.47145 L491.005432,1872.47145 C487.292166,1872.47145 484.281969,1869.46125 484.281969,1865.74799 C484.281969,1865.37245 484.312758,1865.0041 484.371948,1864.64533 C475.081985,1869.09672 470.08931,1872.2073 459.506617,1876.43806 C447.822249,1881.10926 433.00194,1865.57777 415.548008,1859.14516 C403.978474,1854.88124 400.108338,1855.4809 398.962424,1856.33929 L398.893651,1856.39244 L398.894537,1856.37967 C398.880567,1855.85888 398.759174,1855.06556 398.425079,1853.90226 L398.344156,1853.6272 C398.29585,1853.4667 398.249482,1853.31011 398.205014,1853.15734 L398.196651,1853.12844 L398.184914,1853.12913 C393.674066,1853.1483 385.296801,1853.55282 368.818633,1853.62324 L367.778161,1853.6272 C363.804704,1853.64047 360.395854,1855.28646 357.453943,1857.87129 L357.298651,1858.01044 L357.423644,1857.83228 C358.308276,1856.52581 358.897483,1855.23218 359.068677,1853.94804 L359.102696,1853.6272 C359.941645,1842.93897 343.057641,1853.41457 328.057473,1848.2701 C313.057304,1843.12563 342.713608,1830.06547 342.780892,1820.60662 C342.848177,1811.14778 313.658535,1812.57021 304.156746,1811.45221 C294.654958,1810.33422 306.436898,1822.56888 296.009952,1842.44486 C285.583006,1862.32084 236.27978,1848.11343 232.055988,1866.9835 C227.832196,1885.85357 257.462564,1877.92763 256.243038,1889.68342 C255.023512,1901.4392 203.258833,1922.55689 202.693225,1939.84172 C202.244071,1953.56777 231.661939,1949.40171 241.800822,1959.46756 L257.60383,1959.46922 C260.365254,1959.46922 262.60383,1961.7078 262.60383,1964.46922 L262.60383,1967.91615 C262.60383,1970.67757 260.365254,1972.91615 257.60383,1972.91615 L244.190599,1972.91695 C232.406128,1994.80282 100.13633,1985.35125 87.1421147,1985.35125 C73.7336379,1985.35125 68.6705028,2003.31276 87.1421147,2003.31276 C93.4988121,2003.31276 98.2320663,2003.4639 101.676179,2003.92213 C101.895005,2003.87124 102.12429,2003.84407 102.359921,2003.84407 L115.195756,2003.84407 C116.852611,2003.84407 118.195756,2005.18722 118.195756,2006.84407 L118.195756,2008.91223 C118.195756,2010.56908 116.852611,2011.91223 115.195756,2011.91223 L109.209947,2011.91207 C106.194991,2015.69851 87.5018926,2018.59354 53.1306509,2020.59717 C126.413104,1777.38994 164.122665,1654.63008 166.259334,1652.3176 C168.14142,1650.28065 373.746153,1635.21329 418.019608,1616.64582 C437.628487,1608.42221 324.489597,1593.65141 349.835301,1556.63585 Z M353.288651,1862.48744 L353.007289,1862.87283 C344.527804,1874.62931 340.966701,1893.01813 338.31342,1889.54669 C330.662199,1879.53616 344.370985,1870.8609 352.960898,1862.79823 L353.288651,1862.48744 Z M551.556432,1859.02453 C555.269698,1859.02453 558.279895,1862.03472 558.279895,1865.74799 C558.279895,1869.46125 555.269698,1872.47145 551.556432,1872.47145 L544.822105,1872.47145 C541.108839,1872.47145 538.098642,1869.46125 538.098642,1865.74799 C538.098642,1862.03472 541.108839,1859.02453 544.822105,1859.02453 L551.556432,1859.02453 Z M357.298651,1858.01044 L357.196402,1858.15917 C356.185633,1859.57685 354.840138,1861.00992 353.315777,1862.46263 L353.288651,1862.48744 L353.379073,1862.36595 C354.503798,1860.85835 355.713189,1859.47062 357.016147,1858.26597 L357.298651,1858.01044 Z M398.893651,1856.39244 L398.895902,1856.49505 C398.890401,1857.8596 398.080317,1857.07718 398.892933,1856.39439 L398.893651,1856.39244 Z M398.077272,1852.71047 L398.196651,1853.12844 L398.728939,1853.12879 C403.012354,1853.14328 403.450436,1853.59059 404.54788,1855.23608 C407.987364,1860.3932 394.088119,1838.48356 398.077272,1852.71047 Z" id="Combined-Shape" transform="translate(372.351081, 1788.119305) rotate(10.000000) translate(-372.351081, -1788.119305) "></path>
                            <path d="M1082.56567,1624.79231 L1779.10761,1662.24727 L2021.32049,2231.05769 C1907.02166,2243.39653 1827.63437,2239.30596 1783.15862,2218.78597 L1783.15862,2218.78597 L1637.42963,2192.60254 C1609.07369,2201.72881 1587.43882,2201.72881 1572.52501,2192.60254 C1540.10231,2149.16886 1505.44773,2174.12502 1503.91659,2158.62734 C1502.38546,2143.12965 1475.60356,2148.1719 1458.02724,2146.81753 C1440.45092,2145.46316 1485.92397,2125.72085 1485.6629,2113.95592 C1485.40184,2102.19099 1479.30191,2111.95383 1466.71034,2124.86208 C1454.11877,2137.77033 1447.77526,2155.16696 1435.25482,2149.16341 C1422.73437,2143.15987 1412.81134,2146.05654 1388.13392,2152.34194 C1363.45649,2158.62734 1353.88132,2135.00526 1369.90998,2132.18172 C1402.87291,2126.3751 1359.15461,2123.29113 1347.87262,2119.8142 C1347.53051,2119.70877 1347.18287,2119.59756 1346.82978,2119.48069 C1345.0471,2118.21148 1342.53187,2117.16383 1339.19192,2116.37863 L1338.7403,2116.27289 C1332.40775,2113.43402 1324.98149,2109.49243 1316.71315,2104.78562 C1306.49511,2095.53664 1305.9416,2085.18623 1327.8304,2088.36495 C1329.1422,2088.55545 1330.17838,2088.65085 1330.96331,2088.65833 C1332.59234,2089.05732 1333.99333,2089.29489 1335.16382,2089.36921 C1381.70607,2092.32472 1369.87641,2056.92062 1369.90998,2050.8326 C1369.94355,2044.74459 1341.82511,2041.09921 1335.16382,2028.64652 C1328.50252,2016.19383 1353.15603,2008.88189 1357.88906,1991.54586 C1362.62209,1974.20984 1291.63414,1991.29965 1286.28571,1981.19722 C1280.93728,1971.0948 1243.38219,1995.15324 1243.35981,1985.21497 C1243.33743,1975.27669 1215.57496,1992.13903 1195.83723,1981.19722 C1176.0995,1970.25542 1184.60494,1936.83312 1180.3717,1923.64924 C1176.13845,1910.46535 1176.00506,1904.05994 1167.32971,1913.99449 C1158.65436,1923.92903 1158.83012,1892.74324 1150.72915,1906.24795 C1142.62818,1919.75266 1118.58893,1928.99143 1109.25715,1923.64924 C1099.92537,1918.30704 1131.28042,1898.90054 1100.07088,1898.65433 C1068.86134,1898.40811 1030.15425,1858.39252 1005.89486,1821.02887 C981.63547,1783.66522 1006.57868,1769.88627 1014.15702,1762.4253 C1021.73536,1754.96433 981.101276,1774.28891 950.575437,1743.53763 C930.224877,1723.03677 974.221622,1683.455 1082.56567,1624.79231 L1082.56567,1624.79231 Z M929.169815,1869.16741 C961.550377,1887.23885 994.281085,1905.78962 1026.38671,1924.08791 C990.97243,1910.78962 989.768267,1916.55743 1061.29874,1957.15514 C1103.41539,1981.0588 1086.17853,2009.5475 1077.7721,2011.01916 C1075.9946,2011.33033 1074.35963,2011.74322 1072.8672,2012.25781 C1045.322,2020.44883 1068.51686,2040.58548 1063.47619,2054.59936 C1059.61603,2065.33125 1057.26695,2054.43503 1032.74522,2054.59936 C1008.22349,2054.76369 1005.57938,2045.74745 989.585254,2045.74745 C973.783246,2045.74745 1014.15702,2069.70904 923.189464,2034.73855 C922.103545,2034.32109 944.579828,2046.09321 943.363502,2045.74745 C842.101671,2016.96233 889.499766,1992.44241 855.778986,1961.68095 C833.298466,1941.17331 870.941018,1936.27677 929.169815,1869.16741 Z" id="Combined-Shape" transform="translate(1435.254818, 1931.400023) rotate(10.000000) translate(-1435.254818, -1931.400023) "></path>
                            <path d="M2531.66033,2437.11219 C2536.11424,2437.11219 2539.72484,2440.72279 2539.72484,2445.1767 C2539.72484,2449.63061 2536.11424,2453.24122 2531.66033,2453.24122 L2383.07507,2453.24122 C2378.62116,2453.24122 2375.01056,2449.63061 2375.01056,2445.1767 C2375.01056,2440.72279 2378.62116,2437.11219 2383.07507,2437.11219 L2531.66033,2437.11219 Z M2485.74481,2411.57455 C2490.94104,2411.57455 2495.15341,2415.78693 2495.15341,2420.98315 C2495.15341,2426.17938 2490.94104,2430.39176 2485.74481,2430.39176 L2361.84773,2430.39176 C2356.6515,2430.39176 2352.43913,2426.17938 2352.43913,2420.98315 C2352.43913,2415.78693 2356.6515,2411.57455 2361.84773,2411.57455 L2485.74481,2411.57455 Z M2498.01056,2333.61756 C2504.63797,2333.61756 2510.01056,2338.99015 2510.01056,2345.61756 L2510.01056,2353.87563 C2510.01056,2355.77019 2509.57151,2357.56221 2508.78961,2359.15549 L2525.74481,2359.1552 C2530.94104,2359.1552 2535.15341,2363.36757 2535.15341,2368.5638 C2535.15341,2373.76003 2530.94104,2377.9724 2525.74481,2377.9724 L2467.18114,2377.97219 C2468.24424,2379.4962 2468.8677,2381.34967 2468.8677,2383.34875 C2468.8677,2388.54497 2464.65533,2392.75735 2459.4591,2392.75735 L2360.56202,2392.75735 C2355.36579,2392.75735 2351.15341,2388.54497 2351.15341,2383.34875 C2351.15341,2381.31796 2351.79681,2379.43745 2352.89088,2377.89993 C2350.31212,2377.61895 2347.88066,2376.5061 2345.97398,2374.71218 L2345.15284,2373.93957 L2352.54973,2373.94014 C2354.7092,2373.94014 2356.47219,2372.2426 2356.57705,2370.10914 L2356.58199,2369.90789 C2356.58199,2367.68093 2354.77668,2365.87563 2352.54973,2365.87563 L2352.54973,2365.87563 L2326.4253,2365.87563 C2317.51749,2365.87563 2310.29627,2358.65441 2310.29627,2349.7466 C2310.29627,2340.83878 2317.51749,2333.61756 2326.4253,2333.61756 L2498.01056,2333.61756 Z M2332.67646,2375.83262 C2336.01689,2375.83262 2338.72484,2378.54057 2338.72484,2381.881 C2338.72484,2385.22144 2336.01689,2387.92939 2332.67646,2387.92939 L2323.91609,2387.92939 C2320.57566,2387.92939 2317.8677,2385.22144 2317.8677,2381.881 C2317.8677,2378.54057 2320.57566,2375.83262 2323.91609,2375.83262 L2332.67646,2375.83262 Z M2292.81931,2374.26272 C2296.15975,2374.26272 2298.8677,2376.97068 2298.8677,2380.31111 C2298.8677,2383.65154 2296.15975,2386.3595 2292.81931,2386.3595 L2290.91609,2386.3595 C2287.57566,2386.3595 2284.8677,2383.65154 2284.8677,2380.31111 C2284.8677,2376.97068 2287.57566,2374.26272 2290.91609,2374.26272 L2292.81931,2374.26272 Z M2191.22484,2234.1552 C2193.71012,2234.1552 2195.72484,2236.16992 2195.72484,2238.6552 L2195.72484,2241.75197 C2195.72484,2244.23725 2193.71012,2246.25197 2191.22484,2246.25197 L2123.65341,2246.25197 C2121.16813,2246.25197 2119.15341,2244.23725 2119.15341,2241.75197 L2119.15341,2238.6552 C2119.15341,2236.16992 2121.16813,2234.1552 2123.65341,2234.1552 L2191.22484,2234.1552 Z M2278.08199,2234.1552 C2280.56727,2234.1552 2282.58199,2236.16992 2282.58199,2238.6552 L2282.58199,2241.75197 C2282.58199,2244.23725 2280.56727,2246.25197 2278.08199,2246.25197 L2210.51056,2246.25197 C2208.02528,2246.25197 2206.01056,2244.23725 2206.01056,2241.75197 L2206.01056,2238.6552 C2206.01056,2236.16992 2208.02528,2234.1552 2210.51056,2234.1552 L2278.08199,2234.1552 Z M2307.15341,2177.70359 C2313.78083,2177.70359 2319.15341,2183.07617 2319.15341,2189.70359 L2319.15341,2197.96165 C2319.15341,2204.58907 2313.78083,2209.96165 2307.15341,2209.96165 L2125.43913,2209.96165 C2118.81171,2209.96165 2113.43913,2204.58907 2113.43913,2197.96165 L2113.43913,2189.70359 C2113.43913,2183.07617 2118.81171,2177.70359 2125.43913,2177.70359 L2307.15341,2177.70359 Z M2070.08199,2150.82186 C2072.56727,2150.82186 2074.58199,2152.83658 2074.58199,2155.32186 L2074.58199,2158.41864 C2074.58199,2160.90392 2072.56727,2162.91864 2070.08199,2162.91864 L2052.79627,2162.91864 C2050.31099,2162.91864 2048.29627,2160.90392 2048.29627,2158.41864 L2048.29627,2155.32186 C2048.29627,2152.83658 2050.31099,2150.82186 2052.79627,2150.82186 L2070.08199,2150.82186 Z M2133.8677,2138.72509 C2137.73369,2138.72509 2140.8677,2141.8591 2140.8677,2145.72509 L2140.8677,2150.54229 C2140.8677,2154.40829 2137.73369,2157.54229 2133.8677,2157.54229 L2106.72484,2157.54229 C2102.85885,2157.54229 2099.72484,2154.40829 2099.72484,2150.54229 L2099.72484,2145.72509 C2099.72484,2141.8591 2102.85885,2138.72509 2106.72484,2138.72509 L2133.8677,2138.72509 Z M2011.79627,2004.31649 C2014.28155,2004.31649 2016.29627,2006.33121 2016.29627,2008.81649 L2016.29627,2011.91326 C2016.29627,2014.39854 2014.28155,2016.41326 2011.79627,2016.41326 L1944.22484,2016.41326 C1941.73956,2016.41326 1939.72484,2014.39854 1939.72484,2011.91326 L1939.72484,2008.81649 C1939.72484,2006.33121 1941.73956,2004.31649 1944.22484,2004.31649 L2011.79627,2004.31649 Z M2153.51056,1144.10143 C2155.99584,1144.10143 2158.01056,1146.11615 2158.01056,1148.60143 L2158.01056,1151.69821 C2158.01056,1152.92782 2157.51738,1154.04225 2156.71805,1154.85448 L2240.79627,1154.85412 C2248.25212,1154.85412 2254.29627,1160.89828 2254.29627,1168.35412 L2254.29627,1189.74122 C2254.29627,1197.19706 2248.25212,1203.24122 2240.79627,1203.24122 L2146.58184,1203.24057 L2146.58199,1204.11756 C2146.58199,1206.60284 2144.56727,1208.61756 2142.08199,1208.61756 L2074.51056,1208.61756 C2072.02528,1208.61756 2070.01056,1206.60284 2070.01056,1204.11756 L2070.01056,1201.02079 C2070.01056,1198.53551 2072.02528,1196.52079 2074.51056,1196.52079 L2096.11971,1196.52117 C2094.96031,1194.52874 2094.29627,1192.21253 2094.29627,1189.74122 L2094.29584,1183.07957 L2012.79627,1183.07993 C2010.31099,1183.07993 2008.29627,1181.06521 2008.29627,1178.57993 L2008.29627,1175.48315 C2008.29627,1172.99787 2010.31099,1170.98315 2012.79627,1170.98315 L2094.29584,1170.98257 L2094.29627,1168.35412 C2094.29627,1163.00492 2097.40742,1158.38236 2101.91895,1156.19721 L2085.93913,1156.19821 C2083.45385,1156.19821 2081.43913,1154.18349 2081.43913,1151.69821 L2081.43913,1148.60143 C2081.43913,1146.11615 2083.45385,1144.10143 2085.93913,1144.10143 L2153.51056,1144.10143 Z M2360.3677,1066.14445 C2362.85298,1066.14445 2364.8677,1068.15916 2364.8677,1070.64445 L2364.8677,1073.74122 C2364.8677,1076.2265 2362.85298,1078.24122 2360.3677,1078.24122 L2292.79627,1078.24122 C2290.31099,1078.24122 2288.29627,1076.2265 2288.29627,1073.74122 L2288.29627,1070.64445 C2288.29627,1068.15916 2290.31099,1066.14445 2292.79627,1066.14445 L2360.3677,1066.14445 Z M2478.08199,1005.66057 C2480.56727,1005.66057 2482.58199,1007.67529 2482.58199,1010.16057 L2482.58199,1013.25735 C2482.58199,1015.74263 2480.56727,1017.75735 2478.08199,1017.75735 L2410.51056,1017.75735 C2408.02528,1017.75735 2406.01056,1015.74263 2406.01056,1013.25735 L2406.01056,1010.16057 C2406.01056,1007.67529 2408.02528,1005.66057 2410.51056,1005.66057 L2478.08199,1005.66057 Z" id="Combined-Shape" transform="translate(2239.724843, 1729.450897) rotate(10.000000) translate(-2239.724843, -1729.450897) "></path>
                            <path d="M272.946703,1135.09062 C565.724599,1036.46534 736.945653,977.011331 786.609865,956.728586 C861.106183,926.304467 54.4543226,1234.18939 4.13914553,1237.90323 C-23.2546195,1239.9252 87.3557925,1080.89904 275.717948,1209.67742 C332.075868,1248.20789 404.984595,1248.20789 494.44413,1209.67742 L449.597358,1268.30224 L449.597358,1328.65525 L366.829351,1408.48839 L366.829351,1448.95503 L366.829351,1489.45234 L338.128945,1507.32843 C315.306859,1578.08184 315.306859,1623.72733 338.128945,1644.26492 C360.95103,1664.8025 389.464284,1691.55039 423.668707,1724.50858 L498.477264,1724.50858 L529.400132,1809.23293 L653.227767,1809.23293 L699.823122,1848.59209 L493.532914,1842.81117 L1188.68084,2064.02242 L1937.53205,2358.1065 L2463.59464,2364.5697 L2982.52688,2706.98925 L2922.87599,42.8816218 L272.946703,6.83030521e-10 L272.946703,1135.09062 Z" id="Path-16"></path>
                        </g>
                        <g id="作者背景图" transform="translate(1586.500000, 1525.704301) scale(-1, -1) translate(-1586.500000, -1525.704301) translate(172.000000, 358.204301)">
                            <g id="Path-59-+-Path-58-Mask" transform="translate(0.000000, 0.000000)">
                                <mask id="mask-5" fill="white">
                                    <use xlink:href="#path-4"></use>
                                </mask>
                                <use id="Mask" fill="url(#linearGradient-3)" xlink:href="#path-4"></use>
                                <path d="M713.908486,1426.3897 C827.968793,1474.02259 903.093221,1499.7339 939.281772,1503.52363 C993.564597,1509.20823 1013.29359,1492.61402 1152.42004,1554.69767 C1291.54649,1616.78132 1494.93013,1661.15964 1645.60538,1641.65955 C1796.28063,1622.15946 2333.52726,1659.88761 2441.16486,1730.9516 C2512.92326,1778.3276 2543.37664,1836.0099 2532.525,1903.99851 L2960.37994,2328.95244 L1966.906,2313.81672 L1210.23146,2020.35404 L619.765543,1838.78308 L454.991379,1851.62559 L293.211403,1705.54468 L210.610621,1775.93889 L415.858358,1608.83226 L274.656692,1622.18425 L244.255566,1530.82481 L175.51435,1528.85169 L76.9656523,1492.29409 L52.9652565,1474.91503 L62.4753357,1446.13112 L-39.9101649,1532.93786 L-52.4193548,1379.80388 L255.548343,987.824883 L308.438604,1006.18562 L336.990375,1059.20369 L318.615885,1078.05895 L350.693057,1066.38228 L336.990375,991.838781 L642.585353,1450.26738 L713.908486,1426.3897 Z" id="Combined-Shape" fill="url(#linearGradient-6)" mask="url(#mask-5)"></path>
                            </g>
                        </g>
                    </g>
                    <g id="潜水艇" stroke-width="1" fill="none" transform="translate(663.000000, 6182.000000)">
                        <path d="M306,315.055077 C315.507474,333.226074 313.649884,345.285649 300.427231,351.233802 C201.243737,395.851064 218.484839,460.059432 242.243737,485.2099 C299.14555,545.444481 499.5,483.892151 672,517.12766 C959.395263,572.499993 1226.67876,572.7901 1336.466,529 C1446.25323,485.2099 1579.29324,563.085106 1792.76155,563.085106 C2006.22987,563.085106 1937.35524,396.776357 1837.12094,364 C1910.36538,353.439878 2049.51335,400.396035 2254.56484,504.868472 L2028,859 L358,806.612863 L244.318573,660 L41.3615835,587.027538 L0.810737844,510.765503 L306,315.055077 Z" id="Path-131" fill="url(#linearGradient-7)"></path>
                    </g>
                    <g id="海豚" stroke-width="1" fill="none" transform="translate(2040.000000, 7027.000000)">
                        <path d="M7.62914644,124.77627 C2.35439165,126.07296 3.41521414,131.32962 7.62914644,131.32962 C11.8430787,131.32962 50.9140256,127.734532 50.9140256,133.162365 C50.9140256,138.590198 27.7013231,134.830018 27.7013231,137.894957 C27.7013231,140.959896 36.9951914,141.144211 36.9951914,141.144211 C36.9951914,141.144211 36.1409276,144.753766 39.7025394,144.753766 C43.2641512,144.753766 92.5317827,142.265069 96.3374699,144.753766 C100.143157,147.242463 99.809546,149.038134 106.604376,149.038134 C113.399207,149.038134 142.03933,151.407747 139.645345,144.753766 C137.25136,138.099785 109.620242,147.249097 108.112309,142.919648 C107.107021,140.033348 108.467889,137.84812 112.194915,136.363963 C151.73441,135.343301 173.712141,135.343301 178.128108,136.363963 C184.752059,137.894957 195.676215,140.816432 195.676215,138.590198 C195.676215,136.363963 178.322748,136.683844 176.603186,133.162365 C174.883624,129.640885 161.250474,130.465034 164.664511,128.84121 C168.078548,127.217386 190.121349,133.10946 188.721657,127.217386 C187.321965,121.325312 186.259913,119.408183 188.721657,119.408183 C191.183401,119.408183 200.169029,118.922696 195.676215,117.320961 C191.183401,115.719225 171.931621,119.757322 173.538288,115.803897 C175.144955,111.850472 199.188512,113.575261 199.188512,112.712866 C199.188512,111.850472 200.849536,108.590098 195.676215,108.590098 C190.502894,108.590098 87.826734,106.075042 87.826734,108.590098 C87.826734,111.105154 85.5217889,112.712866 92.2401029,112.712866 C98.958417,112.712866 123.189087,111.201324 124.624321,112.712866 C126.059554,114.224408 127.943665,114.286833 124.624321,115.803897 C121.304977,117.320961 24.8684731,115.233739 24.8684731,117.320961 C24.8684731,119.408183 29.8747349,120.532005 35.5672275,120.532005 C41.2597201,120.532005 43.8378514,122.113795 39.7025394,123.445033 C35.5672275,124.77627 12.9039012,123.479579 7.62914644,124.77627 Z" id="Path-139" fill="#212B73"></path>
                        <path d="M190.951482,131.650556 C190.352286,133.414056 191.617657,134.295806 194.747597,134.295806 C199.442506,134.295806 225.578501,133.993938 224.719029,136.393243 C223.859556,138.792548 215.930364,136.393243 215.930364,140.084796 C215.930364,143.776349 257.934192,140.084796 260.417999,132.997107 C262.901806,125.909418 242.594681,138.719483 243.537695,135.185019 C244.480708,131.650556 257.934192,128.114238 257.934192,119.509004 C257.934192,110.90377 243.537695,107.472295 243.537695,110.289391 C243.537695,113.106487 253.61787,113.867413 252.815251,118.630209 C252.012632,123.393004 242.944218,131.123638 235.136118,129.79193 C229.930718,128.904125 215.202506,129.523667 190.951482,131.650556 Z" id="Path-141" fill="#212B73"></path>
                        <path d="M5.65037634,113.646429 C3.60520058,116.912679 5.50663438,118.00143 11.3546777,116.912679 C20.1267428,115.279554 45.8852425,97.3986112 47.805998,94.487178 C49.0865017,92.5462224 44.8863677,89.7416442 35.2055958,86.0734432 L5.65037634,113.646429 Z" id="Path-138" fill="url(#linearGradient-8)"></path>
                        <path d="M2.45893837,117.388491 C-0.989983436,114.81232 -5.23556437,82.3347471 23.7013377,56.1201425 C42.9926058,38.6437395 62.4080275,28.452031 81.947603,25.5450169 C85.3240044,13.868273 88.4188099,6.69158424 91.2320195,4.01495054 C94.0452292,1.33831685 97.5319584,0 101.692207,0 C98.0239808,8.46293265 97.4840176,14.8361686 100.072318,19.119708 C102.660617,23.4032473 107.844457,25.5450169 115.623836,25.5450169 C145.214199,31.6392898 170.048334,42.9206137 190.12624,59.3889885 C210.204146,75.8573632 219.4253,86.5524267 217.789704,91.4741788 C230.928883,93.6152191 239.094155,97.1959504 242.28552,102.216373 C244.967446,104.850721 230.254825,109.563751 226.342579,109.563751 C222.430333,109.563751 226.483895,126.08033 217.789704,124.69359 C209.095512,123.30685 212.68653,104.850721 212.68653,102.216373 C212.68653,99.5820243 172.112515,68.3437777 115.623836,77.2759884 C77.9647167,83.2307956 60.6179485,87.9635257 63.5835315,91.4741788 C75.8262459,99.0273686 81.947603,104.491461 81.947603,107.866457 C81.947603,111.013551 71.1510795,111.576112 58.9899324,106.193763 C51.5883538,102.917931 43.1859107,95.7688136 37.8374842,93.707356 C23.7013377,88.2588252 5.90786017,119.964662 2.45893837,117.388491 Z" id="Path-89" fill="url(#linearGradient-9)"></path>
                        <path d="M13.2750939,99.7597326 C13.2750939,99.7597326 13.1747851,93.2624698 18.8315703,85.1344651 C24.4883555,77.0064604 30.6436886,75.3135495 30.6436886,79.4537687 C30.6436886,83.5939879 16.9216655,101.689962 13.2750939,99.7597326 Z" id="Path-136" fill="url(#radialGradient-10)" opacity="0.695847284"></path>
                        <path d="M135.432803,60.7871531 C121.161955,60.7871531 113.418103,75.2832872 115.493236,78.8010813 C117.568368,82.3188754 131.675089,72.4434395 135.432803,72.4434395 C139.190518,72.4434395 161.5225,75.0802588 161.5225,72.4434395 C161.5225,69.8066203 149.703652,60.7871531 135.432803,60.7871531 Z" id="Path-137" fill="url(#linearGradient-11)"></path>
                        <rect id="Rectangle" fill="#212B73" x="77.0188589" y="149.389486" width="20" height="4" rx="2"></rect>
                        <path d="M107.739923,153.389486 C106.784324,155.204318 107.057529,156.111735 108.559537,156.111735 C110.81255,156.111735 127.244514,156.721815 127.244514,157.984307 C127.244514,159.246798 121.304977,159.571151 121.304977,161.617276 C121.304977,163.663401 153.986471,165.21964 153.986471,161.617276 C153.986471,158.014912 150.30588,160.833984 149.184136,156.111735 C148.436307,152.963569 134.621569,152.056152 107.739923,153.389486 Z" id="Path-140" fill="#212B73"></path>
                    </g>
                </g>
            </g>
        </g>
    </g>
</svg>
