<?xml version="1.0" encoding="UTF-8"?>
<svg width="128px" height="45px" viewBox="0 0 128 45" version="1.1" xmlns="http://www.w3.org/2000/svg" xmlns:xlink="http://www.w3.org/1999/xlink">
    <!-- Generator: Sketch 61.2 (89653) - https://sketch.com -->
    <title>logo</title>
    <desc>Created with Sketch.</desc>
    <defs>
        <polygon id="path-1" points="0 44.4949861 127.897031 44.4949861 127.897031 0 0 0"></polygon>
    </defs>
    <g id="V3-最新稿件" stroke="none" stroke-width="1" fill="none" fill-rule="evenodd">
        <g id="HOME-v3.0" transform="translate(-255.000000, -7377.000000)">
            <g id="footer-content" transform="translate(255.000000, 7377.000000)">
                <g id="Group-18-Copy-2">
                    <g id="logo">
                        <path d="M22.1643093,0.817928416 C33.9556693,0.817928416 43.5147093,10.411628 43.5147093,22.2477214 C43.5147093,34.0832438 33.9556693,43.6775145 22.1643093,43.6775145 C10.3735182,43.6775145 0.814478222,34.0832438 0.814478222,22.2477214 C0.814478222,10.411628 10.3735182,0.817928416 22.1643093,0.817928416 Z" id="1b55aa" fill="#131B53"></path>
                        <path d="M5.71989333,21.8860377 C6.06919111,18.8670572 10.5531733,16.2529297 12.4868267,16.8998949 C14.4199111,17.54686 14.9302044,20.816518 14.87616,21.4320771 C14.8226844,22.0476362 8.99612444,26.0630457 8.99612444,26.0630457 C8.99612444,26.0630457 5.37116444,24.904447 5.71989333,21.8860377 Z" id="Fill-3" fill="#FFFFFF"></path>
                        <path d="M30.3511324,23.7811945 C30.3511324,23.7811945 30.4586524,23.0537155 30.834688,22.2183139 C31.2107236,21.3823413 31.9883947,19.9005455 33.3855858,19.8999745 C35.5507769,19.8994035 38.970368,22.9183839 38.8093724,26.045287 C38.6483769,29.1710481 34.5819591,29.2521329 34.5819591,29.2521329 L30.3511324,23.7811945 Z" id="Fill-5" fill="#FFFFFF"></path>
                        <path d="M34.9200498,36.1969869 C37.9004587,29.5400409 30.6511076,20.4711083 22.636032,19.7836007 C14.6209564,19.0966642 6.92844089,25.4030042 7.37160533,31.3056334 C7.78006756,36.7474498 11.8823253,42.9076088 21.5124764,43.6350877 C28.1388942,44.1358719 33.1815253,40.080491 34.9200498,36.1969869" id="Fill-7" fill="#FFFFFF"></path>
                        <path d="M13.6183467,22.7584984 C13.6183467,22.7584984 13.4533689,23.2335867 14.0171378,23.6578542 C14.5809067,24.0821218 14.6855822,23.3312311 14.37952,22.950361 C13.8362311,22.2731318 13.6183467,22.7584984 13.6183467,22.7584984" id="Fill-9" fill="#FFFFFF"></path>
                        <path d="M30.4543858,25.4026616 C31.0181547,25.8269291 31.1228302,25.0766094 30.8173369,24.6957394 C30.2734791,24.0179392 30.0561636,24.5033058 30.0561636,24.5033058 C30.0561636,24.5033058 29.8906169,24.9783941 30.4543858,25.4026616 Z" id="Fill-11" fill="#FFFFFF"></path>
                        <path d="M0.814478222,22.2477214 C0.814478222,10.411628 10.3735182,0.817928416 22.1643093,0.817928416 C33.9556693,0.817928416 43.5147093,10.411628 43.5147093,22.2477214 C43.5147093,34.0832438 33.9556693,43.6775145 22.1643093,43.6775145 C10.3735182,43.6775145 0.814478222,34.0832438 0.814478222,22.2477214 Z" id="Stroke-13" stroke="#131B53" stroke-width="1.5"></path>
                        <path d="M30.3123911,39.1842758 C28.4811378,39.9739958 27.4941156,41.7755625 28.1073778,43.2076796 C28.46976,44.0545016 30.7197156,43.540013 31.4990933,43.3213125 C33.3684622,42.7976875 35.0091378,40.9795613 34.7383467,40.3468716 C34.1250844,38.9147545 32.1430756,38.3939847 30.3123911,39.1842758 Z" id="Fill-15" fill="#131B53"></path>
                        <path d="M12.8027876,38.8062037 C14.6340409,39.5959238 15.6386987,41.355235 15.0476231,42.7359603 C14.6983253,43.5519473 12.006912,43.2767158 11.233792,43.0294644 C8.98440533,42.3116928 8.15610311,40.4850012 8.41722311,39.8751523 C9.00829867,38.494427 10.9715342,38.0159126 12.8027876,38.8062037 Z" id="Fill-17" fill="#131B53"></path>
                        <path d="M22.5622471,20.3288673 C22.5622471,20.3288673 20.5535004,18.2012484 21.2714382,17.3315857 C21.9905138,16.4624939 22.8757049,18.0162381 22.9490916,18.5712691 C23.0230471,19.1263001 23.0412516,17.4058182 23.9258738,17.8495004 C24.810496,18.2943246 22.9860693,20.902171 22.9860693,20.902171 L22.5622471,20.3288673 Z" id="Fill-19" fill="#FFFFFF"></path>
                        <path d="M60.8269084,24.9741114 C59.5810418,24.6446331 58.5780907,24.1232923 57.8169173,23.4106599 C57.055744,22.6997405 56.4982329,21.7701207 56.1432462,20.6252265 C55.7888284,19.4786192 55.6113351,18.072198 55.6113351,16.4053919 C55.6113351,15.1731317 55.7285262,13.9962604 55.9617707,12.8764911 C56.1950151,11.7572927 56.6404551,10.7934117 57.2980907,9.98599005 C57.9551573,9.17971043 58.9285262,8.5453077 60.2176284,8.08449491 C61.5055929,7.62596621 63.317504,7.39470329 65.652224,7.39470329 C67.8145707,7.39470329 69.9080818,7.65565923 71.9321884,8.17585804 L71.6978062,11.9006186 C69.5707307,11.3969794 67.5983929,11.1451598 65.7824996,11.1451598 C64.3813262,11.1451598 63.2788196,11.2839175 62.4744107,11.561433 C61.6700018,11.8400906 61.0601529,12.3351645 60.644864,13.0460839 C60.230144,13.7581453 60.0224996,14.8687783 60.0224996,16.379696 C60.0224996,18.3594209 60.4076373,19.7435723 61.177344,20.5338633 C61.9464818,21.3230124 63.291904,21.7187289 65.2113351,21.7187289 C66.2137173,21.7187289 67.183104,21.6148034 68.1177884,21.4063812 L68.1177884,18.3594209 L64.6930773,18.3594209 L64.6930773,14.6609272 L72.3469084,14.6609272 L72.3469084,24.4527706 C71.084544,24.8182231 69.912064,25.077466 68.8311751,25.2350674 C67.7502862,25.3903847 66.6039751,25.4686144 65.3928107,25.4686144 C63.593984,25.4686144 62.0722062,25.3035897 60.8269084,24.9741114 Z" id="Fill-21" fill="#FFFFFF"></path>
                        <mask id="mask-2" fill="white">
                            <use xlink:href="#path-1"></use>
                        </mask>
                        <g id="Clip-24"></g>
                        <path d="M81.4273422,14.5153172 L81.4273422,25.1562667 L77.3796978,25.1562667 L77.3796978,14.5153172 L78.6106978,14.5153172 L78.8196693,14.7970582 L79.4915271,15.7066924 L80.1400604,14.7799277 C80.1910617,14.7069824 80.2519882,14.6185587 80.3204268,14.516865 L81.4273422,14.5153172 Z" id="Combined-Shape" fill="#FFFFFF" mask="url(#mask-2)"></path>
                        <polygon id="Fill-25" fill="#FFFFFF" mask="url(#mask-2)" points="86.8772409 25.1563238 86.8772409 7.70710809 92.1696142 7.70710809 99.8501831 18.5147953 99.8501831 7.70710809 103.949596 7.70710809 103.949596 25.1563238 99.8240142 25.1563238 90.9766542 12.7080974 90.9766542 25.1563238"></polygon>
                        <path d="M118.426681,21.7185005 C119.931392,21.7185005 121.024796,21.5323481 121.708601,21.1594724 C122.391268,20.7848835 122.863445,20.2298525 123.122859,19.4926663 C123.382841,18.754909 123.51141,17.733926 123.51141,16.4314304 C123.51141,15.1295058 123.382841,14.1102359 123.122859,13.3713366 C122.863445,12.6341504 122.391268,12.0785483 121.708601,11.7045305 C121.024796,11.3316547 119.931392,11.1449313 118.426681,11.1449313 C116.921401,11.1449313 115.827996,11.3316547 115.144192,11.7045305 C114.460388,12.0785483 113.989348,12.6341504 113.729934,13.3713366 C113.47109,14.1102359 113.341383,15.1295058 113.341383,16.4314304 C113.341383,17.733926 113.47109,18.754909 113.729934,19.4926663 C113.989348,20.2298525 114.460388,20.7848835 115.144192,21.1594724 C115.827996,21.5323481 116.921401,21.7185005 118.426681,21.7185005 M118.426681,25.468386 C116.679623,25.468386 115.205063,25.3079295 114.002432,24.9870165 C112.799801,24.6655325 111.827001,24.1538989 111.084601,23.4498318 C110.339925,22.7474778 109.799481,21.8184289 109.462699,20.6638274 C109.124779,19.5092258 108.955819,18.0988075 108.955819,16.4314304 C108.955819,14.7646243 109.124779,13.354777 109.462699,12.1990334 C109.799481,11.0455739 110.339925,10.1159541 111.084601,9.41360004 C111.827001,8.71010394 112.799801,8.1978994 114.002432,7.87698641 C115.205063,7.5555024 116.679623,7.39447488 118.426681,7.39447488 C120.17317,7.39447488 121.652281,7.5555024 122.863445,7.87698641 C124.074041,8.1978994 125.046272,8.71010394 125.782414,9.41360004 C126.517419,10.1159541 127.053312,11.0455739 127.391232,12.1990334 C127.728014,13.354777 127.896405,14.7646243 127.896405,16.4314304 C127.896405,18.0988075 127.728014,19.5092258 127.391232,20.6638274 C127.053312,21.8184289 126.517419,22.7474778 125.782414,23.4498318 C125.046272,24.1538989 124.074041,24.6655325 122.863445,24.9870165 C121.652281,25.3079295 120.17317,25.468386 118.426681,25.468386" id="Fill-26" fill="#FFFFFF" mask="url(#mask-2)"></path>
                        <polygon id="Fill-27" fill="#FFFFFF" mask="url(#mask-2)" points="57.11872 36.9689483 58.8617956 36.9689483 58.8617956 29.8586127 57.11872 29.8586127"></polygon>
                        <path d="M60.5016178,36.7041665 L60.6074311,35.1332917 C61.4465422,35.4382161 62.4893156,35.5901074 63.7374578,35.5901074 C63.79264,35.5901074 63.8995911,35.5878233 64.05376,35.5838261 C64.2090667,35.5821131 64.3956622,35.5689796 64.6146844,35.5478519 C64.8325689,35.5267242 64.9969778,35.463341 65.1056356,35.3616995 C65.2148622,35.257774 65.2700444,35.0973175 65.2700444,34.879188 C65.2700444,34.6656267 65.2023467,34.5154485 65.0686578,34.4269405 C64.9349689,34.3384325 64.6601956,34.2767624 64.2449067,34.2407881 L62.9757156,34.1345785 C62.4187733,34.0860418 61.9710578,33.9975338 61.6331378,33.8707675 C61.2952178,33.7440011 61.0340978,33.5407182 60.8503467,33.2660577 C60.6671644,32.9891133 60.5755733,32.5785502 60.5755733,32.0349396 C60.5755733,31.4976102 60.66944,31.0659194 60.8554667,30.7404382 C61.0420622,30.4149571 61.36576,30.1654215 61.8225778,29.9924026 C62.2811022,29.8188127 62.9757156,29.7320177 63.9058489,29.7320177 C64.8928711,29.7320177 65.8121956,29.8462216 66.6655289,30.0723454 L66.5597156,31.6312288 C65.70752,31.3691308 64.7660089,31.2377963 63.7374578,31.2377963 C63.2157867,31.2377963 62.8488533,31.2760546 62.6372267,31.3497161 C62.4256,31.4233776 62.3197867,31.610101 62.3197867,31.9081732 C62.3197867,32.1468594 62.4068267,32.3016057 62.5792,32.369557 C62.7521422,32.4369373 63.0109867,32.4831899 63.3568711,32.513454 L64.6146844,32.6185216 C65.1858489,32.6670582 65.6392533,32.7624185 65.9777422,32.9000342 C66.3162311,33.0376499 66.5739378,33.2472141 66.7502933,33.5258716 C66.92608,33.8051002 67.0142578,34.2196604 67.0142578,34.7718363 C67.0142578,35.3234412 66.9181156,35.7659814 66.7286756,36.0931756 C66.5380978,36.4232249 66.2126933,36.6733315 65.7513244,36.8423532 C65.2888178,37.011375 64.5754311,37.0958859 63.6094578,37.0958859 C62.3977244,37.0958859 61.3612089,36.9651225 60.5016178,36.7041665 Z" id="Fill-28" fill="#FFFFFF" mask="url(#mask-2)"></path>
                        <polygon id="Fill-29" fill="#FFFFFF" mask="url(#mask-2)" points="71.3906062 36.9692909 71.3906062 29.8589553 73.547264 29.8589553 76.6761529 34.2643712 76.6761529 29.8589553 78.3475484 29.8589553 78.3475484 36.9692909 76.665344 36.9692909 73.060864 31.8974952 73.060864 36.9692909"></polygon>
                        <path d="M83.9811413,35.5690938 C84.5944036,35.5690938 85.0398436,35.4925772 85.319168,35.340686 C85.5973547,35.1882238 85.7890702,34.9621 85.8948836,34.6617438 C86.0006969,34.3613875 86.0536036,33.9445432 86.0536036,33.414066 C86.0536036,32.8830178 86.0006969,32.4684576 85.8948836,32.1681013 C85.7890702,31.866032 85.5973547,31.6393372 85.319168,31.487446 C85.0398436,31.3372679 84.5944036,31.2607513 83.9811413,31.2607513 C83.3678791,31.2607513 82.9224391,31.3372679 82.6442524,31.487446 C82.3660658,31.6393372 82.1732124,31.866032 82.067968,32.1681013 C81.9627236,32.4684576 81.9086791,32.8830178 81.9086791,33.414066 C81.9086791,33.9445432 81.9627236,34.3613875 82.067968,34.6617438 C82.1732124,34.9621 82.3660658,35.1882238 82.6442524,35.340686 C82.9224391,35.4925772 83.3678791,35.5690938 83.9811413,35.5690938 M83.9811413,37.0960001 C83.2700302,37.0960001 82.6681458,37.0309039 82.1783324,36.8989984 C81.689088,36.770519 81.2925724,36.5609548 80.9887858,36.2731609 C80.6867058,35.9876512 80.4665458,35.6090652 80.3283058,35.137403 C80.1917724,34.668025 80.1235058,34.0930083 80.1235058,33.414066 C80.1235058,32.7351238 80.1917724,32.159536 80.3283058,31.690158 C80.4665458,31.2184958 80.6867058,30.8404809 80.9887858,30.5549711 C81.2925724,30.2671772 81.689088,30.0598971 82.1783324,29.9285626 C82.6681458,29.7977992 83.2700302,29.7315609 83.9811413,29.7315609 C84.6933902,29.7315609 85.2958436,29.7977992 85.7890702,29.9285626 C86.2828658,30.0598971 86.6788124,30.2671772 86.9786169,30.5549711 C87.2784213,30.8404809 87.4968747,31.2184958 87.6345458,31.690158 C87.771648,32.159536 87.8399147,32.7351238 87.8399147,33.414066 C87.8399147,34.0930083 87.771648,34.668025 87.6345458,35.137403 C87.4968747,35.6090652 87.2784213,35.9876512 86.9786169,36.2731609 C86.6788124,36.5609548 86.2828658,36.770519 85.7890702,36.8989984 C85.2958436,37.0309039 84.6933902,37.0960001 83.9811413,37.0960001" id="Fill-30" fill="#FFFFFF" mask="url(#mask-2)"></path>
                        <polygon id="Fill-31" fill="#FFFFFF" mask="url(#mask-2)" points="91.2555804 36.9692909 91.2555804 31.4092734 88.8343893 31.4092734 88.8343893 29.8589553 95.4209849 29.8589553 95.4209849 31.4092734 92.9997938 31.4092734 92.9997938 36.9692909"></polygon>
                        <path d="M103.106162,35.5690938 C103.719424,35.5690938 104.164864,35.4925772 104.444757,35.340686 C104.722375,35.1882238 104.914091,34.9621 105.020473,34.6617438 C105.126286,34.3613875 105.178624,33.9445432 105.178624,33.414066 C105.178624,32.8830178 105.126286,32.4684576 105.020473,32.1681013 C104.914091,31.866032 104.722375,31.6393372 104.444757,31.487446 C104.164864,31.3372679 103.719424,31.2607513 103.106162,31.2607513 C102.493468,31.2607513 102.048028,31.3372679 101.769273,31.487446 C101.491086,31.6393372 101.298233,31.866032 101.193557,32.1681013 C101.087744,32.4684576 101.0337,32.8830178 101.0337,33.414066 C101.0337,33.9445432 101.087744,34.3613875 101.193557,34.6617438 C101.298233,34.9621 101.491086,35.1882238 101.769273,35.340686 C102.048028,35.4925772 102.493468,35.5690938 103.106162,35.5690938 M103.106162,37.0960001 C102.395051,37.0960001 101.793735,37.0309039 101.303922,36.8989984 C100.814108,36.770519 100.417593,36.5609548 100.114375,36.2731609 C99.8122951,35.9876512 99.5915662,35.6090652 99.4538951,35.137403 C99.3167929,34.668025 99.2485262,34.0930083 99.2485262,33.414066 C99.2485262,32.7351238 99.3167929,32.159536 99.4538951,31.690158 C99.5915662,31.2184958 99.8122951,30.8404809 100.114375,30.5549711 C100.417593,30.2671772 100.814108,30.0598971 101.303922,29.9285626 C101.793735,29.7977992 102.395051,29.7315609 103.106162,29.7315609 C103.818411,29.7315609 104.421433,29.7977992 104.914091,29.9285626 C105.408455,30.0598971 105.804402,30.2671772 106.103637,30.5549711 C106.404011,30.8404809 106.621895,31.2184958 106.760135,31.690158 C106.896668,32.159536 106.964935,32.7351238 106.964935,33.414066 C106.964935,34.0930083 106.896668,34.668025 106.760135,35.137403 C106.621895,35.6090652 106.404011,35.9876512 106.103637,36.2731609 C105.804402,36.5609548 105.408455,36.770519 104.914091,36.8989984 C104.421433,37.0309039 103.818411,37.0960001 103.106162,37.0960001" id="Fill-32" fill="#FFFFFF" mask="url(#mask-2)"></path>
                        <path d="M110.485049,33.0206906 L112.769138,33.0206906 C113.142898,33.0206906 113.405724,32.9595916 113.557049,32.8368223 C113.707804,32.7117691 113.783467,32.5027759 113.783467,32.2041327 C113.783467,31.9083445 113.707804,31.6970673 113.557049,31.5742981 C113.405724,31.4492448 113.142898,31.3881457 112.769138,31.3881457 L110.485049,31.3881457 L110.485049,33.0206906 Z M108.741973,36.9692909 L108.741973,29.8589553 L112.885191,29.8589553 C113.851164,29.8589553 114.532693,30.0359714 114.930347,30.3900035 C115.329138,30.7428936 115.528249,31.3453193 115.528249,32.1938543 C115.528249,32.8602341 115.40992,33.3672995 115.173831,33.7224737 C114.938311,34.0759348 114.552604,34.3129079 114.016142,34.433393 L115.972551,36.9692909 L113.815893,36.9692909 L111.965298,34.5287533 L110.485049,34.5287533 L110.485049,36.9692909 L108.741973,36.9692909 Z" id="Fill-33" fill="#FFFFFF" mask="url(#mask-2)"></path>
                        <polygon id="Fill-34" fill="#FFFFFF" mask="url(#mask-2)" points="117.337259 36.9692909 117.337259 29.8589553 119.905792 29.8589553 121.819534 34.3483111 123.732708 29.8589553 126.386574 29.8589553 126.386574 36.9692909 124.641792 36.9692909 124.641792 31.6736555 122.389561 36.9692909 121.205703 36.9692909 119.006948 31.7998508 119.006948 36.9692909"></polygon>
                        <path d="M77.4128071,7.98022674 C78.3856071,7.98022674 79.3163093,9.73268577 79.4130204,10.4573096 C79.4300871,10.58636 79.4448782,10.6411779 79.4636516,10.6411779 C79.5569493,10.6411779 79.7196516,9.14168053 80.572416,9.14168053 C80.7061049,9.14168053 80.8568604,9.1787968 81.0275271,9.26444973 C82.4895716,9.99820986 79.4733227,14.3099786 79.4733227,14.3099786 L78.7730204,13.3615151 C78.7730204,13.3615151 75.452416,9.84517662 76.640256,8.40849141 C76.8905671,8.10528003 77.1533938,7.98022674 77.4128071,7.98022674 Z" id="Combined-Shape" fill="#FFFFFF" mask="url(#mask-2)"></path>
                    </g>
                </g>
            </g>
        </g>
    </g>
</svg>