<?xml version="1.0" encoding="UTF-8"?>
<svg width="84px" height="79px" viewBox="0 0 84 79" version="1.1" xmlns="http://www.w3.org/2000/svg" xmlns:xlink="http://www.w3.org/1999/xlink">
    <!-- Generator: Sketch 61.2 (89653) - https://sketch.com -->
    <title>Group 5</title>
    <desc>Created with Sketch.</desc>
    <g id="V3-最新稿件" stroke="none" stroke-width="1" fill="none" fill-rule="evenodd">
        <g id="HOME-v3.1" transform="translate(-1516.000000, -3854.000000)">
            <g id="showcases" transform="translate(35.000000, 3428.000000)">
                <g id="Group-3" transform="translate(0.000000, 123.000000)">
                    <g id="small-case" transform="translate(0.000000, 237.910264)">
                        <g id="Group-6" transform="translate(1378.000000, 0.000000)">
                            <g id="small-case" transform="translate(0.062500, 0.000000)">
                                <g id="Group-5" transform="translate(104.000000, 66.194538)">
                                    <g id="logo-copy-3">
                                        <g id="Group-20" transform="translate(0.589647, 0.554817)">
                                            <path d="M40.0309333,-3.55271368e-15 C62.1397333,-3.55271368e-15 80.0629333,16.8411627 80.0629333,37.6187128 C80.0629333,58.3952606 62.1397333,75.2374257 40.0309333,75.2374257 C17.9232,75.2374257 -5.40012479e-13,58.3952606 -5.40012479e-13,37.6187128 C-5.40012479e-13,16.8411627 17.9232,-3.55271368e-15 40.0309333,-3.55271368e-15 Z" id="1b55aa" fill="#212B73"></path>
                                            <path d="M9.19765333,36.9837987 C9.85258667,31.6841602 18.2600533,27.0952165 21.8856533,28.2309249 C25.5101867,29.3666333 26.4669867,35.1063213 26.3656533,36.1868983 C26.2653867,37.2674752 15.3405867,44.3162852 15.3405867,44.3162852 C15.3405867,44.3162852 8.54378667,42.2824348 9.19765333,36.9837987 Z" id="Fill-3" fill="#FFFFFF"></path>
                                            <path d="M55.3812267,40.3106325 C55.3812267,40.3106325 55.5828267,39.033587 56.2878933,37.5670897 C56.99296,36.09959 58.4510933,33.4983867 61.0708267,33.4973843 C65.13056,33.4963819 71.5422933,38.7960205 71.2404267,44.2851108 C70.93856,49.7721964 63.3140267,49.9145358 63.3140267,49.9145358 L55.3812267,40.3106325 Z" id="Fill-5" fill="#FFFFFF"></path>
                                            <path d="M40.9154133,33.2930971 C25.8871467,32.0872214 11.46368,43.157622 12.2946133,53.5193325 C13.06048,63.0721139 20.7522133,73.8859026 38.8087467,75.1629481 C51.23328,76.0420445 60.6882133,68.9230672 63.9479467,62.1058095 C69.5362133,50.4199411 55.94368,34.4999753 40.9154133,33.2930971 Z" id="Fill-7" fill="#FFFFFF"></path>
                                            <path d="M24.7549867,40.0941162 C25.8120533,40.8388923 26.00832,39.5207488 25.4344533,38.8521543 C24.4157867,37.6633192 24.0072533,38.5153511 24.0072533,38.5153511 C24.0072533,38.5153511 23.69792,39.34934 24.7549867,40.0941162 Z" id="Fill-9" fill="#FFFFFF"></path>
                                            <path d="M55.5748267,43.1570205 C56.6318933,43.9017967 56.82816,42.5846556 56.25536,41.9160611 C55.2356267,40.7262236 54.82816,41.5782555 54.82816,41.5782555 C54.82816,41.5782555 54.51776,42.4122444 55.5748267,43.1570205 Z" id="Fill-11" fill="#FFFFFF"></path>
                                            <path d="M-5.40012479e-13,37.6187128 C-5.40012479e-13,16.8411627 17.9232,-3.55271368e-15 40.0309333,-3.55271368e-15 C62.1397333,-3.55271368e-15 80.0629333,16.8411627 80.0629333,37.6187128 C80.0629333,58.3952606 62.1397333,75.2374257 40.0309333,75.2374257 C17.9232,75.2374257 -5.40012479e-13,58.3952606 -5.40012479e-13,37.6187128 Z" id="Stroke-13" stroke="#212B73" stroke-width="3"></path>
                                            <path d="M55.3085867,67.3498154 C51.8749867,68.7361214 50.02432,71.8986634 51.1741867,74.4126588 C51.8536533,75.8992039 56.07232,74.99605 57.5336533,74.6121345 C61.03872,73.6929424 64.1149867,70.5013311 63.6072533,69.3906824 C62.4573867,66.876687 58.74112,65.9625069 55.3085867,67.3498154 Z" id="Fill-15" fill="#212B73"></path>
                                            <path d="M22.47808,66.6861326 C25.91168,68.0724387 27.7954133,71.1608038 26.6871467,73.584584 C26.0322133,75.017 20.9858133,74.5338478 19.5362133,74.0998127 C15.3186133,72.8398078 13.7655467,69.6331607 14.2551467,68.5626076 C15.3634133,66.1388274 19.04448,65.2988242 22.47808,66.6861326 Z" id="Fill-17" fill="#212B73"></path>
                                            <path d="M40.7770667,34.2502798 C40.7770667,34.2502798 37.0106667,30.5153728 38.3568,28.9887321 C39.7050667,27.4630938 41.3648,30.1905983 41.5024,31.1649219 C41.6410667,32.1392454 41.6752,29.1190429 43.3338667,29.8979003 C44.9925333,30.6787625 41.5717333,35.2566799 41.5717333,35.2566799 L40.7770667,34.2502798 Z" id="Fill-19" fill="#FFFFFF"></path>
                                        </g>
                                    </g>
                                </g>
                            </g>
                        </g>
                    </g>
                </g>
            </g>
        </g>
    </g>
</svg>