<?xml version="1.0" encoding="UTF-8"?>
<svg width="119px" height="45px" viewBox="0 0 119 45" version="1.1" xmlns="http://www.w3.org/2000/svg" xmlns:xlink="http://www.w3.org/1999/xlink">
    <!-- Generator: Sketch 63.1 (92452) - https://sketch.com -->
    <title>logo</title>
    <desc>Created with Sketch.</desc>
    <defs>
        <polygon id="path-1" points="0 44.4949861 127.897031 44.4949861 127.897031 0 0 0"></polygon>
    </defs>
    <g id="V3-最新稿件" stroke="none" stroke-width="1" fill="none" fill-rule="evenodd">
        <g id="HOME-v3.0" transform="translate(-255.000000, -7377.000000)">
            <g id="footer-content" transform="translate(255.000000, 7377.000000)">
                <g id="Group-18-Copy-2">
                    <g id="logo">
                        <path d="M22.1643093,0.817928416 C33.9556693,0.817928416 43.5147093,10.411628 43.5147093,22.2477214 C43.5147093,34.0832438 33.9556693,43.6775145 22.1643093,43.6775145 C10.3735182,43.6775145 0.814478222,34.0832438 0.814478222,22.2477214 C0.814478222,10.411628 10.3735182,0.817928416 22.1643093,0.817928416 Z" id="1b55aa" fill="#131B53"></path>
                        <path d="M5.71989333,21.8860377 C6.06919111,18.8670572 10.5531733,16.2529297 12.4868267,16.8998949 C14.4199111,17.54686 14.9302044,20.816518 14.87616,21.4320771 C14.8226844,22.0476362 8.99612444,26.0630457 8.99612444,26.0630457 C8.99612444,26.0630457 5.37116444,24.904447 5.71989333,21.8860377 Z" id="Fill-3" fill="#FFFFFF"></path>
                        <path d="M30.3511324,23.7811945 C30.3511324,23.7811945 30.4586524,23.0537155 30.834688,22.2183139 C31.2107236,21.3823413 31.9883947,19.9005455 33.3855858,19.8999745 C35.5507769,19.8994035 38.970368,22.9183839 38.8093724,26.045287 C38.6483769,29.1710481 34.5819591,29.2521329 34.5819591,29.2521329 L30.3511324,23.7811945 Z" id="Fill-5" fill="#FFFFFF"></path>
                        <path d="M34.9200498,36.1969869 C37.9004587,29.5400409 30.6511076,20.4711083 22.636032,19.7836007 C14.6209564,19.0966642 6.92844089,25.4030042 7.37160533,31.3056334 C7.78006756,36.7474498 11.8823253,42.9076088 21.5124764,43.6350877 C28.1388942,44.1358719 33.1815253,40.080491 34.9200498,36.1969869" id="Fill-7" fill="#FFFFFF"></path>
                        <path d="M13.6183467,22.7584984 C13.6183467,22.7584984 13.4533689,23.2335867 14.0171378,23.6578542 C14.5809067,24.0821218 14.6855822,23.3312311 14.37952,22.950361 C13.8362311,22.2731318 13.6183467,22.7584984 13.6183467,22.7584984" id="Fill-9" fill="#FFFFFF"></path>
                        <path d="M30.4543858,25.4026616 C31.0181547,25.8269291 31.1228302,25.0766094 30.8173369,24.6957394 C30.2734791,24.0179392 30.0561636,24.5033058 30.0561636,24.5033058 C30.0561636,24.5033058 29.8906169,24.9783941 30.4543858,25.4026616 Z" id="Fill-11" fill="#FFFFFF"></path>
                        <path d="M0.814478222,22.2477214 C0.814478222,10.411628 10.3735182,0.817928416 22.1643093,0.817928416 C33.9556693,0.817928416 43.5147093,10.411628 43.5147093,22.2477214 C43.5147093,34.0832438 33.9556693,43.6775145 22.1643093,43.6775145 C10.3735182,43.6775145 0.814478222,34.0832438 0.814478222,22.2477214 Z" id="Stroke-13" stroke="#131B53" stroke-width="1.5"></path>
                        <path d="M30.3123911,39.1842758 C28.4811378,39.9739958 27.4941156,41.7755625 28.1073778,43.2076796 C28.46976,44.0545016 30.7197156,43.540013 31.4990933,43.3213125 C33.3684622,42.7976875 35.0091378,40.9795613 34.7383467,40.3468716 C34.1250844,38.9147545 32.1430756,38.3939847 30.3123911,39.1842758 Z" id="Fill-15" fill="#131B53"></path>
                        <path d="M12.8027876,38.8062037 C14.6340409,39.5959238 15.6386987,41.355235 15.0476231,42.7359603 C14.6983253,43.5519473 12.006912,43.2767158 11.233792,43.0294644 C8.98440533,42.3116928 8.15610311,40.4850012 8.41722311,39.8751523 C9.00829867,38.494427 10.9715342,38.0159126 12.8027876,38.8062037 Z" id="Fill-17" fill="#131B53"></path>
                        <path d="M22.5622471,20.3288673 C22.5622471,20.3288673 20.5535004,18.2012484 21.2714382,17.3315857 C21.9905138,16.4624939 22.8757049,18.0162381 22.9490916,18.5712691 C23.0230471,19.1263001 23.0412516,17.4058182 23.9258738,17.8495004 C24.810496,18.2943246 22.9860693,20.902171 22.9860693,20.902171 L22.5622471,20.3288673 Z" id="Fill-19" fill="#FFFFFF"></path>
                        <mask id="mask-2" fill="white">
                            <use xlink:href="#path-1"></use>
                        </mask>
                        <g id="Clip-24"></g>
                        <g id="编组-3" mask="url(#mask-2)">
                            <g transform="translate(55.000000, 7.000000)" id="编组-2">
                                <g>
                                    <g id="编组" transform="translate(17.914517, 0.000000)" fill="#FFFFFF">
                                        <path d="M36.9191059,0.442909771 C38.2393515,0.442909771 39.4379956,0.708516262 40.5150381,1.23972924 C41.5920806,1.77094223 42.5171211,2.47351423 43.2901597,3.34744527 C44.0631982,4.2213763 44.6581774,5.21525866 45.075097,6.32909233 C45.4920167,7.442926 45.7004765,8.57389557 45.7004765,9.72200105 C45.7004765,10.9215142 45.478988,12.0781877 45.0360108,13.1920213 C44.5930337,14.305855 43.9806829,15.2868854 43.1989585,16.1351126 C42.4172341,16.9833398 41.4835077,17.6644919 40.3977794,18.178569 C39.3120511,18.6926461 38.1264358,18.9496846 36.8409334,18.9496846 C35.5206878,18.9496846 34.3220437,18.6840781 33.2450012,18.1528651 C32.1679587,17.6216522 31.2429182,16.9233641 30.4698796,16.058001 C29.6968411,15.192638 29.097519,14.2030396 28.6719135,13.0892059 C28.246308,11.9753722 28.0335053,10.8272668 28.0335053,9.64488949 C28.0335053,8.4453763 28.2549939,7.28870287 28.697971,6.1748692 C29.1409482,5.06103553 29.7576419,4.08000511 30.5480521,3.23177793 C31.3384623,2.38355075 32.2765316,1.70668259 33.3622599,1.20117346 C34.4479882,0.695664335 35.6336035,0.442909771 36.9191059,0.442909771 Z M5.75436011,6.97292627 L5.75436011,18.7954615 L1.48093343,18.7954615 L1.48093343,6.97292627 L2.68593343,6.97290977 L2.91291727,7.27354331 L3.64237229,8.24412084 L4.3465033,7.25526502 C4.40187222,7.17743908 4.46801545,7.08310048 4.54231361,6.97460489 L5.75436011,6.97292627 Z M12.6335348,0.545725187 L21.2585606,11.2642323 L21.2585606,0.545725187 L25.5319872,0.545725187 L25.5319872,18.7954615 L22.0923999,18.7954615 L13.571604,8.35969679 L13.571604,18.7954615 L9.29817735,18.7954615 L9.29817735,0.545725187 L12.6335348,0.545725187 Z M36.8669909,4.19567245 C36.1200098,4.19567245 35.4685728,4.35417955 34.9126799,4.67119375 C34.356787,4.98820795 33.8920953,5.40375358 33.5186048,5.91783066 C33.1451142,6.43190774 32.8628249,7.01881241 32.6717367,7.67854466 C32.4806485,8.33827691 32.3851044,9.01086109 32.3851044,9.6962972 C32.3851044,10.3988692 32.4849914,11.0800213 32.6847654,11.7397536 C32.8845394,12.3994858 33.1711717,12.9863905 33.5446622,13.5004676 C33.9181528,14.0145447 34.3871874,14.4258063 34.9517662,14.7342526 C35.5163449,15.0426988 36.163439,15.1969219 36.8930484,15.1969219 C37.6400295,15.1969219 38.2914665,15.0341309 38.8473594,14.7085487 C39.4032523,14.3829666 39.867944,13.958853 40.2414345,13.4362079 C40.6149251,12.9135629 40.8928715,12.3223743 41.0752739,11.662642 C41.2576762,11.0029098 41.3488774,10.3303256 41.3488774,9.64488949 C41.3488774,8.94231748 41.2489904,8.26116535 41.0492164,7.6014331 C40.8494424,6.94170085 40.5584672,6.35908016 40.1762908,5.85357103 C39.7941145,5.3480619 39.3250798,4.94536819 38.7691869,4.64548989 C38.213294,4.3456116 37.5792287,4.19567245 36.8669909,4.19567245 Z" id="形状结合" fill-rule="nonzero"></path>
                                        <path d="M1.38670495,5.68628004e-14 C2.44290147,5.68628004e-14 3.45339123,1.8698697 3.55839322,2.64304162 C3.57692298,2.78073812 3.59298211,2.83922867 3.61336485,2.83922867 C3.71466089,2.83922867 3.8913113,1.23926848 4.81718181,1.23926848 C4.96233163,1.23926848 5.1260112,1.27887145 5.31130884,1.37026293 C6.8986919,2.15318329 3.62386505,6.75383043 3.62386505,6.75383043 L2.86352709,5.7418221 L2.84098418,5.71807292 C2.53874213,5.39760622 -0.681762475,1.91859765 0.547924333,0.456957404 C0.819694196,0.133431562 1.10505255,5.68628004e-14 1.38670495,5.68628004e-14 Z" id="Combined-Shape"></path>
                                    </g>
                                    <path d="M8.52079587,18.9239808 C9.38937853,18.9239808 10.1928175,18.7697576 10.9311127,18.4613114 C11.669408,18.1528651 12.368617,17.6730599 13.0287399,17.0218956 L13.0287399,17.0218956 L13.0287399,18.7954615 L16.5725571,18.7954615 L16.5725571,9.25933168 L9.45886514,9.25933168 L9.45886514,12.3180903 L13.0287399,12.3180903 L13.0287399,12.9349828 C12.420732,13.6889625 11.769295,14.2501633 11.0744289,14.6185852 C10.3795628,14.9870071 9.64995333,15.1712181 8.88560059,15.1712181 C8.22547777,15.1712181 7.61746991,15.0341309 7.06157701,14.7599564 C6.50568411,14.485782 6.02796365,14.1045081 5.62841562,13.6161349 C5.2288676,13.1277617 4.91617784,12.549425 4.69034635,11.8811248 C4.46451486,11.2128246 4.35159912,10.4845487 4.35159912,9.6962972 C4.35159912,8.92518158 4.45582903,8.20547367 4.66428887,7.53717346 C4.87274871,6.86887326 5.17240973,6.28196859 5.56327192,5.77645947 C5.95413412,5.27095034 6.41448293,4.87682458 6.94431835,4.59408219 C7.47415377,4.31133979 8.06913289,4.16996859 8.72925571,4.16996859 C9.56309506,4.16996859 10.3404765,4.3970193 11.0614001,4.85112072 C11.7823238,5.30522214 12.3338737,5.94353452 12.7160501,6.76605784 L12.7160501,6.76605784 L15.9211201,4.40130328 C15.3131123,3.16751829 14.3924146,2.19505582 13.1590273,1.48391586 C11.9256399,0.772775897 10.4924785,0.417205918 8.85954311,0.417205918 C7.60878408,0.417205918 6.44488332,0.657108554 5.36784083,1.13691383 C4.29079833,1.6167191 3.35272906,2.2678834 2.55363301,3.09040673 C1.75453697,3.91293006 1.12915746,4.88110855 0.677494473,5.99494223 C0.225831491,7.1087759 6.17165098e-14,8.29115318 6.17165098e-14,9.54207407 C6.17165098e-14,10.7758591 0.225831491,11.9625203 0.677494473,13.1020578 C1.12915746,14.2415954 1.74150823,15.2397617 2.51454679,16.0965568 C3.28758536,16.953352 4.19091132,17.6387881 5.22452469,18.1528651 C6.25813805,18.6669422 7.35689511,18.9239808 8.52079587,18.9239808 Z" id="G" fill="#FFFFFF" fill-rule="nonzero"></path>
                                    <g id="IS-NOT-ORM" transform="translate(1.981454, 22.908078)" fill="#FFFFFF" fill-rule="nonzero">
                                        <polygon id="I" points="1.78059445 7.66831643 1.78059445 0.0642596349 -6.89489133e-14 0.0642596349 -6.89489133e-14 7.66831643"></polygon>
                                        <path d="M6.00407762,7.75399594 C6.37322525,7.75399594 6.73332515,7.71294118 7.0843773,7.63083164 C7.43542946,7.54872211 7.74486203,7.41663286 8.01267502,7.23456389 C8.280488,7.05249493 8.49582412,6.81330629 8.65868337,6.51699797 C8.82154262,6.22068966 8.90297224,5.85833671 8.90297224,5.42993915 C8.90297224,5.08008114 8.84687628,4.78020284 8.73468435,4.53030426 C8.62249243,4.28040568 8.46144272,4.06799189 8.25153525,3.89306288 C8.04162777,3.71813387 7.78829117,3.57176471 7.49152542,3.45395538 C7.19475968,3.33614604 6.861803,3.22726166 6.49265537,3.12730223 C6.23208057,3.05590264 6.00226808,2.991643 5.80321788,2.93452333 C5.60416769,2.87740365 5.43768935,2.81492901 5.30378285,2.74709939 C5.16987636,2.67926978 5.06673217,2.60251521 4.99435028,2.5168357 C4.92196839,2.43115619 4.88577745,2.3240568 4.88577745,2.19553753 C4.88577745,1.9884787 4.96720707,1.83139959 5.13006632,1.7243002 C5.29292557,1.61720081 5.52635716,1.56365112 5.83036109,1.56365112 C6.06198313,1.56365112 6.29360517,1.59578093 6.52522722,1.66004057 C6.75684926,1.7243002 6.97037583,1.79926978 7.16580693,1.88494929 C7.36123803,1.9706288 7.52409727,2.05273834 7.65438467,2.13127789 C7.78467207,2.20981744 7.86429215,2.26336714 7.8932449,2.29192698 L7.8932449,2.29192698 L8.66411201,0.835375254 C8.49763367,0.735415822 8.30944076,0.635456389 8.09953328,0.535496957 C7.88962581,0.435537525 7.6670515,0.346288032 7.43181037,0.267748479 C7.19656923,0.189208925 6.94866126,0.12494929 6.68808647,0.074969574 C6.42751167,0.024989858 6.15969868,-1.16050509e-13 5.88464751,-1.16050509e-13 C5.5010235,-1.16050509e-13 5.13730451,0.0535496957 4.79349054,0.160649087 C4.44967657,0.267748479 4.14748219,0.426612576 3.88690739,0.637241379 C3.6263326,0.847870183 3.42004422,1.10669371 3.26804225,1.41371197 C3.11604028,1.72073022 3.0400393,2.07415822 3.0400393,2.47399594 C3.0400393,2.75959432 3.08165889,3.0094929 3.16489806,3.22369168 C3.24813723,3.43789047 3.37661508,3.62709939 3.55033161,3.79131846 C3.72404815,3.95553753 3.94119381,4.1001217 4.20176861,4.22507099 C4.4623434,4.35002028 4.76996643,4.46604462 5.12463768,4.57314402 C5.39245067,4.65168357 5.63854909,4.72308316 5.86293294,4.7873428 C6.08731679,4.85160243 6.28274789,4.92121704 6.44922623,4.99618661 C6.61570458,5.07115619 6.74599198,5.15505071 6.84008843,5.24787018 C6.93418488,5.34068966 6.98123311,5.45849899 6.98123311,5.60129817 C6.98123311,5.97971602 6.6663719,6.16892495 6.03664947,6.16892495 C5.73988373,6.16892495 5.44673708,6.12965517 5.15720953,6.05111562 C4.86768198,5.97257606 4.60710718,5.88332657 4.37548514,5.78336714 C4.1438631,5.68340771 3.948432,5.58344828 3.78919184,5.48348884 C3.62995169,5.38352941 3.53223614,5.3156998 3.4960452,5.28 L3.4960452,5.28 L2.71432081,6.8115213 C2.93870466,6.96146045 3.18480308,7.0935497 3.45261606,7.20778905 C3.72042905,7.3220284 3.99548023,7.42020284 4.27776959,7.50231237 C4.56005895,7.58442191 4.84777696,7.64689655 5.14092361,7.68973631 C5.43407025,7.73257606 5.72178826,7.75399594 6.00407762,7.75399594 Z" id="S"></path>
                                        <polygon id="N" points="14.2556129 7.66831643 14.2556129 3.32008114 17.8059445 7.66831643 19.2391059 7.66831643 19.2391059 0.0642596349 17.4585114 0.0642596349 17.4585114 4.53030426 13.8647507 0.0642596349 12.4750184 0.0642596349 12.4750184 7.66831643"></polygon>
                                        <path d="M23.9511668,7.73257606 C24.4867928,7.73257606 24.9807991,7.62547667 25.4331859,7.41127789 C25.8855728,7.19707911 26.2746254,6.91326572 26.6003439,6.55983773 C26.9260624,6.20640974 27.1812085,5.79764706 27.3657824,5.3335497 C27.5503562,4.86945233 27.6426431,4.38750507 27.6426431,3.88770791 C27.6426431,3.40933063 27.5557848,2.93809331 27.3820683,2.47399594 C27.2083518,2.00989858 26.9604438,1.59578093 26.6383444,1.231643 C26.316245,0.867505071 25.9308114,0.574766734 25.4820437,0.353427992 C25.033276,0.132089249 24.533841,0.0214198783 23.9837386,0.0214198783 C23.4481127,0.0214198783 22.9541063,0.12673428 22.5017195,0.337363083 C22.0493327,0.547991886 21.6584705,0.830020284 21.3291329,1.18344828 C20.9997953,1.53687627 20.7428396,1.94563895 20.5582658,2.40973631 C20.373692,2.87383367 20.2814051,3.35578093 20.2814051,3.85557809 C20.2814051,4.34823529 20.3700729,4.82661258 20.5474085,5.29070994 C20.7247441,5.7548073 20.9744616,6.16713996 21.296561,6.52770791 C21.6186604,6.88827586 22.004094,7.17922921 22.4528617,7.40056795 C22.9016294,7.62190669 23.4010644,7.73257606 23.9511668,7.73257606 Z M23.9728814,6.16892495 C23.6688774,6.16892495 23.3992549,6.10466531 23.1640138,5.97614604 C22.9287726,5.84762677 22.7333415,5.67626775 22.5777205,5.46206897 C22.4220994,5.24787018 22.3026693,5.00332657 22.2194301,4.72843813 C22.1361909,4.4535497 22.0945714,4.16973631 22.0945714,3.87699797 C22.0945714,3.59139959 22.1343814,3.31115619 22.2140015,3.03626775 C22.2936216,2.76137931 22.4112421,2.5168357 22.5668632,2.30263692 C22.7224842,2.08843813 22.9161058,1.91529412 23.1477278,1.78320487 C23.3793499,1.65111562 23.650782,1.58507099 23.9620241,1.58507099 C24.2587898,1.58507099 24.5229837,1.64754564 24.7546057,1.77249493 C24.9862278,1.89744422 25.1816589,2.06523327 25.340899,2.27586207 C25.5001392,2.48649087 25.6213789,2.72924949 25.704618,3.00413793 C25.7878572,3.27902637 25.8294768,3.56283976 25.8294768,3.85557809 C25.8294768,4.14117647 25.7914763,4.42141988 25.7154753,4.69630832 C25.6394743,4.97119675 25.5236633,5.21752535 25.3680423,5.43529412 C25.2124212,5.65306288 25.0187996,5.82977688 24.7871776,5.96543611 C24.5555556,6.10109533 24.2841235,6.16892495 23.9728814,6.16892495 Z M32.2135593,7.66831643 L32.2135593,1.60649087 L34.5587325,1.60649087 L34.5587325,0.0642596349 L28.0769344,0.0642596349 L28.0769344,1.60649087 L30.4329649,1.60649087 L30.4329649,7.66831643 L32.2135593,7.66831643 Z" id="OT"></path>
                                        <path d="M41.2033898,7.73257606 C41.7390158,7.73257606 42.2330222,7.62547667 42.685409,7.41127789 C43.1377958,7.19707911 43.5268484,6.91326572 43.8525669,6.55983773 C44.1782854,6.20640974 44.4334316,5.79764706 44.6180054,5.3335497 C44.8025792,4.86945233 44.8948661,4.38750507 44.8948661,3.88770791 C44.8948661,3.40933063 44.8080079,2.93809331 44.6342913,2.47399594 C44.4605748,2.00989858 44.2126668,1.59578093 43.8905674,1.231643 C43.568468,0.867505071 43.1830345,0.574766734 42.7342668,0.353427992 C42.2854991,0.132089249 41.786064,0.0214198783 41.2359617,0.0214198783 C40.7003357,0.0214198783 40.2063293,0.12673428 39.7539425,0.337363083 C39.3015557,0.547991886 38.9106935,0.830020284 38.5813559,1.18344828 C38.2520183,1.53687627 37.9950626,1.94563895 37.8104888,2.40973631 C37.625915,2.87383367 37.5336281,3.35578093 37.5336281,3.85557809 C37.5336281,4.34823529 37.6222959,4.82661258 37.7996315,5.29070994 C37.9769672,5.7548073 38.2266847,6.16713996 38.5487841,6.52770791 C38.8708835,6.88827586 39.256317,7.17922921 39.7050847,7.40056795 C40.1538525,7.62190669 40.6532875,7.73257606 41.2033898,7.73257606 Z M41.2251044,6.16892495 C40.9211005,6.16892495 40.6514779,6.10466531 40.4162368,5.97614604 C40.1809957,5.84762677 39.9855646,5.67626775 39.8299435,5.46206897 C39.6743224,5.24787018 39.5548923,5.00332657 39.4716532,4.72843813 C39.388414,4.4535497 39.3467944,4.16973631 39.3467944,3.87699797 C39.3467944,3.59139959 39.3866044,3.31115619 39.4662245,3.03626775 C39.5458446,2.76137931 39.6634652,2.5168357 39.8190862,2.30263692 C39.9747073,2.08843813 40.1683288,1.91529412 40.3999509,1.78320487 C40.6315729,1.65111562 40.903005,1.58507099 41.2142471,1.58507099 C41.5110129,1.58507099 41.7752067,1.64754564 42.0068288,1.77249493 C42.2384508,1.89744422 42.4338819,2.06523327 42.5931221,2.27586207 C42.7523622,2.48649087 42.8736019,2.72924949 42.9568411,3.00413793 C43.0400802,3.27902637 43.0816998,3.56283976 43.0816998,3.85557809 C43.0816998,4.14117647 43.0436993,4.42141988 42.9676984,4.69630832 C42.8916974,4.97119675 42.7758864,5.21752535 42.6202653,5.43529412 C42.4646442,5.65306288 42.2710227,5.82977688 42.0394006,5.96543611 C41.8077786,6.10109533 41.5363465,6.16892495 41.2251044,6.16892495 Z" id="O"></path>
                                        <path d="M47.7177598,7.66831643 L47.7177598,5.21574037 L48.8794891,5.21574037 L50.4320806,7.66831643 L52.440678,7.66831643 L50.6709408,4.84089249 C50.8663719,4.7337931 51.041898,4.60348884 51.197519,4.44997972 C51.3531401,4.29647059 51.485237,4.12332657 51.5938099,3.93054767 C51.7023827,3.73776876 51.7856219,3.53249493 51.8435274,3.31472617 C51.9014329,3.0969574 51.9303857,2.87026369 51.9303857,2.63464503 C51.9303857,2.32048682 51.8670515,2.00989858 51.7403832,1.70288032 C51.6137149,1.39586207 51.4381888,1.12097363 51.213805,0.87821501 C50.9894211,0.635456389 50.7234177,0.439107505 50.4157946,0.289168357 C50.1081716,0.139229209 49.7734054,0.0642596349 49.4114959,0.0642596349 L49.4114959,0.0642596349 L45.9371653,0.0642596349 L45.9371653,7.66831643 L47.7177598,7.66831643 Z M49.3463522,3.68421907 L47.7177598,3.68421907 L47.7177598,1.60649087 L49.2920658,1.60649087 C49.4947351,1.60649087 49.682928,1.69931034 49.8566446,1.88494929 C50.0303611,2.07058824 50.1172194,2.32048682 50.1172194,2.63464503 C50.1172194,2.94166329 50.0412184,3.19334686 49.8892164,3.38969574 C49.7372144,3.58604462 49.5562597,3.68421907 49.3463522,3.68421907 L49.3463522,3.68421907 Z M55.1007124,7.66831643 L55.1007124,3.11659229 L56.772734,6.42596349 L57.7281749,6.42596349 L59.4001965,3.11659229 L59.4001965,7.66831643 L61.180791,7.66831643 L61.180791,0.0642596349 L59.2590518,0.0642596349 L57.2504544,4.03764706 L55.2527143,0.0642596349 L53.3201179,0.0642596349 L53.3201179,7.66831643 L55.1007124,7.66831643 Z" id="RM"></path>
                                    </g>
                                </g>
                            </g>
                        </g>
                    </g>
                </g>
            </g>
        </g>
    </g>
</svg>