<?xml version="1.0" encoding="UTF-8"?>
<svg width="884px" height="884px" viewBox="0 0 884 884" version="1.1" xmlns="http://www.w3.org/2000/svg" xmlns:xlink="http://www.w3.org/1999/xlink">
    <!-- Generator: Sketch 61.2 (89653) - https://sketch.com -->
    <title>GINO Logo</title>
    <desc>Created with Sketch.</desc>
    <g id="V3-最新稿件" stroke="none" stroke-width="1" fill="none" fill-rule="evenodd">
        <g id="logo" transform="translate(-49.000000, -164.000000)">
            <g id="GINO-Logo" transform="translate(49.500000, 163.899324)">
                <path d="M441.994311,15 C677.820235,15 869,206.159557 869,442 C869,677.829066 677.820235,869 441.994311,869 C206.179765,869 15,677.829066 15,442 C15,206.159557 206.179765,15 441.994311,15 Z" id="1b55aa" fill="#3E6CDE"></path>
                <path d="M113.471052,434.571686 C120.431374,374.272918 209.781951,322.060366 248.313113,334.982345 C286.832938,347.904324 297.001355,413.209932 295.924433,425.504631 C294.858846,437.79933 178.755241,518 178.755241,518 C178.755241,518 106.522067,494.85905 113.471052,434.571686 Z" id="Fill-3" fill="#FFFFFF"></path>
                <path d="M606,472.606484 C606,472.606484 608.146913,458.060264 615.655428,441.356087 C623.163943,424.640493 638.692142,395.011418 666.590649,395 C709.824246,394.988582 778.105159,455.354256 774.89047,517.877885 C771.67578,580.378679 690.479313,582 690.479313,582 L606,472.606484 Z" id="Fill-5" fill="#FFFFFF"></path>
                <path d="M451.646842,393.026302 C291.349008,379.342141 137.502226,504.967969 146.365311,622.551651 C154.534368,730.955684 236.577642,853.669505 429.176247,868.161292 C561.701563,878.137194 662.551872,797.351733 697.321563,719.990156 C756.928374,587.38006 611.944677,406.721838 451.646842,393.026302 Z" id="Fill-7" fill="#FFFFFF"></path>
                <path d="M441.494311,0.100675556 C197.387758,0.100675556 -0.5,197.983696 -0.5,442.100676 C-0.5,686.210145 197.391626,884.100676 441.494311,884.100676 C685.606553,884.100676 883.5,686.211966 883.5,442.100676 C883.5,197.981875 685.610421,0.100675556 441.494311,0.100675556 Z M441.494311,30.1006756 C669.042249,30.1006756 853.5,214.550789 853.5,442.100676 C853.5,669.643176 669.038257,854.100676 441.494311,854.100676 C213.960045,854.100676 29.5,669.641478 29.5,442.100676 C29.5,214.552486 213.956054,30.1006756 441.494311,30.1006756 Z" id="Stroke-13" fill="#3E6CDE" fill-rule="nonzero"></path>
                <path d="M604.793222,779.363186 C568.127185,795.119107 548.364658,831.062658 560.643623,859.635217 C567.899375,876.530395 612.948823,866.265691 628.553816,861.902338 C665.983016,851.455354 698.833234,815.181419 693.411353,802.558454 C681.132388,773.985894 641.447868,763.595873 604.793222,779.363186 Z" id="Fill-15" fill="#3E6CDE"></path>
                <path d="M254.687717,771.611617 C291.332922,787.38543 311.437126,822.525791 299.609115,850.104302 C292.619318,866.402768 238.761453,860.905315 223.290551,855.966731 C178.278081,841.630011 161.702927,805.143801 166.928199,792.962722 C178.75621,765.384211 218.042511,755.826398 254.687717,771.611617 Z" id="Fill-17" fill="#3E6CDE"></path>
                <path d="M449.901969,403.621546 C449.901969,403.621546 409.747291,361.394333 424.098807,344.133988 C438.473067,326.884977 456.167963,357.722402 457.634957,368.738196 C459.113322,379.753991 459.477227,345.607294 477.160751,354.41313 C494.844275,363.241632 458.374139,415 458.374139,415 L449.901969,403.621546 Z" id="Fill-19" fill="#FFFFFF"></path>
            </g>
        </g>
    </g>
</svg>