<?xml version="1.0" encoding="UTF-8"?>
<svg width="63px" height="63px" viewBox="0 0 63 63" version="1.1" xmlns="http://www.w3.org/2000/svg" xmlns:xlink="http://www.w3.org/1999/xlink">
    <!-- Generator: Sketch 61.2 (89653) - https://sketch.com -->
    <title>python</title>
    <desc>Created with Sketch.</desc>
    <defs>
        <path d="M41.097266,13.4558618 C42.4514229,13.4558618 44.1880331,13.4887161 46.3070966,13.5544247 C47.9923124,13.6066804 50.430405,15.0091249 52.0852226,19.1105119 C52.9759153,21.3180516 53.524627,26.3659102 52.9040423,30.4538046 C52.0410619,36.1383997 49.3540788,39.0714617 44.843093,39.2529904 L44.5646312,39.2606664 L26.4470308,39.2606664 L26.4470308,41.1759088 L39.3547467,41.1759088 L39.3547467,47.348237 C39.1539037,51.016216 35.1607946,52.9389367 27.3754192,53.1163988 C15.8380558,53.379385 14.0334081,48.8183491 13.6458616,47.0885988 L13.6323002,47.0265923 L13.6323002,34.2570181 C13.6323002,32.5688673 14.1635162,31.0700859 15.2259483,29.7606739 C16.2377883,28.5136149 17.9229506,27.7537041 20.2814353,27.4809416 L20.6402579,27.4436808 L34.5912759,27.3805613 C36.3947051,27.2412123 37.8821072,26.585894 39.0534823,25.4146064 C40.1559529,24.3122181 40.8242743,22.840913 41.0584464,21.0006911 L41.097266,20.6513262 L41.097266,13.4558618 Z M33.8267206,44.34344 C32.5365862,44.34344 31.4907257,45.3893005 31.4907257,46.6794349 C31.4907257,47.9695693 32.5365862,49.0154299 33.8267206,49.0154299 C35.116855,49.0154299 36.1627156,47.9695693 36.1627156,46.6794349 C36.1627156,45.3893005 35.116855,44.34344 33.8267206,44.34344 Z M39.5233692,6.03871304 L39.5369305,6.10071949 L39.5369305,18.8702937 C39.5369305,20.5584445 39.0057145,22.0572259 37.9432825,23.3666379 C36.9314425,24.6136969 35.2462801,25.3736077 32.8877955,25.6463703 L32.5289728,25.683631 L18.5779549,25.7467506 C16.7745257,25.8860995 15.2871236,26.5414178 14.1157485,27.7127054 C13.0132779,28.8150937 12.3449565,30.2863989 12.1107843,32.1266208 L12.0719647,32.4759856 L12.0719647,39.6714501 C10.7178079,39.6714501 8.98119769,39.6385957 6.86213414,39.5728871 C5.17691832,39.5206314 2.73882577,38.118187 1.08400819,34.0168 C0.193315448,31.8092602 -0.355396249,26.7614016 0.265188451,22.6735072 C1.12816885,16.9889121 3.81515194,14.0558502 8.32613773,13.8743214 L8.60459959,13.8666454 L26.7222,13.8666454 L26.7222,11.951403 L13.8144841,11.951403 L13.8144841,5.77907486 C14.015327,2.1110958 18.0084362,0.188375178 25.7938115,0.0109130014 C37.331175,-0.252073116 39.1358227,4.30896275 39.5233692,6.03871304 Z M19.3425101,4.11188193 C18.0523757,4.11188193 17.0065152,5.1577425 17.0065152,6.4478769 C17.0065152,7.73801129 18.0523757,8.78387186 19.3425101,8.78387186 C20.6326445,8.78387186 21.6785051,7.73801129 21.6785051,6.4478769 C21.6785051,5.1577425 20.6326445,4.11188193 19.3425101,4.11188193 Z" id="path-1"></path>
    </defs>
    <g id="页面-1" stroke="none" stroke-width="1" fill="none" fill-rule="evenodd">
        <g id="python" transform="translate(3.000000, 3.000000)">
            <g id="Mask" transform="translate(2.000000, 2.000000)" fill="#FFFFFF" fill-rule="nonzero" stroke="#FFFFFF" stroke-width="9">
                <path d="M41.097266,13.4558618 C42.4514229,13.4558618 44.1880331,13.4887161 46.3070966,13.5544247 C47.9923124,13.6066804 50.430405,15.0091249 52.0852226,19.1105119 C52.9759153,21.3180516 53.524627,26.3659102 52.9040423,30.4538046 C52.0410619,36.1383997 49.3540788,39.0714617 44.843093,39.2529904 L44.5646312,39.2606664 L26.4470308,39.2606664 L26.4470308,41.1759088 L39.3547467,41.1759088 L39.3547467,47.348237 C39.1539037,51.016216 35.1607946,52.9389367 27.3754192,53.1163988 C15.8380558,53.379385 14.0334081,48.8183491 13.6458616,47.0885988 L13.6323002,47.0265923 L13.6323002,34.2570181 C13.6323002,32.5688673 14.1635162,31.0700859 15.2259483,29.7606739 C16.2377883,28.5136149 17.9229506,27.7537041 20.2814353,27.4809416 L20.6402579,27.4436808 L34.5912759,27.3805613 C36.3947051,27.2412123 37.8821072,26.585894 39.0534823,25.4146064 C40.1559529,24.3122181 40.8242743,22.840913 41.0584464,21.0006911 L41.097266,20.6513262 L41.097266,13.4558618 Z M33.8267206,44.34344 C32.5365862,44.34344 31.4907257,45.3893005 31.4907257,46.6794349 C31.4907257,47.9695693 32.5365862,49.0154299 33.8267206,49.0154299 C35.116855,49.0154299 36.1627156,47.9695693 36.1627156,46.6794349 C36.1627156,45.3893005 35.116855,44.34344 33.8267206,44.34344 Z M39.5233692,6.03871304 L39.5369305,6.10071949 L39.5369305,18.8702937 C39.5369305,20.5584445 39.0057145,22.0572259 37.9432825,23.3666379 C36.9314425,24.6136969 35.2462801,25.3736077 32.8877955,25.6463703 L32.5289728,25.683631 L18.5779549,25.7467506 C16.7745257,25.8860995 15.2871236,26.5414178 14.1157485,27.7127054 C13.0132779,28.8150937 12.3449565,30.2863989 12.1107843,32.1266208 L12.0719647,32.4759856 L12.0719647,39.6714501 C10.7178079,39.6714501 8.98119769,39.6385957 6.86213414,39.5728871 C5.17691832,39.5206314 2.73882577,38.118187 1.08400819,34.0168 C0.193315448,31.8092602 -0.355396249,26.7614016 0.265188451,22.6735072 C1.12816885,16.9889121 3.81515194,14.0558502 8.32613773,13.8743214 L8.60459959,13.8666454 L26.7222,13.8666454 L26.7222,11.951403 L13.8144841,11.951403 L13.8144841,5.77907486 C14.015327,2.1110958 18.0084362,0.188375178 25.7938115,0.0109130014 C37.331175,-0.252073116 39.1358227,4.30896275 39.5233692,6.03871304 Z M19.3425101,4.11188193 C18.0523757,4.11188193 17.0065152,5.1577425 17.0065152,6.4478769 C17.0065152,7.73801129 18.0523757,8.78387186 19.3425101,8.78387186 C20.6326445,8.78387186 21.6785051,7.73801129 21.6785051,6.4478769 C21.6785051,5.1577425 20.6326445,4.11188193 19.3425101,4.11188193 Z" id="path-1"></path>
            </g>
            <g id="Combined-Shape-Clipped" transform="translate(2.000000, 2.000000)">
                <mask id="mask-2" fill="white">
                    <use xlink:href="#path-1"></use>
                </mask>
                <g id="path-1"></g>
                <path d="M36.1655941,11.8411584 C37.3572521,11.8411584 38.8854691,11.8700702 40.750245,11.9278937 C42.233235,11.9738788 44.3787564,13.2080299 45.8349959,16.8172504 C46.6188055,18.7598854 47.1016718,23.202001 46.5555572,26.7993481 C45.7806361,31.9038825 43.3344088,34.4872286 39.2168754,34.5493865 L39.2168754,34.5493865 L23.2733871,34.5493865 L23.2733871,36.2347997 L34.6321771,36.2347997 L34.6321771,41.6664485 C34.4554353,44.8942701 30.9414992,46.5862643 24.0903689,46.742431 C13.8136735,46.976681 12.311939,42.8616205 11.9964242,41.3834013 L11.9964242,41.3834013 L11.9964242,30.146176 C11.9964242,28.6606032 12.4638943,27.3416756 13.3988345,26.189393 C14.3337746,25.0371105 15.9219721,24.3574592 18.163427,24.1504391 L18.163427,24.1504391 L30.4403228,24.0948939 C32.0273405,23.9722668 33.3362543,23.3955867 34.3670644,22.3648537 C35.3978745,21.3341206 35.9973844,19.9368917 36.1655941,18.1731671 L36.1655941,18.1731671 L36.1655941,11.8411584 Z M22.6985541,0.00960344121 C32.9752496,-0.224646632 34.4769841,3.89041396 34.7924989,5.36863315 L34.7924989,5.36863315 L34.7924989,16.6058585 C34.7924989,18.0914312 34.3250288,19.4103588 33.3900886,20.5626414 C32.4551484,21.7149239 30.8669509,22.3945752 28.6254961,22.6015953 L28.6254961,22.6015953 L16.3486003,22.6571405 C14.7615826,22.7797676 13.4526688,23.3564477 12.4218587,24.3871808 C11.3910486,25.4179138 10.7915387,26.8151427 10.623329,28.5788674 L10.623329,28.5788674 L10.623329,34.910876 C9.43167094,34.910876 7.90345397,34.8819643 6.03867804,34.8241407 C4.55568813,34.7781556 2.41016668,33.5440045 0.95392721,29.934784 C0.170117595,27.992149 -0.312748699,23.5500334 0.233365837,19.9526863 C1.00828701,14.848152 3.45451428,12.2648058 7.57204764,12.2026479 L7.57204764,12.2026479 L23.515536,12.2026479 L23.515536,10.5172347 L12.156746,10.5172347 L12.156746,5.08558587 C12.3334878,1.8577643 15.8474238,0.165770157 22.6985541,0.00960344121 Z" id="Combined-Shape" stroke="#F4D54B" stroke-width="3" fill="#F4D54B" fill-rule="nonzero" mask="url(#mask-2)"></path>
            </g>
            <path d="M43.097266,13.9558618 C44.4689399,13.9558618 46.2202561,13.9889943 48.3535868,14.0551453 C51.1015747,14.1403558 53.8190032,16.4418175 55.4762633,20.5492582 C56.5550271,23.2229231 57.0045765,28.6111958 56.3870507,32.6789407 C55.424223,39.0212463 52.2020117,42.5385536 46.884426,42.7524208 L46.5646312,42.7606664 L28.5,42.7606664 L42.8547467,43.1759088 L42.8525031,49.4302478 C42.5937324,54.1561567 37.8863914,56.4227868 29.4096018,56.6160093 C19.5591254,56.840544 15.1760982,53.8528691 14.1804989,49.4090865 L14.1323002,49.1887079 L14.1323002,36.2570181 C14.1323002,34.224816 14.7817957,32.3923189 16.0611396,30.8155703 C17.3509274,29.2259499 19.3932912,28.3049619 22.1265058,27.9889641 L22.4853284,27.9517033 L22.6334715,27.9436961 L35.042725,28.1383478 C34.3234851,28.1383478 35.0340163,28.1383478 37.1743186,28.1383478 C40.384772,28.1383478 43.097266,24.8609926 43.097266,20.5492582 C43.097266,16.2375238 43.097266,16.5408851 43.097266,13.9558618 Z M35.8267206,47.84344 C35.3650134,47.84344 34.9907257,48.2177277 34.9907257,48.6794349 C34.9907257,49.1411422 35.3650134,49.5154299 35.8267206,49.5154299 C36.2884279,49.5154299 36.6627156,49.1411422 36.6627156,48.6794349 C36.6627156,48.2177277 36.2884279,47.84344 35.8267206,47.84344 Z M34.4481409,26.1839814 L34.5221864,26.1836464 M14.0719647,43.1714501 C12.7002909,43.1714501 10.9489747,43.1383175 8.81564399,43.0721665 C6.06765609,42.986956 3.35022755,40.6854943 1.69296747,36.5780537 C0.6142037,33.9043888 0.1646543,28.5161161 0.7821801,24.4483712 C1.74500776,18.1060656 4.96721912,14.5887582 10.2848047,14.374891 L10.6045996,14.3666454 L29,14.3666454 L14.3144841,13.951403 L14.3167277,7.69706407 C14.5754984,2.97115515 19.2828393,0.70452502 27.759629,0.51130253 C37.6101054,0.28676783 41.9931326,3.27444278 42.9870817,7.71077165 L42.9887318,7.71822536 L43.0369305,7.93860389 L43.0369305,13.951403 M21.3425101,7.61188193 C20.8808029,7.61188193 20.5065152,7.98616963 20.5065152,8.4478769 C20.5065152,8.90958416 20.8808029,9.28387186 21.3425101,9.28387186 C21.8042174,9.28387186 22.1785051,8.90958416 22.1785051,8.4478769 C22.1785051,7.98616963 21.8042174,7.61188193 21.3425101,7.61188193 Z" id="形状" stroke="#3E6CDE" stroke-width="3"></path>
        </g>
    </g>
</svg>