<?xml version="1.0" encoding="UTF-8"?>
<svg width="314px" height="82px" viewBox="0 0 314 82" version="1.1" xmlns="http://www.w3.org/2000/svg" xmlns:xlink="http://www.w3.org/1999/xlink">
    <!-- Generator: Sketch 61.2 (89653) - https://sketch.com -->
    <title>author 装饰</title>
    <desc>Created with Sketch.</desc>
    <g id="V3-最新稿件" stroke="none" stroke-width="1" fill="none" fill-rule="evenodd">
        <g id="HOME-v3.1" transform="translate(-803.000000, -4872.000000)">
            <g id="author" transform="translate(533.000000, 4808.000000)">
                <g id="author-装饰" transform="translate(270.000000, 64.000000)">
                    <circle id="Oval-Copy" fill="#3E6CDE" cx="157" cy="41" r="41"></circle>
                    <rect id="Rectangle" fill="#3E6CDE" x="0" y="37" width="100" height="4" rx="2"></rect>
                    <rect id="Rectangle-Copy" fill="#3E6CDE" x="214" y="37" width="100" height="4" rx="2"></rect>
                    <path d="M173.942279,31.3892429 C173.570352,32.2253082 167.394639,35.2719993 167.917053,38.2989615 C168.439467,41.3259236 173.570574,39.1114107 173.942279,45.5147824 C174.313984,51.9181542 165.130025,55.4529346 161.631151,47.0894284 C158.132277,38.7259223 170.263416,27.5393177 171.539621,28.014656 C172.815825,28.4899943 174.314206,30.5531777 173.942279,31.3892429 Z" id="Path-Copy" fill="#FFFFFF"></path>
                    <path d="M151.942279,31.3892429 C151.570352,32.2253082 145.394639,35.2719993 145.917053,38.2989615 C146.439467,41.3259236 151.570574,39.1114107 151.942279,45.5147824 C152.313984,51.9181542 143.130025,55.4529346 139.631151,47.0894284 C136.132277,38.7259223 148.263416,27.5393177 149.539621,28.014656 C150.815825,28.4899943 152.314206,30.5531777 151.942279,31.3892429 Z" id="Path-Copy-2" fill="#FFFFFF"></path>
                </g>
            </g>
        </g>
    </g>
</svg>