<?xml version="1.0" encoding="UTF-8"?>
<svg width="1920px" height="899px" viewBox="0 0 1920 899" version="1.1" xmlns="http://www.w3.org/2000/svg" xmlns:xlink="http://www.w3.org/1999/xlink">
    <!-- Generator: Sketch 61.2 (89653) - https://sketch.com -->
    <title>submarine</title>
    <desc>Created with Sketch.</desc>
    <defs>
        <rect id="path-1" x="0" y="0" width="1920" height="7719"></rect>
        <linearGradient x1="54.8251216%" y1="15.9349923%" x2="39.0514133%" y2="84.0650077%" id="linearGradient-3">
            <stop stop-color="#FFFFFF" offset="0%"></stop>
            <stop stop-color="#212B73" offset="100%"></stop>
        </linearGradient>
        <path d="M17.4731183,948.537626 C-12.4589746,989.940735 -2.705735,1020.08769 46.7328371,1038.97849 C96.1714091,1057.8693 159.769424,1048.4607 237.526882,1010.75269 L194.164327,1081.78151 L194.164327,1142.14914 L111.37732,1222.00163 L111.37732,1262.47807 L111.37732,1302.98519 L82.670324,1320.86561 C59.8429991,1391.63615 59.8429991,1437.29271 82.670324,1457.83527 C105.497649,1478.37782 134.017449,1505.13219 168.229724,1538.09837 L243.055455,1538.09837 L273.985422,1622.84324 L397.841484,1622.84324 L257.913932,1713.98919 L288.175785,1734.10309 L453.516525,1859.38682 L617.953865,1849.05761 L1207.2833,2031.31513 L1961.51257,2334.02538 L2828.26075,2327.84991 L2705.64516,8.90395313e-10 L17.4731183,5.49508735 L17.4731183,948.537626 Z" id="path-4"></path>
        <linearGradient x1="52.272525%" y1="5.70915982%" x2="27.342233%" y2="63.7614526%" id="linearGradient-6">
            <stop stop-color="#D0D2DD" offset="0%"></stop>
            <stop stop-color="#212B73" offset="100%"></stop>
        </linearGradient>
        <linearGradient x1="50%" y1="-41.5803304%" x2="52.107967%" y2="50.9469487%" id="linearGradient-7">
            <stop stop-color="#2F3C7F" offset="0%"></stop>
            <stop stop-color="#131B53" offset="100%"></stop>
        </linearGradient>
        <linearGradient x1="50%" y1="-41.5803304%" x2="53.0885693%" y2="50.7882287%" id="linearGradient-8">
            <stop stop-color="#7383B5" offset="0%"></stop>
            <stop stop-color="#212B73" offset="100%"></stop>
        </linearGradient>
        <linearGradient x1="50%" y1="-182.080487%" x2="50%" y2="107.888443%" id="linearGradient-9">
            <stop stop-color="#131B53" offset="0%"></stop>
            <stop stop-color="#212B73" offset="100%"></stop>
            <stop stop-color="#212B73" offset="100%"></stop>
        </linearGradient>
        <linearGradient x1="257.943634%" y1="-102.090871%" x2="257.943634%" y2="69.5631161%" id="linearGradient-10">
            <stop stop-color="#CBD1FC" offset="0%"></stop>
            <stop stop-color="#212B73" offset="100%"></stop>
            <stop stop-color="#212B73" offset="100%"></stop>
        </linearGradient>
        <linearGradient x1="43.0330662%" y1="44.6531288%" x2="53.7634809%" y2="52.584976%" id="linearGradient-11">
            <stop stop-color="#131B53" stop-opacity="0.786795236" offset="2.32791385%"></stop>
            <stop stop-color="#131B53" offset="100%"></stop>
        </linearGradient>
        <linearGradient x1="46.7744699%" y1="47.7403162%" x2="47.8570853%" y2="57.3924978%" id="linearGradient-12">
            <stop stop-color="#131B53" stop-opacity="0.786795236" offset="0%"></stop>
            <stop stop-color="#131B53" stop-opacity="0.75237653" offset="100%"></stop>
        </linearGradient>
        <radialGradient cx="56.7390305%" cy="50%" fx="56.7390305%" fy="50%" r="100%" id="radialGradient-13">
            <stop stop-color="#131B53" offset="0%"></stop>
            <stop stop-color="#212B73" offset="100%"></stop>
        </radialGradient>
        <radialGradient cx="52.1992155%" cy="50%" fx="52.1992155%" fy="50%" r="125.847245%" id="radialGradient-14">
            <stop stop-color="#7077A4" offset="0%"></stop>
            <stop stop-color="#212B73" offset="100%"></stop>
        </radialGradient>
        <circle id="path-15" cx="1028.44681" cy="438.446809" r="57.4468085"></circle>
        <filter x="-4.4%" y="-4.4%" width="112.2%" height="112.2%" filterUnits="objectBoundingBox" id="filter-16">
            <feOffset dx="2" dy="2" in="SourceAlpha" result="shadowOffsetOuter1"></feOffset>
            <feGaussianBlur stdDeviation="2" in="shadowOffsetOuter1" result="shadowBlurOuter1"></feGaussianBlur>
            <feComposite in="shadowBlurOuter1" in2="SourceAlpha" operator="out" result="shadowBlurOuter1"></feComposite>
            <feColorMatrix values="0 0 0 0 0.0745098039   0 0 0 0 0.105882353   0 0 0 0 0.325490196  0 0 0 0.479430726 0" type="matrix" in="shadowBlurOuter1"></feColorMatrix>
        </filter>
        <radialGradient cx="50%" cy="100%" fx="50%" fy="100%" r="100%" id="radialGradient-17">
            <stop stop-color="#FFFFFF" offset="0%"></stop>
            <stop stop-color="#F2EDD1" offset="100%"></stop>
        </radialGradient>
        <radialGradient cx="50%" cy="50%" fx="50%" fy="50%" r="89.3555321%" gradientTransform="translate(0.500000,0.500000),scale(1.000000,0.775952),rotate(90.000000),translate(-0.500000,-0.500000)" id="radialGradient-18">
            <stop stop-color="#131B53" offset="0%"></stop>
            <stop stop-color="#212B73" offset="100%"></stop>
        </radialGradient>
        <linearGradient x1="50%" y1="-23.8137749%" x2="50%" y2="301.855661%" id="linearGradient-19">
            <stop stop-color="#131B53" offset="0%"></stop>
            <stop stop-color="#131B53" offset="8.15165296%"></stop>
            <stop stop-color="#212B73" offset="100%"></stop>
        </linearGradient>
        <linearGradient x1="50%" y1="-38.0877863%" x2="50%" y2="100%" id="linearGradient-20">
            <stop stop-color="#131B53" offset="0%"></stop>
            <stop stop-color="#212B73" offset="100%"></stop>
        </linearGradient>
        <linearGradient x1="50%" y1="-995.725761%" x2="50%" y2="100%" id="linearGradient-21">
            <stop stop-color="#FFFFFF" offset="0%"></stop>
            <stop stop-color="#212B73" offset="100%"></stop>
        </linearGradient>
        <linearGradient x1="50%" y1="-723.87374%" x2="50%" y2="138.366553%" id="linearGradient-22">
            <stop stop-color="#FFFFFF" offset="0%"></stop>
            <stop stop-color="#212B73" offset="100%"></stop>
        </linearGradient>
        <linearGradient x1="83.8704012%" y1="-122.594459%" x2="83.8704012%" y2="480.242865%" id="linearGradient-23">
            <stop stop-color="#131B53" offset="0%"></stop>
            <stop stop-color="#7C8CE6" offset="99.6331292%"></stop>
        </linearGradient>
        <linearGradient x1="50%" y1="-1399.41534%" x2="50%" y2="316.402472%" id="linearGradient-24">
            <stop stop-color="#FFFFFF" offset="0%"></stop>
            <stop stop-color="#212B73" offset="100%"></stop>
        </linearGradient>
        <linearGradient x1="100%" y1="-262.038321%" x2="100%" y2="105.491326%" id="linearGradient-25">
            <stop stop-color="#FFFFFF" offset="0%"></stop>
            <stop stop-color="#212B73" offset="100%"></stop>
        </linearGradient>
        <path d="M13,0 C16.3137085,0 19,2.6862915 19,6 C19,8.22044953 17.793836,10.1591844 16.000963,11.1967496 L16,143 L18.5,143 C22.0898509,143 25,145.910149 25,149.5 L25,152 L0,152 L0,149.5 C-4.39629938e-16,145.910149 2.91014913,143 6.5,143 L10,143 L10.0000394,11.1973296 C8.20661355,10.159907 7,8.22086333 7,6 C7,2.6862915 9.6862915,0 13,0 Z" id="path-26"></path>
        <linearGradient x1="469.603244%" y1="55.0508396%" x2="-483.286555%" y2="55.0508396%" id="linearGradient-28">
            <stop stop-color="#2B3A8A" offset="0%"></stop>
            <stop stop-color="#131B53" offset="100%"></stop>
        </linearGradient>
        <filter x="-16.7%" y="-16.7%" width="133.3%" height="133.3%" filterUnits="objectBoundingBox" id="filter-29">
            <feOffset dx="1" dy="1" in="SourceAlpha" result="shadowOffsetOuter1"></feOffset>
            <feGaussianBlur stdDeviation="1" in="shadowOffsetOuter1" result="shadowBlurOuter1"></feGaussianBlur>
            <feColorMatrix values="0 0 0 0 0.0745098039   0 0 0 0 0.105882353   0 0 0 0 0.325490196  0 0 0 0.48 0" type="matrix" in="shadowBlurOuter1" result="shadowMatrixOuter1"></feColorMatrix>
            <feMerge>
                <feMergeNode in="shadowMatrixOuter1"></feMergeNode>
                <feMergeNode in="SourceGraphic"></feMergeNode>
            </feMerge>
        </filter>
        <radialGradient cx="50%" cy="50%" fx="50%" fy="50%" r="196.383006%" id="radialGradient-30">
            <stop stop-color="#212B73" offset="0%"></stop>
            <stop stop-color="#FFFFFF" offset="100%"></stop>
        </radialGradient>
        <radialGradient cx="50%" cy="50%" fx="50%" fy="50%" r="96.254349%" id="radialGradient-31">
            <stop stop-color="#131B53" offset="0%"></stop>
            <stop stop-color="#212B73" offset="100%"></stop>
        </radialGradient>
        <filter x="-16.7%" y="-16.7%" width="133.3%" height="133.3%" filterUnits="objectBoundingBox" id="filter-32">
            <feOffset dx="1" dy="1" in="SourceAlpha" result="shadowOffsetOuter1"></feOffset>
            <feGaussianBlur stdDeviation="1" in="shadowOffsetOuter1" result="shadowBlurOuter1"></feGaussianBlur>
            <feColorMatrix values="0 0 0 0 0.0745098039   0 0 0 0 0.105882353   0 0 0 0 0.325490196  0 0 0 0.48 0" type="matrix" in="shadowBlurOuter1" result="shadowMatrixOuter1"></feColorMatrix>
            <feMerge>
                <feMergeNode in="shadowMatrixOuter1"></feMergeNode>
                <feMergeNode in="SourceGraphic"></feMergeNode>
            </feMerge>
        </filter>
        <filter x="-16.7%" y="-16.7%" width="133.3%" height="133.3%" filterUnits="objectBoundingBox" id="filter-33">
            <feOffset dx="1" dy="1" in="SourceAlpha" result="shadowOffsetOuter1"></feOffset>
            <feGaussianBlur stdDeviation="1" in="shadowOffsetOuter1" result="shadowBlurOuter1"></feGaussianBlur>
            <feColorMatrix values="0 0 0 0 0.0745098039   0 0 0 0 0.105882353   0 0 0 0 0.325490196  0 0 0 0.48 0" type="matrix" in="shadowBlurOuter1" result="shadowMatrixOuter1"></feColorMatrix>
            <feMerge>
                <feMergeNode in="shadowMatrixOuter1"></feMergeNode>
                <feMergeNode in="SourceGraphic"></feMergeNode>
            </feMerge>
        </filter>
        <linearGradient x1="1217.18119%" y1="118.846996%" x2="-151.705872%" y2="118.846996%" id="linearGradient-34">
            <stop stop-color="#FFFFFF" offset="0%"></stop>
            <stop stop-color="#212B73" offset="100%"></stop>
        </linearGradient>
        <linearGradient x1="37.5240892%" y1="35.9326064%" x2="157.221084%" y2="90.7634358%" id="linearGradient-35">
            <stop stop-color="#212B73" offset="0%"></stop>
            <stop stop-color="#131B53" offset="100%"></stop>
        </linearGradient>
        <path d="M3,7.09436972 C-3.46534701,10.1887394 0.086115736,19.7553304 27.8788223,19.7553304 C55.6715288,19.7553304 41.0315294,25.6078241 56.9600431,31.7716641 C68.8177352,36.3602226 90.7272277,21.4164372 104.465344,40.886797 C112.219718,51.8766931 138.541491,51.242024 154.315306,51.242024 C164.799374,51.242024 173.537771,44.6524258 174.878822,40.886797 C180.622422,24.7589543 164.450135,10.5541282 104.465344,3 C98.4358586,2.2406825 81.0800714,0.373346365 39.0122168,0.953711787 C-3.05563776,1.53407721 9.46534701,4 3,7.09436972 Z" id="path-36"></path>
        <linearGradient x1="-149.097869%" y1="16.1824102%" x2="108.924202%" y2="58.0670436%" id="linearGradient-38">
            <stop stop-color="#FFFFFF" offset="0%"></stop>
            <stop stop-color="#212B73" offset="100%"></stop>
        </linearGradient>
        <linearGradient x1="37.5240892%" y1="42.2586858%" x2="157.221084%" y2="72.4321985%" id="linearGradient-39">
            <stop stop-color="#212B73" offset="0%"></stop>
            <stop stop-color="#131B53" offset="100%"></stop>
        </linearGradient>
        <path d="M0.789384139,14.9503675 C2.67582798,17.5800091 5.56259805,12.242024 14,13.3165861 C44.7891001,17.237793 40.5414907,12.242024 56.3153058,12.242024 C66.7993744,12.242024 70,13.7188424 70,9.91581562 C70,6.00817557 67.5280688,5.33747664 57,4 C50.9729086,3.23432359 43.2169438,-8.84847751e-14 29.5757331,1 C25.3742242,1.30800117 20.2174472,4 11.9543008,4 C2,4 -1.58795031,11.6364403 0.789384139,14.9503675 Z" id="path-40"></path>
        <linearGradient x1="-149.097869%" y1="-114.163829%" x2="108.924202%" y2="89.1605899%" id="linearGradient-42">
            <stop stop-color="#FFFFFF" offset="0%"></stop>
            <stop stop-color="#212B73" offset="100%"></stop>
        </linearGradient>
    </defs>
    <g id="submarine" stroke="none" stroke-width="1" fill="none" fill-rule="evenodd">
        <g id="bg" transform="translate(0.000000, -6169.000000)">
            <mask id="mask-2" fill="white">
                <use xlink:href="#path-1"></use>
            </mask>
            <g id="Mask"></g>
            <g mask="url(#mask-2)">
                <g transform="translate(-771.000000, 0.000000)">
                    <rect id="sea-bg" fill="#131B53" x="771" y="909" width="1920" height="6810"></rect>
                    <g id="footer" stroke-width="1" fill="none" transform="translate(1713.914110, 8055.007514) rotate(-10.000000) translate(-1713.914110, -8055.007514) translate(212.914110, 6701.007514)">
                        <g id="碎冰块" transform="translate(1492.026882, 1354.489247) scale(-1, -1) translate(-1492.026882, -1354.489247) translate(0.526882, 0.989247)" fill="#212B73">
                            <path d="M272.946703,1135.09062 C565.724599,1036.46534 736.945653,977.011331 786.609865,956.728586 C861.106183,926.304467 54.4543226,1234.18939 4.13914553,1237.90323 C-23.2546195,1239.9252 87.3557925,1080.89904 275.717948,1209.67742 C332.075868,1248.20789 404.984595,1248.20789 494.44413,1209.67742 L449.597358,1268.30224 L449.597358,1328.65525 L366.829351,1408.48839 L366.829351,1448.95503 L366.829351,1489.45234 L338.128945,1507.32843 C315.306859,1578.08184 315.306859,1623.72733 338.128945,1644.26492 C360.95103,1664.8025 389.464284,1691.55039 423.668707,1724.50858 L498.477264,1724.50858 L529.400132,1809.23293 L653.227767,1809.23293 L699.823122,1848.59209 L493.532914,1842.81117 L1188.68084,2064.02242 L1937.53205,2358.1065 L2463.59464,2364.5697 L2982.52688,2706.98925 L2922.87599,42.8816218 L272.946703,6.83030521e-10 L272.946703,1135.09062 Z" id="Path-16"></path>
                        </g>
                        <g id="作者背景图" transform="translate(1586.500000, 1525.704301) scale(-1, -1) translate(-1586.500000, -1525.704301) translate(172.000000, 358.204301)">
                            <g id="Path-59-+-Path-58-Mask" transform="translate(0.000000, 0.000000)">
                                <mask id="mask-5" fill="white">
                                    <use xlink:href="#path-4"></use>
                                </mask>
                                <use id="Mask" fill="url(#linearGradient-3)" xlink:href="#path-4"></use>
                                <path d="M713.908486,1426.3897 C827.968793,1474.02259 903.093221,1499.7339 939.281772,1503.52363 C993.564597,1509.20823 1013.29359,1492.61402 1152.42004,1554.69767 C1291.54649,1616.78132 1494.93013,1661.15964 1645.60538,1641.65955 C1796.28063,1622.15946 2333.52726,1659.88761 2441.16486,1730.9516 C2512.92326,1778.3276 2543.37664,1836.0099 2532.525,1903.99851 L2960.37994,2328.95244 L1966.906,2313.81672 L1210.23146,2020.35404 L619.765543,1838.78308 L454.991379,1851.62559 L293.211403,1705.54468 L210.610621,1775.93889 L415.858358,1608.83226 L274.656692,1622.18425 L244.255566,1530.82481 L175.51435,1528.85169 L76.9656523,1492.29409 L52.9652565,1474.91503 L62.4753357,1446.13112 L-39.9101649,1532.93786 L-52.4193548,1379.80388 L255.548343,987.824883 L308.438604,1006.18562 L336.990375,1059.20369 L318.615885,1078.05895 L350.693057,1066.38228 L336.990375,991.838781 L642.585353,1450.26738 L713.908486,1426.3897 Z" id="Combined-Shape" fill="url(#linearGradient-6)" mask="url(#mask-5)"></path>
                            </g>
                        </g>
                    </g>
                    <g id="潜水艇" stroke-width="1" fill="none" transform="translate(663.000000, 6182.000000)">
                        <path d="M168,543.06383 C168,401.854645 302.352775,324.833368 571.058324,312 C1112.90963,312 1468.9652,312 1639.22506,312 C1779.87721,312 1967.30525,402 1967.30525,557.744681 C1967.30525,713.489362 1741.77946,713.489362 1564.75839,723.34723 C1387.73731,733.205098 941.231955,746.06234 627.189402,723.34723 C313.146849,700.632119 168,644.088023 168,543.06383 Z" id="Rectangle" fill="url(#linearGradient-7)"></path>
                        <path d="M168,543.06383 C168,401.854645 302.352775,324.833368 571.058324,312 C1112.90963,312 1468.9652,312 1639.22506,312 C1779.87721,312 1967.30525,402 1967.30525,557.744681 C1967.30525,713.489362 1741.77946,713.489362 1564.75839,723.34723 C1387.73731,733.205098 941.231955,746.06234 627.189402,723.34723 C313.146849,700.632119 168,644.088023 168,543.06383 Z" id="Rectangle" fill="url(#linearGradient-8)"></path>
                        <path d="M921.531915,312 C922.0842,312 922.531915,312.447715 922.531915,313 L922.531915,734.829787 C922.531915,735.382072 922.0842,735.829787 921.531915,735.829787 L898,735.829787 C897.447715,735.829787 897,735.382072 897,734.829787 L897,313 C897,312.447715 897.447715,312 898,312 L921.531915,312 Z M909.765957,605.617021 C906.240736,605.617021 903.382979,608.474778 903.382979,612 C903.382979,615.525222 906.240736,618.382979 909.765957,618.382979 C913.291179,618.382979 916.148936,615.525222 916.148936,612 C916.148936,608.474778 913.291179,605.617021 909.765957,605.617021 Z M909.765957,543.06383 C906.240736,543.06383 903.382979,545.921587 903.382979,549.446809 C903.382979,552.97203 906.240736,555.829787 909.765957,555.829787 C913.291179,555.829787 916.148936,552.97203 916.148936,549.446809 C916.148936,545.921587 913.291179,543.06383 909.765957,543.06383 Z M909.765957,484.340426 C906.240736,484.340426 903.382979,487.198182 903.382979,490.723404 C903.382979,494.248626 906.240736,497.106383 909.765957,497.106383 C913.291179,497.106383 916.148936,494.248626 916.148936,490.723404 C916.148936,487.198182 913.291179,484.340426 909.765957,484.340426 Z M909.765957,421.787234 C906.240736,421.787234 903.382979,424.644991 903.382979,428.170213 C903.382979,431.695435 906.240736,434.553191 909.765957,434.553191 C913.291179,434.553191 916.148936,431.695435 916.148936,428.170213 C916.148936,424.644991 913.291179,421.787234 909.765957,421.787234 Z M909.765957,363.06383 C906.240736,363.06383 903.382979,365.921587 903.382979,369.446809 C903.382979,372.97203 906.240736,375.829787 909.765957,375.829787 C913.291179,375.829787 916.148936,372.97203 916.148936,369.446809 C916.148936,365.921587 913.291179,363.06383 909.765957,363.06383 Z" id="Combined-Shape" fill="url(#linearGradient-9)"></path>
                        <path d="M1166.53191,312 C1167.0842,312 1167.53191,312.447715 1167.53191,313 L1167.53191,734.829787 C1167.53191,735.382072 1167.0842,735.829787 1166.53191,735.829787 L1143,735.829787 C1142.44772,735.829787 1142,735.382072 1142,734.829787 L1142,313 C1142,312.447715 1142.44772,312 1143,312 L1166.53191,312 Z M1154.76596,605.617021 C1151.24074,605.617021 1148.38298,608.474778 1148.38298,612 C1148.38298,615.525222 1151.24074,618.382979 1154.76596,618.382979 C1158.29118,618.382979 1161.14894,615.525222 1161.14894,612 C1161.14894,608.474778 1158.29118,605.617021 1154.76596,605.617021 Z M1154.76596,543.06383 C1151.24074,543.06383 1148.38298,545.921587 1148.38298,549.446809 C1148.38298,552.97203 1151.24074,555.829787 1154.76596,555.829787 C1158.29118,555.829787 1161.14894,552.97203 1161.14894,549.446809 C1161.14894,545.921587 1158.29118,543.06383 1154.76596,543.06383 Z M1154.76596,484.340426 C1151.24074,484.340426 1148.38298,487.198182 1148.38298,490.723404 C1148.38298,494.248626 1151.24074,497.106383 1154.76596,497.106383 C1158.29118,497.106383 1161.14894,494.248626 1161.14894,490.723404 C1161.14894,487.198182 1158.29118,484.340426 1154.76596,484.340426 Z M1154.76596,421.787234 C1151.24074,421.787234 1148.38298,424.644991 1148.38298,428.170213 C1148.38298,431.695435 1151.24074,434.553191 1154.76596,434.553191 C1158.29118,434.553191 1161.14894,431.695435 1161.14894,428.170213 C1161.14894,424.644991 1158.29118,421.787234 1154.76596,421.787234 Z M1154.76596,363.06383 C1151.24074,363.06383 1148.38298,365.921587 1148.38298,369.446809 C1148.38298,372.97203 1151.24074,375.829787 1154.76596,375.829787 C1158.29118,375.829787 1161.14894,372.97203 1161.14894,369.446809 C1161.14894,365.921587 1158.29118,363.06383 1154.76596,363.06383 Z" id="Combined-Shape" fill="url(#linearGradient-9)"></path>
                        <path d="M1164.53191,312 C1165.0842,312 1165.53191,312.447715 1165.53191,313 L1165.53191,738.659574 C1165.53191,739.211859 1165.0842,739.659574 1164.53191,739.659574 L1141,739.659574 C1140.44772,739.659574 1140,739.211859 1140,738.659574 L1140,313 C1140,312.447715 1140.44772,312 1141,312 L1164.53191,312 Z M1152.76596,605.617021 C1149.24074,605.617021 1146.38298,608.474778 1146.38298,612 C1146.38298,615.525222 1149.24074,618.382979 1152.76596,618.382979 C1156.29118,618.382979 1159.14894,615.525222 1159.14894,612 C1159.14894,608.474778 1156.29118,605.617021 1152.76596,605.617021 Z M1152.76596,543.06383 C1149.24074,543.06383 1146.38298,545.921587 1146.38298,549.446809 C1146.38298,552.97203 1149.24074,555.829787 1152.76596,555.829787 C1156.29118,555.829787 1159.14894,552.97203 1159.14894,549.446809 C1159.14894,545.921587 1156.29118,543.06383 1152.76596,543.06383 Z M1152.76596,484.340426 C1149.24074,484.340426 1146.38298,487.198182 1146.38298,490.723404 C1146.38298,494.248626 1149.24074,497.106383 1152.76596,497.106383 C1156.29118,497.106383 1159.14894,494.248626 1159.14894,490.723404 C1159.14894,487.198182 1156.29118,484.340426 1152.76596,484.340426 Z M1152.76596,421.787234 C1149.24074,421.787234 1146.38298,424.644991 1146.38298,428.170213 C1146.38298,431.695435 1149.24074,434.553191 1152.76596,434.553191 C1156.29118,434.553191 1159.14894,431.695435 1159.14894,428.170213 C1159.14894,424.644991 1156.29118,421.787234 1152.76596,421.787234 Z M1152.76596,363.06383 C1149.24074,363.06383 1146.38298,365.921587 1146.38298,369.446809 C1146.38298,372.97203 1149.24074,375.829787 1152.76596,375.829787 C1156.29118,375.829787 1159.14894,372.97203 1159.14894,369.446809 C1159.14894,365.921587 1156.29118,363.06383 1152.76596,363.06383 Z" id="Combined-Shape-Copy-2" fill="url(#linearGradient-10)"></path>
                        <path d="M919.531915,312 C920.0842,312 920.531915,312.447715 920.531915,313 L920.531915,738.659574 C920.531915,739.211859 920.0842,739.659574 919.531915,739.659574 L896,739.659574 C895.447715,739.659574 895,739.211859 895,738.659574 L895,313 C895,312.447715 895.447715,312 896,312 L919.531915,312 Z M907.765957,605.617021 C904.240736,605.617021 901.382979,608.474778 901.382979,612 C901.382979,615.525222 904.240736,618.382979 907.765957,618.382979 C911.291179,618.382979 914.148936,615.525222 914.148936,612 C914.148936,608.474778 911.291179,605.617021 907.765957,605.617021 Z M907.765957,543.06383 C904.240736,543.06383 901.382979,545.921587 901.382979,549.446809 C901.382979,552.97203 904.240736,555.829787 907.765957,555.829787 C911.291179,555.829787 914.148936,552.97203 914.148936,549.446809 C914.148936,545.921587 911.291179,543.06383 907.765957,543.06383 Z M907.765957,484.340426 C904.240736,484.340426 901.382979,487.198182 901.382979,490.723404 C901.382979,494.248626 904.240736,497.106383 907.765957,497.106383 C911.291179,497.106383 914.148936,494.248626 914.148936,490.723404 C914.148936,487.198182 911.291179,484.340426 907.765957,484.340426 Z M907.765957,421.787234 C904.240736,421.787234 901.382979,424.644991 901.382979,428.170213 C901.382979,431.695435 904.240736,434.553191 907.765957,434.553191 C911.291179,434.553191 914.148936,431.695435 914.148936,428.170213 C914.148936,424.644991 911.291179,421.787234 907.765957,421.787234 Z M907.765957,363.06383 C904.240736,363.06383 901.382979,365.921587 901.382979,369.446809 C901.382979,372.97203 904.240736,375.829787 907.765957,375.829787 C911.291179,375.829787 914.148936,372.97203 914.148936,369.446809 C914.148936,365.921587 911.291179,363.06383 907.765957,363.06383 Z" id="Combined-Shape-Copy-2" fill="url(#linearGradient-10)"></path>
                        <path d="M308.189262,271.055077 C377.952407,253.070206 406.222653,247.051847 393,253 C293.816506,297.617262 419.857327,273.137462 302.375257,343.074707 C212.540562,396.55343 220.5,455.662118 393,488.897627 C680.395263,544.26996 1541.07501,561.056672 1748.38053,485.770239 C1955.68606,410.483805 1804.5,325.055077 1503,232 C1576.24444,221.439878 1827.49581,297.729368 2256.7541,460.868472 L2030.18926,815 L357.429714,763.60211 L81.8237665,518.036292 L3,466.765503 L308.189262,271.055077 Z" id="Path-131" fill="url(#linearGradient-11)" opacity="0.432733445"></path>
                        <path d="M306,315.055077 C315.507474,333.226074 313.649884,345.285649 300.427231,351.233802 C201.243737,395.851064 218.484839,460.059432 242.243737,485.2099 C299.14555,545.444481 499.5,483.892151 672,517.12766 C959.395263,572.499993 1226.67876,572.7901 1336.466,529 C1446.25323,485.2099 1579.29324,563.085106 1792.76155,563.085106 C2006.22987,563.085106 1937.35524,396.776357 1837.12094,364 C1910.36538,353.439878 2049.51335,400.396035 2254.56484,504.868472 L2028,859 L358,806.612863 L244.318573,660 L41.3615835,587.027538 L0.810737844,510.765503 L306,315.055077 Z" id="Path-131" fill="url(#linearGradient-12)"></path>
                        <path d="M1254.62377,543.06383 C1313.66632,535.669173 1374.74012,518.740389 1369.62377,529.299591 C1364.50741,539.858793 1345.0054,540.326934 1323.38253,544.5 C1301.75966,548.673066 1315.49134,556.173066 1318.98234,556.173066 C1322.47333,556.173066 1364.26944,548.540308 1361.62377,558.143314 C1360.23406,563.187515 1312.69414,565.22029 1298.11954,567.91928 C1284.94744,570.35855 1310.71765,570.16155 1310.71765,574.577774 C1310.71765,578.993999 1276.70649,580.09655 1274.41504,578.416225 C1272.1236,576.7359 1266.37695,593.2641 1262.76861,585 C1259.16028,576.7359 1268.77613,573.976394 1267.29909,567.91928 C1265.82205,561.862167 1234.37668,576.808347 1183.61724,583.651493 C1132.85781,590.494639 1063.55683,588.277029 1055.62377,588 C1047.6907,587.722971 991.623765,623.155641 979.382021,614.356833 C967.140276,605.558024 1002.73612,603.192152 1000.05001,599.683201 C997.363909,596.174251 946.450602,609.843018 944.914844,605.9808 C943.379085,602.118582 951.538925,600.17506 949.391723,594.826593 C947.244522,589.478127 902.726465,602.726258 898.759245,602.58772 C894.792024,602.449181 896.635869,608.103449 898.471676,610.8226 C900.307484,613.54175 915.608946,606.392595 915.433563,611.414922 C915.258179,616.437248 851.061696,628.74844 848.965651,626.403199 C846.869606,624.057958 851.255611,623.195429 849.163477,620.738192 C847.071344,618.280954 823.953195,627.80179 824.14711,622.248779 C824.341025,616.695768 841.746074,614.888891 840.426995,609.504416 C839.107916,604.119942 802.254419,614.762337 800.407938,615.726593 C798.561457,616.69085 798.321499,620.591872 800.148961,623.142732 C801.976422,625.693593 808.144042,620.934882 809.401736,627.293642 C810.65943,633.652402 769.825076,637.010075 769.114748,634.21119 C768.404421,631.412306 779.651281,629.648723 779.769658,626.258867 C779.888034,622.869011 756.882787,628.853629 755.967763,623.155641 C755.052739,617.457653 786.109971,610.441777 788.263412,607.682824 C790.416853,604.923871 786.326146,604.251349 783.336532,604.146949 C780.346918,604.042549 769.555769,607.029539 768.116772,603.615463 C766.677774,600.201388 782.771144,597.380053 786.626671,595.645443 C790.482197,593.910834 790.888328,589.982248 788.975091,587.303007 C787.061854,584.623765 736.729246,596.071971 736.504372,602.511534 C736.279497,608.951097 750.472442,598.40985 751.622186,606.403284 C752.77193,614.396718 695.582257,620.144516 690.709091,611.895825 C685.835924,603.647134 735.289585,593.852713 736.924011,590.494639 C738.558437,587.136565 735.63923,583.840171 730.23619,583.651493 C724.833149,583.462815 685.437501,589.854472 674.113821,579 C662.790141,568.145528 700.738578,581.677023 700.738578,574.577774 C700.738578,567.478526 675.173372,569.523575 676.923388,560.399232 C678.673405,551.27489 690.715376,563.508092 703.960921,558.285747 C709.4214,556.132834 687.609755,544.865512 662.149311,539.957122 C636.688868,535.048732 652.212573,527.00772 676.379766,529.299591 C692.254554,530.80506 761.014894,558.676553 809.401736,560.999438 C1080.2099,574 1182.24307,552.128993 1254.62377,543.06383 Z M637.427981,548.970539 C640.312604,546.668878 649.714491,548.914993 652.746698,551.007394 C655.778905,553.099795 666.18185,561.077036 658.598777,560.999438 C651.015704,560.92184 643.062587,560.4678 638.675269,558.143314 C634.28795,555.818827 634.543359,551.2722 637.427981,548.970539 Z M1402.58905,540 C1408.68794,540 1409.08131,546.977844 1402.58905,546.977844 C1396.09679,546.977844 1380.88179,551.527696 1386.55509,546.977844 C1392.22839,542.427991 1396.49016,540 1402.58905,540 Z" id="Combined-Shape" fill="#212B73" transform="translate(1021.311883, 580.565624) scale(-1, 1) translate(-1021.311883, -580.565624) "></path>
                        <g id="Oval">
                            <use fill="black" fill-opacity="1" filter="url(#filter-16)" xlink:href="#path-15"></use>
                            <circle stroke="url(#radialGradient-14)" stroke-width="12" stroke-linejoin="square" fill="url(#radialGradient-13)" fill-rule="evenodd" cx="1028.44681" cy="438.446809" r="51.4468085"></circle>
                        </g>
                        <circle id="Oval" fill="url(#radialGradient-17)" opacity="0.100000001" cx="1028.74468" cy="438.744681" r="35.7446809"></circle>
                        <path d="M811.505342,368 C832.869648,368 850.370346,384.970635 851.02725,406.32484 C852.085207,440.717506 851.577904,459.609226 849.505342,463 C845.388917,469.734592 831.043756,471.825368 811.864956,471.825368 C792.686156,471.825368 778.516025,470.494238 773.505342,463 C770.991389,459.240001 770.369381,440.374533 771.639319,406.403595 C772.440694,384.965683 790.052457,368 811.505342,368 Z" id="Rectangle" fill="url(#radialGradient-18)"></path>
                        <path d="M1251,368 C1272.36431,368 1289.865,384.970635 1290.52191,406.32484 C1291.57987,440.717506 1291.07256,459.609226 1289,463 C1284.88358,469.734592 1270.53841,471.825368 1251.35961,471.825368 C1232.18081,471.825368 1218.01068,470.494238 1213,463 C1210.48605,459.240001 1209.86404,440.374533 1211.13398,406.403595 C1211.93535,384.965683 1229.54712,368 1251,368 Z" id="Rectangle" fill="url(#radialGradient-18)"></path>
                        <path d="M1251,385 C1238.84974,385 1229,394.849736 1229,407 L1229,444 C1229,446.761424 1231.23858,449 1234,449 L1268,449 C1270.76142,449 1273,446.761424 1273,444 L1273,407 C1273,394.849736 1263.15026,385 1251,385 Z" id="Rectangle-Copy-80" stroke="#131B53" stroke-width="2" fill="url(#linearGradient-19)"></path>
                        <path d="M1355.50534,368 C1376.86965,368 1394.37035,384.970635 1395.02725,406.32484 C1396.08521,440.717506 1395.5779,459.609226 1393.50534,463 C1389.38892,469.734592 1375.04376,471.825368 1355.86496,471.825368 C1336.68616,471.825368 1322.51602,470.494238 1317.50534,463 C1314.99139,459.240001 1314.36938,440.374533 1315.63932,406.403595 C1316.44069,384.965683 1334.05246,368 1355.50534,368 Z" id="Rectangle" fill="url(#radialGradient-18)"></path>
                        <path d="M1355,385 C1342.84974,385 1333,394.849736 1333,407 L1333,444 C1333,446.761424 1335.23858,449 1338,449 L1372,449 C1374.76142,449 1377,446.761424 1377,444 L1377,407 C1377,394.849736 1367.15026,385 1355,385 Z" id="Rectangle-Copy-80" stroke="#131B53" stroke-width="2" fill="url(#linearGradient-19)"></path>
                        <path d="M811,385 C798.849736,385 789,394.849736 789,407 L789,444 C789,446.761424 791.238576,449 794,449 L828,449 C830.761424,449 833,446.761424 833,444 L833,407 C833,394.849736 823.150264,385 811,385 Z" id="Rectangle-Copy-80" stroke="#131B53" stroke-width="2" fill="url(#linearGradient-19)"></path>
                        <path d="M1460.50534,368 C1481.86965,368 1499.37035,384.970635 1500.02725,406.32484 C1501.08521,440.717506 1500.5779,459.609226 1498.50534,463 C1494.38892,469.734592 1480.04376,471.825368 1460.86496,471.825368 C1441.68616,471.825368 1427.51602,470.494238 1422.50534,463 C1419.99139,459.240001 1419.36938,440.374533 1420.63932,406.403595 C1421.44069,384.965683 1439.05246,368 1460.50534,368 Z" id="Rectangle" fill="url(#radialGradient-18)"></path>
                        <path d="M1460,385 C1447.84974,385 1438,394.849736 1438,407 L1438,444 C1438,446.761424 1440.23858,449 1443,449 L1477,449 C1479.76142,449 1482,446.761424 1482,444 L1482,407 C1482,394.849736 1472.15026,385 1460,385 Z" id="Rectangle-Copy-80" stroke="#131B53" stroke-width="2" fill="url(#linearGradient-19)"></path>
                        <path d="M1565.50534,368 C1586.86965,368 1604.37035,384.970635 1605.02725,406.32484 C1606.08521,440.717506 1605.5779,459.609226 1603.50534,463 C1599.38892,469.734592 1585.04376,471.825368 1565.86496,471.825368 C1546.68616,471.825368 1532.51602,470.494238 1527.50534,463 C1524.99139,459.240001 1524.36938,440.374533 1525.63932,406.403595 C1526.44069,384.965683 1544.05246,368 1565.50534,368 Z" id="Rectangle" fill="url(#radialGradient-18)"></path>
                        <path d="M1565,385 C1552.84974,385 1543,394.849736 1543,407 L1543,444 C1543,446.761424 1545.23858,449 1548,449 L1582,449 C1584.76142,449 1587,446.761424 1587,444 L1587,407 C1587,394.849736 1577.15026,385 1565,385 Z" id="Rectangle-Copy-80" stroke="#131B53" stroke-width="2" fill="url(#linearGradient-19)"></path>
                        <path d="M1670.50534,368 C1691.86965,368 1709.37035,384.970635 1710.02725,406.32484 C1711.08521,440.717506 1710.5779,459.609226 1708.50534,463 C1704.38892,469.734592 1690.04376,471.825368 1670.86496,471.825368 C1651.68616,471.825368 1637.51602,470.494238 1632.50534,463 C1629.99139,459.240001 1629.36938,440.374533 1630.63932,406.403595 C1631.44069,384.965683 1649.05246,368 1670.50534,368 Z" id="Rectangle" fill="url(#radialGradient-18)"></path>
                        <path d="M1671,385 C1658.84974,385 1649,394.849736 1649,407 L1649,444 C1649,446.761424 1651.23858,449 1654,449 L1688,449 C1690.76142,449 1693,446.761424 1693,444 L1693,407 C1693,394.849736 1683.15026,385 1671,385 Z" id="Rectangle-Copy-80" stroke="#131B53" stroke-width="2" fill="url(#linearGradient-19)"></path>
                        <path d="M391.505342,368 C412.869648,368 430.370346,384.970635 431.02725,406.32484 C432.085207,440.717506 431.577904,459.609226 429.505342,463 C425.388917,469.734592 411.043756,471.825368 391.864956,471.825368 C372.686156,471.825368 358.516025,470.494238 353.505342,463 C350.991389,459.240001 350.369381,440.374533 351.639319,406.403595 C352.440694,384.965683 370.052457,368 391.505342,368 Z" id="Rectangle" fill="url(#radialGradient-18)"></path>
                        <path d="M391.505342,385 C379.355077,385 369.505342,394.849736 369.505342,407 L369.505342,444 C369.505342,446.761424 371.743918,449 374.505342,449 L408.505342,449 C411.266765,449 413.505342,446.761424 413.505342,444 L413.505342,407 C413.505342,394.849736 403.655606,385 391.505342,385 Z" id="Rectangle-Copy-80" stroke="#131B53" stroke-width="2" fill="url(#linearGradient-19)"></path>
                        <path d="M496.010683,368 C517.37499,368 534.875688,384.970635 535.532591,406.32484 C536.590549,440.717506 536.083246,459.609226 534.010683,463 C529.894259,469.734592 515.549098,471.825368 496.370298,471.825368 C477.191498,471.825368 463.021366,470.494238 458.010683,463 C455.49673,459.240001 454.874723,440.374533 456.144661,406.403595 C456.946035,384.965683 474.557798,368 496.010683,368 Z" id="Rectangle" fill="url(#radialGradient-18)"></path>
                        <path d="M495.505342,385 C483.355077,385 473.505342,394.849736 473.505342,407 L473.505342,444 C473.505342,446.761424 475.743918,449 478.505342,449 L512.505342,449 C515.266765,449 517.505342,446.761424 517.505342,444 L517.505342,407 C517.505342,394.849736 507.655606,385 495.505342,385 Z" id="Rectangle-Copy-80" stroke="#131B53" stroke-width="2" fill="url(#linearGradient-19)"></path>
                        <path d="M601.010683,368 C622.37499,368 639.875688,384.970635 640.532591,406.32484 C641.590549,440.717506 641.083246,459.609226 639.010683,463 C634.894259,469.734592 620.549098,471.825368 601.370298,471.825368 C582.191498,471.825368 568.021366,470.494238 563.010683,463 C560.49673,459.240001 559.874723,440.374533 561.144661,406.403595 C561.946035,384.965683 579.557798,368 601.010683,368 Z" id="Rectangle" fill="url(#radialGradient-18)"></path>
                        <path d="M600.505342,385 C588.355077,385 578.505342,394.849736 578.505342,407 L578.505342,444 C578.505342,446.761424 580.743918,449 583.505342,449 L617.505342,449 C620.266765,449 622.505342,446.761424 622.505342,444 L622.505342,407 C622.505342,394.849736 612.655606,385 600.505342,385 Z" id="Rectangle-Copy-80" stroke="#131B53" stroke-width="2" fill="url(#linearGradient-19)"></path>
                        <path d="M706.010683,368 C727.37499,368 744.875688,384.970635 745.532591,406.32484 C746.590549,440.717506 746.083246,459.609226 744.010683,463 C739.894259,469.734592 725.549098,471.825368 706.370298,471.825368 C687.191498,471.825368 673.021366,470.494238 668.010683,463 C665.49673,459.240001 664.874723,440.374533 666.144661,406.403595 C666.946035,384.965683 684.557798,368 706.010683,368 Z" id="Rectangle" fill="url(#radialGradient-18)"></path>
                        <path d="M705.505342,385 C693.355077,385 683.505342,394.849736 683.505342,407 L683.505342,444 C683.505342,446.761424 685.743918,449 688.505342,449 L722.505342,449 C725.266765,449 727.505342,446.761424 727.505342,444 L727.505342,407 C727.505342,394.849736 717.655606,385 705.505342,385 Z" id="Rectangle-Copy-80" stroke="#131B53" stroke-width="2" fill="url(#linearGradient-19)"></path>
                        <path d="M1916.03485,539.261324 C1925.37976,532.607059 1929.40487,520.8534 1929.40487,535.400063 C1929.40487,549.946726 1899.99434,574.800766 1899.99434,578.61954 C1899.99434,582.438313 1903.77566,584.354245 1901.885,586.115727 C1899.99434,587.87721 1888.27828,576.06419 1886.91343,579.836596 C1885.54859,583.609002 1878.91163,578.61954 1875.07057,588.27726 C1871.22951,597.934981 1866.7309,583.609002 1852.52407,586.115727 C1838.31724,588.622453 1834.84746,569.422292 1835.95177,579.836596 C1837.05608,590.2509 1831.09345,591.622614 1818.27079,590.595076 C1809.72236,589.91005 1794.29876,583.501714 1772,571.370066 C1816.36272,571.290172 1846.34594,569.278279 1861.94965,565.334386 C1885.35522,559.418548 1906.68995,545.915588 1916.03485,539.261324 Z" id="Path-31" fill="#212B73"></path>
                        <path d="M349.932283,481.725995 C356.495056,471.395708 361.142855,440.813549 365.291048,468.334623 C369.439241,495.855697 344.782039,509.070455 344.782039,512.889229 C344.782039,516.708002 355.082527,517.220869 349.932283,523.5 C344.782039,529.779131 331.175315,523.619032 329.810474,527.391438 C328.445632,531.163844 321.80867,526.174382 317.96761,535.832103 C314.12655,545.489823 309.627936,531.163844 295.421105,533.67057 C281.214275,536.177295 277.744495,516.977134 278.848809,527.391438 C279.953124,537.805743 273.990489,539.177456 261.167833,538.149918 C248.345176,537.12238 201.599615,526.615176 214.89704,518.924908 C228.194464,511.234641 281.441126,518.805067 304.846692,512.889229 C328.252259,506.97339 343.369509,492.056281 349.932283,481.725995 Z" id="Path-31" fill="#212B73" transform="translate(289.150957, 498.177462) scale(-1, 1) translate(-289.150957, -498.177462) "></path>
                        <path d="M1911.63401,572.75651 C1914.17537,571.313175 1917.42899,567.649981 1918.07636,564.156575 C1918.72372,560.66317 1922.40758,563.643814 1922.10462,566.607199 C1921.80167,569.570583 1919.39002,575.340573 1915.31119,576.674185 C1911.23235,578.007797 1909.09265,574.199845 1911.63401,572.75651 Z" id="Path-34" fill="#212B73" transform="translate(1916.329429, 569.765938) rotate(13.000000) translate(-1916.329429, -569.765938) "></path>
                        <path d="M1925.48329,557.449318 C1925.92653,555.866045 1926.8524,555.65229 1927.98128,555.870128 C1929.11016,556.087965 1929.23657,558.466587 1927.63669,559.008683 C1926.0368,559.550779 1925.04004,559.032591 1925.48329,557.449318 Z" id="Path-34" fill="#212B73" transform="translate(1927.105799, 557.507560) rotate(13.000000) translate(-1927.105799, -557.507560) "></path>
                        <path d="M363.5,546 C370.426494,546 375.824826,543.985281 375.824826,541.5 C375.824826,539.014719 367.089851,537 363.5,537 C359.910149,537 353.069507,537.070704 353.069507,539.555986 C353.069507,542.041267 356.573506,546 363.5,546 Z" id="Oval" fill="#212B73"></path>
                        <path d="M998.5,204 C1000.98528,204 1003,206.014719 1003,208.5 C1003,210.985281 1000.98528,213 998.5,213 L994,213 L994,236 L986,236 L986,213 L972,213 L972,236 L964,236 L964,213 L951,213 L951,236 L943,236 L943,213 L939.5,213 C937.014719,213 935,210.985281 935,208.5 C935,206.014719 937.014719,204 939.5,204 L998.5,204 Z" id="Combined-Shape" fill="url(#linearGradient-20)"></path>
                        <path d="M1102,152 C1102.55228,152 1103,152.447715 1103,153 L1103,198 L1087,198 C1080.47454,198 1075.16561,203.208544 1075.0038,209.695025 L1075,210 L1075,223 L1031,223 C1030.44772,223 1030,222.552285 1030,222 L1030,176 C1030,162.745166 1040.74517,152 1054,152 L1102,152 Z" id="Combined-Shape" fill="url(#linearGradient-21)"></path>
                        <rect id="Rectangle" fill="url(#linearGradient-22)" x="1023" y="209" width="58" height="9" rx="1"></rect>
                        <path d="M895,312 C912.700008,273.859954 923.630447,251.428716 927.791318,244.706287 C929.160008,241.200767 934.402825,233.050414 942.7738,233.050414 C951.568386,233.050414 970.136207,233.050414 998.477262,233.050414 L1004.93486,214 L1103.279,214 C1108.48451,215.076306 1111.08727,217.824603 1111.08727,222.244891 C1111.08727,226.665179 1111.08727,230.26702 1111.08727,233.050414 C1132.5742,233.050414 1147.36677,240.778328 1155.46496,256.234156 C1163.56316,271.689983 1165.89857,290.278598 1162.4712,312 L895,312 Z" id="Path-133" fill="url(#linearGradient-23)"></path>
                        <path d="M892,298 L1169,298 C1173.41828,298 1177,301.581722 1177,306 L1177,312 L1177,312 L884,312 L884,306 C884,301.581722 887.581722,298 892,298 Z" id="Rectangle" fill="url(#linearGradient-24)"></path>
                        <g id="flag" transform="translate(1018.000000, 61.500000) scale(-1, 1) translate(-1018.000000, -61.500000) translate(968.000000, 11.000000)">
                            <path d="M1.23966942,7.15927293 L1.23966942,75.3717263 C11.5275567,75.5871717 19.8321122,75.172552 26.153336,74.1278671 C35.6351716,72.5608397 44.2413503,73.1852546 46.3947012,72.8730472 C48.5480521,72.5608397 69.205511,73.0468493 68.8922956,75.3717263 C68.5790803,77.6966033 64.3200251,79.0674745 64.3200251,81.7435201 C64.3200251,84.4195658 68.2963046,85.9721433 73.8937798,86.8021523 C79.491255,87.6321613 86.3858634,89.4237743 86.3858634,92.0451467 C86.3858634,94.6665192 83.4289526,96.885547 83.4289526,98.4680236 C83.4289526,100.0505 83.1291936,101.268216 84.447896,100.659358 C85.3642433,100.236272 88.5648067,97.6802477 88.5648067,86.3288457 C88.5648067,83.3248233 88.4620754,79.991282 89.3223324,78.188452 C91.3432628,73.9532131 89.9738669,70.193305 92.2776179,66.4910549 C93.7036011,60.0497019 101.50622,52.7169199 99.7131965,43.4930715 C97.9201728,34.2692231 84.447896,33.5367517 83.4289526,28.1319975 C82.4100091,24.443196 86.3858634,24.443196 86.3858634,20.2022459 C82.4100091,10.9567768 73.204763,0 43.0973182,0 C23.0256883,0 9.0731387,2.38642431 1.23966942,7.15927293 Z" id="Path" fill="#6B2127"></path>
                            <g id="Group" transform="translate(23.833432, 20.421106) rotate(-8.000000) translate(-23.833432, -20.421106) translate(12.676407, 8.417007)" fill="#F2D354">
                                <polygon id="Star" points="7.16253212 12.4122435 3.00882151 14.5997373 3.80210964 9.96655115 0.44168717 6.68531047 5.08567681 6.00933771 7.16253212 1.79392566 9.23938742 6.00933771 13.8833771 6.68531047 10.5229546 9.96655115 11.3162427 14.5997373"></polygon>
                                <polygon id="Star-Copy" points="19.1061587 3.27404184 17.8389249 3.94141282 18.080945 2.52789839 17.0557314 1.52684192 18.4725418 1.32061294 19.1061587 0.0345550252 19.7397756 1.32061294 21.156586 1.52684192 20.1313723 2.52789839 20.3733924 3.94141282"></polygon>
                                <polygon id="Star-Copy-2" points="19.8037064 12.0957728 18.5364727 12.7631438 18.7784928 11.3496294 17.7532791 10.3485729 19.1700895 10.1423439 19.8037064 8.85628599 20.4373233 10.1423439 21.8541337 10.3485729 20.82892 11.3496294 21.0709401 12.7631438"></polygon>
                                <polygon id="Star-Copy-3" points="15.9941052 20.2829749 14.7268714 20.9503459 14.9688915 19.5368315 13.9436779 18.535775 15.3604883 18.3295461 15.9941052 17.0434881 16.627722 18.3295461 18.0445324 18.535775 17.0193188 19.5368315 17.2613389 20.9503459"></polygon>
                                <polygon id="Star-Copy-4" points="4.31142008 22.5153781 3.04418633 23.1827491 3.28620644 21.7692347 2.26099281 20.7681782 3.6778032 20.5619492 4.31142008 19.2758913 4.94503695 20.5619492 6.36184735 20.7681782 5.33663371 21.7692347 5.57865382 23.1827491"></polygon>
                            </g>
                        </g>
                        <g id="Rectangle" transform="translate(1056.000000, 0.000000)">
                            <mask id="mask-27" fill="white">
                                <use xlink:href="#path-26"></use>
                            </mask>
                            <use id="Mask" fill="url(#linearGradient-25)" xlink:href="#path-26"></use>
                            <rect fill="url(#linearGradient-28)" mask="url(#mask-27)" transform="translate(10.500000, 52.000000) scale(-1, 1) translate(-10.500000, -52.000000) " x="9" y="16" width="3" height="72" rx="1.5"></rect>
                        </g>
                        <g id="Group-11" filter="url(#filter-29)" transform="translate(954.000000, 250.000000)">
                            <rect id="Rectangle" fill="url(#radialGradient-30)" x="0" y="0" width="39" height="39" rx="19.5"></rect>
                            <rect id="Rectangle" stroke="#131B53" stroke-width="2" fill="url(#radialGradient-31)" x="6" y="6" width="27" height="27" rx="13.5"></rect>
                        </g>
                        <g id="Group-11" filter="url(#filter-32)" transform="translate(1018.000000, 250.000000)">
                            <rect id="Rectangle" fill="url(#radialGradient-30)" x="0" y="0" width="39" height="39" rx="19.5"></rect>
                            <rect id="Rectangle" stroke="#131B53" stroke-width="2" fill="url(#radialGradient-31)" x="6" y="6" width="27" height="27" rx="13.5"></rect>
                        </g>
                        <g id="Group-11" filter="url(#filter-33)" transform="translate(1083.000000, 250.000000)">
                            <rect id="Rectangle" fill="url(#radialGradient-30)" x="0" y="0" width="39" height="39" rx="19.5"></rect>
                            <rect id="Rectangle" stroke="#131B53" stroke-width="2" fill="url(#radialGradient-31)" x="6" y="6" width="27" height="27" rx="13.5"></rect>
                        </g>
                        <rect id="Rectangle" fill="url(#linearGradient-34)" x="1099" y="148" width="11" height="53" rx="1"></rect>
                        <g id="Path-51" transform="translate(1569.121178, 304.905630)">
                            <mask id="mask-37" fill="white">
                                <use xlink:href="#path-36"></use>
                            </mask>
                            <use id="Mask" fill="url(#linearGradient-35)" xlink:href="#path-36"></use>
                            <path d="M-70.1211777,14.7109494 C-23.4264333,8.70888939 -0.0527073711,7.18838838 5.68434189e-14,10.1494464 C0.233704579,23.2787832 17.909839,17.5906635 26.4291339,16.9849243 C51.5800411,15.1966437 46.2396919,24.9245787 60.8788223,28 C74.4143819,30.8435807 81.7471465,23.2787832 97.3573625,29.6859902 C102.341289,31.7316411 108.218906,43.0548071 112.207236,44.8667617 C123.095739,49.8135626 143.350433,48.2177776 153.879691,48.2177776 C168.992716,48.2177776 174.873475,35.971613 171.276974,28 C164.009005,11.890608 157.19408,9.50835204 97.3573625,1.94853885 C91.167752,1.16653908 59.3880416,-2.40086556 15.6412956,-1.84763505 C10.6444496,-1.78444389 -17.9430415,3.73508428 -70.1211777,14.7109494 Z" fill="url(#linearGradient-38)" mask="url(#mask-37)"></path>
                        </g>
                        <g id="Path-51" transform="translate(933.000000, 195.000000)">
                            <mask id="mask-41" fill="white">
                                <use xlink:href="#path-40"></use>
                            </mask>
                            <use id="Mask" fill="url(#linearGradient-39)" xlink:href="#path-40"></use>
                            <path d="M-32.365228,8.05319906 C-21.5927857,11.3676297 -2.32842405,16.6664051 2,14 C7.72306939,10.4744625 12.2646638,10.2218008 19.5552575,11.5108568 C24.2299592,12.3373947 31.6840333,14.7811251 37.4890986,13.5 C43.4223826,12.1905782 46.4707428,9.85836404 57,9.85836404 C63.8786697,9.85836404 69.2422025,8.36027522 69.2422025,11.5108568 C69.2422025,14.6614383 77.5075664,6.36094818 75.5480075,2.0176022 C68.2800387,-14.0917898 59.1940799,-29.491648 -0.642637546,-37.0514612 C-6.83224802,-37.8334609 -52.0140132,2.00772375 -32.365228,8.05319906 Z" fill="url(#linearGradient-42)" mask="url(#mask-41)"></path>
                        </g>
                    </g>
                </g>
            </g>
        </g>
    </g>
</svg>
