<?xml version="1.0" encoding="UTF-8"?>
<svg width="980px" height="942px" viewBox="0 0 980 942" version="1.1" xmlns="http://www.w3.org/2000/svg" xmlns:xlink="http://www.w3.org/1999/xlink">
    <!-- Generator: Sketch 61.2 (89653) - https://sketch.com -->
    <title>形状</title>
    <desc>Created with Sketch.</desc>
    <g id="页面-1" stroke="none" stroke-width="1" fill="none" fill-rule="evenodd">
        <g id="db5b83c651e34b1ff14506011bd24450" fill="#FFFFFF" fill-rule="nonzero">
            <path d="M909.7,107.5 C908.9,107.1 908.1,106.5 907.2,106 C905.7,105.2 904.2,104.6 902.7,103.9 C900.2,102.6 897.6,101.3 895,100.2 C894.6,100 894.1,99.9 893.7,99.7 C881.6,94.7 868.7,91.4 855.1,90 C854.2,89.9 853.3,89.9 852.4,89.9 C848.6,89.6 844.8,89.3 840.9,89.3 L678.4,89.3 L678.4,40.2 C678.4,18.2 660.5,0.2 638.5,0.2 L341.5,0.2 C319.5,0.2 301.6,18.1 301.6,40.2 L301.6,89.3 L139,89.3 C62.2,89.3 0,151.5 0,228.3 L0,529.4 L0,802.9 C0,854.7 28.4,899.7 70.3,923.6 C71.1,924.1 71.9,924.6 72.8,925.1 C74,925.7 75.2,926.2 76.4,926.9 C91.2,934.4 107.5,939.5 124.9,941.2 C125.8,941.3 126.7,941.2 127.6,941.3 C131.4,941.6 135.2,941.9 139.1,941.9 L577.5,941.9 L841,941.9 C917.8,941.9 980,879.7 980,802.9 L980,501.7 L980,228.2 C980,176.4 951.6,131.4 909.7,107.5 Z M380.8,101.7 C380.8,94.9 390.1,89.4 401.4,89.4 L578.5,89.4 C589.9,89.4 599.1,94.9 599.1,101.7 L599.1,122.8 C599.1,129.6 589.9,135.1 578.5,135.1 L401.5,135.1 C390.1,135.1 380.9,129.6 380.9,122.8 L380.9,101.7 L380.8,101.7 Z M362.8,229.9 C451.7,229.9 523.7,301.9 523.7,390.7 C523.7,479.6 451.7,551.6 362.8,551.6 C274,551.6 201.999896,479.6 201.999896,390.7 C201.9,301.9 274,229.9 362.8,229.9 Z M113.6,801.1 C113.6,663.5 225.2,551.9 362.8,551.9 L365.4,551.9 C503,551.9 614.6,663.5 614.6,801.1 L113.6,801.1 L113.6,801.1 Z M872.2,474.7 L666.2,474.7 C654.4,474.7 644.9,465.1 644.9,453.4 C644.9,441.6 654.4,432.1 666.2,432.1 L872.2,432.1 C884,432.1 893.500774,441.6 893.500774,453.4 C893.6,465.2 884,474.7 872.2,474.7 Z M872.2,339.7 L666.2,339.7 C654.4,339.7 644.9,330.2 644.9,318.4 C644.9,306.6 654.4,297.1 666.2,297.1 L872.2,297.1 C884,297.1 893.5,306.6 893.5,318.4 C893.5,330.2 884,339.7 872.2,339.7 Z" id="形状"></path>
        </g>
    </g>
</svg>