<?xml version="1.0" encoding="UTF-8"?>
<svg width="355px" height="384px" viewBox="0 0 355 384" version="1.1" xmlns="http://www.w3.org/2000/svg" xmlns:xlink="http://www.w3.org/1999/xlink">
    <!-- Generator: Sketch 61.2 (89653) - https://sketch.com -->
    <title>async </title>
    <desc>Created with Sketch.</desc>
    <defs>
        <path d="M228,132.331041 C232.881803,132.331041 236.855791,128.444227 236.996163,123.596403 L237,123.331041 L237,22.0037448 C237,15.3763278 242.372583,10.0037448 249,10.0037448 L333,10.0037448 C339.627417,10.0037448 345,15.3763278 345,22.0037448 L345,220.331041 C345,226.958458 339.627417,232.331041 333,232.331041 L129,232.331041 C124.118197,232.331041 120.144209,236.217855 120.003837,241.065679 L120,241.331041 L120,360.331041 C120,366.958458 114.627417,372.331041 108,372.331041 L24,372.331041 C17.372583,372.331041 12,366.958458 12,360.331041 L12,144.331041 C12,137.703624 17.372583,132.331041 24,132.331041 L228,132.331041 Z" id="path-1"></path>
        <path d="M-43.7369065,47.8425175 L136.404436,47.8425175 C143.031853,47.8425175 148.404436,53.2151005 148.404436,59.8425175 L148.404436,144.510047 C148.404436,151.137464 143.031853,156.510047 136.404436,156.510047 L-43.7369065,156.510047 C-50.3643235,156.510047 -55.7369065,151.137464 -55.7369065,144.510047 L-55.7369065,59.8425175 C-55.7369065,53.2151005 -50.3643235,47.8425175 -43.7369065,47.8425175 Z" id="path-3"></path>
        <linearGradient x1="50%" y1="-33.9919396%" x2="50%" y2="232.89118%" id="linearGradient-5">
            <stop stop-color="#FFFFFF" offset="0%"></stop>
            <stop stop-color="#3F59B0" offset="100%"></stop>
        </linearGradient>
        <rect id="path-6" x="12" y="132.331041" width="340" height="100" rx="12"></rect>
        <linearGradient x1="50%" y1="-54.7280983%" x2="50%" y2="246.383087%" id="linearGradient-8">
            <stop stop-color="#FFFFFF" offset="0%"></stop>
            <stop stop-color="#3F59B0" offset="100%"></stop>
        </linearGradient>
    </defs>
    <g id="V3-最新稿件" stroke="none" stroke-width="1" fill="none" fill-rule="evenodd">
        <g id="HOME-v3.1" transform="translate(-1102.000000, -2282.000000)">
            <g id="artchiture" transform="translate(507.000000, 2281.000000)">
                <g id="async-" transform="translate(595.000000, 0.668959)">
                    <path d="M132,372.331041 C132,378.958458 126.627417,384.331041 120,384.331041 L12,384.331041 C5.372583,384.331041 7.91705186e-15,378.958458 0,372.331041 L0,133.331041 C-8.11624501e-16,126.703624 5.372583,121.331041 12,121.331041 L227,121.331041 L227,121.331041 L218,121.331041 C222.881803,121.331041 226.855791,117.444227 226.996163,112.596403 L227,112.331041 L227,12.3310411 C227,5.70362406 232.372583,0.331041057 239,0.331041057 L343,0.331041057 C349.627417,0.331041057 355,5.70362406 355,12.3310411 L355,229.331041 C355,235.958458 349.627417,241.331041 343,241.331041 L140.934,241.331041 L140.734638,241.334878 C135.974956,241.472697 132.141656,245.305997 132.003837,250.065679 L132,250.331041 L132,372.331041 Z" id="white-bg" fill="#FFFFFF"></path>
                    <mask id="mask-2" fill="white">
                        <use xlink:href="#path-1"></use>
                    </mask>
                    <use id="blue-bg" fill="#3F59B0" xlink:href="#path-1"></use>
                    <g id="snow" mask="url(#mask-2)">
                        <g transform="translate(11.642950, 4.642950)">
                            <g id="Path-122" stroke-width="1" fill-rule="evenodd" transform="translate(232.858991, -0.000000)">
                                <mask id="mask-4" fill="white">
                                    <use xlink:href="#path-3"></use>
                                </mask>
                                <g id="Mask" transform="translate(46.333765, 102.176282) rotate(90.000000) translate(-46.333765, -102.176282) "></g>
                                <path d="M-13.1167308,23.4837988 C-17.2708131,19.8590989 -17.5981628,17.6750582 -14.0987802,16.9316765 C-8.84970615,15.816604 1.96034016,12.0898351 5.07762322,16.1410192 C8.19490627,20.1922032 18.0024304,17.5364069 19.5501725,16.1410192 C21.0979146,14.7456314 31.5975015,9.58889687 37.0657036,16.9316765 C42.5339058,24.2744561 60.4701647,24.9862239 64.8171699,17.9755843 C69.1641752,10.9649447 83.0827063,13.0951108 86.8876285,16.1410192 C90.6925507,19.1869276 96.1683924,23.2221812 99.0262614,21.2045544 C100.931507,19.8594698 101.845341,9.70794604 101.767763,-9.25001702 L-22.4191462,0.154174955 L-19.9318633,25.3352886 L-13.1167308,23.4837988 Z" fill="url(#linearGradient-5)" mask="url(#mask-4)"></path>
                            </g>
                            <rect id="Rectangle-Copy-66" x="0" y="136.171444" width="168.43467" height="185.340437" rx="12"></rect>
                        </g>
                    </g>
                    <mask id="mask-7" fill="white">
                        <use xlink:href="#path-6"></use>
                    </mask>
                    <g id="Mask"></g>
                    <path d="M3,130.855294 C23.1608522,142.179134 40.8133725,147.841053 55.957561,147.841053 C78.6738436,147.841053 101.10589,139.375542 113.07863,141.633101 C125.05137,143.890659 130.174042,155.327978 146.059696,151.584515 C161.945349,147.841053 154.39344,135.387767 171.191459,139.6025 C187.989478,143.817232 189.199236,143.964087 197.518178,143.890659 C203.06414,143.841708 213.891414,136.655168 230,122.331041 L3,130.855294 Z" id="Path-123" fill="url(#linearGradient-8)" mask="url(#mask-7)"></path>
                </g>
            </g>
        </g>
    </g>
</svg>