<?xml version="1.0" encoding="UTF-8"?>
<svg width="362px" height="384px" viewBox="0 0 362 384" version="1.1" xmlns="http://www.w3.org/2000/svg" xmlns:xlink="http://www.w3.org/1999/xlink">
    <!-- Generator: Sketch 61.2 (89653) - https://sketch.com -->
    <title>SQL</title>
    <desc>Created with Sketch.</desc>
    <defs>
        <path d="M362,372 C362,378.627417 356.627417,384 350,384 L12,384 C5.372583,384 8.11624501e-16,378.627417 0,372 L0,273 C-8.11624501e-16,266.372583 5.372583,261 12,261 L224,261 L224,12 C224,5.372583 229.372583,2.99379359e-15 236,0 L350,0 C356.627417,5.58920087e-16 362,5.372583 362,12 L362,372 Z" id="path-1"></path>
        <path d="M341.35705,349.133247 C341.35705,355.760664 335.984467,361.133247 329.35705,361.133247 L12.3570505,361.133247 C5.72963345,361.133247 0.357050453,355.760664 0.357050453,349.133247 L0.357050453,273.133247 C0.357050453,266.50583 5.72963345,261.133247 12.3570505,261.133247 L223.35705,261.133247 L223.35705,12.1332471 C223.35705,5.50583009 228.729633,0.133247089 235.35705,0.133247089 L329.35705,0.133247089 C335.984467,0.133247089 341.35705,5.50583009 341.35705,12.1332471 L341.35705,349.133247 Z" id="path-3"></path>
        <linearGradient x1="52.1389867%" y1="-91.7038033%" x2="52.1389867%" y2="311.386034%" id="linearGradient-5">
            <stop stop-color="#FFFFFF" offset="0%"></stop>
            <stop stop-color="#4073A2" offset="100%"></stop>
        </linearGradient>
    </defs>
    <g id="V3-最新稿件" stroke="none" stroke-width="1" fill="none" fill-rule="evenodd">
        <g id="HOME-v3.1" transform="translate(-1254.000000, -2282.000000)">
            <g id="artchiture" transform="translate(507.000000, 2281.000000)">
                <g id="SQL" transform="translate(747.000000, 1.000000)">
                    <g id="white">
                        <mask id="mask-2" fill="white">
                            <use xlink:href="#path-1"></use>
                        </mask>
                        <use id="Mask" fill="#FFFFFF" xlink:href="#path-1"></use>
                    </g>
                    <g id="green" transform="translate(9.642950, 9.866753)">
                        <mask id="mask-4" fill="white">
                            <use xlink:href="#path-3"></use>
                        </mask>
                        <use id="Mask" fill="#4074A2" xlink:href="#path-3"></use>
                        <path d="M227.754807,23.8383619 C232.292367,21.2876374 229.375207,17.5181726 236.930073,11.9783218 C244.484939,6.43847108 255.861316,10.9374469 259.125903,13.8295507 C262.390489,16.7216544 269.354076,17.734358 270.54673,14.8563399 C271.739383,11.9783218 277.339005,12.8027614 279.613955,13.8295507 C281.888905,14.8563399 289.976878,20.062029 292.477861,18.3283489 C294.978844,16.5946688 296.198089,11.9783218 302.298971,11.9783218 C308.399853,11.9783218 320.024569,19.8566376 325.755822,19.8566376 C331.487074,19.8566376 335.652719,18.7404938 343.22946,7.89786077 C350.806201,-2.94477229 360.188543,13.4078738 367.783233,15.8681114 C372.84636,17.5082697 378.13552,18.8377784 383.650712,19.8566376 L378.164106,-14.2238715 L212.111255,-15.7619664 C207.494587,10.90332 207.991887,24.8211526 213.603154,25.9915313 C222.020055,27.7470994 223.217247,26.3890864 227.754807,23.8383619 Z" id="Path-121" fill="url(#linearGradient-5)" mask="url(#mask-4)"></path>
                    </g>
                    <path d="M224,252 L224,261 L215,261 C219.881803,261 223.855791,257.113186 223.996163,252.265362 L224,252 Z" id="Combined-Shape" fill="#FFFFFF"></path>
                    <path d="M233,262 L233,271 L224,271 C228.881803,271 232.855791,267.113186 232.996163,262.265362 L233,262 Z" id="Combined-Shape" fill="#4074A2"></path>
                </g>
            </g>
        </g>
    </g>
</svg>