<?xml version="1.0" encoding="UTF-8"?>
<svg width="1920px" height="909px" viewBox="0 0 1920 909" version="1.1" xmlns="http://www.w3.org/2000/svg" xmlns:xlink="http://www.w3.org/1999/xlink">
    <!-- Generator: Sketch 61.2 (89653) - https://sketch.com -->
    <title>clouds</title>
    <desc>Created with Sketch.</desc>
    <defs>
        <rect id="path-1" x="0" y="0" width="1920" height="7719"></rect>
        <linearGradient x1="50%" y1="0%" x2="50%" y2="100%" id="linearGradient-3">
            <stop stop-color="#131B53" offset="0%"></stop>
            <stop stop-color="#212B73" offset="100%"></stop>
        </linearGradient>
        <rect id="path-4" x="0" y="0" width="1920" height="909"></rect>
        <linearGradient x1="5.5830168%" y1="14.3496664%" x2="-313.5900799%" y2="107.094195%" id="linearGradient-6">
            <stop stop-color="#1F296F" offset="0.0263935811%"></stop>
            <stop stop-color="#FCFCFD" offset="99.9622711%"></stop>
            <stop stop-color="#FFFFFF" offset="100%"></stop>
        </linearGradient>
    </defs>
    <g id="clouds" stroke="none" stroke-width="1" fill="none" fill-rule="evenodd">
        <g id="bg">
            <mask id="mask-2" fill="white">
                <use xlink:href="#path-1"></use>
            </mask>
            <g id="Mask"></g>
            <g mask="url(#mask-2)">
                <g transform="translate(-771.000000, 0.000000)">
                    <rect id="banner-bg" fill="url(#linearGradient-3)" x="771" y="0" width="1920" height="909"></rect>
                    <path d="M2119.49824,909.641101 C2120.12279,914.502021 2120.43507,918.035451 2120.43507,920.241391 C2120.43507,923.550301 2087.89022,920.764275 2090.10845,926.509086 C2092.32669,932.253897 2138.0887,925.570429 2138.0887,930.847639 C2138.0887,936.124849 2115.60199,929.959658 2118.01853,942.511172 C2120.43507,955.062686 2131.87787,960.244303 2128.74191,962.698632 C2125.60595,965.152961 2108.95536,961.838293 2108.95536,966.378398 C2108.95536,970.918504 2183.55094,966.75962 2181.97604,971.862919 C2180.40114,976.966219 2099.57584,976.143369 2103.06229,980.040811 C2106.54875,983.938253 2151.14194,981.346869 2148.14753,985.840905 C2145.15312,990.334942 2089.30671,997.973808 2103.06229,1004.59969 C2109.16727,1007.54038 2138.0887,1004.07906 2138.0887,1011.42895 C2138.0887,1013.8358 2133.41722,1025.69282 2124.07427,1047 C2133.34677,1040.86968 2144.07037,1032.50687 2156.24507,1021.91157 C2167.00443,1012.548 2183.68956,1015.85862 2188.5562,1015.03923 C2203.26446,1012.5628 2209.62282,1018.54052 2214.66192,1015.03923 C2219.70101,1011.53794 2209.62282,1011.29298 2209.62282,1004.59969 C2209.62282,997.906399 2224.74778,1003.21684 2224.74778,999.979344 C2224.74778,996.74185 2206.6811,1001.10623 2206.6811,994.467336 C2206.6811,987.828445 2257.26125,996.460427 2257.26125,990.365757 C2257.26125,984.271086 2210.12131,982.907978 2210.12131,975.686088 C2210.12131,968.464198 2271.61832,977.34744 2271.61832,971.862919 C2271.61832,966.378398 2273.94246,966.378398 2279.1185,966.378398 C2284.29455,966.378398 2292.50641,967.119417 2292.50641,962.698632 C2292.50641,958.277848 2268.40643,963.319659 2268.40643,956.486669 C2268.40643,949.653679 2304.48228,957.217367 2304.48228,952.486586 C2304.48228,947.755806 2276.80105,948.063372 2276.80105,942.511172 C2276.80105,936.958972 2282.35082,940.740186 2281.47168,936.958972 C2280.59253,933.177758 2257.26125,939.817519 2257.26125,933.163303 C2257.26125,926.509086 2333.68433,932.776781 2333.68433,926.509086 C2333.68433,920.241391 2354.00849,912.923303 2357.93733,909.641101 C2360.55655,907.452966 2281.07686,907.452966 2119.49824,909.641101 Z" id="Path-126" fill="#212B73" transform="translate(2224.000000, 977.500000) scale(-1, 1) translate(-2224.000000, -977.500000) "></path>
                </g>
            </g>
        </g>
        <g id="banner-bg">
            <mask id="mask-5" fill="white">
                <use xlink:href="#path-4"></use>
            </mask>
            <g id="Mask"></g>
            <g mask="url(#mask-5)">
                <g transform="translate(-379.000000, -187.000000)">
                    <path d="M365.621839,305 C389.338546,308.142526 414.8768,308.731585 442.236601,306.767176 C483.276302,303.820563 506.191942,301.758442 531.559982,333.052485 C570.345718,398.586314 506.286046,393.675178 503.685908,395.968354 C501.853129,397.584761 496.842651,445.850344 444.247871,458.875988 C399.640888,469.923371 373.224931,466.024097 365,447.178166 L365.621839,305 Z" id="Path-12" fill="#212B73"></path>
                    <path d="M2386.34599,1096 L2565,1096 L2493.24391,234 L2332.62536,288.583543 C2187.13682,422.48741 2131.98162,513.350961 2167.15977,561.174195 C2219.92698,632.909046 2318.35985,596.123086 2332.62536,651.582937 C2346.89086,707.042788 2228.51471,778.801365 2260.6366,816.880407 C2292.75849,854.959449 2382.97787,828.895724 2386.34599,875.402095 L2386.34599,1096 Z" id="Path-17" fill="url(#linearGradient-6)"></path>
                    <path d="M825.060419,174.165612 C831.188203,182.350179 833.383622,190.74195 831.646676,199.340926 C829.041257,212.239389 813.566279,242.151471 831.646676,264.612275 C849.727072,287.073078 871.723676,301.614375 909.980923,308.518715 C935.485753,313.121609 963.256693,315.174142 993.293741,314.676314 C1040.93471,334.677013 1087.29875,341.11456 1132.38586,333.988955 C1177.47297,326.86335 1213.41138,300.69407 1240.20107,255.481112 L1311.22884,247.573903 C1314.51485,265.086876 1321.52866,277.136759 1332.27026,283.723552 C1343.01186,290.310344 1357.39192,295.275331 1375.41044,298.618512 C1351.22188,343.746196 1357.21566,392.843362 1393.39178,445.91001 C1429.56791,498.976659 1482.67434,515.684445 1552.71109,496.033369 C1580.08391,521.179518 1615.21941,528.739243 1658.11761,518.712543 C1701.01581,508.685843 1714.24241,482.953662 1697.79741,441.515998 C1735.87254,441.805429 1766.99364,432.012599 1791.16073,412.137509 C1827.41136,382.324874 1816.2342,368.744006 1823.10073,357.024909 C1829.96725,345.305813 1876.32705,337.898429 1862.40866,273.237843 C1853.12974,230.130786 1807.94957,190.051505 1726.86815,153 L825.060419,174.165612 Z" id="Path-13" fill="#212B73"></path>
                </g>
            </g>
            <g id="Path-103-Copy" mask="url(#mask-5)">
                <g transform="translate(1449.000000, 826.000000)"></g>
            </g>
        </g>
    </g>
</svg>
