<?xml version="1.0" encoding="UTF-8"?>
<svg width="43px" height="42px" viewBox="0 0 43 42" version="1.1" xmlns="http://www.w3.org/2000/svg" xmlns:xlink="http://www.w3.org/1999/xlink">
    <!-- Generator: Sketch 61.2 (89653) - https://sketch.com -->
    <title>Fill 49</title>
    <desc>Created with Sketch.</desc>
    <g id="V3-最新稿件" stroke="none" stroke-width="1" fill="none" fill-rule="evenodd">
        <g id="HOME-v3" transform="translate(-1507.000000, -49.000000)" fill="#FFFFFE">
            <g id="banner-bg" transform="translate(-379.000000, -187.000000)">
                <g id="header" transform="translate(597.000000, 218.000000)">
                    <path d="M1310.49802,18 C1298.62712,18 1289,27.6398831 1289,39.5321123 C1289,49.0451026 1295.15983,57.114688 1303.70334,59.9618439 C1304.77903,60.1601138 1305.17103,59.4952487 1305.17103,58.9242313 C1305.17103,58.412695 1305.15255,57.0591724 1305.14199,55.262847 C1299.16167,56.5634976 1297.89987,52.3760371 1297.89987,52.3760371 C1296.92185,49.8884106 1295.51223,49.2261891 1295.51223,49.2261891 C1293.56015,47.8911717 1295.66006,47.9176077 1295.66006,47.9176077 C1297.81804,48.0696146 1298.95313,50.1369089 1298.95313,50.1369089 C1300.8709,53.4268676 1303.98579,52.4764938 1305.21063,51.9253035 C1305.40597,50.5347705 1305.96163,49.5857186 1306.57537,49.0477462 C1301.80141,48.5044866 1296.78195,46.6566111 1296.78195,38.4059392 C1296.78195,36.0557799 1297.62006,34.1325617 1298.99537,32.628354 C1298.77363,32.0837726 1298.03582,29.893551 1299.20654,26.9300768 C1299.20654,26.9300768 1301.0108,26.3511286 1305.11824,29.1374818 C1306.83275,28.6589904 1308.67264,28.4210665 1310.50066,28.4118139 C1312.32736,28.4210665 1314.16594,28.6589904 1315.88308,29.1374818 C1319.98788,26.3511286 1321.7895,26.9300768 1321.7895,26.9300768 C1322.96286,29.893551 1322.22505,32.0837726 1322.00463,32.628354 C1323.38258,34.1325617 1324.21409,36.0557799 1324.21409,38.4059392 C1324.21409,46.6777599 1319.18672,48.4978776 1314.39823,49.0305628 C1315.16904,49.6954279 1315.85669,51.0092965 1315.85669,53.0171098 C1315.85669,55.8959889 1315.83029,58.2183905 1315.83029,58.9242313 C1315.83029,59.5005359 1316.21833,60.1706882 1317.30854,59.9605221 C1325.84545,57.1067572 1332,49.042459 1332,39.5321123 C1332,27.6398831 1322.37288,18 1310.49802,18" id="Fill-49"></path>
                </g>
            </g>
        </g>
    </g>
</svg>