<?xml version="1.0" encoding="UTF-8"?>
<svg width="256px" height="89px" viewBox="0 0 256 89" version="1.1" xmlns="http://www.w3.org/2000/svg" xmlns:xlink="http://www.w3.org/1999/xlink">
    <!-- Generator: Sketch 61.2 (89653) - https://sketch.com -->
    <title>logo copy 2</title>
    <desc>Created with Sketch.</desc>
    <defs>
        <polygon id="path-1" points="0 88.65792 255.794062 88.65792 255.794062 0 0 0"></polygon>
    </defs>
    <g id="python-gino.org" stroke="none" stroke-width="1" fill="none" fill-rule="evenodd">
        <g id="HOME-v3" transform="translate(-217.000000, -31.000000)">
            <g id="banner-bg" transform="translate(-379.000000, -187.000000)">
                <g id="header" transform="translate(596.000000, 218.000000)">
                    <g id="logo-copy-2">
                        <g id="Group-20" transform="translate(1.628956, 1.629753)">
                            <path d="M42.6996622,-3.55271368e-15 C66.2823822,-3.55271368e-15 85.4004622,19.1158044 85.4004622,42.6996622 C85.4004622,66.2823822 66.2823822,85.3993244 42.6996622,85.3993244 C19.11808,85.3993244 -5.40012479e-13,66.2823822 -5.40012479e-13,42.6996622 C-5.40012479e-13,19.1158044 19.11808,-3.55271368e-15 42.6996622,-3.55271368e-15 Z" id="1b55aa" fill="#2D6DE6"></path>
                            <path d="M9.81083022,41.9789938 C10.5094258,35.9635627 19.4773902,30.754816 23.3446969,32.0439182 C27.2108658,33.3330204 28.2314524,39.847936 28.1233636,41.0744604 C28.0164124,42.3009849 16.3632924,50.3018382 16.3632924,50.3018382 C16.3632924,50.3018382 9.11337244,47.9932871 9.81083022,41.9789938 Z" id="Fill-3" fill="#FFFFFF"></path>
                            <path d="M59.0733084,45.7551644 C59.0733084,45.7551644 59.2883484,44.3056356 60.0404196,42.6410667 C60.7924907,40.97536 62.3478329,38.0228267 65.1422151,38.0216889 C69.4725973,38.0205511 76.3117796,44.0359822 75.9897884,50.2664533 C75.6677973,56.4946489 67.5349618,56.6562133 67.5349618,56.6562133 L59.0733084,45.7551644 Z" id="Fill-5" fill="#FFFFFF"></path>
                            <path d="M43.6431076,37.7898098 C27.6129564,36.4210631 12.2279253,48.9866809 13.1142542,60.7478898 C13.9311787,71.590912 22.1356942,83.8652587 41.3959964,85.3147876 C54.648832,86.3126187 64.7340942,78.2321209 68.2111431,70.4940942 C74.1719609,57.2298809 59.6732587,39.1596942 43.6431076,37.7898098 Z" id="Fill-7" fill="#FFFFFF"></path>
                            <path d="M26.4053191,45.5094044 C27.5328569,46.3547733 27.742208,44.8585956 27.1300836,44.0996978 C26.0435058,42.7502933 25.6077369,43.7174044 25.6077369,43.7174044 C25.6077369,43.7174044 25.2777813,44.6640356 26.4053191,45.5094044 Z" id="Fill-9" fill="#FFFFFF"></path>
                            <path d="M59.2798151,48.9859982 C60.4073529,49.8313671 60.616704,48.3363271 60.0057173,47.5774293 C58.9180018,46.2268871 58.4833707,47.1939982 58.4833707,47.1939982 C58.4833707,47.1939982 58.1522773,48.1406293 59.2798151,48.9859982 Z" id="Fill-11" fill="#FFFFFF"></path>
                            <path d="M-5.40012479e-13,42.6996622 C-5.40012479e-13,19.1158044 19.11808,-3.55271368e-15 42.6996622,-3.55271368e-15 C66.2823822,-3.55271368e-15 85.4004622,19.1158044 85.4004622,42.6996622 C85.4004622,66.2823822 66.2823822,85.3993244 42.6996622,85.3993244 C19.11808,85.3993244 -5.40012479e-13,66.2823822 -5.40012479e-13,42.6996622 Z" id="Stroke-13" stroke="#2D6DE6" stroke-width="3"></path>
                            <path d="M58.9958258,76.4463787 C55.3333191,78.0199253 53.3592747,81.6096142 54.5857991,84.4631609 C55.3105636,86.1504853 59.8104747,85.1253476 61.3692302,84.6895787 C65.107968,83.6462364 68.3893191,80.023552 67.8477369,78.7628942 C66.6212124,75.9093476 62.6571947,74.8716942 58.9958258,76.4463787 Z" id="Fill-15" fill="#2D6DE6"></path>
                            <path d="M23.9766187,75.693056 C27.6391253,77.2666027 29.6484409,80.772096 28.4662898,83.5232427 C27.7676942,85.1491271 22.3848676,84.6007182 20.8386276,84.1080604 C16.3398542,82.6778738 14.6832498,79.0381227 15.2054898,77.822976 C16.3876409,75.0718293 20.314112,74.1183716 23.9766187,75.693056 Z" id="Fill-17" fill="#2D6DE6"></path>
                            <path d="M43.4955378,38.8762738 C43.4955378,38.8762738 39.4780444,34.6369138 40.91392,32.9040782 C42.3520711,31.1723804 44.1224533,34.2682738 44.2692267,35.3741938 C44.4171378,36.4801138 44.4535467,33.0519893 46.2227911,33.9360427 C47.9920356,34.8223716 44.3431822,40.0186027 44.3431822,40.0186027 L43.4955378,38.8762738 Z" id="Fill-19" fill="#FFFFFF"></path>
                        </g>
                        <path d="M121.653817,49.7618489 C119.162084,49.1053511 117.156181,48.06656 115.633835,46.6466133 C114.111488,45.23008 112.996466,43.3777778 112.286492,41.0965333 C111.577657,38.8118756 111.22267,36.0095289 111.22267,32.6883556 C111.22267,30.2330311 111.457052,27.8880711 111.923541,25.6568889 C112.39003,23.4268444 113.28091,21.5062756 114.596181,19.8974578 C115.910315,18.2909156 117.857052,17.0268444 120.435257,16.1086578 C123.011186,15.1950222 126.635008,14.7342222 131.304448,14.7342222 C135.629141,14.7342222 139.816164,15.2541867 143.864377,16.2907022 L143.395612,23.7124267 C139.141461,22.7089067 135.196786,22.2071467 131.564999,22.2071467 C128.762652,22.2071467 126.557639,22.4836267 124.948821,23.0365867 C123.340004,23.5918222 122.120306,24.5782756 121.289728,25.9948089 C120.460288,27.4136178 120.044999,29.6265956 120.044999,32.6371556 C120.044999,36.5818311 120.815275,39.3398044 122.354688,40.9144889 C123.892964,42.4868978 126.583808,43.2753778 130.42267,43.2753778 C132.427435,43.2753778 134.366208,43.0683022 136.235577,42.6530133 L136.235577,36.5818311 L129.386155,36.5818311 L129.386155,29.2124444 L144.693817,29.2124444 L144.693817,48.7230578 C142.169088,49.4512356 139.824128,49.9677867 137.66235,50.2818133 C135.500572,50.5912889 133.20795,50.7471644 130.785621,50.7471644 C127.187968,50.7471644 124.144412,50.4183467 121.653817,49.7618489 Z" id="Fill-21" fill="#2D6DE6"></path>
                        <mask id="mask-2" fill="white">
                            <use xlink:href="#path-1"></use>
                        </mask>
                        <g id="Clip-24"></g>
                        <path d="M162.854684,28.9223111 L162.854684,50.1248 L154.759396,50.1248 L154.759396,28.9223111 L157.222396,28.9223111 L158.983054,31.2961707 L160.280121,29.4495573 C160.382573,29.30357 160.505052,29.1264686 160.642666,28.9227118 L162.854684,28.9223111 Z" id="Combined-Shape" fill="#F8D230" mask="url(#mask-2)"></path>
                        <polygon id="Fill-25" fill="#F8D230" mask="url(#mask-2)" points="173.754482 50.1249138 173.754482 15.3567004 184.339228 15.3567004 199.700366 36.8914204 199.700366 15.3567004 207.899193 15.3567004 207.899193 50.1249138 199.648028 50.1249138 181.953308 25.3213582 181.953308 50.1249138"></polygon>
                        <path d="M236.853362,43.2749227 C239.862784,43.2749227 242.049593,42.9040071 243.417202,42.1610382 C244.782535,41.414656 245.726891,40.308736 246.245717,38.8398649 C246.765682,37.369856 247.02282,35.3355093 247.02282,32.7402382 C247.02282,30.1461049 246.765682,28.1151716 246.245717,26.6428871 C245.726891,25.174016 244.782535,24.0669582 243.417202,23.3217138 C242.049593,22.5787449 239.862784,22.2066916 236.853362,22.2066916 C233.842802,22.2066916 231.655993,22.5787449 230.288384,23.3217138 C228.920775,24.0669582 227.978695,25.174016 227.459868,26.6428871 C226.94218,28.1151716 226.682766,30.1461049 226.682766,32.7402382 C226.682766,35.3355093 226.94218,37.369856 227.459868,38.8398649 C227.978695,40.308736 228.920775,41.414656 230.288384,42.1610382 C231.655993,42.9040071 233.842802,43.2749227 236.853362,43.2749227 M228.004864,49.7875627 C225.599602,49.1469938 223.654002,48.1275449 222.169202,46.7246649 C220.679851,45.3251982 219.598962,43.4740338 218.925397,41.1734471 C218.249557,38.8728604 217.911637,36.0625493 217.911637,32.7402382 C217.911637,29.4190649 218.249557,26.6098916 218.925397,24.3070293 C219.598962,22.0087182 220.679851,20.156416 222.169202,18.7569493 C223.654002,17.3552071 225.599602,16.3346204 228.004864,15.6951893 C230.410126,15.0546204 233.359246,14.7337671 236.853362,14.7337671 C240.34634,14.7337671 243.304562,15.0546204 245.726891,15.6951893 C248.148082,16.3346204 250.092544,17.3552071 251.564828,18.7569493 C253.034837,20.156416 254.106624,22.0087182 254.782464,24.3070293 C255.456028,26.6098916 255.792811,29.4190649 255.792811,32.7402382 C255.792811,36.0625493 255.456028,38.8728604 254.782464,41.1734471 C254.106624,43.4740338 253.034837,45.3251982 251.564828,46.7246649 C250.092544,48.1275449 248.148082,49.1469938 245.726891,49.7875627 C243.304562,50.4269938 240.34634,50.7467093 236.853362,50.7467093 C233.359246,50.7467093 230.410126,50.4269938 228.004864,49.7875627 Z" id="Fill-26" fill="#F8D230" mask="url(#mask-2)"></path>
                        <polygon id="Fill-27" fill="#2D6DE6" mask="url(#mask-2)" points="114.23744 73.6620089 117.723591 73.6620089 117.723591 59.4944 114.23744 59.4944"></polygon>
                        <path d="M127.218916,73.9149369 C124.795449,73.9149369 122.722418,73.6543858 121.003236,73.1344213 L121.214862,70.0043947 C122.893084,70.611968 124.978631,70.9146169 127.474916,70.9146169 C127.58528,70.9146169 127.799182,70.9100658 128.10752,70.9021013 C128.418133,70.898688 128.791324,70.8725191 129.229369,70.8304213 C129.665138,70.7883236 129.993956,70.6620302 130.211271,70.4595058 C130.429724,70.2524302 130.540089,69.9327147 130.540089,69.4980836 C130.540089,69.0725547 130.404693,68.7733191 130.137316,68.5969636 C129.869938,68.420608 129.320391,68.297728 128.489813,68.226048 L125.951431,68.0144213 C124.837547,67.9177102 123.942116,67.7413547 123.266276,67.488768 C122.590436,67.2361813 122.068196,66.8311324 121.700693,66.2838613 C121.334329,65.7320391 121.151147,64.9139769 121.151147,63.8308124 C121.151147,62.7601636 121.33888,61.9000036 121.710933,61.2514702 C122.084124,60.6029369 122.73152,60.105728 123.645156,59.7609813 C124.562204,59.4150969 125.951431,59.2421547 127.811698,59.2421547 C129.785742,59.2421547 131.624391,59.4697102 133.331058,59.9202702 L133.119431,63.0264036 C131.41504,62.5041636 129.532018,62.2424747 127.474916,62.2424747 C126.431573,62.2424747 125.697707,62.3187058 125.274453,62.4654791 C124.8512,62.6122524 124.639573,62.9843058 124.639573,63.5782258 C124.639573,64.0538169 124.813653,64.3621547 125.1584,64.4975502 C125.504284,64.631808 126.021973,64.723968 126.713742,64.7842702 L129.229369,64.9936213 C130.371698,65.0903324 131.278507,65.2803413 131.955484,65.5545458 C132.632462,65.8287502 133.147876,66.2463147 133.500587,66.8015502 C133.85216,67.3579236 134.028516,68.1839502 134.028516,69.2841813 C134.028516,70.3832747 133.836231,71.2650524 133.457351,71.9169991 C133.076196,72.5746347 132.425387,73.0729813 131.502649,73.4097636 C130.577636,73.7465458 129.150862,73.9149369 127.218916,73.9149369" id="Fill-28" fill="#F8D230" mask="url(#mask-2)"></path>
                        <polygon id="Fill-29" fill="#2D6DE6" mask="url(#mask-2)" points="142.781212 73.6626916 142.781212 59.4950827 147.094528 59.4950827 153.352306 68.2730382 153.352306 59.4950827 156.695097 59.4950827 156.695097 73.6626916 153.330688 73.6626916 146.121728 63.5569493 146.121728 73.6626916"></polygon>
                        <path d="M167.962283,70.8727467 C169.188807,70.8727467 170.079687,70.7202844 170.638336,70.4176356 C171.194709,70.1138489 171.57814,69.6632889 171.789767,69.0648178 C172.001394,68.4663467 172.107207,67.6357689 172.107207,66.5787733 C172.107207,65.52064 172.001394,64.6946133 171.789767,64.0961422 C171.57814,63.4942578 171.194709,63.04256 170.638336,62.7399111 C170.079687,62.4406756 169.188807,62.2882133 167.962283,62.2882133 C166.735758,62.2882133 165.844878,62.4406756 165.288505,62.7399111 C164.732132,63.04256 164.346425,63.4942578 164.135936,64.0961422 C163.925447,64.6946133 163.817358,65.52064 163.817358,66.5787733 C163.817358,67.6357689 163.925447,68.4663467 164.135936,69.0648178 C164.346425,69.6632889 164.732132,70.1138489 165.288505,70.4176356 C165.844878,70.7202844 166.735758,70.8727467 167.962283,70.8727467 M167.962283,73.9151644 C166.54006,73.9151644 165.336292,73.7854578 164.356665,73.5226311 C163.378176,73.2666311 162.585145,72.8490667 161.977572,72.2756267 C161.373412,71.7067378 160.933092,70.9523911 160.656612,70.0125867 C160.383545,69.0773333 160.247012,67.9315911 160.247012,66.5787733 C160.247012,65.2259556 160.383545,64.0790756 160.656612,63.1438222 C160.933092,62.2040178 161.373412,61.4508089 161.977572,60.88192 C162.585145,60.30848 163.378176,59.8954667 164.356665,59.6337778 C165.336292,59.3732267 166.54006,59.2412444 167.962283,59.2412444 C169.38678,59.2412444 170.591687,59.3732267 171.57814,59.6337778 C172.565732,59.8954667 173.357625,60.30848 173.957234,60.88192 C174.556843,61.4508089 174.993749,62.2040178 175.269092,63.1438222 C175.543296,64.0790756 175.679829,65.2259556 175.679829,66.5787733 C175.679829,67.9315911 175.543296,69.0773333 175.269092,70.0125867 C174.993749,70.9523911 174.556843,71.7067378 173.957234,72.2756267 C173.357625,72.8490667 172.565732,73.2666311 171.57814,73.5226311 C170.591687,73.7854578 169.38678,73.9151644 167.962283,73.9151644" id="Fill-30" fill="#F8D230" mask="url(#mask-2)"></path>
                        <polygon id="Fill-31" fill="#F8D230" mask="url(#mask-2)" points="182.511161 73.6626916 182.511161 62.5841493 177.668779 62.5841493 177.668779 59.4950827 190.84197 59.4950827 190.84197 62.5841493 185.999588 62.5841493 185.999588 73.6626916"></polygon>
                        <path d="M206.212324,70.8727467 C207.438848,70.8727467 208.329728,70.7202844 208.889515,70.4176356 C209.44475,70.1138489 209.828181,69.6632889 210.040946,69.0648178 C210.252572,68.4663467 210.357248,67.6357689 210.357248,66.5787733 C210.357248,65.52064 210.252572,64.6946133 210.040946,64.0961422 C209.828181,63.4942578 209.44475,63.04256 208.889515,62.7399111 C208.329728,62.4406756 207.438848,62.2882133 206.212324,62.2882133 C204.986937,62.2882133 204.096057,62.4406756 203.538546,62.7399111 C202.982172,63.04256 202.596466,63.4942578 202.387115,64.0961422 C202.175488,64.6946133 202.067399,65.52064 202.067399,66.5787733 C202.067399,67.6357689 202.175488,68.4663467 202.387115,69.0648178 C202.596466,69.6632889 202.982172,70.1138489 203.538546,70.4176356 C204.096057,70.7202844 204.986937,70.8727467 206.212324,70.8727467 M206.212324,73.9151644 C204.790101,73.9151644 203.58747,73.7854578 202.607844,73.5226311 C201.628217,73.2666311 200.835186,72.8490667 200.22875,72.2756267 C199.62459,71.7067378 199.183132,70.9523911 198.90779,70.0125867 C198.633586,69.0773333 198.497052,67.9315911 198.497052,66.5787733 C198.497052,65.2259556 198.633586,64.0790756 198.90779,63.1438222 C199.183132,62.2040178 199.62459,61.4508089 200.22875,60.88192 C200.835186,60.30848 201.628217,59.8954667 202.607844,59.6337778 C203.58747,59.3732267 204.790101,59.2412444 206.212324,59.2412444 C207.636821,59.2412444 208.842866,59.3732267 209.828181,59.6337778 C210.81691,59.8954667 211.608804,60.30848 212.207275,60.88192 C212.808021,61.4508089 213.24379,62.2040178 213.52027,63.1438222 C213.793337,64.0790756 213.92987,65.2259556 213.92987,66.5787733 C213.92987,67.9315911 213.793337,69.0773333 213.52027,70.0125867 C213.24379,70.9523911 212.808021,71.7067378 212.207275,72.2756267 C211.608804,72.8490667 210.81691,73.2666311 209.828181,73.5226311 C208.842866,73.7854578 207.636821,73.9151644 206.212324,73.9151644" id="Fill-32" fill="#2D6DE6" mask="url(#mask-2)"></path>
                        <path d="M220.970098,65.7949582 L225.538276,65.7949582 C226.285796,65.7949582 226.811449,65.673216 227.114098,65.4285938 C227.415609,65.1794204 227.566933,64.7629938 227.566933,64.167936 C227.566933,63.5785671 227.415609,63.1575893 227.114098,62.9129671 C226.811449,62.6637938 226.285796,62.5420516 225.538276,62.5420516 L220.970098,62.5420516 L220.970098,65.7949582 Z M217.483947,73.6626916 L217.483947,59.4950827 L225.770382,59.4950827 C227.702329,59.4950827 229.065387,59.8477938 229.860693,60.553216 C230.658276,61.2563627 231.056498,62.4567182 231.056498,64.147456 C231.056498,65.4752427 230.81984,66.4855893 230.347662,67.1932871 C229.876622,67.8975716 229.105209,68.3697493 228.032284,68.6098204 L231.945102,73.6626916 L227.631787,73.6626916 L223.930596,68.7998293 L220.970098,68.7998293 L220.970098,73.6626916 L217.483947,73.6626916 Z" id="Fill-33" fill="#F8D230" mask="url(#mask-2)"></path>
                        <polygon id="Fill-34" fill="#F8D230" mask="url(#mask-2)" points="234.674517 73.6626916 234.674517 59.4950827 239.811584 59.4950827 243.639068 68.4402916 247.465415 59.4950827 252.773148 59.4950827 252.773148 73.6626916 249.283584 73.6626916 249.283584 63.1109404 244.779122 73.6626916 242.411406 73.6626916 238.013895 63.3623893 238.013895 73.6626916"></polygon>
                        <path d="M154.825614,15.9008996 C156.771214,15.9008996 158.632619,19.3927396 158.826041,20.8365796 C158.860174,21.0937173 158.889756,21.202944 158.927303,21.202944 C159.113899,21.202944 159.439303,18.2151396 161.144832,18.2151396 C161.41221,18.2151396 161.713721,18.2890951 162.055054,18.4597618 C164.979143,19.9218062 158.946645,28.5131662 158.946645,28.5131662 L157.546041,26.6233173 C157.546041,26.6233173 150.904832,19.6168818 153.280512,16.7542329 C153.781134,16.1500729 154.306788,15.9008996 154.825614,15.9008996 Z" id="Combined-Shape" fill="#F8D230" mask="url(#mask-2)"></path>
                    </g>
                </g>
            </g>
        </g>
    </g>
</svg>