<?xml version="1.0" encoding="UTF-8"?>
<svg width="50px" height="50px" viewBox="0 0 50 50" version="1.1" xmlns="http://www.w3.org/2000/svg" xmlns:xlink="http://www.w3.org/1999/xlink">
    <!-- Generator: Sketch 61.2 (89653) - https://sketch.com -->
    <title>logo copy 3</title>
    <desc>Created with Sketch.</desc>
    <g id="V3-最新稿件" stroke="none" stroke-width="1" fill="none" fill-rule="evenodd">
        <g id="HOME-v3.0" transform="translate(-1012.000000, -6122.000000)">
            <g id="what-to-do" transform="translate(747.000000, 5928.000000)">
                <g id="logo-copy-3" transform="translate(266.000000, 195.000000)">
                    <g id="Group-20" transform="translate(0.347010, 0.347450)">
                        <path d="M23.5584343,-3.55271368e-15 C36.5695902,-3.55271368e-15 47.1174964,10.5466507 47.1174964,23.5584343 C47.1174964,36.5695902 36.5695902,47.1168687 23.5584343,47.1168687 C10.5479062,47.1168687 -5.40012479e-13,36.5695902 -5.40012479e-13,23.5584343 C-5.40012479e-13,10.5466507 10.5479062,-3.55271368e-15 23.5584343,-3.55271368e-15 Z" id="1b55aa" fill="#3E6CDE"></path>
                        <path d="M5.41287185,23.1608242 C5.79830388,19.8419656 10.7461463,16.9681743 12.8798328,17.6794032 C15.0128915,18.390632 15.5759738,21.9850681 15.5163385,22.6617713 C15.457331,23.3384744 9.02802342,27.7527383 9.02802342,27.7527383 C9.02802342,27.7527383 5.02806756,26.479055 5.41287185,23.1608242 Z" id="Fill-3" fill="#FFFFFF"></path>
                        <path d="M32.5921702,25.2442287 C32.5921702,25.2442287 32.7108129,24.4444886 33.1257487,23.5261057 C33.5406845,22.6070952 34.3988044,20.9781113 35.9405325,20.9774835 C38.3297089,20.9768558 42.1030508,24.2957143 41.9254005,27.7332156 C41.7477503,31.1694615 37.2606686,31.2586005 37.2606686,31.2586005 L32.5921702,25.2442287 Z" id="Fill-5" fill="#FFFFFF"></path>
                        <path d="M24.0789559,20.8495502 C15.2347346,20.0943796 6.74644156,27.0271343 7.23545061,33.5160771 C7.68616754,39.4984342 12.2127968,46.2704875 22.8391705,47.0702276 C30.1510797,47.6207551 35.7153623,43.1625495 37.6337341,38.8932934 C40.9224612,31.5751067 32.9231772,21.6053485 24.0789559,20.8495502 Z" id="Fill-7" fill="#FFFFFF"></path>
                        <path d="M14.5684519,25.1086369 C15.1905417,25.5750474 15.3060458,24.74957 14.968322,24.3308677 C14.3688308,23.5863687 14.1284066,24.1199473 14.1284066,24.1199473 C14.1284066,24.1199473 13.9463621,24.6422265 14.5684519,25.1086369 Z" id="Fill-9" fill="#FFFFFF"></path>
                        <path d="M32.7061049,27.0267576 C33.3281947,27.4931681 33.4436988,26.6683184 33.1066027,26.2496162 C32.5064837,25.5044894 32.2666873,26.038068 32.2666873,26.038068 C32.2666873,26.038068 32.0840151,26.5603472 32.7061049,27.0267576 Z" id="Fill-11" fill="#FFFFFF"></path>
                        <path d="M-5.40012479e-13,23.5584343 C-5.40012479e-13,10.5466507 10.5479062,-3.55271368e-15 23.5584343,-3.55271368e-15 C36.5695902,-3.55271368e-15 47.1174964,10.5466507 47.1174964,23.5584343 C47.1174964,36.5695902 36.5695902,47.1168687 23.5584343,47.1168687 C10.5479062,47.1168687 -5.40012479e-13,36.5695902 -5.40012479e-13,23.5584343 Z" id="Stroke-13" stroke="#3E6CDE" stroke-width="2"></path>
                        <path d="M32.5494211,42.1773124 C30.5287278,43.045476 29.4395998,45.0259941 30.116303,46.6003646 C30.516173,47.5313023 32.9988826,46.965709 33.8588856,46.7252848 C35.9216375,46.1496477 37.7320381,44.1509252 37.4332341,43.4553899 C36.756531,41.8810193 34.5694867,41.308521 32.5494211,42.1773124 Z" id="Fill-15" fill="#3E6CDE"></path>
                        <path d="M13.2284793,41.7616861 C15.2491726,42.6298497 16.3577605,44.563915 15.7055392,46.0817891 C15.3201072,46.9788288 12.3502718,46.6762583 11.4971738,46.4044471 C9.01509198,45.6153786 8.10110333,43.6072401 8.38923574,42.9368143 C9.04145704,41.4189403 11.2077859,40.8928947 13.2284793,41.7616861 Z" id="Fill-17" fill="#3E6CDE"></path>
                        <path d="M23.9975381,21.4489786 C23.9975381,21.4489786 21.78099,19.1100214 22.5731972,18.1539742 C23.3666599,17.1985547 24.3434225,18.9066338 24.4244009,19.5167966 C24.506007,20.1269593 24.5260947,18.2355803 25.5022296,18.7233339 C26.4783644,19.2123429 24.465204,22.0792291 24.465204,22.0792291 L23.9975381,21.4489786 Z" id="Fill-19" fill="#FFFFFF"></path>
                    </g>
                </g>
            </g>
        </g>
    </g>
</svg>