<?xml version="1.0" encoding="UTF-8"?>
<svg width="355px" height="384px" viewBox="0 0 355 384" version="1.1" xmlns="http://www.w3.org/2000/svg" xmlns:xlink="http://www.w3.org/1999/xlink">
    <!-- Generator: Sketch 61.2 (89653) - https://sketch.com -->
    <title>Rectangle Copy 66</title>
    <desc>Created with Sketch.</desc>
    <g id="V3-最新稿件" stroke="none" stroke-width="1" fill="none" fill-rule="evenodd">
        <g id="HOME-v3.1" transform="translate(-1102.000000, -2282.000000)" fill="#FFFFFF">
            <g id="artchiture" transform="translate(507.000000, 2281.000000)">
                <g id="async-" transform="translate(595.000000, 0.668959)">
                    <path d="M132,372.331041 C132,378.958458 126.627417,384.331041 120,384.331041 L12,384.331041 C5.372583,384.331041 7.91705186e-15,378.958458 0,372.331041 L0,133.331041 C-8.11624501e-16,126.703624 5.372583,121.331041 12,121.331041 L227,121.331041 L227,121.331041 L218,121.331041 C222.881803,121.331041 226.855791,117.444227 226.996163,112.596403 L227,112.331041 L227,12.3310411 C227,5.70362406 232.372583,0.331041057 239,0.331041057 L343,0.331041057 C349.627417,0.331041057 355,5.70362406 355,12.3310411 L355,229.331041 C355,235.958458 349.627417,241.331041 343,241.331041 L140.934,241.331041 L140.734638,241.334878 C135.974956,241.472697 132.141656,245.305997 132.003837,250.065679 L132,250.331041 L132,372.331041 Z" id="white-bg"></path>
                </g>
            </g>
        </g>
    </g>
</svg>