<?xml version="1.0" encoding="UTF-8"?>
<svg width="64px" height="66px" viewBox="0 0 64 66" version="1.1" xmlns="http://www.w3.org/2000/svg" xmlns:xlink="http://www.w3.org/1999/xlink">
    <!-- Generator: Sketch 61.2 (89653) - https://sketch.com -->
    <title>Group 6 Copy</title>
    <desc>Created with Sketch.</desc>
    <g id="V3-最新稿件" stroke="none" stroke-width="1" fill="none" fill-rule="evenodd">
        <g id="HOME-v3.1" transform="translate(-424.000000, -1362.000000)">
            <g id="highlights" transform="translate(328.000000, 1308.000000)">
                <g id="Group-9">
                    <g id="Group-15-Copy" transform="translate(10.000000, 10.000000)">
                        <g id="Group-6-Copy" transform="translate(89.342857, 47.880000)">
                            <g id="Group">
                                <path d="M34.4702308,1.25912644 C39.4502457,-1.02202877 54.0410275,-1.02202877 56.2618731,8.32620599 C58.2092285,16.523235 49.9960824,31.7749233 46.5286632,35.9007356 C47.5220263,35.9252825 48.721361,36.8581588 50.624683,36.7733651 C53.3618955,36.6514211 56.3527249,35.7014917 56.8163621,36.2982391 C57.2799993,36.8949865 54.7864477,39.7683588 49.1237194,40.3976794 C45.3992337,40.8115957 44.3542191,39.7264608 44.447068,38.4687093 C43.6640121,41.5992362 44.1132815,48.6698305 42.6444074,53.0731976 C41.4055411,56.7870511 38.6808155,58.7035127 34.4702308,58.8225823 C26.028355,57.8869394 28.9520183,44.4560042 28.2173221,39.1949027 C27.7502487,40.3541284 26.626809,41.5520837 24.8063226,42.4682446 C20.6781111,44.5457697 16.445741,42.2852094 16.445741,41.2650351 C16.445741,40.2448607 19.3446878,39.9465777 21.8532372,38.5972088 C23.185982,37.8803147 23.8106647,36.7397421 24.4871062,36.0129784 C24.2617553,35.9315041 24.0323914,35.8488962 23.8009243,35.7652954 C23.7561373,35.770823 23.7131813,35.7557478 23.6719241,35.7212071 C22.16588,35.1739028 20.5811355,34.581768 19.283917,33.7542656 L19.2382977,34.2961582 C15.8073135,39.3944814 13.0493569,41.943643 10.9644281,41.943643 C7.83703473,41.943643 6.41853223,38.4915888 2.7868028,27.9222558 C-0.844926633,17.3529227 -1.57492211,6.74410539 4.55637173,2.6585453 C8.64390095,-0.0651614274 14.4347291,0.0213168809 21.9288561,2.91798023 L21.9288561,2.91798023 L21.8995486,3.24113352 C23.7984725,1.91462586 26.3226861,1.0395031 29.4721894,0.615765255 C31.2780343,0.727832707 32.9443898,0.963955421 34.4712558,1.3241334 Z" id="Combined-Shape" stroke="#FFFFFF" stroke-width="6" fill="#FFFFFF"></path>
                                <path d="M30.2914876,1.10648557 C34.6677873,-0.898130679 47.4897637,-0.898130679 49.4413815,7.31684006 C51.3929993,15.5318108 41.7317936,31.8098198 39.8873522,32.4533698 C38.0429108,33.0969198 39.1077508,41.7438136 37.4747284,46.6392615 C36.3860469,49.9028935 33.9916333,51.587027 30.2914876,51.6916621 C21.4977253,50.7170184 26.7380822,34.3132409 24.0219562,32.7280422 C23.1976067,32.2469314 22.0869677,31.8526311 20.9150163,31.4293454 C20.8738948,31.4342219 20.8352781,31.4197884 20.7982299,31.3873842 C19.47612,30.9088661 18.0851859,30.3888547 16.9463785,29.6624476 L16.9060851,30.1385174 C13.8910309,34.6187831 11.4674148,36.858916 9.63523681,36.858916 C6.88696986,36.858916 5.64042901,33.8253461 2.4489654,24.5373078 C-0.742498209,15.2492696 -1.38399809,5.92653371 4.00401374,2.33625625 C7.59602162,-0.0572620643 12.6848416,0.0187326867 19.2704736,2.5642405 L19.2704736,2.5642405 L19.2453796,2.84775728 C20.9140263,1.68231743 23.1320154,0.913437508 25.8993468,0.541117514 C27.4860085,0.639582857 28.9501317,0.847028143 30.2917163,1.16345337 Z" id="Combined-Shape" fill="#F4D54B"></path>
                            </g>
                            <g id="Group">
                                <path d="M21.9288561,2.91798023 C14.4347291,0.0213168809 8.64390095,-0.0651614274 4.55637173,2.6585453 C-1.57492211,6.74410539 -0.844926633,17.3529227 2.7868028,27.9222558 C6.41853223,38.4915888 7.83703473,41.943643 10.9644281,41.943643 C13.0493569,41.943643 15.8073135,39.3944814 19.2382977,34.2961582" id="Path-5" stroke="#3E6CDE" stroke-width="3"></path>
                                <path d="M34.4702308,58.8225823 C38.6808155,58.7035127 41.4055411,56.7870511 42.6444074,53.0731976 C44.5027069,47.5024175 43.2909711,37.6626754 45.3898552,36.930347 C47.4887392,36.1980186 58.4827186,17.6744407 56.2618731,8.32620599 C54.0410275,-1.02202877 39.4502457,-1.02202877 34.4702308,1.25912644" id="Path-2" stroke="#3E6CDE" stroke-width="3"></path>
                                <path d="M46.0986457,33.1218606 C46.9900264,31.5281459 47.4357167,30.2663843 47.4357167,29.336576 C47.4357167,27.9418635 47.4357167,20.3234608 47.4357167,16.9766775 C47.4357167,13.6298942 48.9136865,16.354285 44.9788838,8.84409039 C42.3556821,3.83729402 37.1867839,1.09451897 29.4721894,0.615765255 C23.8425353,1.37318548 20.2107206,3.57280842 18.5767454,7.21463407 C16.1257827,12.6773726 16.6105724,13.2911163 16.6105724,17.7563071 C16.6105724,22.2214979 15.6037337,25.9628327 16.6105724,30.3352137 C17.6174111,34.7075948 24.2449923,35.4390323 27.3358108,37.2429107 C30.4266293,39.0467892 24.4633595,57.7134855 34.4702308,58.8225823" id="Path" stroke="#3E6CDE" stroke-width="3"></path>
                                <path d="M21.8532372,38.5972088 C24.3617867,37.2478399 24.3617867,34.3974465 26.9200891,35.6307991 C29.4783916,36.8641517 28.9345341,40.3907195 24.8063226,42.4682446 C20.6781111,44.5457697 16.445741,42.2852094 16.445741,41.2650351 C16.445741,40.2448607 19.3446878,39.9465777 21.8532372,38.5972088 Z" id="Path-4" stroke="#3E6CDE" stroke-width="3"></path>
                                <path d="M50.624683,36.7733651 C47.8874704,36.895309 46.6062444,34.9125076 45.2992301,36.5517862 C43.9922158,38.1910648 43.4609911,41.027 49.1237194,40.3976794 C54.7864477,39.7683588 57.2799993,36.8949865 56.8163621,36.2982391 C56.3527249,35.7014917 53.3618955,36.6514211 50.624683,36.7733651 Z" id="Path-4-Copy" stroke="#3E6CDE" stroke-width="3"></path>
                                <path d="M16.8224674,17.3529227 C20.3531027,15.08077 23.1110112,14.5426324 25.0961927,15.7385099 C28.073965,17.5323262 27.7943294,24.1166405 27.4350972,26.7421341 C27.075865,29.3676276 24.8381413,33.7785594 24.3126328,35.0527999 C23.9622938,35.9022935 23.678077,35.9941611 23.4599825,35.3284026" id="Path-6" stroke="#3E6CDE" stroke-width="3"></path>
                                <path d="M47.2448936,15.11995 C43.1459692,14.2534912 40.7583288,15.2143045 40.0819725,18.0023901 C39.0674381,22.1845184 46.3841899,34.2961582 47.2448936,34.2961582" id="Path-7" stroke="#3E6CDE" stroke-width="3"></path>
                                <path d="M21.7640094,17.5530311 C21.739428,17.1859103 22.3930648,16.9768421 23.3825697,16.9768421 C24.3720745,16.9768421 25.0508625,17.4861541 25.0508625,17.9063381 C25.0508625,18.3265221 24.5771782,19.2072535 23.4071008,19.0983546 C22.2370234,18.9894557 21.7885909,17.9201519 21.7640094,17.5530311 Z" id="Path-3" fill="#3E6CDE"></path>
                                <path d="M42.0865858,17.1157368 C42.0620044,16.748616 42.4337548,16.4775232 43.4232596,16.4775232 C44.4127645,16.4775232 45.0915524,16.9868352 45.0915524,17.4070192 C45.0915524,17.8272032 44.4127645,18.5757565 43.5562327,18.463457 C42.6997009,18.3511574 42.1111673,17.4828576 42.0865858,17.1157368 Z" id="Path-3-Copy" fill="#3E6CDE" transform="translate(43.588501, 17.476161) scale(-1, 1) translate(-43.588501, -17.476161) "></path>
                            </g>
                        </g>
                    </g>
                </g>
            </g>
        </g>
    </g>
</svg>