<?xml version="1.0" encoding="UTF-8"?>
<svg width="177px" height="128px" viewBox="0 0 177 128" version="1.1" xmlns="http://www.w3.org/2000/svg" xmlns:xlink="http://www.w3.org/1999/xlink">
    <!-- Generator: Sketch 61.2 (89653) - https://sketch.com -->
    <title>signature</title>
    <desc>Created with Sketch.</desc>
    <g id="V3-最新稿件" stroke="none" stroke-width="1" fill="none" fill-rule="evenodd">
        <g id="HOME-v3.1" transform="translate(-855.000000, -5434.000000)" fill="#F2D354" fill-rule="nonzero">
            <g id="signature" transform="translate(855.000000, 5434.000000)">
                <path d="M93.1628741,0.0465260268 C96.7531426,-0.267351565 99.3377067,1.00278335 99.8961611,3.98199724 C100.431512,6.83795728 98.89883,10.9607441 95.2516259,16.4813228 C88.1465582,27.2358856 77.380937,38.7601036 62.9533598,51.066746 L62.7093409,51.2740976 L62.6366759,51.4783059 C60.843994,56.4950037 59.0336237,61.098925 56.9409822,65.949821 L56.8041027,66.2665407 C49.6133446,82.8748189 41.0828509,97.0268969 25.5029684,117.846555 C19.8396205,125.414581 14.729319,128.851398 10.0200847,127.821331 C6.91156732,127.141395 3.57153908,121.321405 0,110.361362 C4.87796084,119.638787 8.42297429,124.519426 10.6350404,125.003279 C13.9066814,125.718896 18.1447205,122.868699 23.1971789,116.117015 C38.6503583,95.4666722 47.0666905,81.5039881 54.1606315,65.1193252 C55.608088,61.7761784 56.9186714,58.555417 58.180627,55.2366405 L58.2795917,54.9753028 L58.0085374,55.1979563 C55.3271866,57.3936301 50.1388264,60.8235318 42.4434569,65.4876614 C50.5544819,58.0556863 56.3508829,52.8708637 59.8326601,49.9331936 L60.2538913,49.5767353 L60.4466227,49.0298484 C62.1992905,44.0372752 63.9619897,38.5779485 65.9866763,32.022585 L68.0448244,25.3397035 C69.1929178,21.628639 69.6087829,20.3546965 70.2458224,18.5285151 L70.3573737,18.209488 C71.6625441,14.4846901 72.7220494,12.1673273 73.8274582,10.8511509 C78.3828428,5.42719396 87.1358865,0.573432688 93.1628741,0.0465260268 Z M97.0644586,4.51404925 C96.8325842,3.27705806 95.6995658,2.7202577 93.4135068,2.92011537 C88.1758421,3.37801584 80.1132278,7.84891831 76.0326349,12.7075553 C75.2465045,13.6435767 74.3164229,15.657775 73.167251,18.9054039 L72.810026,19.9282888 C72.189022,21.7251729 71.7117589,23.2223643 70.3103048,27.7696134 L68.7756428,32.7567864 C67.3188852,37.4755062 65.9963695,41.6328235 64.7156425,45.4592757 L64.5905437,45.8315412 L65.0849635,45.3952137 C77.1289733,34.7286686 86.2865751,24.7035961 92.556784,15.3289644 L92.8485852,14.8900049 C96.1155927,9.94490958 97.4231638,6.42765144 97.0644586,4.51404925 Z" id="路径-2"></path>
                <path d="M132.957498,48.8687539 C133.746836,47.1169056 136.329894,48.2784143 135.613956,50.0216039 L135.591246,50.0746034 L135.496854,50.2848971 C133.014015,55.8372748 131.169989,61.6689414 130.472783,66.0539951 L130.434676,66.2999328 C130.134334,68.2911743 130.099843,69.85735 130.316543,70.8180956 C130.362954,71.0238574 130.418225,71.1877451 130.47704,71.307483 C130.496102,71.3462907 130.513263,71.3763144 130.527743,71.3985485 L130.533243,71.4067105 L130.574564,71.4002431 C132.750795,71.0102412 136.805447,66.8407874 142.272294,59.0123666 C143.199469,57.6846708 145.257051,58.648899 144.852935,60.2217117 L144.226639,62.5947298 L144.117996,63.0139396 C143.89682,63.8751162 143.726152,64.5917165 143.581099,65.2833379 L143.532849,65.5175436 C142.765956,69.3095054 143.038256,71.4659663 144.382689,72.1284519 L144.40454,72.138781 L144.422342,72.1374085 L144.465458,72.1319169 C144.626139,72.1076777 144.853497,72.0360969 145.13502,71.9133271 C145.736801,71.6508954 146.51037,71.1893346 147.444183,70.5367289 L147.65842,70.3857199 C149.213019,69.2816002 150.877384,67.9272651 153.861411,65.3887923 L156.586179,63.0708812 C157.99652,61.8771231 158.752834,61.2556532 159.710599,60.4982761 L159.938281,60.3189919 C161.704838,58.9340059 163.074919,58.0044462 164.184449,57.4851052 C166.642037,56.3347746 170.913887,56.1858015 177,57.0381859 C171.489073,58.0842512 167.674413,59.0928 165.556019,60.0638322 L165.399828,60.1361835 C163.789099,60.890122 161.872218,62.3903519 156.77551,66.7279078 L155.175449,68.0895001 C152.497646,70.3599431 150.90562,71.64691 149.379587,72.7344799 L149.199118,72.8623872 C146.561053,74.7217887 144.800809,75.4894159 143.331011,74.8542176 C141.542504,74.0812836 140.567182,72.498354 140.298891,70.3752346 C140.153855,69.2274969 140.207826,67.9363399 140.431203,66.4441646 L140.444797,66.353799 L140.311044,66.5216744 L140.08626,66.800609 C136.429979,71.3148409 133.517228,73.7860729 131.177304,74.2584194 L131.079515,74.2770555 C129.222958,74.6097687 127.940819,73.4335713 127.497326,71.4673337 C127.172971,70.0293023 127.229027,68.0362328 127.617881,65.590546 C127.755043,64.7278724 127.932674,63.8166257 128.14748,62.8677065 L128.181542,62.7179159 L128.162994,62.7421182 C124.884871,66.9682879 121.07841,70.4702134 116.610944,73.2889183 L116.357362,73.4477382 C115.236558,74.144536 113.852179,73.0890064 114.207778,71.8087728 C114.930914,69.2053224 114.980693,67.3025591 114.455562,66.1204044 C113.999171,65.0929923 113.031809,64.5024974 111.330543,64.3448414 C107.887028,64.0257317 105.493783,66.9776798 104.191754,73.8834467 C103.851998,75.6854643 101.205111,75.3403706 101.329167,73.5102306 C101.773821,66.9504395 101.184045,63.0301989 99.9758591,61.8769808 L99.9421525,61.8457861 L99.9376416,61.8505752 C99.7335498,62.0639873 99.4773198,62.424525 99.1883451,62.9223796 L98.9739979,63.297842 C98.5875205,63.9820998 98.3937272,64.3892088 97.4380781,66.6006913 L96.387954,69.0365941 C95.3517145,71.4249686 94.6236081,72.9200541 93.824455,74.1840351 L93.7799821,74.2540227 C92.4978329,76.2616296 91.1689557,77.378357 89.5151804,77.2898691 C88.2651481,77.2229841 87.2723134,76.5687287 86.7191337,75.440303 C86.2645129,74.5129266 86.120144,73.3091119 86.2268668,71.8045112 C86.3188061,70.5083305 86.6035401,68.9420996 87.0804371,67.0994926 L87.1419801,66.8638197 L86.9899641,67.0328361 C81.7077012,72.889559 77.4451012,76.9132562 74.1703218,79.1207862 L74.0432327,79.2058749 C71.7320048,80.742621 69.821437,81.4389999 68.2081805,81.1849509 C66.3370932,80.8902997 65.1930516,79.4153844 64.7860859,77.136356 C64.164021,73.652762 65.4695817,70.371448 68.6560596,67.2554319 L68.7140257,67.1994509 L61.6190961,69.8941216 C48.8361664,74.7565443 39.3769961,78.3994041 33.2431066,80.8220966 L32.0727912,81.2855507 C21.9742643,85.2959525 14.6988659,86.2586384 5.68652706,83.1886955 C4.92989663,82.9309586 4.61457686,83.4136848 2.47028856,80.8593619 C-1.41595971,76.2299784 3.54550919,79.6839905 4.30213961,79.9417274 C12.6427197,82.7828438 21.528343,82.3337781 31.0151175,78.5663199 L31.8492058,78.2357577 C40.6995531,74.7350382 69.6191834,64.0944172 73.1983391,62.7421182 C76.7774949,61.3898191 90.1966347,55.8881056 91.4735417,56.8420213 C91.4735417,57.8254378 83.5796178,60.6844552 82.1745,61.2612452 C69.8611484,66.3157807 66.8472241,71.37907 67.6027123,76.4410307 L67.6316458,76.6175558 C67.8407274,77.7884233 68.1779829,78.2232181 68.6534423,78.2980915 C69.3867325,78.413567 70.6879611,77.9392849 72.4537792,76.7651843 C76.3882257,74.1491527 90.1899111,59.1710349 91.1081561,59.4527608 C92.0264011,59.7344868 89.2969105,69.616129 89.117017,71.9321346 L89.1109786,72.0133793 C89.0377829,73.0453091 89.1239062,73.7634453 89.3101882,74.1434401 C89.3979113,74.3223857 89.4563901,74.3609219 89.668082,74.3722488 C89.7731531,74.3778708 89.9418182,74.3084387 90.1966347,74.0943026 C90.5415032,73.8044909 90.9309637,73.3266199 91.3504266,72.6698191 L91.4278656,72.5472458 C92.0984498,71.4743543 92.7582768,70.1196199 93.691632,67.9742104 L95.1252494,64.6533779 C95.9776338,62.693636 96.1111536,62.462862 96.6453143,61.5290457 C97.1797507,60.5947475 97.6903435,59.911979 98.2544701,59.4527608 C99.1126129,58.7542034 100.144163,58.5697628 101.106917,59.1152478 C102.758524,60.0510294 103.736186,62.1097749 104.146125,65.3240322 L104.152914,65.3792268 L104.190789,65.3194158 C105.973551,62.5351694 108.386052,61.1916335 111.436282,61.4220228 L111.594621,61.4353438 C115.926994,61.8368238 117.952301,64.5258387 117.652658,68.9568856 L117.645422,69.0536399 L117.829686,68.9164298 C124.181327,64.1502342 128.997252,57.6435285 132.822322,49.169924 L132.957498,48.8687539 Z" id="路径-3"></path>
                <path d="M141,56.5553739 C134.023101,58.1673133 129.769216,58.9814693 128.238346,58.9978421 C125.789544,59.0240321 124.14011,58.8149636 121.848312,58.1988814 C121.084,57.9934187 120.796261,58.6871879 120.174657,56.5546562 C119.436735,53.7690841 121.228245,55.5349099 121.992557,55.7403726 C123.99025,56.2773935 126.058203,56.5344214 128.202158,56.5114917 L128.352157,56.5094495 C129.840725,56.4849632 134.056673,56.5002713 141,56.5553739 Z" id="路径-4"></path>
                <path d="M149,55 C153.123333,57.9306762 156.708581,61.391491 159.755745,65.3824445 L159.816782,65.4843125 C161.083952,67.5871311 163.368853,70.6290117 166.658536,74.5830197 C167.175264,75.2040968 167.096647,76.1315009 166.482941,76.6544348 C165.869234,77.1773688 164.952836,77.097808 164.436108,76.4767309 L163.949175,75.8892827 C160.831167,72.1132347 158.630607,69.1629187 157.336351,67.0151525 C156.424255,65.5015651 153.645471,61.4965143 149,55 Z" id="路径-5"></path>
                <path d="M144,49 C146.554523,49.681458 148.038141,50.1612054 148.450853,50.4392422 C149.069922,50.8562974 149.182435,51.6301806 148.70216,52.1677588 C148.231685,52.694366 147.167697,53.6088033 146.749857,52.4108764 C146.471297,51.6122585 145.554678,50.4752997 144,49 Z" id="路径-6"></path>
            </g>
        </g>
    </g>
</svg>